<svg width="600" height="868" viewBox="0 0 360 434" fill="none" xmlns="http://www.w3.org/2000/svg">
<path d="M171 434C290.846 434 388 336.846 388 217C388 97.1542 290.846 0 171 0C51.1542 0 -46 97.1542 -46 217C-46 336.846 51.1542 434 171 434Z" fill="url(#paint0_radial_149_5309)" fill-opacity="0.06"/>
<path d="M288 186H169V191H288V186Z" fill="#1581BF" fill-opacity="0.09"/>
<path d="M223.736 195.515H210.789V200.986H223.736V195.515Z" fill="#1581BF" fill-opacity="0.28"/>
<path d="M238.18 195.515H225.233V200.986H238.18V195.515Z" fill="#1581BF" fill-opacity="0.28"/>
<path d="M284.66 240.444H271.713V245.915H284.66V240.444Z" fill="#1581BF" fill-opacity="0.28"/>
<path d="M284.66 136.774H271.713V142.244H284.66V136.774Z" fill="#1581BF" fill-opacity="0.28"/>
<path d="M291.882 143.672H278.936V149.142H291.882V143.672Z" fill="#1581BF" fill-opacity="0.28"/>
<path d="M271.108 169.674H184.312V173.481H271.108V169.674Z" fill="#1581BF" fill-opacity="0.28"/>
<path d="M192.986 173.482H189.178V186.071H192.986V173.482Z" fill="#1581BF" fill-opacity="0.28"/>
<path d="M192.986 173.482H189.178V177.373H192.986V173.482Z" fill="#1581BF" fill-opacity="0.33"/>
<path d="M266.245 173.482H262.438V186.071H266.245V173.482Z" fill="#1581BF" fill-opacity="0.28"/>
<path d="M266.245 173.482H262.438V177.373H266.245V173.482Z" fill="#1581BF" fill-opacity="0.33"/>
<path d="M206.622 169.676V145.418H200.514V169.676H206.622Z" fill="#1581BF" fill-opacity="0.47"/>
<path d="M206.622 146.785V144.12H200.514V146.785H206.622Z" fill="#1581BF" fill-opacity="0.33"/>
<path d="M206.622 151.191V150.202H200.514V151.191H206.622Z" fill="#1581BF" fill-opacity="0.33"/>
<path d="M207.384 166.494V163.828H200.514V166.494H207.384Z" fill="#1581BF" fill-opacity="0.33"/>
<path d="M210.892 169.676V141.378H206.623V169.676H210.892Z" fill="#1581BF" fill-opacity="0.33"/>
<path d="M210.02 154.922V144.038H207.458V154.922H210.02Z" fill="#1581BF" fill-opacity="0.28"/>
<path d="M241.266 166.644L221.14 146.752L218.139 149.789L238.264 169.681L241.266 166.644Z" fill="#1581BF" fill-opacity="0.47"/>
<path d="M235.95 162.573L228.211 154.922L226.41 156.744L234.149 164.395L235.95 162.573Z" fill="#1581BF" fill-opacity="0.33"/>
<path d="M218.14 169.68V148.186H210.89V169.68H218.14Z" fill="#1581BF" fill-opacity="0.27"/>
<path d="M218.14 167.401V165.398H210.89V167.401H218.14Z" fill="#1581BF" fill-opacity="0.47"/>
<path d="M218.14 164.083V163.306H210.89V164.083H218.14Z" fill="#1581BF" fill-opacity="0.47"/>
<path d="M200.514 169.681V149.481H195.506V169.681H200.514Z" fill="#1581BF" fill-opacity="0.27"/>
<path d="M200.514 167.539V165.657H195.506V167.539H200.514Z" fill="#1581BF" fill-opacity="0.47"/>
<path d="M200.514 155.527V153.645H195.506V155.527H200.514Z" fill="#1581BF" fill-opacity="0.47"/>
<path d="M200.514 157.547V156.817H195.506V157.547H200.514Z" fill="#1581BF" fill-opacity="0.47"/>
<path d="M261.983 160.263L261.437 161.704L261.104 162.583L260.558 164.029L258.425 169.678H246.892L244.754 164.029L244.208 162.583L243.875 161.704L243.329 160.263L247.585 154.066L245.379 149.978H259.944L257.729 154.066L261.983 160.263Z" fill="#1581BF" fill-opacity="0.33"/>
<path d="M261.983 160.263L261.437 161.704H243.875L243.329 160.263H261.983Z" fill="#1581BF" fill-opacity="0.27"/>
<path d="M261.098 162.582L260.551 164.028H244.754L244.208 162.582H261.098Z" fill="#1581BF" fill-opacity="0.27"/>
<path d="M160.597 129.347H95.5623V229.067H160.597V129.347Z" fill="white" fill-opacity="0.59"/>
<path d="M126.568 133.342H99.1061V177.697H126.568V133.342Z" fill="#DBECF5"/>
<path d="M157.052 133.342H129.59V177.697H157.052V133.342Z" fill="#DBECF5"/>
<path d="M126.568 180.719H99.1061V225.073H126.568V180.719Z" fill="white"/>
<path d="M157.052 180.719H129.59V225.073H157.052V180.719Z" fill="#CCEEFF"/>
<path d="M110.965 129.347H95.5623V272.013H110.965V129.347Z" fill="white" fill-opacity="0.63"/>
<path d="M108.045 136.131L108.164 151.557L108.207 166.981L108.288 197.832L108.207 228.682L108.164 244.108L108.044 259.534L107.924 244.108L107.88 228.683L107.798 197.833L107.88 166.981L107.923 151.555L108.045 136.131Z" fill="white" fill-opacity="0.59"/>
<path d="M100.972 139.708L101.09 153.481L101.159 167.254L101.216 194.801L101.16 222.348L101.091 236.117L100.972 249.89L100.852 236.117L100.783 222.344L100.727 194.797L100.784 167.25L100.853 153.477L100.972 139.708Z" fill="white" fill-opacity="0.59"/>
<path d="M104.513 142.959L104.631 159.086L104.675 175.214L104.756 207.469L104.675 239.725L104.629 255.858L104.513 271.981L104.386 255.858L104.342 239.73L104.265 207.469L104.346 175.214L104.386 159.086L104.513 142.959Z" fill="white" fill-opacity="0.59"/>
<path d="M98.3421 136.943L98.4605 153.823L98.5038 170.703L98.5853 204.464L98.5038 238.224L98.4605 255.104L98.3408 271.984L98.2211 255.104L98.1778 238.224L98.0963 204.464L98.1778 170.703L98.2211 153.823L98.3421 136.943Z" fill="white" fill-opacity="0.59"/>
<path d="M145.193 272.013H160.596L160.596 129.348H145.193L145.193 272.013Z" fill="white" fill-opacity="0.63"/>
<path d="M148.114 136.131L148.233 151.557L148.276 166.981L148.357 197.832L148.276 228.682L148.233 244.108L148.113 259.534L147.993 244.108L147.95 228.682L147.869 197.832L147.95 166.981L147.993 151.555L148.114 136.131Z" fill="white" fill-opacity="0.59"/>
<path d="M155.187 139.708L155.305 153.481L155.374 167.254L155.431 194.801L155.375 222.348L155.306 236.121L155.187 249.894L155.067 236.121L154.997 222.35L154.941 194.802L154.997 167.255L155.066 153.482L155.187 139.708Z" fill="white" fill-opacity="0.59"/>
<path d="M151.65 142.959L151.769 159.086L151.812 175.214L151.893 207.469L151.812 239.725L151.77 255.858L151.65 271.985L151.531 255.858L151.487 239.73L151.406 207.474L151.487 175.219L151.531 159.091L151.65 142.959Z" fill="white" fill-opacity="0.59"/>
<path d="M157.817 136.943L157.936 153.823L157.979 170.703L158.061 204.464L157.979 238.224L157.936 255.104L157.816 271.984L157.696 255.104L157.653 238.224L157.572 204.464L157.653 170.703L157.696 153.823L157.817 136.943Z" fill="white" fill-opacity="0.59"/>
<path d="M62.0367 272.123H338.03" stroke="black" stroke-opacity="0.31" stroke-linecap="round" stroke-linejoin="round"/>
<path d="M197.355 323.355C262.554 323.355 315.409 316.775 315.409 308.658C315.409 300.54 262.554 293.96 197.355 293.96C132.156 293.96 79.3014 300.54 79.3014 308.658C79.3014 316.775 132.156 323.355 197.355 323.355Z" fill="#1581BF" fill-opacity="0.17"/>
<path d="M257.737 281.468H141.858L178.243 196.547H294.121L257.737 281.468Z" fill="#1581BF"/>
<path d="M179.1 198.358H293.345L257.737 281.468H143.925L179.1 198.358Z" fill="white" fill-opacity="0.59"/>
<path d="M179.1 198.358C179.563 206.365 178.645 214.392 176.386 222.087C172.658 234.282 154.185 258.702 150.591 275.174L143.925 281.467H257.737L293.345 198.356L179.1 198.358Z" fill="white" fill-opacity="0.63"/>
<path d="M179.1 198.358C178.994 199.589 177.793 215.899 173.017 226.435C167.691 238.182 154.843 256.977 150.083 274.205" stroke="white" stroke-opacity="0.63" stroke-miterlimit="10"/>
<path d="M177.936 203.289C176.673 211.805 174.146 220.084 170.437 227.853C164.324 240.571 153.797 256.578 148.897 276.779" stroke="white" stroke-opacity="0.63" stroke-miterlimit="10"/>
<path d="M215.251 286.18H326.533L288.866 198.358H179.1C179.1 198.358 178.668 211.653 185.95 230.891C192.81 249.016 205.5 259.911 215.251 286.18Z" fill="white"/>
<path d="M214.598 286.18C205.294 263.036 191.731 250.879 184.755 234.151C179.343 221.173 179.1 198.358 179.1 198.358" stroke="white" stroke-width="2" stroke-miterlimit="10"/>
<path d="M180.19 200.893C180.19 200.893 182.826 222.196 192.702 239.912C202.578 257.629 207.438 264.258 212.567 276.378" stroke="white" stroke-opacity="0.59" stroke-miterlimit="10"/>
<path d="M217.543 287.99H333.422L294.201 196.546H178.323L217.543 287.99Z" fill="#1581BF" fill-opacity="0.39"/>
<path d="M292.336 287.99H317.831L278.61 196.546H253.116L292.336 287.99Z" fill="#1581BF" fill-opacity="0.47"/>
<path d="M229.593 287.99H238.825L199.605 196.546H190.373L229.593 287.99Z" fill="#1581BF" fill-opacity="0.47"/>
<path d="M179.099 198.358H294.978L296.208 195.459H177.038L179.099 198.358Z" fill="#1581BF"/>
<path d="M299.959 241.733C298.77 240.877 260.813 229.1 259.084 229.566C258.895 229.619 258.495 231.326 256.781 235.562C256.699 235.763 238.638 257.658 238.638 257.658L263.356 270.704L277.462 250.815C277.462 250.815 295.108 247.469 296.956 246.757C298.803 246.045 301.149 242.588 299.959 241.733Z" fill="#FFC3BD"/>
<path d="M299.959 241.733C298.77 240.877 260.813 229.1 259.083 229.566C258.895 229.619 258.495 231.326 256.781 235.562C256.698 235.763 254.227 238.631 253.015 240.194C254.587 241.545 269.753 252.251 273.92 255.809L277.464 250.814C277.464 250.814 295.109 247.467 296.957 246.755C298.804 246.044 301.149 242.588 299.959 241.733Z" fill="#F5970C"/>
<path d="M266.314 233.255C266.121 233.686 265.876 234.092 265.584 234.463C265.009 235.214 264.264 235.817 263.411 236.225C262.544 236.628 261.588 236.804 260.635 236.734C259.69 236.64 258.777 236.349 257.953 235.878C257.907 235.854 257.953 235.783 257.996 235.808C258.817 236.205 259.719 236.404 260.631 236.388C261.542 236.371 262.437 236.14 263.242 235.714C264.009 235.313 264.675 234.742 265.188 234.046C265.437 233.705 265.651 233.34 265.825 232.956C265.911 232.764 265.986 232.568 266.049 232.367C266.114 232.164 266.131 231.993 266.327 231.878C266.373 231.854 266.428 231.848 266.479 231.863C266.53 231.878 266.573 231.912 266.599 231.957C266.809 232.282 266.454 232.939 266.314 233.255Z" fill="white"/>
<path d="M291.969 247.898C291.135 247.585 290.418 247.02 289.918 246.283C289.361 245.537 288.899 244.724 288.544 243.864C288.186 243.02 287.936 242.134 287.799 241.228C287.733 240.786 287.693 240.342 287.678 239.896C287.636 239.442 287.663 238.984 287.757 238.538C287.762 238.522 287.772 238.507 287.786 238.496C287.799 238.486 287.816 238.48 287.834 238.48C287.851 238.48 287.868 238.486 287.882 238.496C287.896 238.507 287.906 238.522 287.911 238.538C287.969 238.935 288.005 239.335 288.02 239.737C288.068 240.181 288.138 240.622 288.23 241.06C288.409 241.911 288.664 242.744 288.994 243.549C289.596 245.177 290.686 246.578 292.115 247.563C292.151 247.587 292.178 247.623 292.19 247.665C292.202 247.707 292.199 247.751 292.181 247.791C292.164 247.831 292.133 247.863 292.094 247.883C292.056 247.902 292.011 247.907 291.969 247.898Z" fill="white"/>
<path d="M273.934 251.211C269.319 247.88 264.726 244.517 260.078 241.233C258.762 240.302 257.453 239.356 256.121 238.447C256.076 238.416 256.127 238.355 256.171 238.383C261.057 241.319 265.78 244.518 270.32 247.964C271.6 248.952 272.844 249.987 274.082 251.028C274.106 251.047 274.122 251.076 274.125 251.107C274.128 251.138 274.119 251.169 274.1 251.193C274.08 251.218 274.052 251.233 274.021 251.236C273.989 251.24 273.958 251.231 273.934 251.211Z" fill="white"/>
<path d="M256.551 239.192C256.534 239.226 256.511 239.258 256.482 239.283C256.449 239.309 256.412 239.332 256.378 239.356L256.179 239.483C256.038 239.577 255.895 239.666 255.747 239.751C255.461 239.914 255.168 240.063 254.871 240.206C254.829 240.227 254.791 240.161 254.832 240.136C255.109 239.964 255.382 239.784 255.651 239.598C255.778 239.507 255.913 239.418 256.045 239.329L256.254 239.185C256.315 239.132 256.388 239.095 256.467 239.076C256.481 239.073 256.496 239.075 256.51 239.081C256.524 239.086 256.536 239.096 256.544 239.108C256.553 239.12 256.558 239.134 256.559 239.149C256.561 239.163 256.558 239.178 256.551 239.192Z" fill="white"/>
<path d="M258.705 240.779C258.689 240.814 258.665 240.845 258.637 240.871C258.603 240.897 258.568 240.919 258.532 240.944L258.333 241.071C258.192 241.165 258.049 241.254 257.902 241.338C257.615 241.501 257.322 241.65 257.026 241.794C256.985 241.815 256.945 241.748 256.986 241.724C257.264 241.552 257.536 241.37 257.805 241.186C257.932 241.095 258.069 241.006 258.2 240.917L258.407 240.773C258.468 240.72 258.541 240.683 258.62 240.663C258.635 240.661 258.65 240.662 258.664 240.668C258.678 240.673 258.69 240.683 258.699 240.695C258.708 240.707 258.713 240.721 258.714 240.736C258.715 240.751 258.712 240.766 258.705 240.779Z" fill="white"/>
<path d="M260.858 242.367C260.841 242.402 260.818 242.433 260.789 242.459C260.756 242.484 260.72 242.507 260.684 242.532L260.486 242.659C260.344 242.753 260.202 242.842 260.054 242.926C259.768 243.089 259.475 243.238 259.178 243.382C259.136 243.403 259.098 243.336 259.138 243.312C259.416 243.14 259.689 242.958 259.956 242.772L260.351 242.504L260.56 242.36C260.621 242.307 260.694 242.269 260.772 242.25C260.787 242.247 260.803 242.249 260.817 242.254C260.831 242.26 260.843 242.27 260.852 242.282C260.861 242.294 260.866 242.309 260.867 242.324C260.868 242.339 260.865 242.354 260.858 242.367Z" fill="white"/>
<path d="M263.009 243.954C262.993 243.989 262.97 244.02 262.941 244.046C262.908 244.071 262.872 244.094 262.836 244.118L262.638 244.246C262.496 244.34 262.355 244.429 262.207 244.513C261.919 244.676 261.627 244.825 261.331 244.969C261.289 244.989 261.251 244.923 261.292 244.898C261.569 244.727 261.842 244.545 262.11 244.359C262.238 244.268 262.374 244.181 262.505 244.09L262.713 243.946C262.774 243.894 262.847 243.856 262.925 243.837C262.94 243.834 262.955 243.836 262.969 243.842C262.983 243.847 262.995 243.857 263.004 243.869C263.013 243.881 263.018 243.896 263.019 243.911C263.02 243.926 263.017 243.941 263.009 243.954Z" fill="white"/>
<path d="M265.164 245.542C265.148 245.577 265.124 245.608 265.095 245.634C265.062 245.659 265.027 245.682 264.991 245.706L264.792 245.833C264.651 245.928 264.508 246.017 264.361 246.101C264.074 246.264 263.781 246.413 263.483 246.557C263.442 246.577 263.404 246.511 263.444 246.485C263.723 246.315 263.994 246.133 264.263 245.947C264.39 245.856 264.526 245.769 264.657 245.678L264.865 245.534C264.926 245.482 264.999 245.444 265.077 245.425C265.093 245.422 265.108 245.423 265.122 245.428C265.137 245.434 265.149 245.443 265.158 245.456C265.167 245.468 265.173 245.483 265.174 245.498C265.175 245.513 265.171 245.528 265.164 245.542Z" fill="white"/>
<path d="M267.316 247.13C267.3 247.165 267.276 247.196 267.247 247.221C267.214 247.247 267.177 247.27 267.143 247.294L266.944 247.421C266.803 247.514 266.66 247.605 266.513 247.689C266.226 247.852 265.933 248.001 265.637 248.145C265.595 248.164 265.556 248.099 265.597 248.073C265.875 247.903 266.147 247.721 266.415 247.535C266.542 247.444 266.678 247.356 266.809 247.266L267.018 247.122C267.08 247.07 267.152 247.032 267.231 247.013C267.246 247.01 267.261 247.011 267.275 247.017C267.289 247.022 267.302 247.032 267.311 247.044C267.32 247.057 267.325 247.071 267.326 247.086C267.327 247.101 267.323 247.116 267.316 247.13Z" fill="white"/>
<path d="M269.47 248.715C269.453 248.75 269.43 248.781 269.401 248.807C269.368 248.832 269.332 248.855 269.296 248.878L269.098 249.006C268.956 249.1 268.814 249.189 268.666 249.273C268.38 249.436 268.087 249.585 267.789 249.729C267.748 249.748 267.708 249.683 267.749 249.658C268.027 249.487 268.299 249.305 268.568 249.119C268.695 249.028 268.832 248.941 268.963 248.85L269.17 248.706C269.232 248.654 269.305 248.616 269.384 248.597C269.399 248.594 269.415 248.595 269.429 248.601C269.444 248.606 269.456 248.616 269.465 248.629C269.474 248.641 269.479 248.656 269.48 248.671C269.481 248.687 269.477 248.702 269.47 248.715Z" fill="white"/>
<path d="M271.623 250.303C271.606 250.339 271.583 250.37 271.554 250.396C271.521 250.422 271.485 250.444 271.449 250.467L271.251 250.601C271.109 250.694 270.967 250.784 270.819 250.867C270.533 251.03 270.24 251.179 269.943 251.323C269.901 251.342 269.863 251.277 269.903 251.252C270.181 251.081 270.454 250.899 270.721 250.713C270.848 250.623 270.985 250.535 271.116 250.444L271.323 250.301C271.385 250.248 271.457 250.21 271.536 250.191C271.55 250.189 271.565 250.19 271.579 250.195C271.592 250.201 271.604 250.21 271.613 250.221C271.622 250.233 271.627 250.246 271.629 250.261C271.631 250.275 271.629 250.29 271.623 250.303Z" fill="white"/>
<path d="M273.775 251.897C273.759 251.932 273.736 251.963 273.707 251.989C273.674 252.015 273.637 252.038 273.603 252.06L273.404 252.188C273.263 252.282 273.12 252.371 272.973 252.455C272.686 252.618 272.393 252.767 272.096 252.911C272.054 252.931 272.016 252.865 272.057 252.841C272.335 252.67 272.607 252.488 272.876 252.302C273.003 252.212 273.139 252.124 273.271 252.034L273.479 251.89C273.541 251.837 273.613 251.799 273.692 251.78C273.707 251.778 273.722 251.78 273.735 251.786C273.749 251.792 273.761 251.801 273.77 251.813C273.778 251.825 273.783 251.84 273.784 251.855C273.785 251.869 273.782 251.884 273.775 251.897Z" fill="white"/>
<path d="M270.634 261L248.831 243.842C248.831 243.842 226.446 272.45 226.066 272.643C216.1 272.856 206.167 273.863 196.361 275.655C193.827 276.164 180.324 269.568 165.224 282.277L167.496 305.931C191.244 309.329 224.372 304.216 238.49 299.595C251.821 295.228 270.634 261 270.634 261Z" fill="#67AED6"/>
<path d="M267.582 263.238C262.678 259.185 257.728 255.194 252.575 251.461C251.108 250.397 249.597 249.396 248.154 248.301C248.105 248.264 248.054 248.343 248.102 248.38C249.36 249.361 250.55 250.418 251.786 251.429C253.021 252.44 254.255 253.438 255.503 254.426C257.992 256.396 260.563 258.258 263.121 260.138C264.581 261.211 266.05 262.265 267.528 263.321C267.581 263.354 267.628 263.276 267.582 263.238Z" fill="#455A64"/>
<path d="M250.846 253.382C246.921 258.603 242.977 263.806 239.073 269.045C237.121 271.663 235.163 274.278 233.202 276.889C232.478 278.099 231.361 279.024 230.038 279.511C229.323 279.686 228.596 279.807 227.862 279.871L225.435 280.17C218.991 280.965 212.547 281.771 206.1 282.55C204.493 282.776 202.873 282.895 201.251 282.908C199.631 282.838 198.019 282.64 196.43 282.316C193.543 281.823 190.609 281.667 187.687 281.853C181.893 282.298 176.235 283.836 171.013 286.385C170.35 286.699 169.691 287.021 169.038 287.359C168.983 287.387 169.038 287.466 169.088 287.44C174.472 284.805 180.28 283.143 186.244 282.531C189.179 282.243 192.138 282.301 195.06 282.706C196.622 282.932 198.166 283.28 199.738 283.429C201.351 283.553 202.972 283.515 204.577 283.316C207.815 282.973 211.046 282.528 214.279 282.129L223.987 280.932C225.597 280.733 227.215 280.566 228.82 280.33C230.131 280.222 231.368 279.674 232.329 278.776C233.304 277.676 234.197 276.507 235.003 275.278C235.989 273.931 236.979 272.587 237.974 271.248C241.848 266.001 245.69 260.732 249.544 255.472L250.992 253.497C251.049 253.406 250.908 253.301 250.846 253.382Z" fill="#455A64"/>
<path d="M238.311 200.423C237.094 201.237 212.763 232.661 212.588 234.442C212.572 234.638 214.031 235.609 217.398 238.7C217.706 239.743 217.867 240.824 217.878 241.911C218.455 248.816 218.93 264.419 218.93 264.419L244.417 258.15L240.061 231.584L238.93 224.675C238.93 224.675 241.98 206.975 241.96 204.996C241.941 203.017 239.527 199.609 238.311 200.423Z" fill="#FFC3BD"/>
<path d="M238.311 200.423C237.094 201.237 212.763 232.662 212.588 234.442C212.572 234.638 214.031 235.609 217.398 238.7C217.706 239.743 217.867 240.824 217.878 241.911C222.048 239.899 234.859 233.981 240.061 231.582L238.93 224.672C238.93 224.672 241.98 206.972 241.96 204.993C241.941 203.014 239.527 199.609 238.311 200.423Z" fill="#F5970C"/>
<path d="M218.582 228.966C218.919 229.298 219.213 229.67 219.46 230.074C219.962 230.876 220.268 231.785 220.351 232.728C220.424 233.681 220.251 234.637 219.851 235.505C219.432 236.356 218.839 237.11 218.11 237.717C218.07 237.751 218.019 237.686 218.06 237.652C218.72 237.023 219.222 236.247 219.526 235.387C219.83 234.528 219.927 233.609 219.81 232.705C219.703 231.846 219.402 231.023 218.929 230.298C218.697 229.946 218.429 229.619 218.13 229.321C217.981 229.173 217.823 229.034 217.657 228.905C217.488 228.778 217.334 228.699 217.296 228.473C217.29 228.421 217.303 228.368 217.335 228.325C217.367 228.283 217.413 228.254 217.466 228.245C217.844 228.161 218.337 228.724 218.582 228.966Z" fill="white"/>
<path d="M241.284 210.068C240.699 210.74 239.919 211.213 239.053 211.424C238.158 211.683 237.234 211.831 236.302 211.862C235.386 211.901 234.469 211.825 233.572 211.637C233.135 211.543 232.705 211.425 232.282 211.283C231.842 211.162 231.422 210.977 231.037 210.732C231.024 210.722 231.013 210.707 231.009 210.69C231.004 210.673 231.005 210.656 231.011 210.639C231.017 210.623 231.029 210.609 231.044 210.6C231.059 210.591 231.076 210.587 231.094 210.589C231.486 210.674 231.874 210.779 232.255 210.906C232.688 211.017 233.126 211.105 233.568 211.172C234.427 211.304 235.297 211.356 236.167 211.328C237.903 211.336 239.598 210.806 241.021 209.812C241.186 209.691 241.416 209.9 241.284 210.068Z" fill="white"/>
<path d="M238.376 228.946C233.252 231.422 228.11 233.864 223.01 236.393C221.564 237.108 220.11 237.81 218.68 238.55C218.633 238.575 218.604 238.5 218.648 238.475C223.554 235.572 228.612 232.936 233.802 230.58C235.279 229.922 236.781 229.32 238.285 228.727C238.3 228.721 238.315 228.718 238.331 228.718C238.346 228.718 238.362 228.721 238.376 228.727C238.39 228.733 238.403 228.742 238.414 228.753C238.425 228.764 238.434 228.777 238.44 228.791C238.446 228.805 238.449 228.821 238.449 228.836C238.449 228.852 238.446 228.867 238.44 228.882C238.434 228.896 238.425 228.909 238.414 228.92C238.403 228.931 238.39 228.94 238.376 228.946Z" fill="white"/>
<path d="M219.532 238.52C219.556 238.552 219.572 238.587 219.581 238.625C219.587 238.666 219.59 238.709 219.595 238.752C219.603 238.832 219.611 238.911 219.618 238.99C219.633 239.16 219.645 239.328 219.648 239.5C219.648 239.829 219.648 240.158 219.632 240.488C219.632 240.534 219.553 240.536 219.55 240.488C219.531 240.162 219.501 239.836 219.465 239.511C219.447 239.353 219.433 239.194 219.417 239.036C219.408 238.951 219.399 238.866 219.389 238.781C219.37 238.703 219.37 238.621 219.389 238.542C219.393 238.527 219.401 238.514 219.413 238.504C219.424 238.494 219.438 238.488 219.454 238.485C219.469 238.483 219.484 238.485 219.498 238.491C219.512 238.498 219.524 238.508 219.532 238.52Z" fill="white"/>
<path d="M221.952 237.382C221.975 237.413 221.991 237.448 222 237.485C222.007 237.527 222.009 237.569 222.014 237.613C222.022 237.691 222.029 237.77 222.037 237.851C222.052 238.02 222.064 238.187 222.068 238.36C222.074 238.69 222.068 239.018 222.051 239.347C222.051 239.393 221.972 239.395 221.97 239.347C221.95 239.021 221.92 238.695 221.884 238.37C221.866 238.212 221.852 238.053 221.836 237.895C221.828 237.811 221.818 237.727 221.809 237.641C221.79 237.562 221.79 237.48 221.809 237.401C221.814 237.387 221.823 237.374 221.834 237.365C221.846 237.355 221.86 237.349 221.875 237.347C221.889 237.345 221.904 237.347 221.918 237.354C221.932 237.36 221.943 237.37 221.952 237.382Z" fill="white"/>
<path d="M224.372 236.242C224.396 236.273 224.412 236.309 224.421 236.347C224.428 236.387 224.431 236.431 224.435 236.474C224.442 236.554 224.45 236.633 224.458 236.712C224.473 236.882 224.483 237.05 224.487 237.222C224.493 237.551 224.487 237.88 224.472 238.21C224.472 238.256 224.393 238.258 224.39 238.21C224.371 237.884 224.34 237.559 224.305 237.233C224.287 237.075 224.273 236.916 224.256 236.758C224.248 236.674 224.239 236.59 224.23 236.503C224.211 236.425 224.211 236.343 224.23 236.264C224.234 236.25 224.243 236.237 224.254 236.227C224.265 236.217 224.279 236.211 224.294 236.209C224.309 236.206 224.324 236.208 224.338 236.214C224.352 236.22 224.364 236.23 224.372 236.242Z" fill="white"/>
<path d="M226.792 235.103C226.815 235.133 226.831 235.168 226.84 235.206C226.848 235.248 226.85 235.29 226.854 235.333C226.863 235.412 226.871 235.491 226.877 235.571C226.893 235.741 226.904 235.909 226.908 236.081C226.914 236.41 226.908 236.739 226.893 237.069C226.893 237.115 226.814 237.117 226.811 237.069C226.792 236.743 226.761 236.418 226.726 236.092C226.708 235.934 226.694 235.775 226.677 235.617C226.668 235.533 226.659 235.449 226.651 235.362C226.632 235.284 226.632 235.202 226.651 235.123C226.655 235.109 226.664 235.097 226.675 235.087C226.687 235.078 226.7 235.072 226.715 235.07C226.73 235.068 226.745 235.069 226.758 235.075C226.772 235.081 226.783 235.091 226.792 235.103Z" fill="white"/>
<path d="M229.213 233.963C229.236 233.994 229.252 234.03 229.261 234.067C229.267 234.108 229.27 234.151 229.275 234.195C229.283 234.274 229.292 234.353 229.298 234.433C229.313 234.601 229.325 234.769 229.329 234.942C229.335 235.272 229.329 235.601 229.312 235.93C229.312 235.976 229.233 235.979 229.231 235.93C229.211 235.604 229.181 235.278 229.145 234.954C229.127 234.796 229.113 234.638 229.097 234.479C229.088 234.394 229.079 234.309 229.069 234.224C229.05 234.145 229.05 234.063 229.069 233.985C229.073 233.97 229.081 233.957 229.093 233.947C229.105 233.937 229.119 233.93 229.134 233.928C229.149 233.926 229.164 233.928 229.178 233.934C229.192 233.94 229.204 233.95 229.213 233.963Z" fill="white"/>
<path d="M231.633 232.823C231.656 232.854 231.673 232.889 231.682 232.926C231.688 232.968 231.691 233.01 231.696 233.054C231.703 233.133 231.712 233.213 231.719 233.292C231.734 233.461 231.745 233.629 231.749 233.801C231.755 234.131 231.749 234.46 231.733 234.789C231.733 234.835 231.654 234.838 231.651 234.789C231.632 234.463 231.601 234.137 231.566 233.813C231.548 233.655 231.534 233.496 231.517 233.338C231.51 233.254 231.499 233.17 231.491 233.083C231.472 233.004 231.472 232.922 231.491 232.844C231.495 232.829 231.504 232.817 231.515 232.807C231.527 232.797 231.541 232.791 231.556 232.789C231.57 232.787 231.586 232.789 231.599 232.795C231.613 232.801 231.625 232.811 231.633 232.823Z" fill="white"/>
<path d="M234.054 231.684C234.077 231.715 234.094 231.75 234.102 231.788C234.11 231.83 234.113 231.872 234.116 231.915C234.124 231.994 234.132 232.073 234.139 232.153C234.155 232.323 234.166 232.49 234.17 232.663C234.176 232.993 234.17 233.321 234.153 233.651C234.153 233.697 234.074 233.699 234.072 233.651C234.053 233.325 234.022 232.999 233.986 232.674C233.969 232.516 233.955 232.357 233.938 232.198C233.93 232.114 233.92 232.03 233.911 231.943C233.892 231.865 233.892 231.783 233.911 231.704C233.916 231.69 233.925 231.677 233.936 231.667C233.947 231.658 233.961 231.651 233.976 231.649C233.991 231.647 234.006 231.649 234.02 231.655C234.034 231.661 234.046 231.671 234.054 231.684Z" fill="white"/>
<path d="M236.467 230.545C236.49 230.576 236.507 230.612 236.516 230.65C236.523 230.69 236.526 230.734 236.53 230.777C236.538 230.857 236.546 230.936 236.552 231.015C236.568 231.184 236.579 231.352 236.583 231.524C236.589 231.854 236.583 232.183 236.568 232.512C236.568 232.558 236.489 232.561 236.486 232.512C236.467 232.186 236.437 231.862 236.401 231.536C236.383 231.378 236.369 231.219 236.353 231.061C236.344 230.977 236.335 230.893 236.326 230.806C236.307 230.727 236.307 230.645 236.326 230.567C236.33 230.553 236.339 230.54 236.35 230.531C236.361 230.521 236.375 230.515 236.39 230.513C236.404 230.51 236.419 230.512 236.433 230.518C236.447 230.524 236.458 230.533 236.467 230.545Z" fill="white"/>
<path d="M238.893 229.405C238.916 229.436 238.932 229.471 238.941 229.509C238.948 229.551 238.951 229.593 238.955 229.636C238.963 229.715 238.972 229.794 238.978 229.874C238.993 230.043 239.005 230.212 239.009 230.383C239.015 230.713 239.009 231.042 238.992 231.37C238.992 231.416 238.913 231.419 238.911 231.37C238.892 231.044 238.861 230.718 238.825 230.394C238.808 230.236 238.794 230.077 238.777 229.919C238.768 229.835 238.759 229.751 238.749 229.664C238.73 229.585 238.73 229.503 238.749 229.425C238.754 229.41 238.762 229.397 238.774 229.387C238.786 229.378 238.8 229.371 238.815 229.369C238.83 229.367 238.845 229.37 238.859 229.376C238.873 229.382 238.885 229.393 238.893 229.405Z" fill="white"/>
<path d="M241.363 239.028L215.65 244.49C215.65 244.49 218.734 280.502 218.622 280.909C210.781 281.898 202.876 282.281 194.976 282.055C194.976 282.055 177.295 274.37 165.225 287.631L163.508 310.897C197.14 314.972 242.167 313.085 248.136 301.632C254.622 289.194 241.363 239.028 241.363 239.028Z" fill="#67AED6"/>
<path d="M218.561 280.749C215.708 280.749 210.92 281.287 208.072 281.398C205.242 281.507 202.414 281.674 199.586 281.821C197.958 281.905 196.597 281.804 194.975 281.96C194.962 281.96 194.95 281.964 194.942 281.973C194.933 281.982 194.928 281.994 194.928 282.007C194.928 282.019 194.933 282.031 194.942 282.04C194.95 282.049 194.962 282.054 194.975 282.054C200.57 282.355 206.18 282.244 211.759 281.723C213.388 281.576 217.012 281.19 218.628 280.948C218.707 280.94 218.841 280.749 218.561 280.749Z" fill="#455A64"/>
<path d="M193.372 279.599C192.316 278.43 191.13 277.386 189.835 276.489C189.791 276.457 189.74 276.53 189.779 276.564C190.907 277.625 191.967 278.756 192.953 279.95C194.021 281.102 195.003 282.331 195.889 283.628C195.893 283.632 195.899 283.635 195.905 283.636C195.911 283.637 195.918 283.636 195.923 283.632C195.928 283.629 195.932 283.624 195.934 283.618C195.936 283.612 195.936 283.605 195.934 283.6C195.223 282.179 194.364 280.838 193.372 279.599Z" fill="#455A64"/>
<path d="M249.927 284.308C249.896 283.034 249.784 281.761 249.686 280.498C249.493 277.983 249.243 275.474 248.908 272.974C248.232 267.94 247.358 262.939 246.234 257.984C245.919 256.6 245.597 255.217 245.242 253.841C244.922 252.431 244.522 251.041 244.044 249.677C244.003 249.571 243.811 249.581 243.831 249.711C244.013 250.93 244.34 252.139 244.609 253.341C244.878 254.543 245.157 255.782 245.415 257.005C245.943 259.5 246.427 262.004 246.866 264.518C247.742 269.511 248.451 274.526 249.043 279.559C249.21 280.973 249.35 282.39 249.503 283.805C249.579 284.513 249.864 290.172 249.878 290.904C249.878 290.966 249.979 290.962 249.973 290.904C249.914 290.274 249.971 286.201 249.927 284.308Z" fill="#455A64"/>
<path d="M218.559 276.839C218.488 275.523 218.299 274.216 217.995 272.934C217.991 272.928 217.986 272.923 217.98 272.92C217.973 272.917 217.966 272.916 217.959 272.917C217.952 272.918 217.946 272.921 217.941 272.926C217.936 272.931 217.932 272.937 217.93 272.944C217.848 274.298 217.894 275.656 218.068 277.001C218.192 278.313 218.382 279.618 218.638 280.912C218.643 280.919 218.651 280.925 218.659 280.929C218.668 280.932 218.677 280.934 218.686 280.932C218.695 280.931 218.704 280.927 218.71 280.92C218.717 280.914 218.722 280.906 218.725 280.898C218.742 279.543 218.686 278.188 218.559 276.839Z" fill="#455A64"/>
<path d="M242.261 288.329C242.164 283.798 241.853 279.274 241.396 274.766C240.495 265.873 239.025 257.042 237.449 248.245C237.256 247.165 237.062 246.086 236.868 245.008C236.857 244.947 236.767 244.976 236.778 245.035C238.247 253.834 239.755 262.635 240.753 271.504C241.249 275.907 241.628 280.326 241.816 284.753C241.908 286.902 241.962 289.054 241.944 291.204C241.974 293.009 241.808 294.811 241.447 296.579C241.097 298.332 240.279 299.958 239.08 301.283C237.793 302.543 236.228 303.481 234.511 304.022C232.651 304.633 230.75 305.109 228.821 305.449C226.699 305.869 224.561 306.212 222.406 306.479C213.785 307.41 205.108 307.716 196.443 307.394C187.567 307.216 178.693 306.885 169.816 306.788C168.703 306.775 167.592 306.761 166.48 306.735C166.419 306.735 166.421 306.828 166.48 306.829C171.058 306.97 175.633 307.171 180.211 307.311C184.746 307.451 189.281 307.585 193.817 307.714C202.581 308.108 211.361 307.919 220.1 307.147C224.33 306.743 228.523 306.019 232.644 304.982C234.381 304.576 236.044 303.901 237.572 302.982C239.028 302.06 240.194 300.745 240.934 299.189C242.527 295.856 242.337 291.921 242.261 288.329Z" fill="#455A64"/>
<path d="M241.401 243.054C235.115 244.028 228.843 245.077 222.63 246.45C220.862 246.841 219.109 247.305 217.332 247.657C217.272 247.67 217.297 247.76 217.357 247.749C218.926 247.459 220.509 247.272 222.083 247.019C223.657 246.765 225.224 246.51 226.794 246.231C229.921 245.678 233.02 244.992 236.125 244.328C237.897 243.946 239.663 243.548 241.429 243.144C241.491 243.133 241.464 243.042 241.401 243.054Z" fill="#455A64"/>
<path d="M109.959 275.88C110.892 271.817 112.445 267.92 114.561 264.328C115.777 262.492 119.827 257.587 121.31 258.412C122.794 259.237 121.734 260.775 121.734 260.775C121.734 260.775 123.755 258.96 125.172 259.925C126.59 260.89 124.866 263.236 124.866 263.236C124.866 263.236 127.076 261.522 128.42 262.587C129.763 263.653 127.637 265.714 127.637 265.714C127.637 265.714 129.586 264.058 130.322 265.395C131.213 267.01 127.266 269.668 126.027 271.762C125.746 272.238 120.997 281.828 120.997 281.828L109.959 275.88Z" fill="#FFC3BD"/>
<path d="M127.626 265.761C125.195 267.249 123.358 269.536 122.43 272.231C122.404 272.292 122.303 272.266 122.329 272.199C123.396 268.989 124.313 267.118 127.538 265.614C127.696 265.542 127.763 265.667 127.626 265.761Z" fill="#263238"/>
<path d="M124.952 263.116C122.569 264.949 120.67 267.338 119.423 270.074C119.399 270.12 119.32 270.084 119.34 270.035C120.731 266.763 121.688 264.916 124.816 262.991C124.954 262.904 125.081 263.01 124.952 263.116Z" fill="#263238"/>
<path d="M121.51 260.978C119.213 262.909 117.485 265.43 116.512 268.269C116.507 268.286 116.495 268.3 116.48 268.309C116.464 268.317 116.446 268.319 116.429 268.314C116.412 268.309 116.398 268.297 116.39 268.282C116.381 268.266 116.38 268.248 116.385 268.231C117.038 265.223 118.848 262.592 121.425 260.907C121.608 260.779 121.672 260.825 121.51 260.978Z" fill="#263238"/>
<path d="M120.719 284.305C122.383 283.01 123.948 281.593 125.403 280.067C126.65 278.539 129.204 271.154 127.639 270.508C125.618 269.679 123.302 273.656 122.418 275.752C122.418 275.752 117.745 273.829 115.465 276.324C113.186 278.818 120.719 284.305 120.719 284.305Z" fill="#FFC3BD"/>
<path d="M127.006 270.462C124.617 271.035 123.641 273.861 122.636 275.831C122.623 275.86 122.602 275.887 122.576 275.907C122.55 275.927 122.52 275.94 122.488 275.946C122.456 275.952 122.423 275.95 122.392 275.94C122.36 275.931 122.332 275.914 122.309 275.891C120.297 275.216 117.261 274.849 115.462 276.185C115.452 276.194 115.438 276.199 115.425 276.198C115.411 276.197 115.398 276.191 115.389 276.181C115.38 276.171 115.375 276.157 115.376 276.144C115.377 276.13 115.383 276.117 115.393 276.108C117.127 274.413 120.139 274.531 122.297 275.41C123.297 273.373 124.401 270.583 127.001 270.444C127.003 270.445 127.004 270.446 127.006 270.447C127.007 270.449 127.008 270.45 127.008 270.452C127.009 270.454 127.009 270.455 127.009 270.457C127.008 270.459 127.007 270.461 127.006 270.462Z" fill="#263238"/>
<path d="M137.173 284.594C131.639 292.912 124.157 299.751 115.378 304.518C109.747 307.604 103.843 304.008 102.872 301.728C100.794 296.853 108.039 277.933 110.655 274.119C111.43 272.987 112.597 275.256 116.237 278.431C117.961 279.935 124.573 279.548 124.106 281.412C123.772 282.74 121.61 286.513 121.913 286.489C122.66 286.427 128.131 282.45 133.922 278.721C141.892 273.592 139.033 281.864 137.173 284.594Z" fill="#FFC3BD"/>
<path d="M121.923 286.336C121.577 286.798 116.575 297.01 115.385 299.113C115.355 299.167 115.436 299.211 115.468 299.159C116.741 297.105 118.059 295.075 119.183 292.935C119.738 291.878 120.309 290.819 120.765 289.716C120.983 289.189 121.184 288.656 121.391 288.124C121.652 287.566 121.86 286.984 122.011 286.386C122.02 286.337 121.956 286.29 121.923 286.336Z" fill="#263238"/>
<path d="M122.392 285.521L135.132 290.397C137.166 287.479 139.047 284.457 140.767 281.343C143.048 276.815 141.901 274.906 136.142 277.244C132.287 278.807 122.392 285.521 122.392 285.521Z" fill="#1581BF"/>
<path d="M124.146 284.807C126.05 285.389 127.94 285.996 129.806 286.688C130.74 287.033 131.665 287.392 132.582 287.765C133.502 288.138 134.384 288.607 135.306 288.966C135.357 288.986 135.321 289.066 135.272 289.043C134.37 288.636 133.404 288.348 132.482 287.992C131.56 287.635 130.628 287.28 129.698 286.932C127.841 286.237 125.985 285.531 124.113 284.884C124.06 284.87 124.095 284.792 124.146 284.807Z" fill="#263238"/>
<path d="M147.476 285.836H145.068C144.923 284.417 144.557 283.031 143.983 281.725C144.269 283.076 144.377 284.458 144.303 285.836H142.188C141.985 283.489 141.314 281.207 140.213 279.125C140.817 281.31 141.11 283.569 141.084 285.836H122.449C121.623 281.905 122.263 277.626 121.94 278.56C121.21 280.918 120.816 283.367 120.771 285.836H118.696C118.638 284.843 118.695 283.847 118.864 282.867C119.137 281.562 118.066 284.141 117.93 285.836H116.609C116.488 282.545 117.097 279.269 118.392 276.242C121.113 270.929 119.52 268.963 120.637 263.146C121.91 256.525 130.605 248.525 139.296 256.892C140.782 258.183 141.978 259.775 142.802 261.563C143.627 263.351 144.063 265.294 144.08 267.263C144.121 271.995 143.045 274.495 144.668 276.926C146.483 279.544 147.462 282.65 147.476 285.836Z" fill="#263238"/>
<path d="M115.758 285.045C115.536 283.03 115.725 280.99 116.315 279.05C116.596 278.074 116.956 277.124 117.391 276.206C117.6 275.748 117.858 275.296 118.081 274.859C118.308 274.428 118.503 273.98 118.666 273.521C119.249 271.625 119.624 269.672 119.785 267.695C119.912 266.699 120.04 265.701 120.247 264.713C120.444 263.723 120.75 262.759 121.161 261.837C120.624 263.763 120.313 265.745 120.236 267.742C120.16 268.742 120.064 269.744 119.922 270.746C119.778 271.756 119.541 272.751 119.212 273.717C119.036 274.201 118.825 274.672 118.581 275.127C118.342 275.579 118.105 275.999 117.884 276.446C117.441 277.331 117.06 278.246 116.745 279.185C116.427 280.125 116.183 281.089 116.013 282.067C115.92 282.556 115.86 283.05 115.813 283.547C115.766 284.045 115.752 284.543 115.758 285.045Z" fill="#263238"/>
<path d="M144.085 267.265C144.126 268.069 144.068 268.873 144.085 269.671C144.101 270.47 144.103 271.266 144.173 272.053C144.24 272.836 144.372 273.613 144.569 274.375C144.612 274.566 144.68 274.75 144.732 274.937L144.774 275.077L144.82 275.193C144.855 275.273 144.897 275.356 144.947 275.44C145.134 275.776 145.349 276.115 145.559 276.459C145.973 277.147 146.38 277.852 146.732 278.585C147.088 279.318 147.386 280.078 147.624 280.857C147.859 281.635 148.02 282.434 148.106 283.243C148.185 284.048 148.181 284.859 148.096 285.663C148.039 284.071 147.735 282.497 147.193 280.999C146.636 279.516 145.925 278.096 145.071 276.762C144.865 276.418 144.654 276.079 144.455 275.711C144.406 275.617 144.359 275.521 144.314 275.418C144.292 275.366 144.271 275.306 144.252 275.254L144.208 275.105C144.155 274.906 144.081 274.711 144.048 274.51C143.864 273.714 143.758 272.901 143.732 272.084C143.706 271.277 143.733 270.469 143.812 269.665C143.881 268.855 143.996 268.062 144.085 267.265Z" fill="#263238"/>
<path d="M163.136 311.762C167.168 307.715 169.772 302.465 170.556 296.807C171.339 291.148 170.259 285.388 167.478 280.398C167.478 280.398 161.424 281.361 159.838 281.05C155.018 280.112 151.406 277.443 145.856 275.375C140.307 273.307 136.473 274.93 134.268 278.7C133.718 279.641 131.012 293.383 132.995 298.258C134.55 302.092 140.848 303.203 140.848 303.203C140.848 303.203 152.538 312.932 163.136 311.762Z" fill="#1581BF"/>
<path d="M141.404 278.067C141.363 278.693 139.134 283.088 136.355 283.415C135.45 283.521 134.654 278.605 134.654 278.605L134.511 278.255L132.532 273.363L137.865 268.542L138.643 267.891C138.643 267.891 139.097 269.265 139.644 270.983C139.67 271.062 139.695 271.142 139.722 271.227C139.749 271.313 139.788 271.415 139.815 271.505C139.9 271.76 139.985 272.022 140.069 272.283C140.132 272.483 140.197 272.677 140.25 272.887C140.304 273.097 140.369 273.303 140.432 273.513C140.86 275.007 141.185 276.529 141.404 278.067Z" fill="#FFC3BD"/>
<path d="M139.644 270.986C139.368 272.498 138.766 273.932 137.879 275.188C136.993 276.443 135.844 277.491 134.511 278.258L132.532 273.366L137.865 268.545L138.643 267.894C138.643 267.894 139.097 269.268 139.644 270.986Z" fill="#263238"/>
<path d="M123.752 267.928C125.823 276.956 131.465 276.736 133.411 276.288C135.177 275.88 141.143 274.27 140.016 265.074C138.889 255.879 134.031 253.99 129.947 254.706C125.864 255.423 121.682 258.898 123.752 267.928Z" fill="#FFC3BD"/>
<path d="M125.104 266.171C125.296 266.078 125.483 265.975 125.664 265.863C125.875 265.781 126.054 265.632 126.173 265.439C126.198 265.371 126.2 265.297 126.179 265.227C126.157 265.158 126.114 265.098 126.055 265.056C125.925 264.991 125.78 264.961 125.635 264.97C125.489 264.979 125.349 265.026 125.228 265.107C124.958 265.235 124.745 265.458 124.631 265.734C124.609 265.798 124.606 265.868 124.623 265.934C124.639 266 124.675 266.06 124.725 266.106C124.775 266.153 124.837 266.184 124.905 266.195C124.972 266.206 125.041 266.198 125.104 266.171Z" fill="#263238"/>
<path d="M131.297 264.494C131.086 264.523 130.874 264.542 130.661 264.55C130.439 264.601 130.207 264.577 130 264.482C129.941 264.44 129.898 264.38 129.877 264.311C129.856 264.242 129.858 264.168 129.883 264.1C129.954 263.973 130.057 263.868 130.183 263.794C130.308 263.721 130.451 263.682 130.597 263.683C130.892 263.638 131.194 263.704 131.442 263.87C131.496 263.911 131.537 263.967 131.56 264.03C131.583 264.094 131.587 264.163 131.571 264.229C131.556 264.294 131.522 264.355 131.473 264.402C131.425 264.449 131.364 264.481 131.297 264.494Z" fill="#263238"/>
<path d="M130.793 267.088C130.793 267.063 130.849 267.103 130.856 267.128C131.006 267.741 131.281 268.418 131.887 268.467C131.906 268.467 131.913 268.498 131.887 268.502C131.188 268.594 130.837 267.692 130.793 267.088Z" fill="#263238"/>
<path d="M131.159 266.304C132.115 265.957 132.738 267.896 131.853 268.215C130.968 268.533 130.356 266.594 131.159 266.304Z" fill="#263238"/>
<path d="M131.573 266.278C131.778 266.334 132.004 266.473 132.216 266.428C132.459 266.376 132.572 266.115 132.664 265.87C132.674 265.845 132.696 265.856 132.705 265.882C132.792 266.05 132.812 266.244 132.761 266.426C132.71 266.609 132.592 266.764 132.43 266.862C132.083 267.029 131.716 266.785 131.502 266.441C131.462 266.383 131.49 266.261 131.573 266.278Z" fill="#263238"/>
<path d="M126.945 268.024C126.933 268.002 126.908 268.067 126.916 268.092C127.132 268.686 127.281 269.4 126.805 269.778C126.79 269.79 126.805 269.819 126.821 269.81C127.452 269.498 127.246 268.551 126.945 268.024Z" fill="#263238"/>
<path d="M126.203 267.575C125.214 267.82 125.777 269.777 126.692 269.55C127.606 269.324 127.025 267.37 126.203 267.575Z" fill="#263238"/>
<path d="M125.832 267.821C125.705 267.969 125.608 268.203 125.427 268.267C125.217 268.342 124.998 268.176 124.803 268.012C124.783 267.996 124.772 268.012 124.779 268.043C124.876 268.425 125.111 268.774 125.492 268.743C125.838 268.714 125.986 268.324 125.968 267.926C125.964 267.852 125.882 267.761 125.832 267.821Z" fill="#263238"/>
<path d="M133.077 271.496C132.784 271.792 132.551 272.168 131.87 272.32C131.143 272.44 130.371 272.486 129.603 272.456C129.587 272.455 129.572 272.457 129.559 272.461C129.545 272.465 129.535 272.471 129.53 272.478C129.525 272.485 129.525 272.493 129.53 272.5C129.535 272.507 129.544 272.513 129.557 272.517C129.976 272.648 130.462 272.723 130.964 272.735C131.466 272.746 131.965 272.693 132.409 272.582C132.765 272.464 133.04 272.299 133.197 272.107C133.355 271.916 133.388 271.707 133.294 271.506C133.285 271.447 133.123 271.453 133.077 271.496Z" fill="#263238"/>
<path d="M128.787 270.388C128.787 270.388 128.94 271.327 129.071 271.752C129.084 271.792 129.199 271.779 129.34 271.743C129.348 271.743 129.353 271.743 129.357 271.743C129.742 271.697 130.108 271.545 130.413 271.304C130.718 271.064 130.951 270.744 131.086 270.379C131.102 270.328 131.035 270.302 131.004 270.34C130.577 270.877 129.988 271.261 129.325 271.436C129.259 271.328 129.116 269.82 129.047 269.836C128.729 269.965 128.429 270.136 128.156 270.345C127.774 268.399 127.718 266.409 127.315 264.477C127.312 264.463 127.304 264.451 127.292 264.443C127.281 264.435 127.267 264.431 127.253 264.431C127.239 264.432 127.225 264.438 127.215 264.447C127.205 264.457 127.198 264.47 127.196 264.484C127.196 266.619 127.409 268.749 127.832 270.842C127.864 271.101 128.64 270.513 128.787 270.388Z" fill="#263238"/>
<path d="M140.061 265.667C137.761 266.311 134.872 259.533 134.525 258.696C134.987 259.848 135.324 261.046 135.53 262.27C135.284 262.343 135.028 262.374 134.772 262.363C134.661 262.019 134.523 261.684 134.361 261.361C134.292 261.207 134.411 261.727 134.523 262.38C134.383 262.38 134.23 262.388 134.066 262.396C133.856 261.653 133.549 260.94 133.151 260.278C133.185 260.998 133.266 261.715 133.396 262.424C131.275 262.475 129.166 262.76 127.108 263.274C126.534 263.433 126.047 263.596 125.621 263.755C125.347 262.907 125.156 261.972 125.156 262.185C125.15 262.753 125.2 263.32 125.305 263.877C125.074 263.965 124.862 264.051 124.668 264.132C124.228 262.95 124.187 260.853 124.089 261.203C123.807 262.288 123.734 263.416 123.872 264.528C123.108 264.947 122.929 265.18 122.84 264.975C122.332 262.533 122.71 259.99 123.905 257.801C125.894 254.219 131.35 251.738 135.86 254.841C137.744 255.403 139.344 256.659 140.337 258.356C141.633 260.988 141.389 265.292 140.061 265.667Z" fill="#263238"/>
<path d="M138.74 266.096C138.74 266.096 139.777 262.724 141.246 263.006C142.716 263.289 142.555 267.746 141.265 268.763C141.109 268.906 140.925 269.014 140.726 269.084C140.526 269.153 140.315 269.181 140.104 269.167C139.893 269.152 139.687 269.095 139.499 268.999C139.311 268.902 139.144 268.769 139.009 268.607L138.74 266.096Z" fill="#FFC3BD"/>
<path d="M141.169 264.282C141.191 264.272 141.207 264.304 141.189 264.319C140.793 264.706 140.483 265.172 140.278 265.686C140.073 266.201 139.979 266.752 140.001 267.305C140.027 267.183 140.08 267.068 140.155 266.968C140.23 266.868 140.326 266.786 140.437 266.727C140.547 266.668 140.668 266.633 140.793 266.625C140.918 266.618 141.043 266.637 141.16 266.683C141.193 266.693 141.18 266.744 141.149 266.746C140.95 266.747 140.756 266.81 140.594 266.925C140.432 267.041 140.31 267.204 140.244 267.392C140.136 267.707 140.062 268.033 140.024 268.364C140.005 268.471 139.824 268.476 139.824 268.364V268.337C139.371 267.032 139.803 264.867 141.169 264.282Z" fill="#263238"/>
<path d="M149.327 279.693C156.894 289.087 167.229 305.047 162.908 308.771C155.805 314.892 134.72 318.831 129.878 319.535C127.787 319.838 123.256 306.241 124.612 304.434C125.968 302.627 148.32 300.831 148.444 299.453C148.514 298.673 146.534 292.035 144.143 283.774C141.389 274.249 147.163 277.005 149.327 279.693Z" fill="#FFC3BD"/>
<path d="M110.9 308.586C109.912 309.331 108.907 310.079 107.989 310.909C107.071 311.739 106.181 312.602 105.344 313.513C104.227 314.683 103.249 315.978 102.427 317.371C104.162 315.122 106.103 313.04 108.226 311.152C109.142 310.324 110.017 309.45 110.933 308.619C110.954 308.593 110.924 308.568 110.9 308.586Z" fill="#263238"/>
<path d="M113.957 311.847C112.738 312.853 111.49 313.807 110.313 314.867C109.136 315.926 108.125 317.025 107.03 318.157C106.946 318.245 107.02 318.261 107.109 318.176C108.249 317.087 109.385 316.171 110.536 315.096C111.687 314.021 112.797 312.902 113.983 311.874C114.002 311.858 113.975 311.831 113.957 311.847Z" fill="#263238"/>
<path d="M117.085 314.174C115.176 315.671 113.427 317.361 111.864 319.216C111.784 319.307 111.883 319.317 111.97 319.229C113.672 317.52 114.996 316.173 117.133 314.24C117.169 314.211 117.126 314.143 117.085 314.174Z" fill="#263238"/>
<path d="M158.989 291.609L145.349 291.872C144.426 288.436 143.683 284.955 143.122 281.443C142.512 276.409 144.239 275.002 148.864 279.15C151.958 281.935 158.989 291.609 158.989 291.609Z" fill="#1581BF"/>
<path d="M147.014 291.844C146.867 291.819 145.465 291.8 145.358 291.828C145.17 291.044 144.243 287.387 144.134 287.009C144.132 287.003 144.13 286.998 144.127 286.993C144.124 286.989 144.12 286.985 144.115 286.982C144.11 286.979 144.105 286.977 144.1 286.976C144.094 286.975 144.089 286.975 144.083 286.976C144.078 286.977 144.073 286.98 144.068 286.983C144.063 286.986 144.06 286.99 144.057 286.995C144.054 286.999 144.051 287.004 144.05 287.01C144.049 287.015 144.05 287.021 144.051 287.026C144.091 287.248 144.243 288.092 144.42 289.037L144.398 289C144.304 288.835 144.197 288.674 144.093 288.514C143.988 288.353 143.9 288.166 143.808 287.993C143.779 287.939 143.695 287.993 143.726 288.043C143.822 288.207 143.927 288.37 144.009 288.543C144.09 288.716 144.158 288.87 144.242 289.029C144.326 289.189 144.411 289.344 144.496 289.502L144.509 289.525C144.712 290.591 144.928 291.673 145.04 292.072C145.699 292.055 146.356 291.998 147.008 291.901C147.042 291.887 147.037 291.847 147.014 291.844Z" fill="#263238"/>
<path d="M157.582 290.342C155.594 290.243 153.61 290.173 151.62 290.191C150.626 290.199 149.634 290.223 148.642 290.262C147.652 290.302 146.662 290.443 145.673 290.467C145.618 290.467 145.625 290.556 145.673 290.552C146.659 290.476 147.665 290.533 148.654 290.51C149.643 290.488 150.639 290.47 151.632 290.458C153.615 290.434 155.599 290.406 157.582 290.428C157.644 290.428 157.634 290.345 157.582 290.342Z" fill="#263238"/>
<path d="M153.896 284.795C153.893 284.792 153.888 284.79 153.883 284.79C153.878 284.79 153.873 284.792 153.869 284.795C153.865 284.798 153.862 284.803 153.861 284.808C153.86 284.813 153.861 284.818 153.863 284.822C154.16 285.414 157.709 290.263 158.841 291.52C158.487 291.538 158.134 291.578 157.785 291.64C158.249 291.681 158.715 291.685 159.178 291.651C159.204 291.641 154.408 285.235 153.896 284.795Z" fill="#263238"/>
<path d="M95.3199 298.081C95.2278 297.476 95.6963 296.931 96.3085 296.931H108.986C109.492 296.931 109.918 297.308 109.979 297.81L112.836 321.278C112.908 321.874 112.443 322.399 111.843 322.399H99.8797C99.3855 322.399 98.9654 322.038 98.8911 321.549L95.3199 298.081Z" fill="#1581BF"/>
<path d="M129.655 302.843C129.655 302.843 123.23 302.95 119.033 303.219C116.294 303.341 113.592 303.9 111.029 304.874C108.53 306.215 98.9315 313.421 100.634 315.783C102.17 317.923 109.625 310.69 109.625 310.69C109.625 310.69 101.457 317.327 103.781 319.563C106.104 321.799 113.439 312.502 113.439 312.502C113.439 312.502 105.199 319.505 107.964 321.436C110.049 322.893 117.168 314.847 117.168 314.847C117.168 314.847 110.127 320.92 112.208 322.509C114.508 324.267 121.544 317.252 121.544 317.252C127.514 320.403 131.645 319.461 134.504 318.442C135.193 318.196 129.655 302.843 129.655 302.843Z" fill="#FFC3BD"/>
<path d="M134.434 302.024C133.532 302.04 131.641 302.457 129.534 302.596C124.79 302.907 118.073 303.047 115.683 303.233C109.227 303.718 105.408 308.581 103.634 310.287C102.574 311.324 101.617 312.462 100.779 313.685C100.344 314.348 99.9351 315.289 100.554 315.999C101.307 316.862 104.029 315.86 106.816 313.212C106.917 313.117 106.851 313.061 106.748 313.149C102.827 316.488 101.224 316.153 100.793 315.608C100.514 315.255 100.76 314.628 100.991 314.147C101.364 313.451 101.825 312.807 102.362 312.228C104.147 310.214 106.131 308.387 108.286 306.775C110.6 304.959 113.382 303.837 116.308 303.54C118.387 303.318 124.787 303.221 129.567 302.869C131.66 302.713 133.54 302.252 134.448 302.143C134.51 302.128 134.503 302.023 134.434 302.024Z" fill="#263238"/>
<path d="M133.691 228.545C156.484 206.233 157.631 170.44 136.251 148.601C114.872 126.761 79.0634 127.145 56.2704 149.458C33.4774 171.771 32.3313 207.563 53.7105 229.403C75.0897 251.242 110.898 250.858 133.691 228.545Z" fill="#DBECF5"/>
<path d="M152.007 190.218L148.945 191.583H147.866L146.722 192.681V193.658L148.253 195.254L148.17 197.237L145.781 198.759V198.159L144.075 196.37H143.033L142.932 198.63L144.776 201.147L144.712 202.577L145.173 203.057H144.518L143.227 201.396L143.273 200.179L142.406 199.063L142.517 196.471L141.963 193.88H141.65L141.059 194.452H140.515L140.589 192.773L139.372 191.5V190.578H139.15L138.449 191.251H137.029L133.183 194.94L133.091 197.025L131.947 199.026L131.191 198.685L130.047 195.872L129.411 192.247L128.166 191.768L126.1 188.558H121.378L120.953 188.069H119.109L117.707 187.101L117.32 185.847H116.397L115.964 186.169L116.822 188.54L118.307 190.384L119.902 188.853H120.317L120.548 189.545L121.986 190.818L120.88 192.118L120.686 192.902L117.818 194.996L112.837 196.637L112.57 193.815L110.882 191.657L109.96 189.093L108.115 186.538V187.138L109.766 193.428L112.773 198.113L116.093 197.597L116.001 199.635L114.248 202.3L109.434 206.7L109.342 208.867L110.172 212.621L107.101 215.932L106.999 218.219L104.14 221.733V222.526L100.322 224.693H98.5235L97.9701 223.716L95.8027 214.198L95.895 212.003L96.3745 211.329L96.4575 209.347L94.447 204.588L94.5023 203.324L94.9634 203.029V201.83L94.6222 201.258H92.8514L92.0306 200.161H89.7894L86.8289 200.686H83.2504L80.2807 195.752L80.4928 190.799L86.9949 182.812L90.9792 181.715H95.277L95.5722 183.836L99.8792 185.681L100.875 184.758H103.181L103.873 185.478H107.931L109.268 183.163L109.323 182.065L109.019 181.743H108.567L108.235 182.056H107.525L107.175 181.696H106.557L106.188 182.056H105.708L105.321 181.641L104.454 180.719L104.528 178.874H103.181L102.572 179.188L102.794 180.627L102.203 180.885V181.577L101.779 181.355L100.737 179.151V178.109L99.372 177.186L97.7211 175.462H97.0386V176.264L97.9609 177.048L98.0347 177.657L100.091 179.225L99.8885 179.658L99.7962 179.225H99.2705L99.3535 179.898L98.3575 180.922L98.0531 181.66L97.1862 180.737H98.2929L98.7817 180.276V179.409L96.0149 177.251L95.7843 176.504H94.8159L93.8106 177.269H93.0359L92.4733 177.011L91.551 177.583V178.155L90.0477 179.603V180.35L88.8395 181.613H87.6866L87.207 181.918H86.626L86.3677 181.503L85.0765 181.244L85.1503 179.538L85.9435 178.782V177.306H89.5312L89.7341 175.102L88.2308 173.682L94.0596 169.845L95.5814 169.209L95.6736 167.189L96.4852 166.405L96.3745 168.987L99.4089 168.572H102.065L102.148 166.599L102.775 165.999L103.163 166.405H103.688L103.753 164.819H105.791L106.547 164.099H103.181L102.499 163.389L102.582 161.637L104.518 159.792V158.87H103.181L99.6763 162.227L99.4919 166.977L97.8779 167.576L96.9556 165.187L94.8712 166.008L94.0873 165.187L94.1795 162.946L100.193 155.854L106.769 153.917L112.404 157.016L111.352 158.021H107.885L110.652 160.936L113.861 159.091L125.168 155.586L137.841 150.246C132.748 144.746 126.565 140.367 119.686 137.39C112.807 134.412 105.383 132.901 97.8871 132.954C89.1062 132.96 80.4421 134.966 72.5519 138.819L75.1804 138.543L83.481 140.987L78.8696 154.821L72.7363 157.311L68.5768 159.349L67.0735 164.127L63.744 162.882L61.4291 157.708L62.0932 156.121L60.2486 148.254L58.902 147.968C56.5494 150.061 54.3632 152.334 52.363 154.766L55.425 157.533L53.728 162.273L49.8821 159.737L50.7214 158.003L50.2233 157.486C47.6182 161.055 45.4188 164.904 43.6659 168.96L45.5105 170.057L47.7977 167.871L48.0283 162.273L55.4066 165.584L59.2617 170.408L57.5186 172.077H54.0139L54.9916 175.333L44.8464 184.888L46.0269 187.839L45.3076 188.531L43.1494 186.271H39.2481C39.1467 187.322 39.0637 188.392 39.0176 189.462C38.9714 190.532 38.9622 191.795 39.0176 192.948H39.1651L40.3364 191.832H42.0519L41.1296 192.755L41.0281 195.143H43.1125L43.7766 197.726H45.4459L47.0783 199.441L48.8491 197.707L59.3355 201.636L60.4699 204.173L64.3159 206.017L66.7507 206.165L69.3884 208.452L66.8245 212.528L65.3857 217.204L61.5398 218.699L53.147 228.632C60.7589 236.925 70.7931 242.605 81.8209 244.864L82.6694 244.458L90.6379 243.895L96.0425 243.443L97.7764 242.521L102.24 242.678L105.57 243.6L104.777 243.895L106.095 244.55C115.923 242.236 125.008 237.48 132.51 230.722C140.011 223.963 145.686 215.422 149.009 205.888L147.903 203.84L150.135 202.383C151.197 198.408 151.825 194.329 152.007 190.218ZM121.986 148.992L126.838 147.277H129.005L122.614 150.108L121.249 152.405L122.558 154.009L120.852 153.788L119.93 152.257L121.986 148.992ZM105.893 143.228L104.426 143.883L101.373 142.868L105.893 143.228ZM100.036 143.228L103.292 144.667L104.887 145.709L103.043 146.004L102.646 144.962L101.613 144.703L100.202 147.129L98.1084 144.473L97.8502 143.551L100.036 143.228ZM48.1482 192.598L47.2259 192.386L43.4445 190.845L44.2838 190.486L48.2127 191.832L48.1482 192.598ZM50.7122 193.585H48.7016L49.2642 192.598L51.5053 192.828L50.7122 193.585ZM87.3638 166.073L88.4521 165.547L89.3744 167.438L91.0714 170.694L87.6866 172.04L88.3968 168.794L87.1978 167.613L87.3638 166.073ZM85.2794 168.554H87.124L86.6998 170.638H85.0212L85.2794 168.554ZM81.2675 160.594L80.4559 160.844L78.971 160.539L78.6574 159.681L79.0263 159.276L82.0976 158.565L83.6378 159.276L83.3334 159.847L81.701 160.06L81.2675 160.594ZM114.986 216.181L113.409 218.994H112.339L111.887 218.523L111.98 216.457L112.524 215.932L112.192 215.581L112.284 213.737L114.387 212.658L115.226 211.366L115.447 212.787L114.986 216.181ZM145.855 207.244H144.767L142.24 203.555L140.663 201.129L141.963 201.24L145.92 205.685L145.855 207.244Z" fill="#1581BF"/>
<path opacity="0.9" d="M62.0213 127.36C62.3533 119.428 68.6157 113 76.0032 113C83.3907 113 89.0996 119.456 88.7676 127.36C88.1497 141.821 74.4353 149.882 74.4353 149.882C74.4353 149.882 61.4034 141.821 62.0213 127.36Z" fill="#F5970C"/>
<circle cx="75.3732" cy="127.295" r="5.99486" fill="white"/>
<defs>
<radialGradient id="paint0_radial_149_5309" cx="0" cy="0" r="1" gradientUnits="userSpaceOnUse" gradientTransform="translate(171 217) rotate(90) scale(217)">
<stop stop-color="#1581BF"/>
<stop offset="1" stop-color="#1581BF" stop-opacity="0.62"/>
</radialGradient>
</defs>
</svg>
