<svg width="60" height="60" viewBox="0 0 60 60" fill="none" xmlns="http://www.w3.org/2000/svg">
<circle cx="30" cy="30" r="30" fill="#F4AE20" fill-opacity="0.09"/>
<path d="M29.5 17C22.608 17 17 22.608 17 29.5001C17 36.393 22.608 42 29.5 42C36.392 42 42 36.393 42 29.4999C42 22.608 36.392 17 29.5 17ZM34.2943 32.6629C34.005 34.2821 32.7119 35.5446 31.0334 35.978V36.2458C31.0334 37.082 30.3638 37.7618 29.5317 37.7782C28.7916 37.8231 28.0913 37.2149 27.9861 36.4911C27.9585 36.3184 27.9666 36.1415 27.9666 35.9667C26.6878 35.6458 25.7586 34.9057 25.0471 34.1226C24.4777 33.495 24.5258 32.5249 25.1534 31.9565C25.7811 31.3881 26.7502 31.4352 27.3196 32.0628C27.844 32.6414 28.6454 33.0063 29.5 33.0646C30.3781 33.2016 31.2531 32.5647 31.2756 32.1231C31.3584 31.659 30.7226 31.2481 30.099 31.0181C29.9069 30.9475 29.7167 30.876 29.5317 30.8044C28.0208 30.2442 27.4616 29.9979 26.8207 29.6585C25.6584 28.901 25.0604 27.5731 25.2587 26.1931C25.4652 24.7538 26.5007 23.5792 27.9666 23.109V22.7522C27.9666 21.9058 28.6536 21.2189 29.5 21.2189C29.5102 21.2189 29.5215 21.2189 29.5317 21.2199C30.3638 21.2363 31.0334 21.9161 31.0334 22.7522V23.0538C32.4492 23.4279 33.4039 24.214 33.4663 24.2672C34.051 24.8601 34.0664 25.8087 33.5256 26.4016C33.0175 26.9608 32.1445 27.062 31.5005 26.6204C31.4995 26.6194 31.4975 26.6184 31.4964 26.6173C31.4096 26.5509 30.5529 25.9314 29.5317 25.9263C28.9081 25.9232 28.3183 26.3086 28.2938 26.6296C28.2529 27.1571 28.8212 27.2225 29.5317 27.5046C30.0091 27.6948 30.5744 27.9248 31.1611 28.1405C33.8864 29.1463 34.5673 31.1355 34.2943 32.6629Z" fill="#F4AE20"/>
</svg>
