<svg width="18" height="18" viewBox="0 0 18 18" fill="none" xmlns="http://www.w3.org/2000/svg">
<path fill-rule="evenodd" clip-rule="evenodd" d="M9.86172 1.73846C9.86172 1.33062 9.5311 1 9.12326 1C8.71542 1 8.3848 1.33062 8.3848 1.73846V8.38463H1.73846C1.33062 8.38463 1 8.71525 1 9.12309C1 9.53093 1.33062 9.86155 1.73846 9.86155H8.3848V16.5077C8.3848 16.9155 8.71542 17.2462 9.12326 17.2462C9.5311 17.2462 9.86172 16.9155 9.86172 16.5077V9.86155H16.5077C16.9155 9.86155 17.2462 9.53093 17.2462 9.12309C17.2462 8.71525 16.9155 8.38463 16.5077 8.38463H9.86172V1.73846Z" fill="white"/>
<path d="M8.3848 8.38463V8.93847H8.93864V8.38463H8.3848ZM8.3848 9.86155H8.93864V9.3077H8.3848V9.86155ZM9.86172 9.86155V9.3077H9.30787V9.86155H9.86172ZM9.86172 8.38463H9.30787V8.93847H9.86172V8.38463ZM9.12326 1.55385C9.22522 1.55385 9.30787 1.6365 9.30787 1.73846H10.4156C10.4156 1.02474 9.83698 0.446154 9.12326 0.446154V1.55385ZM8.93864 1.73846C8.93864 1.6365 9.0213 1.55385 9.12326 1.55385V0.446154C8.40954 0.446154 7.83095 1.02474 7.83095 1.73846H8.93864ZM8.93864 8.38463V1.73846H7.83095V8.38463H8.93864ZM1.73846 8.93847H8.3848V7.83078H1.73846V8.93847ZM1.55385 9.12309C1.55385 9.02113 1.6365 8.93847 1.73846 8.93847V7.83078C1.02474 7.83078 0.446154 8.40936 0.446154 9.12309H1.55385ZM1.73846 9.3077C1.6365 9.3077 1.55385 9.22505 1.55385 9.12309H0.446154C0.446154 9.83681 1.02474 10.4154 1.73846 10.4154V9.3077ZM8.3848 9.3077H1.73846V10.4154H8.3848V9.3077ZM8.93864 16.5077V9.86155H7.83095V16.5077H8.93864ZM9.12326 16.6923C9.0213 16.6923 8.93864 16.6097 8.93864 16.5077H7.83095C7.83095 17.2214 8.40953 17.8 9.12326 17.8V16.6923ZM9.30787 16.5077C9.30787 16.6097 9.22522 16.6923 9.12326 16.6923V17.8C9.83698 17.8 10.4156 17.2214 10.4156 16.5077H9.30787ZM9.30787 9.86155V16.5077H10.4156V9.86155H9.30787ZM16.5077 9.3077H9.86172V10.4154H16.5077V9.3077ZM16.6923 9.12309C16.6923 9.22505 16.6097 9.3077 16.5077 9.3077V10.4154C17.2214 10.4154 17.8 9.83681 17.8 9.12309H16.6923ZM16.5077 8.93847C16.6097 8.93847 16.6923 9.02113 16.6923 9.12309H17.8C17.8 8.40937 17.2214 7.83078 16.5077 7.83078V8.93847ZM9.86172 8.93847H16.5077V7.83078H9.86172V8.93847ZM9.30787 1.73846V8.38463H10.4156V1.73846H9.30787Z" fill="white"/>
</svg>
