<svg width="46" height="46" viewBox="0 0 46 46" fill="none" xmlns="http://www.w3.org/2000/svg">
<circle cx="23" cy="23" r="23" fill="#AF4F4F" fill-opacity="0.09"/>
<path fill-rule="evenodd" clip-rule="evenodd" d="M19.2959 21.6115C19.2265 21.6481 19.1662 21.6961 19.1183 21.7529C19.0705 21.8096 19.0361 21.8738 19.0171 21.942C18.9981 22.0101 18.9949 22.0809 19.0077 22.1501C19.0205 22.2193 19.0489 22.2857 19.0915 22.3454C19.6608 23.1444 20.1445 23.9375 20.4666 24.658C20.5256 24.7901 20.643 24.8966 20.7932 24.954C20.9433 25.0115 21.1138 25.0152 21.2672 24.9645C21.4205 24.9137 21.5442 24.8125 21.6109 24.6832C21.6776 24.554 21.682 24.4071 21.623 24.2751C21.265 23.4729 20.7397 22.619 20.1476 21.7875C20.0618 21.6669 19.9238 21.5807 19.7641 21.5477C19.6044 21.5147 19.436 21.5376 19.2959 21.6115ZM25.7463 21.1027C25.8789 21.1862 25.9675 21.3116 25.9927 21.4513C26.0179 21.591 25.9776 21.7336 25.8807 21.8478C25.1641 22.6921 24.5329 23.8212 24.0888 24.6831C24.0558 24.7471 24.0085 24.8049 23.9495 24.8532C23.8905 24.9014 23.8211 24.9392 23.7452 24.9644C23.6693 24.9895 23.5883 25.0016 23.507 24.9998C23.4257 24.998 23.3456 24.9825 23.2712 24.9541C23.1969 24.9256 23.1298 24.8848 23.0737 24.8341C23.0177 24.7833 22.9738 24.7235 22.9446 24.6582C22.9153 24.5928 22.9014 24.5231 22.9034 24.4531C22.9055 24.383 22.9235 24.314 22.9566 24.25C23.405 23.3807 24.0802 22.1614 24.881 21.2184C24.978 21.1043 25.1236 21.028 25.2859 21.0063C25.4481 20.9846 25.6137 21.0193 25.7463 21.1027Z" fill="#FF6767"/>
<path fill-rule="evenodd" clip-rule="evenodd" d="M24.9423 15.6893C26.3693 14.0527 34 12 34 12C34 12 32.7027 20.1858 31.5614 21.4948C30.7114 22.4702 28.0029 21.8609 26.6758 21.4863C27.6678 19.9603 28.8176 18.4698 29.8285 17.2867C29.9316 17.1634 29.9821 17.0043 29.969 16.8439C29.9559 16.6836 29.8802 16.5348 29.7584 16.4301C29.6366 16.3253 29.4785 16.2729 29.3185 16.2844C29.1584 16.2958 29.0093 16.37 28.9035 16.491C27.8841 17.6839 26.7026 19.2105 25.668 20.7975C25.0867 19.7122 23.8138 16.9836 24.9423 15.6893ZM15.0467 26.6666H12V34H15.0467V32.7515C15.6682 32.7258 16.5858 32.6928 16.9033 32.7056C17.9922 32.7503 18.8044 33.0106 19.627 33.274C20.3936 33.519 21.168 33.7671 22.1814 33.8447C22.4361 33.8643 22.6841 33.8894 22.9247 33.9132C23.7918 34.0012 24.5614 34.0794 25.1976 33.8447C26.0092 33.5453 30.6487 31.2677 31.2287 30.6682C31.8088 30.0693 31.5188 28.4511 29.7206 28.7505C28.8335 28.8984 27.8055 29.3238 26.8726 29.7094C25.9154 30.1048 25.0586 30.4592 24.559 30.4286C23.5731 30.3688 20.9639 29.8896 20.9639 29.8896L23.96 29.9263C23.96 29.9263 24.3835 29.9483 24.9654 29.5297C25.5473 29.1111 26.0671 27.9115 25.197 27.9115C24.3268 27.9115 23.3994 27.612 23.3994 27.612L19.6874 26.773C19.6874 26.773 18.4114 26.5334 17.8898 26.773C17.4596 26.9704 15.667 27.6145 15.0467 27.8363V26.6666ZM13.7537 14.2428C13.7537 14.2428 20.0511 15.9368 21.2284 17.2867C22.1381 18.3299 21.1577 20.5024 20.6641 21.4374C20.0172 20.4186 19.3188 19.4336 18.5717 18.4863C18.5221 18.4233 18.4606 18.3707 18.3908 18.3316C18.321 18.2924 18.2441 18.2674 18.1646 18.258C18.0852 18.2486 18.0046 18.255 17.9276 18.2768C17.8506 18.2986 17.7787 18.3355 17.7159 18.3852C17.653 18.4349 17.6006 18.4965 17.5615 18.5666C17.5225 18.6366 17.4976 18.7137 17.4882 18.7934C17.4788 18.8731 17.4852 18.9539 17.507 19.0311C17.5287 19.1083 17.5654 19.1805 17.615 19.2435C18.3412 20.1643 19.0197 21.1219 19.6477 22.1127C18.5095 22.4219 16.4366 22.8478 15.7663 22.0784C14.8243 20.998 13.7537 14.2422 13.7537 14.2422" fill="#FF6767"/>
</svg>
