<svg width="76" height="76" viewBox="0 0 76 76" fill="none" xmlns="http://www.w3.org/2000/svg">
<path d="M53.9145 24.4489L53.5167 24.0512L53.119 24.4489L43.6301 33.9378L43.2324 34.3355L43.63 34.7333L47.2948 38.3986L47.6926 38.7964L48.0904 38.3986L57.5793 28.9092L57.977 28.5114L57.5793 28.1137L53.9145 24.4489Z" fill="white" stroke="white" stroke-width="1.12501"/>
<path d="M34.7329 43.631L34.3351 43.2333L33.9374 43.6311L24.4484 53.1199L24.0507 53.5177L24.4484 53.9154L28.1132 57.5802L28.511 57.978L28.9087 57.5802L38.3982 48.0914L38.796 47.6936L38.3982 47.2958L34.7329 43.631Z" fill="white" stroke="white" stroke-width="1.12501"/>
<path d="M41.2673 32.3713L41.665 32.7691L42.0628 32.3713L51.5517 22.8824L51.9494 22.4847L51.5517 22.0869L47.8869 18.4216L47.4892 18.0238L47.0914 18.4216L37.6025 27.911L37.2047 28.3088L37.6025 28.7065L41.2673 32.3713Z" fill="white" stroke="white" stroke-width="1.12501"/>
<path d="M32.3705 42.0635L32.7683 41.6658L32.3705 41.268L28.7057 37.6032L28.308 37.2055L27.9102 37.6032L18.4213 47.0921L18.0236 47.4899L18.4213 47.8876L22.0861 51.5524L22.4839 51.9502L22.8816 51.5524L32.3705 42.0635Z" fill="white" stroke="white" stroke-width="1.12501"/>
<path d="M32.3706 34.7333L32.7683 34.3355L32.3705 33.9378L22.8816 24.4489L22.4839 24.0512L22.0861 24.4489L18.4213 28.1137L18.0236 28.5114L18.4213 28.9092L27.9102 38.3986L28.308 38.7964L28.7058 38.3986L32.3706 34.7333Z" fill="white" stroke="white" stroke-width="1.12501"/>
<path d="M33.9374 32.3718L34.3351 32.7695L34.7329 32.3718L38.3982 28.7071L38.796 28.3093L38.3982 27.9115L28.9087 18.4221L28.511 18.0243L28.1132 18.4221L24.4484 22.0874L24.0507 22.4852L24.4484 22.8829L33.9374 32.3718Z" fill="white" stroke="white" stroke-width="1.12501"/>
<path d="M43.6301 41.268L43.2323 41.6658L43.6301 42.0635L53.119 51.5524L53.5167 51.9502L53.9145 51.5524L57.5793 47.8876L57.977 47.4899L57.5793 47.0921L48.0903 37.6032L47.6926 37.2055L47.2948 37.6032L43.6301 41.268Z" fill="white" stroke="white" stroke-width="1.12501"/>
<path d="M51.5517 53.915L51.9495 53.5172L51.5517 53.1194L42.0628 43.6306L41.665 43.2328L41.2673 43.6306L37.6025 47.2954L37.2047 47.6931L37.6025 48.0909L47.0914 57.5797L47.4892 57.9775L47.8869 57.5797L51.5517 53.915Z" fill="white" stroke="white" stroke-width="1.12501"/>
<path d="M51.5517 61.2447L51.9494 60.8469L51.5517 60.4492L47.8869 56.7844L47.4891 56.3866L47.0914 56.7844L38.0002 65.8761L28.9085 56.7844L28.5107 56.3866L28.113 56.7844L24.4482 60.4492L24.0504 60.8469L24.4482 61.2447L37.6025 74.3989L38.0002 74.7966L38.398 74.3989L51.5517 61.2447Z" fill="white" stroke="white" stroke-width="1.12501"/>
<path d="M19.2166 28.9092L19.6143 28.5114L19.2166 28.1137L15.5518 24.4489L15.154 24.0512L14.7563 24.4489L1.602 37.6031L1.20424 38.0009L1.60201 38.3986L14.7563 51.5523L15.154 51.95L15.5518 51.5523L19.2166 47.8875L19.6143 47.4898L19.2166 47.092L10.1249 38.0009L19.2166 28.9092Z" fill="white" stroke="white" stroke-width="1.12501"/>
<path d="M61.244 24.4489L60.8463 24.0512L60.4485 24.4489L56.7832 28.1136L56.3854 28.5114L56.7832 28.9092L65.8749 38.0009L56.7832 47.092L56.3854 47.4898L56.7832 47.8875L60.4485 51.5523L60.8463 51.95L61.244 51.5523L74.3977 38.3986L74.7954 38.0009L74.3977 37.6031L61.244 24.4489Z" fill="white" stroke="white" stroke-width="1.12501"/>
<path d="M47.0914 19.2167L47.4891 19.6145L47.8869 19.2167L51.5517 15.552L51.9494 15.1542L51.5517 14.7565L38.398 1.60226L38.0002 1.20449L37.6025 1.60225L24.4482 14.7565L24.0504 15.1542L24.4482 15.552L28.113 19.2167L28.5107 19.6145L28.9085 19.2168L38.0002 10.1256L47.0914 19.2167Z" fill="white" stroke="white" stroke-width="1.12501"/>
</svg>
