<svg width="75" height="86" viewBox="0 0 75 86" fill="none" xmlns="http://www.w3.org/2000/svg">
<path d="M49.7265 17.978C45.6227 16.2476 41.1127 15.291 36.3792 15.291C17.3921 15.291 2 30.6831 2 49.6702C2 68.6573 17.3921 84.0494 36.3792 84.0494C55.3664 84.0494 70.7585 68.6573 70.7585 49.6702C70.7585 45.7023 70.0863 41.8915 68.8496 38.3453" stroke="#1581BF" stroke-width="3"/>
<circle cx="59.2987" cy="28.0989" r="13.4651" stroke="#1581BF" stroke-width="3"/>
<circle cx="59.2987" cy="28.0989" r="5.91513" stroke="#1581BF" stroke-width="3"/>
<path d="M57 2L56.5731 4.96539" stroke="#1581BF" stroke-width="3" stroke-linecap="round"/>
<path d="M47.5 4L49.2758 6.55648" stroke="#1581BF" stroke-width="3" stroke-linecap="round"/>
<path d="M63.5 6.5L61.1616 8.3677" stroke="#1581BF" stroke-width="3" stroke-linecap="round"/>
<path d="M43.5 11L46.9358 11.8494" stroke="#1581BF" stroke-width="3" stroke-linecap="round"/>
<path d="M32.8739 16.6392C39.2238 26.8487 34.6503 27.8597 26.799 31.1402C25.6214 31.6322 24.9909 32.9074 25.2144 34.1639C26.6806 42.4048 24.2303 41.9059 22.3579 47.6479" stroke="#1581BF" stroke-width="3"/>
<path d="M49.1871 80.4093C24.7846 81.353 28.9641 56.1416 12.9204 72.7245" stroke="#1581BF" stroke-width="3"/>
<path d="M54.1756 57.0853C44.3337 60.4559 50.6703 70.2978 43.9292 69.2192C36.2445 69.2192 46.2212 59.3773 35.1659 57.0853" stroke="#1581BF" stroke-width="3"/>
<rect width="39.9069" height="15.0999" transform="translate(14.6731 43.064)" fill="#E1EEF7"/>
<path d="M16.793 47.998C17.385 47.998 17.9023 48.1153 18.345 48.35C18.7877 48.5846 19.129 48.9153 19.369 49.342C19.6143 49.7633 19.737 50.2513 19.737 50.806C19.737 51.3553 19.6143 51.8433 19.369 52.27C19.129 52.6966 18.785 53.0273 18.337 53.262C17.8943 53.4966 17.3797 53.614 16.793 53.614H14.689V47.998H16.793ZM16.705 52.43C17.2223 52.43 17.625 52.2886 17.913 52.006C18.201 51.7233 18.345 51.3233 18.345 50.806C18.345 50.2886 18.201 49.886 17.913 49.598C17.625 49.31 17.2223 49.166 16.705 49.166H16.057V52.43H16.705ZM21.8695 47.998V53.614H20.5015V47.998H21.8695ZM24.8929 53.67C24.4822 53.67 24.1142 53.6033 23.7889 53.47C23.4635 53.3366 23.2022 53.1393 23.0049 52.878C22.8129 52.6166 22.7115 52.302 22.7009 51.934H24.1569C24.1782 52.142 24.2502 52.302 24.3729 52.414C24.4955 52.5206 24.6555 52.574 24.8529 52.574C25.0555 52.574 25.2155 52.5286 25.3329 52.438C25.4502 52.342 25.5089 52.2113 25.5089 52.046C25.5089 51.9073 25.4609 51.7926 25.3649 51.702C25.2742 51.6113 25.1595 51.5366 25.0209 51.478C24.8875 51.4193 24.6955 51.3526 24.4449 51.278C24.0822 51.166 23.7862 51.054 23.5569 50.942C23.3275 50.83 23.1302 50.6646 22.9649 50.446C22.7995 50.2273 22.7169 49.942 22.7169 49.59C22.7169 49.0673 22.9062 48.6593 23.2849 48.366C23.6635 48.0673 24.1569 47.918 24.7649 47.918C25.3835 47.918 25.8822 48.0673 26.2609 48.366C26.6395 48.6593 26.8422 49.07 26.8689 49.598H25.3889C25.3782 49.4166 25.3115 49.2753 25.1889 49.174C25.0662 49.0673 24.9089 49.014 24.7169 49.014C24.5515 49.014 24.4182 49.0593 24.3169 49.15C24.2155 49.2353 24.1649 49.3606 24.1649 49.526C24.1649 49.7073 24.2502 49.8486 24.4209 49.95C24.5915 50.0513 24.8582 50.1606 25.2209 50.278C25.5835 50.4006 25.8769 50.518 26.1009 50.63C26.3302 50.742 26.5275 50.9046 26.6929 51.118C26.8582 51.3313 26.9409 51.606 26.9409 51.942C26.9409 52.262 26.8582 52.5526 26.6929 52.814C26.5329 53.0753 26.2982 53.2833 25.9889 53.438C25.6795 53.5926 25.3142 53.67 24.8929 53.67ZM27.5507 50.798C27.5507 50.2433 27.6707 49.75 27.9107 49.318C28.1507 48.8806 28.4841 48.542 28.9107 48.302C29.3427 48.0566 29.8307 47.934 30.3747 47.934C31.0414 47.934 31.6121 48.11 32.0867 48.462C32.5614 48.814 32.8787 49.294 33.0387 49.902H31.5347C31.4227 49.6673 31.2627 49.4886 31.0547 49.366C30.8521 49.2433 30.6201 49.182 30.3587 49.182C29.9374 49.182 29.5961 49.3286 29.3347 49.622C29.0734 49.9153 28.9427 50.3073 28.9427 50.798C28.9427 51.2886 29.0734 51.6806 29.3347 51.974C29.5961 52.2673 29.9374 52.414 30.3587 52.414C30.6201 52.414 30.8521 52.3526 31.0547 52.23C31.2627 52.1073 31.4227 51.9286 31.5347 51.694H33.0387C32.8787 52.302 32.5614 52.782 32.0867 53.134C31.6121 53.4806 31.0414 53.654 30.3747 53.654C29.8307 53.654 29.3427 53.534 28.9107 53.294C28.4841 53.0486 28.1507 52.71 27.9107 52.278C27.6707 51.846 27.5507 51.3526 27.5507 50.798ZM36.5325 53.67C36.0045 53.67 35.5192 53.5473 35.0765 53.302C34.6392 53.0566 34.2898 52.7153 34.0285 52.278C33.7725 51.8353 33.6445 51.3393 33.6445 50.79C33.6445 50.2406 33.7725 49.7473 34.0285 49.31C34.2898 48.8726 34.6392 48.5313 35.0765 48.286C35.5192 48.0406 36.0045 47.918 36.5325 47.918C37.0605 47.918 37.5432 48.0406 37.9805 48.286C38.4232 48.5313 38.7698 48.8726 39.0205 49.31C39.2765 49.7473 39.4045 50.2406 39.4045 50.79C39.4045 51.3393 39.2765 51.8353 39.0205 52.278C38.7645 52.7153 38.4178 53.0566 37.9805 53.302C37.5432 53.5473 37.0605 53.67 36.5325 53.67ZM36.5325 52.422C36.9805 52.422 37.3378 52.2726 37.6045 51.974C37.8765 51.6753 38.0125 51.2806 38.0125 50.79C38.0125 50.294 37.8765 49.8993 37.6045 49.606C37.3378 49.3073 36.9805 49.158 36.5325 49.158C36.0792 49.158 35.7165 49.3046 35.4445 49.598C35.1778 49.8913 35.0445 50.2886 35.0445 50.79C35.0445 51.286 35.1778 51.6833 35.4445 51.982C35.7165 52.2753 36.0792 52.422 36.5325 52.422ZM45.4376 47.998L43.4456 53.614H41.7336L39.7416 47.998H41.1976L42.5896 52.238L43.9896 47.998H45.4376ZM47.3773 49.094V50.23H49.2093V51.286H47.3773V52.518H49.4493V53.614H46.0093V47.998H49.4493V49.094H47.3773ZM53.2014 53.614L52.0334 51.494H51.7054V53.614H50.3374V47.998H52.6334C53.0761 47.998 53.4521 48.0753 53.7614 48.23C54.0761 48.3846 54.3108 48.598 54.4654 48.87C54.6201 49.1366 54.6974 49.4353 54.6974 49.766C54.6974 50.1393 54.5908 50.4726 54.3774 50.766C54.1694 51.0593 53.8601 51.2673 53.4494 51.39L54.7454 53.614H53.2014ZM51.7054 50.526H52.5534C52.8041 50.526 52.9908 50.4646 53.1134 50.342C53.2414 50.2193 53.3054 50.046 53.3054 49.822C53.3054 49.6086 53.2414 49.4406 53.1134 49.318C52.9908 49.1953 52.8041 49.134 52.5534 49.134H51.7054V50.526Z" fill="#1581BF"/>
</svg>
