<svg width="27" height="27" viewBox="0 0 27 27" fill="none" xmlns="http://www.w3.org/2000/svg">
<path d="M25.839 10.6312C25.6565 10.2273 25.4533 9.83307 25.2304 9.45L22.3583 17.2519C22.2487 17.5434 22.0894 17.8136 21.8875 18.0506C22.6584 17.9743 23.4013 17.721 24.0583 17.3103C24.7152 16.8997 25.2684 16.3429 25.6748 15.6833C26.0812 15.0237 26.3297 14.2792 26.401 13.5078C26.4723 12.7363 26.3645 11.9588 26.086 11.2359C26.0095 11.0301 25.9273 10.8298 25.839 10.6312Z" fill="#1581BF"/>
<path d="M9.35427 3.59999C7.67838 4.19654 6.14008 5.12511 4.83147 6.33011C3.52285 7.53511 2.47083 8.99176 1.73837 10.6129C1.00591 12.234 0.608069 13.9862 0.568673 15.7647C0.529277 17.5431 0.849131 19.3113 1.50909 20.9632C1.52653 20.9987 1.53834 21.0336 1.55578 21.069C1.90639 21.9063 2.47722 22.633 3.20765 23.1719C3.93807 23.7109 4.80083 24.0419 5.70429 24.13C6.60775 24.218 7.51818 24.0597 8.33891 23.6719C9.15963 23.2841 9.86001 22.6812 10.3656 21.9274C11.4232 20.3343 12.9414 19.1016 14.7177 18.3937C14.774 18.3712 14.8302 18.3544 14.8865 18.3335C15.0864 17.8722 15.3841 17.4596 15.7588 17.1243C16.1335 16.789 16.5765 16.5389 17.0571 16.3912C17.0455 15.9676 17.1323 15.5471 17.3108 15.1627L21.7546 5.54005C20.0091 4.21686 17.9628 3.34706 15.7987 3.0085C13.6347 2.66993 11.4205 2.87315 9.35427 3.59999ZM5.90615 18.2812C5.46114 18.2812 5.02613 18.1493 4.65612 17.902C4.28611 17.6548 3.99772 17.3034 3.82742 16.8923C3.65712 16.4811 3.61257 16.0287 3.69938 15.5923C3.7862 15.1558 4.00049 14.7549 4.31516 14.4402C4.62983 14.1256 5.03074 13.9113 5.4672 13.8245C5.90365 13.7377 6.35605 13.7822 6.76719 13.9525C7.17832 14.1228 7.52972 14.4112 7.77696 14.7812C8.02419 15.1512 8.15615 15.5862 8.15615 16.0312C8.15615 16.628 7.9191 17.2003 7.49714 17.6222C7.07518 18.0442 6.50289 18.2812 5.90615 18.2812ZM8.71865 11.8125C8.27364 11.8125 7.83863 11.6805 7.46862 11.4333C7.09861 11.1861 6.81022 10.8347 6.63992 10.4235C6.46962 10.0124 6.42507 9.55999 6.51188 9.12353C6.5987 8.68708 6.81299 8.28616 7.12766 7.9715C7.44233 7.65683 7.84324 7.44254 8.2797 7.35572C8.71615 7.2689 9.16855 7.31346 9.57969 7.48376C9.99082 7.65405 10.3422 7.94244 10.5895 8.31245C10.8367 8.68246 10.9686 9.11748 10.9686 9.56249C10.9686 10.1592 10.7316 10.7315 10.3096 11.1535C9.88768 11.5754 9.31539 11.8125 8.71865 11.8125ZM15.4686 9.84374C15.0236 9.84374 14.5886 9.71178 14.2186 9.46454C13.8486 9.21731 13.5602 8.86591 13.3899 8.45477C13.2196 8.04364 13.1751 7.59124 13.2619 7.15478C13.3487 6.71833 13.563 6.31741 13.8777 6.00275C14.1923 5.68808 14.5932 5.47379 15.0297 5.38697C15.4662 5.30015 15.9186 5.34471 16.3297 5.51501C16.7408 5.6853 17.0922 5.97369 17.3395 6.3437C17.5867 6.71371 17.7187 7.14873 17.7187 7.59374C17.7187 8.19047 17.4816 8.76277 17.0596 9.18473C16.6377 9.60668 16.0654 9.84374 15.4686 9.84374Z" fill="#1581BF"/>
<path d="M25.5813 2.33493C25.3318 2.23127 25.0517 2.22832 24.8 2.32669C24.5483 2.42507 24.3445 2.61713 24.2313 2.86256L18.3341 15.6341C18.1983 15.9279 18.1544 16.2558 18.2081 16.575C18.2618 16.8942 18.4106 17.1897 18.635 17.4229C18.0868 17.2943 17.5108 17.3646 17.0096 17.6212C16.5084 17.8778 16.1146 18.3041 15.8985 18.8241C14.9878 21.0234 16.4283 21.9881 15.5171 24.1875C16.5559 24.0714 17.5455 23.6824 18.3853 23.06C19.2251 22.4376 19.8851 21.6039 20.2983 20.6437C20.4929 20.1709 20.5295 19.6479 20.4028 19.1526C20.2762 18.6573 19.9929 18.2161 19.5952 17.8948C19.9549 17.9412 20.3196 17.8642 20.6299 17.6765C20.9401 17.4889 21.1776 17.2015 21.3035 16.8615L26.1635 3.65906C26.2558 3.40585 26.2468 3.1268 26.1383 2.88009C26.0298 2.63339 25.8303 2.43809 25.5813 2.33493Z" fill="#1581BF"/>
</svg>
