<svg width="20" height="20" viewBox="0 0 20 20" fill="none" xmlns="http://www.w3.org/2000/svg">
<rect width="20" height="20" fill="white"/>
<mask id="mask0_48_37231" style="mask-type:luminance" maskUnits="userSpaceOnUse" x="0" y="4" width="20" height="12">
<path fill-rule="evenodd" clip-rule="evenodd" d="M0 4H20V16H0V4Z" fill="white"/>
</mask>
<g mask="url(#mask0_48_37231)">
<path fill-rule="evenodd" clip-rule="evenodd" d="M8.12503 14.5107C7.91728 14.5107 7.75003 14.3397 7.75003 14.1357V5.88566C7.75003 5.67791 7.91728 5.51066 8.12503 5.51066C8.33278 5.51066 8.50003 5.67791 8.50003 5.88566V14.1357C8.50003 14.3397 8.33278 14.5107 8.12503 14.5107ZM5.87503 14.5107C5.66728 14.5107 5.50003 14.3397 5.50003 14.1357V8.88565C5.50003 8.6779 5.66728 8.51064 5.87503 8.51064C6.08278 8.51064 6.25003 8.6779 6.25003 8.88565V14.1357C6.25003 14.3397 6.08278 14.5107 5.87503 14.5107ZM3.625 14.5107C3.41725 14.5107 3.25 14.3397 3.25 14.1357V8.13566C3.25 7.92791 3.41725 7.76066 3.625 7.76066C3.83275 7.76066 4 7.92791 4 8.13566V14.1357C4 14.3397 3.83275 14.5107 3.625 14.5107ZM1.375 13.7607C1.16725 13.7607 1 13.5897 1 13.3857V10.3857C1 10.1779 1.16725 10.0107 1.375 10.0107C1.58275 10.0107 1.75 10.1779 1.75 10.3857V13.3857C1.75 13.5897 1.58275 13.7607 1.375 13.7607ZM10.75 13.7607H16.3751C17.4093 13.7607 18.2501 12.9169 18.2501 11.8857C18.2501 10.8514 17.4093 10.0107 16.3751 10.0107C15.8943 10.0107 15.4316 10.1952 15.0858 10.5282C14.9688 10.6407 14.7963 10.6639 14.6553 10.5897C14.515 10.5207 14.4325 10.3654 14.4558 10.2072C14.4835 10.0197 14.5 9.82915 14.5 9.63565C14.5 7.4884 12.8515 5.71464 10.75 5.52489V13.7607ZM16.375 14.5107H10.375C10.1673 14.5107 10 14.3397 10 14.1357V5.13568C10 4.92793 10.1673 4.76068 10.375 4.76068C13.0203 4.76293 15.1795 6.87194 15.247 9.5157C15.5988 9.34544 15.985 9.25769 16.375 9.26069C17.8233 9.26069 19.0001 10.4344 19.0001 11.8857C19.0001 13.3332 17.8233 14.5107 16.375 14.5107Z" fill="#6C6C6C"/>
<path d="M10.75 13.7607H10.5V14.0107H10.75V13.7607ZM15.0858 10.5282L15.2591 10.7084L15.2592 10.7082L15.0858 10.5282ZM14.6553 10.5897L14.7718 10.3684L14.7657 10.3653L14.6553 10.5897ZM14.4558 10.2072L14.2085 10.1706L14.2085 10.1708L14.4558 10.2072ZM10.75 5.52489L10.7725 5.2759L10.5 5.2513V5.52489H10.75ZM10.375 4.76068L10.3752 4.51068H10.375V4.76068ZM15.247 9.5157L14.9971 9.52208L15.007 9.90961L15.356 9.74072L15.247 9.5157ZM16.375 9.26069L16.3731 9.51069H16.375V9.26069ZM8.12503 14.2607C8.05697 14.2607 8.00003 14.2032 8.00003 14.1357H7.50003C7.50003 14.4761 7.77759 14.7607 8.12503 14.7607V14.2607ZM8.00003 14.1357V5.88566H7.50003V14.1357H8.00003ZM8.00003 5.88566C8.00003 5.81598 8.05535 5.76066 8.12503 5.76066V5.26066C7.77921 5.26066 7.50003 5.53984 7.50003 5.88566H8.00003ZM8.12503 5.76066C8.19471 5.76066 8.25003 5.81598 8.25003 5.88566H8.75003C8.75003 5.53984 8.47085 5.26066 8.12503 5.26066V5.76066ZM8.25003 5.88566V14.1357H8.75003V5.88566H8.25003ZM8.25003 14.1357C8.25003 14.2032 8.19309 14.2607 8.12503 14.2607V14.7607C8.47247 14.7607 8.75003 14.4761 8.75003 14.1357H8.25003ZM5.87503 14.2607C5.80697 14.2607 5.75003 14.2032 5.75003 14.1357H5.25003C5.25003 14.4761 5.52759 14.7607 5.87503 14.7607V14.2607ZM5.75003 14.1357V8.88565H5.25003V14.1357H5.75003ZM5.75003 8.88565C5.75003 8.81597 5.80535 8.76064 5.87503 8.76064V8.26064C5.52921 8.26064 5.25003 8.53982 5.25003 8.88565H5.75003ZM5.87503 8.76064C5.94471 8.76064 6.00003 8.81597 6.00003 8.88565H6.50003C6.50003 8.53982 6.22085 8.26064 5.87503 8.26064V8.76064ZM6.00003 8.88565V14.1357H6.50003V8.88565H6.00003ZM6.00003 14.1357C6.00003 14.2032 5.94309 14.2607 5.87503 14.2607V14.7607C6.22247 14.7607 6.50003 14.4761 6.50003 14.1357H6.00003ZM3.625 14.2607C3.55694 14.2607 3.5 14.2032 3.5 14.1357H3C3 14.4761 3.27756 14.7607 3.625 14.7607V14.2607ZM3.5 14.1357V8.13566H3V14.1357H3.5ZM3.5 8.13566C3.5 8.06598 3.55532 8.01066 3.625 8.01066V7.51066C3.27918 7.51066 3 7.78984 3 8.13566H3.5ZM3.625 8.01066C3.69468 8.01066 3.75 8.06598 3.75 8.13566H4.25C4.25 7.78984 3.97082 7.51066 3.625 7.51066V8.01066ZM3.75 8.13566V14.1357H4.25V8.13566H3.75ZM3.75 14.1357C3.75 14.2032 3.69306 14.2607 3.625 14.2607V14.7607C3.97244 14.7607 4.25 14.4761 4.25 14.1357H3.75ZM1.375 13.5107C1.30694 13.5107 1.25 13.4532 1.25 13.3857H0.75C0.75 13.7261 1.02756 14.0107 1.375 14.0107V13.5107ZM1.25 13.3857V10.3857H0.75V13.3857H1.25ZM1.25 10.3857C1.25 10.316 1.30532 10.2607 1.375 10.2607V9.76066C1.02918 9.76066 0.75 10.0398 0.75 10.3857H1.25ZM1.375 10.2607C1.44468 10.2607 1.5 10.316 1.5 10.3857H2C2 10.0398 1.72082 9.76066 1.375 9.76066V10.2607ZM1.5 10.3857V13.3857H2V10.3857H1.5ZM1.5 13.3857C1.5 13.4532 1.44306 13.5107 1.375 13.5107V14.0107C1.72244 14.0107 2 13.7261 2 13.3857H1.5ZM10.75 14.0107H16.3751V13.5107H10.75V14.0107ZM16.3751 14.0107C17.5476 14.0107 18.5001 13.0547 18.5001 11.8857H18.0001C18.0001 12.7791 17.271 13.5107 16.3751 13.5107V14.0107ZM18.5001 11.8857C18.5001 10.7133 17.5474 9.76065 16.3751 9.76065V10.2607C17.2712 10.2607 18.0001 10.9895 18.0001 11.8857H18.5001ZM16.3751 9.76065C15.8304 9.76065 15.3053 9.96967 14.9124 10.3481L15.2592 10.7082C15.5578 10.4206 15.9582 10.2607 16.3751 10.2607V9.76065ZM14.9125 10.3479C14.8735 10.3855 14.8178 10.3927 14.7718 10.3685L14.5388 10.8109C14.7748 10.9351 15.0641 10.8958 15.2591 10.7084L14.9125 10.3479ZM14.7657 10.3653C14.7231 10.3444 14.6956 10.2947 14.7031 10.2435L14.2085 10.1708C14.1695 10.4361 14.3069 10.6969 14.5449 10.814L14.7657 10.3653ZM14.7031 10.2438C14.7323 10.0462 14.75 9.84335 14.75 9.63565H14.25C14.25 9.81495 14.2348 9.99307 14.2085 10.1706L14.7031 10.2438ZM14.75 9.63565C14.75 7.35814 13.002 5.47721 10.7725 5.2759L10.7276 5.77388C12.7011 5.95208 14.25 7.61865 14.25 9.63565H14.75ZM10.5 5.52489V13.7607H11V5.52489H10.5ZM16.375 14.2607H10.375V14.7607H16.375V14.2607ZM10.375 14.2607C10.307 14.2607 10.25 14.2033 10.25 14.1357H9.75003C9.75003 14.4762 10.0276 14.7607 10.375 14.7607V14.2607ZM10.25 14.1357V5.13568H9.75003V14.1357H10.25ZM10.25 5.13568C10.25 5.066 10.3053 5.01068 10.375 5.01068V4.51068C10.0292 4.51068 9.75003 4.78986 9.75003 5.13568H10.25ZM10.3748 5.01068C12.8844 5.01282 14.9331 7.01364 14.9971 9.52208L15.497 9.50931C15.426 6.73024 13.1561 4.51305 10.3752 4.51068L10.3748 5.01068ZM15.356 9.74072C15.6735 9.58703 16.0219 9.50799 16.3731 9.51069L16.377 9.0107C15.9482 9.0074 15.5241 9.10386 15.1381 9.29067L15.356 9.74072ZM16.375 9.51069C17.6854 9.51069 18.7501 10.5727 18.7501 11.8857H19.2501C19.2501 10.2962 17.9612 9.01069 16.375 9.01069V9.51069ZM18.7501 11.8857C18.7501 13.1952 17.6852 14.2607 16.375 14.2607V14.7607C17.9614 14.7607 19.2501 13.4712 19.2501 11.8857H18.7501Z" fill="#6C6C6C"/>
</g>
</svg>
