<svg width="65" height="70" viewBox="0 0 65 70" fill="none" xmlns="http://www.w3.org/2000/svg">
<rect y="-2.20936" width="50.3996" height="50.3996" rx="9.5" transform="matrix(0.676488 0.736454 -0.676488 0.736454 30.5706 -0.582269)" fill="url(#paint0_linear_1870_73035)"/>
<rect y="-2.20936" width="50.3996" height="50.3996" rx="9.5" transform="matrix(0.676488 0.736454 -0.676488 0.736454 30.5706 -0.582269)" stroke="white" stroke-width="3"/>
<path fill-rule="evenodd" clip-rule="evenodd" d="M32.7719 27.2166C32.7719 26.7919 32.4556 26.4475 32.0655 26.4475C31.6753 26.4475 31.359 26.7919 31.359 27.2166V34.1386H25.0004C24.6102 34.1386 24.2939 34.483 24.2939 34.9077C24.2939 35.3325 24.6102 35.6768 25.0004 35.6768H31.359V42.5988C31.359 43.0236 31.6753 43.3679 32.0655 43.3679C32.4556 43.3679 32.7719 43.0236 32.7719 42.5988V35.6768H39.1301C39.5203 35.6768 39.8366 35.3325 39.8366 34.9077C39.8366 34.483 39.5203 34.1386 39.1301 34.1386H32.7719V27.2166Z" fill="white"/>
<path d="M31.359 34.1386V34.7154H31.8888V34.1386H31.359ZM31.359 35.6768H31.8888V35.1H31.359V35.6768ZM32.7719 35.6768V35.1H32.2421V35.6768H32.7719ZM32.7719 34.1386H32.2421V34.7154H32.7719V34.1386ZM32.0655 27.0243C32.163 27.0243 32.2421 27.1104 32.2421 27.2166H33.3018C33.3018 26.4733 32.7483 25.8707 32.0655 25.8707V27.0243ZM31.8888 27.2166C31.8888 27.1104 31.9679 27.0243 32.0655 27.0243V25.8707C31.3826 25.8707 30.8291 26.4733 30.8291 27.2166H31.8888ZM31.8888 34.1386V27.2166H30.8291V34.1386H31.8888ZM25.0004 34.7154H31.359V33.5618H25.0004V34.7154ZM24.8238 34.9077C24.8238 34.8015 24.9029 34.7154 25.0004 34.7154V33.5618C24.3176 33.5618 23.7641 34.1644 23.7641 34.9077H24.8238ZM25.0004 35.1C24.9029 35.1 24.8238 35.0139 24.8238 34.9077H23.7641C23.7641 35.6511 24.3176 36.2537 25.0004 36.2537V35.1ZM31.359 35.1H25.0004V36.2537H31.359V35.1ZM31.8888 42.5988V35.6768H30.8291V42.5988H31.8888ZM32.0655 42.7911C31.9679 42.7911 31.8888 42.705 31.8888 42.5988H30.8291C30.8291 43.3422 31.3826 43.9448 32.0655 43.9448V42.7911ZM32.2421 42.5988C32.2421 42.705 32.163 42.7911 32.0655 42.7911V43.9448C32.7483 43.9448 33.3018 43.3422 33.3018 42.5988H32.2421ZM32.2421 35.6768V42.5988H33.3018V35.6768H32.2421ZM39.1301 35.1H32.7719V36.2537H39.1301V35.1ZM39.3068 34.9077C39.3068 35.0139 39.2277 35.1 39.1301 35.1V36.2537C39.813 36.2537 40.3665 35.6511 40.3665 34.9077H39.3068ZM39.1301 34.7154C39.2277 34.7154 39.3068 34.8015 39.3068 34.9077H40.3665C40.3665 34.1644 39.813 33.5618 39.1301 33.5618V34.7154ZM32.7719 34.7154H39.1301V33.5618H32.7719V34.7154ZM32.2421 27.2166V34.1386H33.3018V27.2166H32.2421Z" fill="white"/>
<defs>
<linearGradient id="paint0_linear_1870_73035" x1="-12.8349" y1="14.9173" x2="53.8854" y2="39.6111" gradientUnits="userSpaceOnUse">
<stop stop-color="#133970"/>
<stop offset="1" stop-color="#282828"/>
</linearGradient>
</defs>
</svg>
