<svg width="20" height="20" viewBox="0 0 20 20" fill="none" xmlns="http://www.w3.org/2000/svg">
<rect width="20" height="20" fill="white"/>
<path fill-rule="evenodd" clip-rule="evenodd" d="M16.9231 18.4615C16.9231 18.7469 16.6916 18.9785 16.4062 18.9785H7.17542V4.09846H16.9231V18.4615ZM3.07696 17.9446V3.84615L3.28465 3.95462L3.49157 4.02308H3.5608L3.73773 4.06231H6.15388V18.9785H4.0985C3.53388 18.9723 3.07696 18.5123 3.07696 17.9446ZM4.0985 1.02154H15.637C15.4654 1.33692 15.3754 1.69462 15.3847 2.05538C15.3847 2.41308 15.4808 2.76769 15.6608 3.07692H4.12234C3.5908 3.03154 3.18234 2.58385 3.18234 2.04923C3.18234 1.51462 3.5908 1.07 4.12234 1.02154H4.0985ZM17.44 3.07692C17.0493 3.11 16.677 2.92385 16.4723 2.59C16.2677 2.26 16.2677 1.84231 16.4723 1.50846C16.677 1.17769 17.0493 0.988462 17.44 1.02154C17.6985 0.991539 17.8908 0.772308 17.8908 0.510769C17.8908 0.252308 17.6985 0.0330769 17.44 0H4.0985C2.9685 0.00307692 2.05542 0.922308 2.05542 2.05538V17.9446C2.05542 19.0777 2.9685 19.9969 4.0985 20H16.4062C17.257 20 17.9447 19.3115 17.9447 18.4615V3.59385C17.9447 3.31154 17.7193 3.08 17.44 3.07692Z" fill="#6C6C6C"/>
<path fill-rule="evenodd" clip-rule="evenodd" d="M8.71404 17.9447H11.2863C11.5448 17.9147 11.7371 17.6955 11.7371 17.4339C11.7371 17.1755 11.5448 16.9562 11.2863 16.9232H8.71404C8.45558 16.9562 8.26327 17.1755 8.26327 17.4339C8.26327 17.6955 8.45558 17.9147 8.71404 17.9447ZM8.71404 15.9016H12.3079C12.5933 15.9016 12.8248 15.6701 12.8248 15.3847C12.8248 15.0993 12.5933 14.8678 12.3079 14.8678H8.71404C8.43173 14.8678 8.2002 15.0993 8.2002 15.3847C8.2002 15.6701 8.43173 15.9016 8.71404 15.9016ZM8.71404 13.8462H11.2863C11.5448 13.8132 11.7371 13.5939 11.7371 13.3355C11.7371 13.0739 11.5448 12.8547 11.2863 12.8247H8.71404C8.45558 12.8547 8.26327 13.0739 8.26327 13.3355C8.26327 13.5939 8.45558 13.8132 8.71404 13.8462ZM9.23096 7.9447H14.8679V6.40624H9.23096V7.9447ZM8.71404 8.97855H15.3848C15.6702 8.97855 15.9017 8.74701 15.9017 8.46163V5.90163C15.9017 5.61624 15.6702 5.3847 15.3848 5.3847H8.71404C8.43481 5.38778 8.20943 5.61932 8.20943 5.90163V8.46163C8.20943 8.74394 8.43481 8.9724 8.71404 8.97855Z" fill="#6C6C6C"/>
</svg>
