<svg width="40" height="40" viewBox="0 0 40 40" fill="none" xmlns="http://www.w3.org/2000/svg">
<rect width="40" height="40" rx="20" fill="#2861D9" fill-opacity="0.1"/>
<path d="M28.2402 18.2517C28.5637 18.2517 28.8261 17.9893 28.8261 17.6657V12.9502C28.8261 11.3292 27.5089 10 25.8744 10L14.1029 10C12.4878 10 11.1738 11.314 11.1738 12.9291V29.4035C11.1738 29.9282 11.8185 30.1893 12.183 29.8088L12.9326 29.0259L13.7244 29.8178C13.9532 30.0466 14.3242 30.0466 14.553 29.8179L15.3034 29.0678L16.0614 29.8195C16.2898 30.046 16.6581 30.0461 16.8866 29.8196L17.6566 29.0562L18.4269 29.8196C18.6551 30.046 19.023 30.046 19.2515 29.82L20.2383 28.8435C21.1411 29.5667 22.2857 30 23.5297 30C26.4375 30 28.8032 27.6343 28.8032 24.7266C28.8032 22.0106 26.7393 19.7679 24.0976 19.4838V18.2517H28.2402ZM27.6542 12.9502V17.0798H24.0976V12.9502C24.0976 11.9696 24.8953 11.1719 25.8759 11.1719C26.8564 11.1719 27.6542 11.9696 27.6542 12.9502ZM18.8397 28.5789L18.069 27.815C17.8405 27.5886 17.4724 27.5887 17.244 27.815L16.4741 28.5784L15.7144 27.8249C15.4853 27.5977 15.1157 27.5984 14.8875 27.8265L14.1389 28.5749L13.3379 27.7739C13.0984 27.5345 12.7214 27.5521 12.5003 27.783L12.3457 27.9444V12.9291C12.3457 11.9602 13.1339 11.1719 14.1029 11.1719H23.5238C23.1487 11.6667 22.9257 12.2828 22.9257 12.9502V19.4879C18.8133 19.9591 16.8358 24.7957 19.41 28.0145L18.8397 28.5789ZM27.6313 24.7266C27.6313 26.9882 25.7913 28.8281 23.5297 28.8281C21.2681 28.8281 19.4282 26.9882 19.4282 24.7266C19.4282 22.465 21.2681 20.625 23.5297 20.625C25.7913 20.625 27.6313 22.465 27.6313 24.7266Z" fill="#2861D9"/>
<path d="M23.1392 23.0993V24.2961H21.9532C21.6296 24.2961 21.3672 24.5584 21.3672 24.882C21.3672 25.2056 21.6296 25.4679 21.9532 25.4679H23.7251C24.0487 25.4679 24.3111 25.2056 24.3111 24.882V23.0993C24.3111 22.7757 24.0487 22.5133 23.7251 22.5133C23.4015 22.5133 23.1392 22.7757 23.1392 23.0993ZM18.6995 15.3328C18.1389 14.8959 17.4075 14.8281 17.2441 14.5332C17.1864 14.4291 17.2479 14.2576 17.373 14.1735C17.5511 14.0538 17.932 14.1009 18.0658 14.2244C18.3037 14.4438 18.6744 14.4288 18.8938 14.1909C19.1132 13.953 19.0982 13.5823 18.8603 13.363C18.6783 13.1951 18.4474 13.0753 18.1978 13.0054V12.957C18.1978 12.6334 17.9354 12.3711 17.6118 12.3711C17.2882 12.3711 17.0259 12.6334 17.0259 12.957V13.0446C16.1742 13.3637 15.8084 14.3596 16.219 15.101C16.5067 15.6204 17.0114 15.8197 17.417 15.9799C17.7381 16.1067 18.2111 16.2807 18.172 16.6315C18.1533 16.7988 18.0268 16.9647 17.8572 17.0445C17.6152 17.1584 17.1288 17.088 16.8366 16.8969C16.5659 16.7198 16.2027 16.7957 16.0255 17.0665C15.8484 17.3373 15.9243 17.7004 16.1951 17.8776C16.4228 18.0265 16.7139 18.1466 17.0259 18.2135V18.288C17.0259 18.6116 17.2882 18.874 17.6118 18.874C17.9354 18.874 18.1978 18.6116 18.1978 18.288V18.1685C19.3804 17.7588 19.8145 16.2016 18.6995 15.3328ZM17.0703 20.0023H14.1406C13.817 20.0023 13.5547 20.2646 13.5547 20.5882C13.5547 20.9118 13.817 21.1742 14.1406 21.1742H17.0703C17.3939 21.1742 17.6563 20.9118 17.6563 20.5882C17.6563 20.2646 17.3939 20.0023 17.0703 20.0023ZM17.0703 22.35H14.1387C13.8151 22.35 13.5527 22.6123 13.5527 22.9359C13.5527 23.2595 13.8151 23.5218 14.1387 23.5218H17.0703C17.3939 23.5218 17.6563 23.2595 17.6563 22.9359C17.6563 22.6123 17.3939 22.35 17.0703 22.35ZM17.0703 24.6898H14.1367C13.8131 24.6898 13.5508 24.9521 13.5508 25.2757C13.5508 25.5993 13.8131 25.8617 14.1367 25.8617H17.0703C17.3939 25.8617 17.6563 25.5993 17.6563 25.2757C17.6563 24.9521 17.3939 24.6898 17.0703 24.6898Z" fill="#2861D9"/>
</svg>
