<svg width="24" height="24" viewBox="0 0 24 24" fill="none" xmlns="http://www.w3.org/2000/svg">
<path fill-rule="evenodd" clip-rule="evenodd" d="M6.19629 15.1671C6.19629 13.4178 10.1761 11.9985 15.0871 11.9985C19.9967 11.9985 23.9765 13.4179 23.9765 15.1671V18.0793C23.9765 19.8286 19.9967 21.2479 15.0871 21.2479C10.1761 21.2479 6.19629 19.8286 6.19629 18.0793V15.1671Z" fill="#FE9923"/>
<path fill-rule="evenodd" clip-rule="evenodd" d="M15.0871 11.9985C19.9967 11.9985 23.9765 13.4179 23.9765 15.1671C23.9765 16.9177 19.9967 18.3357 15.0871 18.3357C10.1761 18.3357 6.19629 16.9177 6.19629 15.1671C6.19624 13.4178 10.1761 11.9985 15.0871 11.9985Z" fill="#FECD3D"/>
<path fill-rule="evenodd" clip-rule="evenodd" d="M15.0871 13.4792C18.9933 13.4792 22.1591 14.2359 22.1591 15.1672C22.1591 16.0997 18.9933 16.855 15.0871 16.855C11.1809 16.855 8.01367 16.0997 8.01367 15.1672C8.01367 14.2359 11.1809 13.4792 15.0871 13.4792Z" fill="#FEA832"/>
<path d="M10.5864 19.4769L11.3458 19.4783V20.9535C11.0916 20.912 10.8384 20.8648 10.5864 20.8117V19.4769ZM21.5727 18.6957V20.2459C21.8468 20.1409 22.1004 20.0305 22.3335 19.9146V18.6943L21.5727 18.6957ZM13.3323 21.1853C13.5832 21.2044 13.8368 21.218 14.0931 21.2276V19.8178L13.3323 19.8191V21.1853ZM7.83911 19.9146C8.07227 20.0305 8.32586 20.1409 8.59989 20.2459V18.6943L7.83911 18.6957V19.9146ZM16.0795 21.2276C16.3329 21.2178 16.5861 21.2037 16.839 21.1853V19.8191L16.0795 19.8178V21.2276ZM18.8268 20.9535C19.0811 20.9122 19.3343 20.8649 19.5863 20.8117V19.4783L18.8268 19.4769V20.9535Z" fill="#C85929"/>
<path d="M2.6336 18.6875V19.631H3.57574V20.3045H2.6336V21.248H1.9601V20.3045H1.0166V19.631H1.9601V18.6875H2.6336ZM19.8699 8.35422V9.29767H20.8133V9.96986H19.8699V10.9133H19.1963V9.96986H18.2542V9.29767H19.1963V8.35422H19.8699ZM3.08627 2.75195V3.69545H4.02841V4.36759H3.08627V5.31109H2.41273V4.36759H1.46927V3.69545H2.41273V2.75195H3.08627Z" fill="#FEA832"/>
<path fill-rule="evenodd" clip-rule="evenodd" d="M0.186416 13.5201C-0.68888 12.0039 2.04885 8.78493 6.30131 6.33079C10.5538 3.87529 14.7095 3.11451 15.5848 4.62922C16.0698 5.46971 16.5552 6.31002 17.0409 7.15016C17.9162 8.66629 15.1784 11.8853 10.926 14.3394C6.67354 16.7949 2.51784 17.5571 1.64254 16.0409C1.15715 15.2011 0.671807 14.3599 0.186416 13.5201Z" fill="#FE9923"/>
<path fill-rule="evenodd" clip-rule="evenodd" d="M6.30131 6.33079C10.5538 3.87529 14.7095 3.11451 15.5848 4.62922C16.4601 6.14535 13.7223 9.36435 9.46987 11.8185C5.21878 14.274 1.06171 15.0348 0.186416 13.52C-0.68888 12.0039 2.04885 8.78493 6.30131 6.33079Z" fill="#FECD3D"/>
<path fill-rule="evenodd" clip-rule="evenodd" d="M7.04177 7.61248C10.4244 5.66009 13.5453 4.73159 14.0115 5.53873C14.4778 6.34587 12.1123 8.58321 8.72969 10.537C5.34705 12.4894 2.22757 13.4179 1.7613 12.6108C1.29503 11.8036 3.65913 9.56623 7.04177 7.61248Z" fill="#FEA832"/>
<path d="M9.35124 13.5993L10.0561 14.8196C9.83145 14.9382 9.60464 15.0527 9.3758 15.1631L8.69274 13.9797L9.35124 13.5993ZM3.37402 15.7535L3.98349 16.8088C4.24252 16.7938 4.51796 16.7624 4.80699 16.7161L4.03257 15.3731L3.37402 15.7535ZM6.14312 15.0568L6.81118 16.213C7.05573 16.1329 7.29847 16.0475 7.53924 15.9567L6.80162 14.6778L6.14312 15.0568ZM11.0718 12.6054L11.7767 13.8256C11.9913 13.6907 12.2036 13.5521 12.4134 13.4098L11.7304 12.2277L11.0718 12.6054ZM15.9256 8.50562L15.2671 8.88737L16.0428 10.229C16.2269 10.0027 16.3919 9.77902 16.535 9.56222L15.9256 8.50562ZM13.2806 10.9366L14.0182 12.2155C14.2177 12.053 14.4132 11.8857 14.6045 11.7137L13.9378 10.5589L13.2806 10.9366Z" fill="#C85929"/>
</svg>
