<svg width="12" height="14" viewBox="0 0 12 14" fill="none" xmlns="http://www.w3.org/2000/svg">
<path d="M5.91278 6.78045C6.70689 6.78045 7.39445 6.49561 7.95641 5.93365C8.51818 5.37181 8.80309 4.68434 8.80309 3.89014C8.80309 3.09617 8.51827 2.40864 7.95632 1.84658C7.39436 1.28481 6.70679 1 5.91278 1C5.11856 1 4.43106 1.28481 3.86922 1.84668C3.30738 2.40854 3.02245 3.0961 3.02245 3.89014C3.02245 4.68434 3.30736 5.3719 3.86925 5.93377C4.43128 6.49554 5.11884 6.78045 5.91276 6.78045H5.91278ZM4.36654 2.3439C4.79765 1.91277 5.30341 1.70322 5.91278 1.70322C6.52206 1.70322 7.02789 1.91277 7.45909 2.3439C7.89022 2.77511 8.09987 3.28093 8.09987 3.89012C8.09987 4.49949 7.89022 5.00525 7.45909 5.43645C7.02789 5.86768 6.52206 6.07723 5.91278 6.07723C5.30357 6.07723 4.79786 5.86758 4.36654 5.43645C3.93532 5.00534 3.72567 4.49952 3.72567 3.89014C3.72567 3.28093 3.93532 2.77511 4.36654 2.3439ZM10.97 10.2274C10.9538 9.99358 10.9211 9.73849 10.8728 9.46917C10.8241 9.19779 10.7614 8.94126 10.6863 8.70679C10.6087 8.46445 10.5033 8.22516 10.3728 7.9958C10.2376 7.75777 10.0787 7.55048 9.90033 7.37993C9.71384 7.2015 9.48552 7.05804 9.22147 6.95337C8.95836 6.84931 8.66675 6.79657 8.35485 6.79657C8.23234 6.79657 8.11388 6.84682 7.88509 6.99579C7.72245 7.10169 7.55934 7.20685 7.39574 7.31126C7.23854 7.41143 7.02559 7.50527 6.76255 7.59023C6.50594 7.67327 6.24538 7.71539 5.98811 7.71539C5.73105 7.71539 5.47047 7.67327 5.21366 7.59023C4.95093 7.50534 4.73788 7.41152 4.58095 7.31135C4.39884 7.19499 4.23407 7.08879 4.09115 6.99567C3.86254 6.84673 3.74407 6.79646 3.62158 6.79646C3.30956 6.79646 3.01807 6.84928 2.75503 6.95349C2.49117 7.05795 2.26275 7.20141 2.07607 7.38002C1.89773 7.55067 1.7388 7.75784 1.60366 7.9958C1.4734 8.22513 1.36793 8.46436 1.29028 8.70689C1.21528 8.94136 1.15259 9.19779 1.10388 9.46917C1.05553 9.73814 1.02286 9.9933 1.00664 10.2277C0.990705 10.4568 0.982666 10.6953 0.982666 10.9363C0.982666 11.5627 1.18179 12.0698 1.57446 12.4438C1.96228 12.8129 2.47535 13 3.09944 13H8.87752C9.50143 13 10.0145 12.8128 10.4024 12.4438C10.7952 12.0701 10.9943 11.5628 10.9943 10.9362C10.9942 10.6944 10.9861 10.4559 10.97 10.2274ZM9.91756 11.9343C9.6613 12.1782 9.32108 12.2968 8.87741 12.2968H3.09947C2.65573 12.2968 2.31551 12.1782 2.05934 11.9344C1.80804 11.6952 1.68591 11.3686 1.68591 10.9363C1.68591 10.7114 1.69331 10.4894 1.70817 10.2763C1.72261 10.0672 1.75219 9.83746 1.79606 9.59339C1.83935 9.35233 1.89445 9.12611 1.96001 8.92132C2.02291 8.72491 2.10869 8.53047 2.21508 8.34316C2.31661 8.16462 2.43342 8.01145 2.56233 7.88805C2.68291 7.7726 2.8349 7.67813 3.01397 7.60727C3.17958 7.5417 3.36572 7.50581 3.56777 7.5004C3.59238 7.51352 3.63625 7.53851 3.70729 7.58482C3.85186 7.67904 4.01847 7.78652 4.20269 7.90416C4.41035 8.03655 4.67784 8.15611 4.99745 8.25928C5.3242 8.36494 5.65745 8.41858 5.98823 8.41858C6.31902 8.41858 6.65235 8.36494 6.97893 8.25937C7.2988 8.15601 7.56622 8.03655 7.77416 7.90397C7.96267 7.7835 8.12462 7.67913 8.26916 7.58482C8.34022 7.53858 8.38407 7.5135 8.4087 7.50042C8.61085 7.50581 8.79697 7.5417 8.96267 7.60725C9.14166 7.67813 9.29366 7.7727 9.41422 7.88803C9.54312 8.01136 9.65994 8.16455 9.76147 8.34326C9.86794 8.53047 9.95384 8.72503 10.0166 8.92122C10.0823 9.1263 10.1375 9.35243 10.1807 9.59329C10.2245 9.83784 10.2541 10.0676 10.2686 10.2764V10.2766C10.2835 10.4889 10.291 10.7108 10.2911 10.9363C10.291 11.3687 10.1689 11.6952 9.91758 11.9343H9.91756Z" fill="#9898A5" stroke="#9898A5" stroke-width="0.2"/>
</svg>
