<svg width="12" height="12" viewBox="0 0 12 12" fill="none" xmlns="http://www.w3.org/2000/svg">
<path fill-rule="evenodd" clip-rule="evenodd" d="M0.410582 0.410749C0.736019 0.0853125 1.26366 0.0853125 1.58909 0.41075L5.99984 4.82149L10.4106 0.41075C10.736 0.085313 11.2637 0.085313 11.5891 0.41075C11.9145 0.736187 11.9145 1.26382 11.5891 1.58926L7.17835 6.00001L11.5891 10.4108C11.9145 10.7362 11.9145 11.2638 11.5891 11.5893C11.2637 11.9147 10.736 11.9147 10.4106 11.5893L5.99984 7.17852L1.58909 11.5893C1.26366 11.9147 0.736019 11.9147 0.410582 11.5893C0.0851447 11.2638 0.0851447 10.7362 0.410582 10.4108L4.82133 6.00001L0.410582 1.58926C0.0851447 1.26382 0.0851447 0.736186 0.410582 0.410749Z" fill="#AEAEBC"/>
</svg>
