<svg width="24" height="24" viewBox="0 0 24 24" fill="none" xmlns="http://www.w3.org/2000/svg">
<path fill-rule="evenodd" clip-rule="evenodd" d="M10.734 10.4004C11.1758 10.4004 11.534 10.7586 11.534 11.2004V15.2004C11.534 15.6422 11.1758 16.0004 10.734 16.0004C10.2921 16.0004 9.93396 15.6422 9.93396 15.2004V11.2004C9.93396 10.7586 10.2921 10.4004 10.734 10.4004Z" fill="black"/>
<path fill-rule="evenodd" clip-rule="evenodd" d="M13.9337 10.4004C14.3755 10.4004 14.7337 10.7586 14.7337 11.2004V15.2004C14.7337 15.6422 14.3755 16.0004 13.9337 16.0004C13.4918 16.0004 13.1337 15.6422 13.1337 15.2004V11.2004C13.1337 10.7586 13.4918 10.4004 13.9337 10.4004Z" fill="black"/>
<path fill-rule="evenodd" clip-rule="evenodd" d="M10.7334 4C9.40789 4 8.33337 5.07452 8.33337 6.4H5.93337H5.13337C4.69155 6.4 4.33337 6.75817 4.33337 7.2C4.33337 7.64183 4.69155 8 5.13337 8H5.93337V17.6C5.93337 18.9255 7.00789 20 8.33337 20H16.3334C17.6589 20 18.7334 18.9255 18.7334 17.6V8H19.5334C19.9752 8 20.3334 7.64183 20.3334 7.2C20.3334 6.75817 19.9752 6.4 19.5334 6.4H18.7334H16.3334C16.3334 5.07452 15.2589 4 13.9334 4H10.7334ZM14.7334 6.4C14.7334 5.95817 14.3752 5.6 13.9334 5.6H10.7334C10.2915 5.6 9.93337 5.95817 9.93337 6.4H14.7334ZM8.33337 8H7.53337V17.6C7.53337 18.0418 7.89155 18.4 8.33337 18.4H16.3334C16.7752 18.4 17.1334 18.0418 17.1334 17.6V8H16.3334H8.33337Z" fill="black"/>
</svg>
