<svg width="17" height="16" viewBox="0 0 17 16" fill="none" xmlns="http://www.w3.org/2000/svg">
<path fill-rule="evenodd" clip-rule="evenodd" d="M7.40638 6.93317C7.70093 6.93317 7.93971 7.17195 7.93971 7.4665V10.1332C7.93971 10.4277 7.70093 10.6665 7.40638 10.6665C7.11183 10.6665 6.87305 10.4277 6.87305 10.1332V7.4665C6.87305 7.17195 7.11183 6.93317 7.40638 6.93317Z" fill="#F92727"/>
<path fill-rule="evenodd" clip-rule="evenodd" d="M9.53919 6.93317C9.83374 6.93317 10.0725 7.17195 10.0725 7.4665V10.1332C10.0725 10.4277 9.83374 10.6665 9.53919 10.6665C9.24464 10.6665 9.00586 10.4277 9.00586 10.1332V7.4665C9.00586 7.17195 9.24464 6.93317 9.53919 6.93317Z" fill="#F92727"/>
<path fill-rule="evenodd" clip-rule="evenodd" d="M7.40534 2.66638C6.52168 2.66638 5.80534 3.38273 5.80534 4.26638H4.20534H3.67201C3.37745 4.26638 3.13867 4.50516 3.13867 4.79971C3.13867 5.09427 3.37745 5.33305 3.67201 5.33305H4.20534V11.733C4.20534 12.6167 4.92168 13.333 5.80534 13.333H11.1387C12.0223 13.333 12.7387 12.6167 12.7387 11.733V5.33305H13.272C13.5666 5.33305 13.8053 5.09427 13.8053 4.79971C13.8053 4.50516 13.5666 4.26638 13.272 4.26638H12.7387H11.1387C11.1387 3.38273 10.4223 2.66638 9.53867 2.66638H7.40534ZM10.072 4.26638C10.072 3.97183 9.83322 3.73305 9.53867 3.73305H7.40534C7.11079 3.73305 6.872 3.97183 6.872 4.26638H10.072ZM5.80534 5.33305H5.272V11.733C5.272 12.0276 5.51079 12.2664 5.80534 12.2664H11.1387C11.4332 12.2664 11.672 12.0276 11.672 11.733V5.33305H11.1387H5.80534Z" fill="#F92727"/>
</svg>
