<svg width="33" height="32" viewBox="0 0 33 32" fill="none" xmlns="http://www.w3.org/2000/svg">
<path fill-rule="evenodd" clip-rule="evenodd" d="M19.1367 2.66602C19.1941 2.66602 19.2503 2.67086 19.3051 2.68015L19.4852 2.68122C19.7572 2.68122 20.0172 2.79188 20.2066 2.98788L26.9612 10.0239C27.1386 10.2092 27.2387 10.4585 27.2387 10.7159V22.9692C27.2599 26.3145 24.6519 29.0332 21.3012 29.1532H10.4479C7.19427 29.0833 4.58484 26.4541 4.50439 23.2335L4.50391 8.65321C4.58257 5.34522 7.31324 2.68122 10.5959 2.68122L18.9683 2.68015C19.0231 2.67086 19.0793 2.66602 19.1367 2.66602ZM18.1359 4.68068L10.5999 4.68122C8.39057 4.68122 6.55591 6.47055 6.50391 8.67722V22.9692C6.45591 25.2372 8.24257 27.1039 10.4892 27.1532H21.2666C23.4919 27.0732 25.2532 25.2372 25.2387 22.9759L25.2386 11.9767L22.5607 11.978C20.1194 11.9713 18.1367 9.98202 18.1367 7.54468L18.1359 4.68068ZM15.3578 12.2112C15.6338 12.2112 15.8838 12.3232 16.0648 12.5042L16.0662 12.5051L19.1942 15.6464C19.5835 16.0384 19.5822 16.6704 19.1915 17.0597C18.7995 17.4491 18.1662 17.4491 17.7768 17.0571L16.3572 15.6313L16.3578 21.2659C16.3578 21.8179 15.9098 22.2659 15.3578 22.2659C14.8058 22.2659 14.3578 21.8179 14.3578 21.2659L14.3572 15.6313L12.9395 17.0571C12.7448 17.2544 12.4875 17.3517 12.2315 17.3517C11.9768 17.3517 11.7208 17.2544 11.5262 17.0597C11.1355 16.6704 11.1328 16.0384 11.5235 15.6464L14.6488 12.5051L14.6934 12.464C14.7127 12.4468 14.7327 12.4304 14.7533 12.4147L14.6488 12.5051C14.686 12.4678 14.7261 12.4341 14.7684 12.4042C14.933 12.2828 15.1371 12.2112 15.3578 12.2112ZM20.1359 5.80202L20.1367 7.54468C20.1367 8.88335 21.2247 9.97402 22.5634 9.97802L24.1426 9.97668L20.1359 5.80202Z" fill="#282828"/>
</svg>
