<svg width="28" height="28" viewBox="0 0 28 28" fill="none" xmlns="http://www.w3.org/2000/svg">
<g clip-path="url(#clip0_1236_17761)">
<path d="M25.1932 5.12695H3.35127C3.0566 5.12714 2.77404 5.24427 2.56568 5.45264C2.35731 5.66101 2.24017 5.94356 2.23999 6.23823V26.2784C2.24017 26.5731 2.35731 26.8557 2.56568 27.064C2.77404 27.2724 3.0566 27.3895 3.35127 27.3897H25.1932C25.4879 27.3896 25.7705 27.2724 25.9789 27.0641C26.1873 26.8557 26.3044 26.5731 26.3046 26.2784V6.23823C26.3044 5.94354 26.1873 5.66097 25.9789 5.4526C25.7705 5.24423 25.4879 5.12711 25.1932 5.12695Z" fill="#1581BF"/>
<path d="M23.7555 20.4259H4.7895C4.1758 20.4259 3.67822 19.9284 3.67822 19.3147V1.6081C3.67822 0.9944 4.1758 0.496826 4.7895 0.496826H23.7555C24.3692 0.496826 24.8668 0.9944 24.8668 1.6081V19.3147C24.8668 19.9284 24.3692 20.4259 23.7555 20.4259Z" fill="#A0CDE5"/>
<path d="M4.03006 19.6664V1.95994C4.03006 1.34624 4.52763 0.848662 5.14134 0.848662H24.1073C24.3241 0.848662 24.5256 0.911662 24.6965 1.01896C24.5 0.705679 24.1525 0.496826 23.7555 0.496826H4.7895C4.1758 0.496826 3.67822 0.9944 3.67822 1.6081V19.3147C3.67822 19.7118 3.88708 20.0592 4.20035 20.2558C4.09306 20.0848 4.03006 19.8833 4.03006 19.6665V19.6664Z" fill="url(#paint0_linear_1236_17761)"/>
<path d="M21.4218 4.23804H7.12305V5.05291H21.4218V4.23804ZM21.4218 7.34948H7.12305V8.16435H21.4218V7.34948ZM21.4218 10.4616H7.12305V11.2765H21.4218V10.4616ZM21.4218 13.5731H7.12305V14.388H21.4218V13.5731Z" fill="white"/>
<path d="M8.82715 10.9429L12.4202 14.5361H8.82715V10.9429Z" fill="url(#paint1_linear_1236_17761)"/>
<path d="M26.3049 14.8323V6.56505L24.8669 5.12695V14.8322H26.3049V14.8323Z" fill="#86C5ED"/>
<path d="M27.9889 15.5801L26.4396 26.5474C26.3621 27.0957 25.8929 27.5032 25.3392 27.5032H3.20519C2.6515 27.5032 2.18227 27.0957 2.10481 26.5474L0.0111202 11.728C-0.0833225 11.0589 0.435825 10.4612 1.1115 10.4612H7.94694C8.50063 10.4612 8.96986 10.8687 9.04732 11.4169L9.32169 13.3576C9.39915 13.9059 9.86838 14.3134 10.4221 14.3134H26.8887C27.5642 14.3134 28.0834 14.9111 27.989 15.5801H27.9889Z" fill="#E7F2F9"/>
<path d="M22.4995 22.6114H6.04506C5.95487 22.6114 5.86778 22.5785 5.80012 22.5188C5.73246 22.4592 5.68887 22.3769 5.6775 22.2875L5.47163 20.6575C5.46509 20.6054 5.46971 20.5524 5.48519 20.5022C5.50067 20.452 5.52665 20.4056 5.56141 20.3662C5.59617 20.3268 5.63891 20.2952 5.6868 20.2736C5.73469 20.252 5.78664 20.2408 5.83919 20.2407H22.7054C22.758 20.2408 22.8099 20.252 22.8578 20.2736C22.9057 20.2952 22.9484 20.3268 22.9832 20.3662C23.0179 20.4056 23.0439 20.452 23.0594 20.5022C23.0749 20.5524 23.0795 20.6054 23.073 20.6575L22.8671 22.2875C22.8557 22.3769 22.8121 22.4592 22.7445 22.5188C22.6768 22.5785 22.5897 22.6114 22.4995 22.6114Z" fill="#1581BF"/>
</g>
<defs>
<linearGradient id="paint0_linear_1236_17761" x1="14.9241" y1="11.1118" x2="0.870191" y2="-2.94224" gradientUnits="userSpaceOnUse">
<stop stop-color="white"/>
</linearGradient>
<linearGradient id="paint1_linear_1236_17761" x1="11.2011" y1="15.1126" x2="6.85797" y2="10.7696" gradientUnits="userSpaceOnUse">
<stop stop-color="#C2CECE" stop-opacity="0"/>
<stop offset="0.179" stop-color="#AFBCBC" stop-opacity="0.179"/>
<stop offset="1" stop-color="#5B6A6A"/>
</linearGradient>
<clipPath id="clip0_1236_17761">
<rect width="28" height="28" fill="white"/>
</clipPath>
</defs>
</svg>
