<svg width="60" height="60" viewBox="0 0 60 60" fill="none" xmlns="http://www.w3.org/2000/svg">
<circle cx="30" cy="30" r="30" fill="#A172F2" fill-opacity="0.09"/>
<path d="M29.5 16C27.7272 16 25.9717 16.3492 24.3338 17.0276C22.6959 17.7061 21.2076 18.7005 19.9541 19.9541C17.4223 22.4858 16 25.9196 16 29.5C16 33.0804 17.4223 36.5142 19.9541 39.0459C21.2076 40.2995 22.6959 41.2939 24.3338 41.9724C25.9717 42.6508 27.7272 43 29.5 43C33.0804 43 36.5142 41.5777 39.0459 39.0459C41.5777 36.5142 43 33.0804 43 29.5C43 27.7272 42.6508 25.9717 41.9724 24.3338C41.2939 22.6959 40.2995 21.2076 39.0459 19.9541C37.7924 18.7005 36.3041 17.7061 34.6662 17.0276C33.0283 16.3492 31.2728 16 29.5 16ZM29.5 24.6265C31.6783 26.0417 34.2194 26.7965 36.817 26.8C37.87 26.8 38.8825 26.6785 39.8545 26.449C40.138 27.4075 40.3 28.4335 40.3 29.5C40.3 35.4535 35.4535 40.3 29.5 40.3C25.45 40.3 21.9265 38.059 20.05 34.7515L22.4125 32.2V30.85C22.4125 30.4024 22.5903 29.9732 22.9068 29.6568C23.2232 29.3403 23.6524 29.1625 24.1 29.1625C24.5476 29.1625 24.9768 29.3403 25.2932 29.6568C25.6097 29.9732 25.7875 30.4024 25.7875 30.85V32.2H29.5M34.9 29.1625C34.4524 29.1625 34.0232 29.3403 33.7068 29.6568C33.3903 29.9732 33.2125 30.4024 33.2125 30.85C33.2125 31.2976 33.3903 31.7268 33.7068 32.0432C34.0232 32.3597 34.4524 32.5375 34.9 32.5375C35.3476 32.5375 35.7768 32.3597 36.0932 32.0432C36.4097 31.7268 36.5875 31.2976 36.5875 30.85C36.5875 30.4024 36.4097 29.9732 36.0932 29.6568C35.7768 29.3403 35.3476 29.1625 34.9 29.1625Z" fill="#8E5CF2"/>
</svg>
