<svg width="28" height="28" viewBox="0 0 28 28" fill="none" xmlns="http://www.w3.org/2000/svg">
<circle cx="13.9995" cy="14" r="14.0005" fill="#1581BF"/>
<path d="M19.1794 10.7376L17.2614 8.8196C17.0111 8.58447 16.6831 8.44955 16.3398 8.44052C15.9964 8.43148 15.6618 8.54896 15.3994 8.7706L9.09943 15.0706C8.87316 15.2988 8.73228 15.5978 8.70043 15.9176L8.39943 18.8366C8.39 18.9391 8.4033 19.0425 8.43839 19.1393C8.47348 19.2361 8.52949 19.3239 8.60243 19.3966C8.66783 19.4615 8.74541 19.5128 8.83069 19.5476C8.91598 19.5825 9.0073 19.6001 9.09943 19.5996H9.16243L12.0814 19.3336C12.4012 19.3017 12.7003 19.1609 12.9284 18.9346L19.2284 12.6346C19.4729 12.3763 19.6051 12.0316 19.5959 11.676C19.5867 11.3204 19.437 10.983 19.1794 10.7376ZM11.9554 17.9336L9.85543 18.1296L10.0444 16.0296L13.9994 12.1236L15.8894 14.0136L11.9554 17.9336ZM16.7994 13.0756L14.9234 11.1996L16.2884 9.7996L18.1994 11.7106L16.7994 13.0756Z" fill="white"/>
</svg>
