<svg width="29" height="29" viewBox="0 0 29 29" fill="none" xmlns="http://www.w3.org/2000/svg">
<path d="M14.1667 0C11.3648 0 8.62579 0.830861 6.29609 2.38751C3.9664 3.94417 2.15062 6.1567 1.07838 8.74532C0.00613821 11.3339 -0.274409 14.1824 0.272215 16.9304C0.818839 19.6785 2.16808 22.2028 4.14933 24.184C6.13057 26.1653 8.65483 27.5145 11.4029 28.0611C14.151 28.6078 16.9994 28.3272 19.588 27.255C22.1766 26.1827 24.3892 24.3669 25.9458 22.0372C27.5025 19.7076 28.3333 16.9686 28.3333 14.1667C28.3333 12.3063 27.9669 10.4641 27.255 8.74532C26.543 7.02654 25.4995 5.46482 24.184 4.14932C22.8685 2.83382 21.3068 1.79032 19.588 1.07837C17.8692 0.366432 16.0271 0 14.1667 0ZM9.25084 16.2492C9.35523 16.3464 9.43896 16.4637 9.49703 16.5941C9.5551 16.7244 9.58633 16.8651 9.58884 17.0078C9.59136 17.1504 9.56512 17.2921 9.51168 17.4244C9.45824 17.5567 9.3787 17.6769 9.27781 17.7778C9.17692 17.8787 9.05674 17.9582 8.92444 18.0117C8.79214 18.0651 8.65043 18.0914 8.50777 18.0888C8.3651 18.0863 8.22441 18.0551 8.09408 17.997C7.96374 17.939 7.84644 17.8552 7.74917 17.7508L4.91584 14.9175C4.81715 14.819 4.73885 14.7019 4.68544 14.5731C4.63202 14.4442 4.60452 14.3061 4.60452 14.1667C4.60452 14.0272 4.63202 13.8891 4.68544 13.7603C4.73885 13.6314 4.81715 13.5144 4.91584 13.4158L7.74917 10.5825C7.84644 10.4781 7.96374 10.3944 8.09408 10.3363C8.22441 10.2782 8.3651 10.247 8.50777 10.2445C8.65043 10.242 8.79214 10.2682 8.92444 10.3217C9.05674 10.3751 9.17692 10.4546 9.27781 10.5555C9.3787 10.6564 9.45824 10.7766 9.51168 10.9089C9.56512 11.0412 9.59136 11.1829 9.58884 11.3256C9.58633 11.4682 9.5551 11.6089 9.49703 11.7393C9.43896 11.8696 9.35523 11.9869 9.25084 12.0842L7.16976 14.1667L9.25084 16.2492ZM16.5594 11.2809L13.7261 17.8911C13.6118 18.1452 13.4022 18.3442 13.1425 18.4453C12.8828 18.5464 12.5938 18.5414 12.3378 18.4314C12.0817 18.3214 11.8791 18.1152 11.7737 17.8573C11.6682 17.5993 11.6683 17.3103 11.7739 17.0524L14.6073 10.4423C14.7216 10.1881 14.9312 9.98909 15.1909 9.88803C15.4506 9.78698 15.7396 9.79198 15.9956 9.90198C16.2516 10.012 16.4542 10.2181 16.5597 10.4761C16.6651 10.734 16.665 11.0231 16.5594 11.2809ZM23.4175 14.9175L20.5842 17.7508C20.4869 17.8552 20.3696 17.939 20.2393 17.997C20.1089 18.0551 19.9682 18.0863 19.8256 18.0888C19.6829 18.0914 19.5412 18.0651 19.4089 18.0117C19.2766 17.9582 19.1564 17.8787 19.0555 17.7778C18.9546 17.6769 18.8751 17.5567 18.8217 17.4244C18.7682 17.2921 18.742 17.1504 18.7445 17.0078C18.747 16.8651 18.7782 16.7244 18.8363 16.5941C18.8944 16.4637 18.9781 16.3464 19.0825 16.2492L21.1636 14.1667L19.0825 12.0842C18.9781 11.9869 18.8944 11.8696 18.8363 11.7393C18.7782 11.6089 18.747 11.4682 18.7445 11.3256C18.742 11.1829 18.7682 11.0412 18.8217 10.9089C18.8751 10.7766 18.9546 10.6564 19.0555 10.5555C19.1564 10.4546 19.2766 10.3751 19.4089 10.3217C19.5412 10.2682 19.6829 10.242 19.8256 10.2445C19.9682 10.247 20.1089 10.2782 20.2393 10.3363C20.3696 10.3944 20.4869 10.4781 20.5842 10.5825L23.4175 13.4158C23.5162 13.5144 23.5945 13.6314 23.6479 13.7603C23.7013 13.8891 23.7288 14.0272 23.7288 14.1667C23.7288 14.3061 23.7013 14.4442 23.6479 14.5731C23.5945 14.7019 23.5162 14.819 23.4175 14.9175Z" fill="#FEFEFF"/>
<path d="M9.25081 16.2492C9.3552 16.3464 9.43893 16.4637 9.497 16.5941C9.55507 16.7244 9.5863 16.8651 9.58882 17.0078C9.59133 17.1504 9.56509 17.2921 9.51165 17.4244C9.45821 17.5567 9.37867 17.6769 9.27778 17.7778C9.17689 17.8787 9.05671 17.9582 8.92441 18.0117C8.79211 18.0651 8.6504 18.0914 8.50774 18.0888C8.36507 18.0863 8.22438 18.0551 8.09405 17.997C7.96372 17.939 7.84641 17.8552 7.74914 17.7508L4.91581 14.9175C4.81712 14.819 4.73883 14.7019 4.68541 14.5731C4.63199 14.4442 4.60449 14.3061 4.60449 14.1667C4.60449 14.0272 4.63199 13.8891 4.68541 13.7603C4.73883 13.6314 4.81712 13.5144 4.91581 13.4158L7.74914 10.5825C7.84641 10.4781 7.96372 10.3944 8.09405 10.3363C8.22438 10.2782 8.36507 10.247 8.50774 10.2445C8.6504 10.242 8.79211 10.2682 8.92441 10.3217C9.05671 10.3751 9.17689 10.4546 9.27778 10.5555C9.37867 10.6564 9.45821 10.7766 9.51165 10.9089C9.56509 11.0412 9.59133 11.1829 9.58882 11.3256C9.5863 11.4682 9.55507 11.6089 9.497 11.7393C9.43893 11.8696 9.3552 11.9869 9.25081 12.0842L7.16973 14.1667L9.25081 16.2492ZM16.5594 11.2809L13.7261 17.8911C13.6117 18.1452 13.4021 18.3442 13.1424 18.4453C12.8828 18.5464 12.5938 18.5414 12.3377 18.4314C12.0817 18.3214 11.8791 18.1152 11.7737 17.8573C11.6682 17.5993 11.6683 17.3103 11.7739 17.0524L14.6072 10.4423C14.7216 10.1881 14.9312 9.9891 15.1908 9.88804C15.4505 9.78698 15.7395 9.79199 15.9956 9.90198C16.2516 10.012 16.4542 10.2181 16.5596 10.4761C16.6651 10.734 16.665 11.0231 16.5594 11.2809ZM23.4175 14.9175L20.5841 17.7508C20.4869 17.8552 20.3696 17.939 20.2392 17.997C20.1089 18.0551 19.9682 18.0863 19.8256 18.0888C19.6829 18.0914 19.5412 18.0651 19.4089 18.0117C19.2766 17.9582 19.1564 17.8787 19.0555 17.7778C18.9546 17.6769 18.8751 17.5567 18.8216 17.4244C18.7682 17.2921 18.742 17.1504 18.7445 17.0078C18.747 16.8651 18.7782 16.7244 18.8363 16.5941C18.8944 16.4637 18.9781 16.3464 19.0825 16.2492L21.1636 14.1667L19.0825 12.0842C18.9781 11.9869 18.8944 11.8696 18.8363 11.7393C18.7782 11.6089 18.747 11.4682 18.7445 11.3256C18.742 11.1829 18.7682 11.0412 18.8216 10.9089C18.8751 10.7766 18.9546 10.6564 19.0555 10.5555C19.1564 10.4546 19.2766 10.3751 19.4089 10.3217C19.5412 10.2682 19.6829 10.242 19.8256 10.2445C19.9682 10.247 20.1089 10.2782 20.2392 10.3363C20.3696 10.3944 20.4869 10.4781 20.5841 10.5825L23.4175 13.4158C23.5162 13.5144 23.5945 13.6314 23.6479 13.7603C23.7013 13.8891 23.7288 14.0272 23.7288 14.1667C23.7288 14.3061 23.7013 14.4442 23.6479 14.5731C23.5945 14.7019 23.5162 14.819 23.4175 14.9175Z" fill="#A172F2"/>
</svg>
