<svg width="12" height="14" viewBox="0 0 12 14" fill="none" xmlns="http://www.w3.org/2000/svg">
<path fill-rule="evenodd" clip-rule="evenodd" d="M0 1C0 0.734784 0.105357 0.48043 0.292893 0.292893C0.48043 0.105357 0.734784 0 1 0H11C11.2652 0 11.5196 0.105357 11.7071 0.292893C11.8946 0.48043 12 0.734784 12 1V2.39067C11.9999 2.74426 11.8594 3.08334 11.6093 3.33333L8 6.94267V11.892C8.00002 12.017 7.96808 12.14 7.90721 12.2492C7.84634 12.3584 7.75857 12.4502 7.65223 12.5159C7.54589 12.5816 7.42451 12.6191 7.29962 12.6247C7.17473 12.6303 7.05048 12.6039 6.93867 12.548L4.46067 11.3093C4.32225 11.2401 4.20583 11.1337 4.12447 11.0021C4.0431 10.8705 4.00001 10.7188 4 10.564V6.94267L0.390667 3.33333C0.140601 3.08334 7.55165e-05 2.74426 0 2.39067V1ZM1.33333 1.33333V2.39067L5.04 6.09733C5.13297 6.19018 5.20672 6.30044 5.25705 6.42181C5.30738 6.54318 5.33331 6.67328 5.33333 6.80467V10.2547L6.66667 10.9213V6.80467C6.66667 6.53933 6.772 6.28467 6.96 6.098L10.6667 2.39V1.33333H1.33333Z" fill="#879FB5"/>
</svg>
