<svg width="195" height="198" viewBox="0 0 195 198" fill="none" xmlns="http://www.w3.org/2000/svg">
<path d="M97.5 195C151.348 195 195 151.348 195 97.5C195 43.6522 151.348 0 97.5 0C43.6522 0 0 43.6522 0 97.5C0 151.348 43.6522 195 97.5 195Z" fill="#1581BF" fill-opacity="0.09"/>
<g filter="url(#filter0_d_1236_25979)">
<mask id="mask0_1236_25979" style="mask-type:alpha" maskUnits="userSpaceOnUse" x="0" y="0" width="195" height="195">
<path d="M97.5 195C151.348 195 195 151.348 195 97.5C195 43.6522 151.348 0 97.5 0C43.6522 0 0 43.6522 0 97.5C0 151.348 43.6522 195 97.5 195Z" fill="#E6F4F4"/>
</mask>
<g mask="url(#mask0_1236_25979)">
<path d="M153.4 55.9H41.5996C38.0098 55.9 35.0996 58.8102 35.0996 62.4V198.9C35.0996 202.49 38.0098 205.4 41.5996 205.4H153.4C156.989 205.4 159.9 202.49 159.9 198.9V62.4C159.9 58.8102 156.989 55.9 153.4 55.9Z" fill="white"/>
</g>
</g>
<path d="M85.7996 68.9H51.9996C49.8457 68.9 48.0996 70.6461 48.0996 72.8C48.0996 74.9539 49.8457 76.7 51.9996 76.7H85.7996C87.9535 76.7 89.6996 74.9539 89.6996 72.8C89.6996 70.6461 87.9535 68.9 85.7996 68.9Z" fill="#E1EBFA"/>
<path d="M85.7996 123.5H51.9996C49.8457 123.5 48.0996 125.246 48.0996 127.4C48.0996 129.554 49.8457 131.3 51.9996 131.3H85.7996C87.9535 131.3 89.6996 129.554 89.6996 127.4C89.6996 125.246 87.9535 123.5 85.7996 123.5Z" fill="#E1EBFA"/>
<path d="M67.8454 88.4H50.4535C49.8713 88.4 49.3994 90.7281 49.3994 93.6V106.6C49.3994 109.472 49.8713 111.8 50.4535 111.8H67.8454C68.4275 111.8 68.8994 109.472 68.8994 106.6V93.6C68.8994 90.7281 68.4275 88.4 67.8454 88.4Z" stroke="#1581BF" stroke-width="2"/>
<path d="M57.7938 105L55.8527 103.597L57.547 101.611L55 100.927L55.7405 98.6492L58.1753 99.6478L58.007 96.9999H60.4081L60.2398 99.6478L62.6634 98.6492L63.4039 100.927L60.8682 101.611L62.5512 103.597L60.6101 105L59.2076 102.801L57.7938 105Z" fill="#687A8B"/>
<path d="M93.8454 88.4H76.4535C75.8713 88.4 75.3994 90.7281 75.3994 93.6V106.6C75.3994 109.472 75.8713 111.8 76.4535 111.8H93.8454C94.4275 111.8 94.8994 109.472 94.8994 106.6V93.6C94.8994 90.7281 94.4275 88.4 93.8454 88.4Z" stroke="#1581BF" stroke-width="2"/>
<path d="M83.7938 104L81.8527 102.597L83.547 100.611L81 99.9269L81.7405 97.6492L84.1753 98.6478L84.007 95.9999H86.4081L86.2398 98.6478L88.6634 97.6492L89.4039 99.9269L86.8682 100.611L88.5512 102.597L86.6101 104L85.2076 101.801L83.7938 104Z" fill="#687A8B"/>
<path d="M119.845 88.4H102.453C101.871 88.4 101.399 90.7281 101.399 93.6V106.6C101.399 109.472 101.871 111.8 102.453 111.8H119.845C120.427 111.8 120.899 109.472 120.899 106.6V93.6C120.899 90.7281 120.427 88.4 119.845 88.4Z" stroke="#1581BF" stroke-width="2"/>
<path d="M109.794 104L107.853 102.597L109.547 100.611L107 99.9269L107.741 97.6492L110.175 98.6478L110.007 95.9999H112.408L112.24 98.6478L114.663 97.6492L115.404 99.9269L112.868 100.611L114.551 102.597L112.61 104L111.208 101.801L109.794 104Z" fill="#687A8B"/>
<path d="M145.845 88.4H128.453C127.871 88.4 127.399 90.7281 127.399 93.6V106.6C127.399 109.472 127.871 111.8 128.453 111.8H145.845C146.427 111.8 146.899 109.472 146.899 106.6V93.6C146.899 90.7281 146.427 88.4 145.845 88.4Z" stroke="#1581BF" stroke-width="2"/>
<path d="M135.794 104L133.853 102.597L135.547 100.611L133 99.9269L133.741 97.6492L136.175 98.6478L136.007 95.9999H138.408L138.24 98.6478L140.663 97.6492L141.404 99.9269L138.868 100.611L140.551 102.597L138.61 104L137.208 101.801L135.794 104Z" fill="#687A8B"/>
<path d="M140.4 141.7H54.5996C51.0098 141.7 48.0996 144.61 48.0996 148.2V158.6C48.0996 162.19 51.0098 165.1 54.5996 165.1H140.4C143.989 165.1 146.9 162.19 146.9 158.6V148.2C146.9 144.61 143.989 141.7 140.4 141.7Z" fill="#DFEAFB"/>
<path d="M76.655 157.144C76.1479 157.144 75.6906 157.056 75.283 156.88C74.8786 156.703 74.5448 156.451 74.2816 156.124C74.0217 155.793 73.8564 155.402 73.7858 154.949L74.9893 154.766C75.092 155.177 75.3023 155.495 75.62 155.719C75.9409 155.944 76.31 156.056 76.7272 156.056C76.9744 156.056 77.2071 156.018 77.4253 155.941C77.6435 155.864 77.8201 155.752 77.9549 155.604C78.0929 155.456 78.1619 155.275 78.1619 155.06C78.1619 154.964 78.1458 154.875 78.1137 154.795C78.0816 154.712 78.0335 154.638 77.9693 154.574C77.9083 154.509 77.8281 154.452 77.7286 154.4C77.6323 154.346 77.52 154.299 77.3916 154.261L75.6007 153.731C75.4467 153.686 75.2798 153.627 75.1001 153.553C74.9235 153.476 74.755 153.372 74.5946 153.24C74.4373 153.105 74.3073 152.935 74.2046 152.73C74.1051 152.521 74.0554 152.264 74.0554 151.96C74.0554 151.513 74.1677 151.14 74.3924 150.838C74.6202 150.533 74.9251 150.305 75.3071 150.154C75.6922 150.003 76.1191 149.93 76.5876 149.933C77.0626 149.936 77.4863 150.018 77.8586 150.178C78.2309 150.336 78.5422 150.565 78.7925 150.867C79.0429 151.168 79.2194 151.533 79.3221 151.96L78.0752 152.176C78.0239 151.932 77.9244 151.725 77.7767 151.555C77.6323 151.382 77.4542 151.25 77.2424 151.16C77.0337 151.071 76.8107 151.022 76.5732 151.016C76.3421 151.013 76.1271 151.048 75.9281 151.122C75.7323 151.193 75.5734 151.295 75.4515 151.43C75.3327 151.565 75.2734 151.722 75.2734 151.902C75.2734 152.072 75.3247 152.212 75.4274 152.321C75.5301 152.427 75.6569 152.512 75.8077 152.576C75.9618 152.637 76.1174 152.688 76.2747 152.73L77.5168 153.076C77.6869 153.121 77.8778 153.182 78.0896 153.259C78.3015 153.336 78.5053 153.444 78.701 153.582C78.8968 153.72 79.0573 153.901 79.1825 154.126C79.3108 154.351 79.375 154.636 79.375 154.983C79.375 155.342 79.2996 155.658 79.1488 155.931C79.0011 156.201 78.8005 156.426 78.547 156.605C78.2934 156.785 78.003 156.92 77.6756 157.01C77.3515 157.099 77.0113 157.144 76.655 157.144ZM82.7808 157.144C82.2545 157.144 81.7923 157.03 81.3943 156.803C80.9964 156.575 80.6851 156.259 80.4604 155.854C80.2389 155.45 80.1282 154.984 80.1282 154.458C80.1282 153.89 80.2373 153.397 80.4556 152.98C80.6738 152.56 80.9771 152.234 81.3655 152.003C81.7538 151.772 82.2031 151.656 82.7134 151.656C83.2526 151.656 83.71 151.783 84.0855 152.037C84.4642 152.287 84.745 152.642 84.9279 153.101C85.1109 153.559 85.1799 154.1 85.1349 154.723H83.9844V154.299C83.9812 153.734 83.8817 153.322 83.6859 153.062C83.4901 152.802 83.182 152.672 82.7616 152.672C82.2866 152.672 81.9335 152.82 81.7024 153.115C81.4714 153.407 81.3558 153.835 81.3558 154.4C81.3558 154.927 81.4714 155.334 81.7024 155.623C81.9335 155.912 82.2705 156.056 82.7134 156.056C82.9991 156.056 83.2446 155.994 83.45 155.869C83.6586 155.74 83.8191 155.556 83.9314 155.315L85.0772 155.662C84.8782 156.13 84.5701 156.495 84.1529 156.754C83.7388 157.014 83.2815 157.144 82.7808 157.144ZM80.99 154.723V153.847H84.5669V154.723H80.99ZM88.4669 157.144C87.931 157.144 87.4736 157.026 87.0949 156.788C86.7162 156.547 86.4257 156.22 86.2235 155.806C86.0246 155.392 85.9235 154.923 85.9203 154.4C85.9235 153.868 86.0278 153.396 86.2332 152.985C86.4418 152.571 86.7371 152.247 87.119 152.013C87.5009 151.775 87.955 151.656 88.4814 151.656C89.0719 151.656 89.571 151.806 89.9786 152.104C90.3894 152.399 90.6574 152.804 90.7826 153.317L89.6272 153.63C89.5373 153.351 89.3881 153.134 89.1794 152.98C88.9708 152.823 88.7333 152.744 88.4669 152.744C88.1653 152.744 87.9165 152.816 87.7208 152.961C87.525 153.102 87.3805 153.298 87.2875 153.548C87.1944 153.799 87.1479 154.083 87.1479 154.4C87.1479 154.895 87.2586 155.294 87.48 155.599C87.7015 155.904 88.0305 156.056 88.4669 156.056C88.7751 156.056 89.0174 155.986 89.1939 155.845C89.3736 155.703 89.5084 155.5 89.5983 155.233L90.7826 155.498C90.6221 156.028 90.3413 156.435 89.9401 156.721C89.5389 157.003 89.0479 157.144 88.4669 157.144ZM91.7473 157V151.801H92.7727V153.067L92.6475 152.903C92.7117 152.73 92.7968 152.573 92.9027 152.431C93.0118 152.287 93.1418 152.168 93.2926 152.075C93.421 151.988 93.5622 151.921 93.7163 151.873C93.8735 151.822 94.034 151.791 94.1977 151.781C94.3614 151.769 94.5202 151.775 94.6743 151.801V152.884C94.5202 152.839 94.3421 152.825 94.1399 152.841C93.9409 152.857 93.7612 152.913 93.6007 153.009C93.4402 153.096 93.3087 153.206 93.206 153.341C93.1065 153.476 93.0326 153.63 92.9845 153.803C92.9364 153.973 92.9123 154.158 92.9123 154.357V157H91.7473ZM97.8627 157.144C97.3363 157.144 96.8742 157.03 96.4762 156.803C96.0782 156.575 95.7669 156.259 95.5423 155.854C95.3208 155.45 95.2101 154.984 95.2101 154.458C95.2101 153.89 95.3192 153.397 95.5374 152.98C95.7557 152.56 96.059 152.234 96.4473 152.003C96.8357 151.772 97.285 151.656 97.7953 151.656C98.3345 151.656 98.7918 151.783 99.1673 152.037C99.546 152.287 99.8269 152.642 100.01 153.101C100.193 153.559 100.262 154.1 100.217 154.723H99.0662V154.299C99.063 153.734 98.9635 153.322 98.7677 153.062C98.572 152.802 98.2639 152.672 97.8434 152.672C97.3684 152.672 97.0154 152.82 96.7843 153.115C96.5532 153.407 96.4377 153.835 96.4377 154.4C96.4377 154.927 96.5532 155.334 96.7843 155.623C97.0154 155.912 97.3524 156.056 97.7953 156.056C98.0809 156.056 98.3264 155.994 98.5318 155.869C98.7405 155.74 98.9009 155.556 99.0133 155.315L100.159 155.662C99.96 156.13 99.6519 156.495 99.2347 156.754C98.8207 157.014 98.3634 157.144 97.8627 157.144ZM96.0718 154.723V153.847H99.6487V154.723H96.0718ZM104.338 157C103.995 157.064 103.658 157.091 103.327 157.082C103 157.075 102.706 157.016 102.446 156.904C102.186 156.788 101.989 156.607 101.854 156.36C101.735 156.135 101.673 155.906 101.666 155.671C101.66 155.437 101.657 155.172 101.657 154.877V150.356H102.812V154.81C102.812 155.018 102.814 155.201 102.817 155.358C102.823 155.516 102.857 155.644 102.918 155.744C103.034 155.936 103.218 156.044 103.472 156.066C103.725 156.089 104.014 156.076 104.338 156.028V157ZM100.713 152.711V151.801H104.338V152.711H100.713ZM107.384 157V150.068H110.248C110.316 150.068 110.402 150.071 110.508 150.077C110.614 150.08 110.712 150.09 110.802 150.106C111.203 150.167 111.534 150.3 111.794 150.506C112.057 150.711 112.251 150.971 112.376 151.286C112.505 151.597 112.569 151.944 112.569 152.325C112.569 152.704 112.505 153.051 112.376 153.365C112.248 153.677 112.052 153.935 111.789 154.14C111.529 154.346 111.2 154.479 110.802 154.54C110.712 154.553 110.613 154.562 110.503 154.569C110.398 154.575 110.312 154.578 110.248 154.578H108.544V157H107.384ZM108.544 153.495H110.2C110.264 153.495 110.337 153.492 110.417 153.486C110.497 153.479 110.571 153.466 110.638 153.447C110.831 153.399 110.982 153.314 111.091 153.192C111.203 153.07 111.282 152.932 111.327 152.778C111.375 152.624 111.399 152.473 111.399 152.325C111.399 152.178 111.375 152.027 111.327 151.873C111.282 151.716 111.203 151.576 111.091 151.454C110.982 151.332 110.831 151.247 110.638 151.199C110.571 151.18 110.497 151.168 110.417 151.165C110.337 151.159 110.264 151.156 110.2 151.156H108.544V153.495ZM113.63 151.011V149.947H114.79V151.011H113.63ZM113.63 157V151.801H114.79V157H113.63ZM119.828 157V154.497C119.828 154.333 119.817 154.152 119.794 153.953C119.772 153.754 119.719 153.563 119.635 153.38C119.555 153.194 119.433 153.041 119.27 152.922C119.109 152.804 118.891 152.744 118.615 152.744C118.467 152.744 118.321 152.768 118.177 152.816C118.032 152.865 117.901 152.948 117.782 153.067C117.666 153.182 117.573 153.343 117.503 153.548C117.432 153.75 117.397 154.01 117.397 154.328L116.708 154.034C116.708 153.592 116.793 153.19 116.964 152.831C117.137 152.471 117.39 152.186 117.724 151.974C118.058 151.759 118.469 151.651 118.957 151.651C119.342 151.651 119.659 151.716 119.91 151.844C120.16 151.972 120.359 152.136 120.507 152.335C120.654 152.534 120.764 152.746 120.834 152.971C120.905 153.195 120.95 153.409 120.969 153.611C120.991 153.81 121.003 153.972 121.003 154.097V157H119.828ZM116.222 157V151.801H117.257V153.413H117.397V157H116.222Z" fill="#1581BF"/>
<path d="M82.2 41.6C85.0719 41.6 87.4 39.2718 87.4 36.4C87.4 33.5281 85.0719 31.2 82.2 31.2C79.3281 31.2 77 33.5281 77 36.4C77 39.2718 79.3281 41.6 82.2 41.6Z" fill="#1581BF"/>
<path d="M110.8 41.6C113.671 41.6 116 39.2718 116 36.4C116 33.5281 113.671 31.2 110.8 31.2C107.928 31.2 105.6 33.5281 105.6 36.4C105.6 39.2718 107.928 41.6 110.8 41.6Z" fill="white"/>
<path d="M111.801 114.4C115.391 114.4 118.301 111.49 118.301 107.9C118.301 104.31 115.391 101.4 111.801 101.4C108.211 101.4 105.301 104.31 105.301 107.9C105.301 111.49 108.211 114.4 111.801 114.4Z" fill="#DFEAFB"/>
<path d="M116.88 135.681C115.84 135.681 114.869 135.681 113.985 135.625C112.896 135.551 111.848 135.179 110.957 134.548C110.066 133.918 109.367 133.054 108.935 132.051L103.451 121.212C103.048 120.744 102.847 120.135 102.892 119.519C102.936 118.904 103.222 118.33 103.687 117.924C104.068 117.618 104.544 117.453 105.033 117.458C105.393 117.468 105.746 117.556 106.069 117.717C106.391 117.877 106.675 118.105 106.901 118.386L109.392 121.785L109.429 121.829V108.914C109.429 108.273 109.684 107.659 110.137 107.206C110.59 106.752 111.205 106.498 111.845 106.498C112.486 106.498 113.101 106.752 113.554 107.206C114.007 107.659 114.261 108.273 114.261 108.914V117.364C114.233 117.053 114.27 116.74 114.37 116.444C114.47 116.148 114.63 115.876 114.841 115.646C115.051 115.415 115.308 115.231 115.593 115.105C115.879 114.979 116.188 114.914 116.5 114.914C116.812 114.914 117.121 114.979 117.407 115.105C117.692 115.231 117.949 115.415 118.159 115.646C118.37 115.876 118.53 116.148 118.63 116.444C118.73 116.74 118.767 117.053 118.739 117.364V119.125C118.711 118.815 118.748 118.501 118.847 118.205C118.947 117.909 119.107 117.638 119.318 117.407C119.529 117.177 119.785 116.993 120.071 116.867C120.356 116.741 120.665 116.676 120.977 116.676C121.289 116.676 121.598 116.741 121.884 116.867C122.17 116.993 122.426 117.177 122.636 117.407C122.847 117.638 123.007 117.909 123.107 118.205C123.207 118.501 123.244 118.815 123.216 119.125V120.483C123.188 120.172 123.225 119.858 123.325 119.563C123.424 119.267 123.585 118.995 123.795 118.764C124.006 118.534 124.262 118.35 124.548 118.224C124.833 118.098 125.142 118.033 125.454 118.033C125.767 118.033 126.075 118.098 126.361 118.224C126.647 118.35 126.903 118.534 127.114 118.764C127.324 118.995 127.485 119.267 127.584 119.563C127.684 119.858 127.721 120.172 127.693 120.483V128.721C127.649 131.254 126.503 135.526 122.475 135.526C122.182 135.539 119.704 135.682 116.885 135.682L116.88 135.681Z" fill="#1581BF" stroke="white"/>
<defs>
<filter id="filter0_d_1236_25979" x="29.0996" y="46.9" width="136.8" height="151.1" filterUnits="userSpaceOnUse" color-interpolation-filters="sRGB">
<feFlood flood-opacity="0" result="BackgroundImageFix"/>
<feColorMatrix in="SourceAlpha" type="matrix" values="0 0 0 0 0 0 0 0 0 0 0 0 0 0 0 0 0 0 127 0" result="hardAlpha"/>
<feOffset dy="-3"/>
<feGaussianBlur stdDeviation="3"/>
<feColorMatrix type="matrix" values="0 0 0 0 0.788235 0 0 0 0 0.803922 0 0 0 0 0.85098 0 0 0 0.349 0"/>
<feBlend mode="normal" in2="BackgroundImageFix" result="effect1_dropShadow_1236_25979"/>
<feBlend mode="normal" in="SourceGraphic" in2="effect1_dropShadow_1236_25979" result="shape"/>
</filter>
</defs>
</svg>
