<svg width="20" height="20" viewBox="0 0 20 20" fill="none" xmlns="http://www.w3.org/2000/svg">
<path fill-rule="evenodd" clip-rule="evenodd" d="M1.22105 11.3164L19.4362 1.50823C19.7178 1.3576 19.8601 1.03183 19.7837 0.722876C19.7066 0.410415 19.4278 0.194636 19.1076 0.191833H14.9041V1.593H16.3053L0.563901 10.0848L1.22105 11.3164ZM15.6047 18.407H18.4071V7.19767H15.6047V18.407ZM19.1076 5.7965H14.9041C14.5181 5.7965 14.2036 6.11106 14.2036 6.49708V19.1076C14.2036 19.4936 14.5181 19.8082 14.9041 19.8082H19.1076C19.4937 19.8082 19.8082 19.4936 19.8082 19.1076V6.49708C19.8082 6.11106 19.4937 5.7965 19.1076 5.7965ZM8.59889 18.407H11.4012V10H8.59889V18.407ZM7.89831 8.59883C7.51159 8.59883 7.19773 8.91339 7.19773 9.29942V19.1076C7.19773 19.4936 7.51159 19.8082 7.89831 19.8082H12.1018C12.4878 19.8082 12.8024 19.4936 12.8024 19.1076V9.29942C12.8024 8.91339 12.4878 8.59883 12.1018 8.59883H7.89831ZM1.59306 18.407H4.39539V14.2035H1.59306V18.407ZM0.892478 19.8082H5.09598C5.482 19.8082 5.79656 19.4936 5.79656 19.1076V13.5029C5.79656 13.1169 5.482 12.8023 5.09598 12.8023H0.892478C0.505756 12.8023 0.191895 13.1169 0.191895 13.5029V19.1076C0.191895 19.4936 0.505756 19.8082 0.892478 19.8082Z" fill="#6C6C6C"/>
</svg>
