<svg width="40" height="40" viewBox="0 0 40 40" fill="none" xmlns="http://www.w3.org/2000/svg">
<path d="M21.478 26.1346C21.1999 26.1346 20.9217 26.0671 20.6689 25.9407L9.40063 20.3024V28.4185C16.0671 35.0936 26.8803 35.0936 33.5553 28.4185V20.3108L22.2955 25.9407C22.0511 26.0671 21.7645 26.1346 21.478 26.1346Z" fill="#1581BF"/>
<path d="M38.8903 15.2203L21.7224 6.6321C21.5623 6.55623 21.3769 6.55623 21.2252 6.6321L4.06567 15.2203C4.06464 15.2207 4.06444 15.2218 4.06341 15.2222C3.11505 15.5434 2.42595 16.4319 2.42595 17.4872V27.3106H2.20291C2.07143 27.3106 1.95661 27.3994 1.92348 27.5266L0.809482 31.806C0.761954 31.989 0.900018 32.1676 1.08891 32.1676H5.03605C5.22494 32.1676 5.36301 31.989 5.31547 31.806L4.20168 27.5266C4.16835 27.3994 4.05353 27.3106 3.92205 27.3106H3.69015V17.4872C3.69015 16.9883 4.01793 16.5761 4.46588 16.4233L21.2337 24.8113C21.3853 24.8872 21.5791 24.8872 21.7308 24.8113L38.8903 16.2232C39.3033 16.0209 39.3033 15.431 38.8903 15.2203ZM21.4696 17.4621C19.9948 17.4621 18.781 16.6783 18.781 15.7175C18.781 14.7567 19.9948 13.9814 21.4696 13.9814C22.9613 13.9814 24.175 14.7567 24.175 15.7175C24.175 16.6783 22.9613 17.4621 21.4696 17.4621Z" fill="#1581BF"/>
</svg>
