<svg width="24" height="23" viewBox="0 0 24 23" fill="none" xmlns="http://www.w3.org/2000/svg">
<path d="M22.1668 19.9668V12.0104C22.1669 11.4568 22.0539 10.9091 21.8349 10.4007C21.6158 9.89238 21.2953 9.43408 20.8929 9.05393L13.3971 1.9698C13.0195 1.61287 12.5197 1.414 12.0002 1.414C11.4806 1.414 10.9808 1.61287 10.6033 1.9698L3.10738 9.05393C2.70501 9.43408 2.38448 9.89238 2.16544 10.4007C1.94639 10.9091 1.83344 11.4568 1.8335 12.0104V19.9668C1.8335 20.5061 2.04772 21.0233 2.42905 21.4046C2.81037 21.7859 3.32756 22.0002 3.86683 22.0002H20.1335C20.6728 22.0002 21.19 21.7859 21.5713 21.4046C21.9526 21.0233 22.1668 20.5061 22.1668 19.9668Z" stroke="#1581BF" stroke-width="2" stroke-linecap="round" stroke-linejoin="round"/>
</svg>
