<svg width="148" height="148" viewBox="0 0 148 148" fill="none" xmlns="http://www.w3.org/2000/svg">
<path d="M74 147C114.593 147 147.5 114.093 147.5 73.5C147.5 32.9071 114.593 0 74 0C33.4071 0 0.5 32.9071 0.5 73.5C0.5 114.093 33.4071 147 74 147Z" fill="#1581BF" fill-opacity="0.09"/>
<g filter="url(#filter0_d_48_32550)">
<mask id="mask0_48_32550" style="mask-type:alpha" maskUnits="userSpaceOnUse" x="0" y="0" width="148" height="147">
<path d="M74 147C114.593 147 147.5 114.093 147.5 73.5C147.5 32.9071 114.593 0 74 0C33.4071 0 0.5 32.9071 0.5 73.5C0.5 114.093 33.4071 147 74 147Z" fill="#E6F4F4"/>
</mask>
<g mask="url(#mask0_48_32550)">
</g>
<g clip-path="url(#clip0_48_32550)">
<path d="M79.1763 71.5496C79.1763 71.5496 84.0329 66.9234 90.148 72.3118C97.9647 79.2245 109.699 90.923 111.383 92.9082C113.066 94.9111 107.66 103.366 103.194 100.051C99.365 97.2331 78.3077 78.0901 79.1763 71.5496Z" fill="#73B3D9"/>
<path d="M114.19 68.2101L113.09 77.3172L106.929 76.5716L108.9 67.7662L114.19 68.2101Z" fill="#F0C7AD"/>
<path d="M107.569 67.4999C107.569 67.4999 106.894 66.2572 106.06 65.4406C105.225 64.6062 102.314 63.4878 103.166 62.6534C104 61.819 106.06 63.1327 107.072 63.5943C108.066 64.0736 110.054 64.7837 110.32 64.8902C110.587 64.9967 108.279 68.2277 107.569 67.4999Z" fill="#F0C7AD"/>
<path d="M107.426 64.1624C107.426 64.1624 108.758 64.1269 108.687 61.7302C108.848 61.2459 109.135 60.9684 109.526 60.5678C112.097 57.9357 117.806 64.2851 117.664 65.3148C116.647 66.6711 117.563 65.4051 116.303 66.8963C115.167 68.2633 113.817 70.6777 111.439 70.6777C108.829 70.6777 105.545 65.6891 107.426 64.1624Z" fill="#F0C7AD"/>
<path d="M105.824 59.1855L104.82 60.4238L109.371 64.1137L110.375 62.8754L105.824 59.1855Z" fill="#37474F"/>
<path d="M109.171 62.0448L108.31 63.1065C108.128 63.3305 108.163 63.6594 108.387 63.841L112.623 67.2755C112.847 67.4571 113.176 67.4227 113.358 67.1987L114.219 66.137C114.4 65.9129 114.366 65.5841 114.142 65.4024L109.905 61.968C109.681 61.7864 109.352 61.8208 109.171 62.0448Z" fill="#263238"/>
<g opacity="0.2">
<path d="M104.087 50.5229C105.075 51.3244 105.804 52.4009 106.18 53.6165C106.557 54.832 106.564 56.1319 106.202 57.3517C105.84 58.5715 105.124 59.6566 104.145 60.4696C103.166 61.2826 101.968 61.7871 100.703 61.9193C99.4372 62.0515 98.1608 61.8055 97.035 61.2122C95.9093 60.619 94.9847 59.7053 94.3782 58.5867C93.7717 57.468 93.5106 56.1946 93.6278 54.9275C93.745 53.6605 94.2352 52.4566 95.0366 51.4681C95.5687 50.8117 96.2249 50.2665 96.9678 49.8637C97.7106 49.4609 98.5256 49.2084 99.366 49.1206C100.206 49.0328 101.056 49.1114 101.866 49.3521C102.676 49.5927 103.431 49.9905 104.087 50.5229Z" fill="white"/>
<path d="M105.325 51.8577C106.29 53.2532 106.665 54.9728 106.369 56.6432C106.073 58.3136 105.13 59.7998 103.745 60.779L105.325 51.8577Z" fill="#EBEBEB"/>
<path d="M99.4404 49.1143L97.2749 61.333C96.2812 60.8609 95.4248 60.1423 94.7875 59.2456L96.3832 50.2251C97.2903 49.5991 98.343 49.2167 99.4404 49.1143Z" fill="#EBEBEB"/>
<path d="M103.572 50.144L101.51 61.7828C101.099 61.8788 100.68 61.9344 100.258 61.9491L102.453 49.5562C102.845 49.7137 103.22 49.9107 103.572 50.144Z" fill="#EBEBEB"/>
<path d="M100.321 49.0938L98.0955 61.6556C98.0209 61.6323 97.9468 61.6072 97.8742 61.5816L100.087 49.0873C100.164 49.0876 100.243 49.0885 100.321 49.0938Z" fill="#EBEBEB"/>
<path d="M94.84 51.7245L93.8518 57.2978C93.7976 57.1131 93.7529 56.9251 93.7172 56.7356L94.5201 52.2009C94.6187 52.0396 94.7247 51.8806 94.84 51.7245Z" fill="#EBEBEB"/>
</g>
<path d="M101.807 62.5659C100.413 62.9164 98.9471 62.8458 97.5937 62.363C96.2403 61.8802 95.0604 61.0069 94.2033 59.8536C93.3462 58.7002 92.8504 57.3186 92.7785 55.8834C92.7067 54.4482 93.062 53.024 93.7996 51.7908C94.5372 50.5576 95.624 49.5708 96.9224 48.9552C98.2208 48.3397 99.6727 48.123 101.094 48.3326C102.516 48.5421 103.843 49.1686 104.909 50.1326C105.975 51.0967 106.73 52.3551 107.081 53.7487C107.548 55.6171 107.255 57.5947 106.267 59.2477C105.278 60.9006 103.674 62.0939 101.807 62.5659ZM98.4656 49.2821C97.2319 49.5924 96.1179 50.2616 95.2644 51.205C94.411 52.1484 93.8565 53.3238 93.671 54.5823C93.4856 55.8409 93.6775 57.1262 94.2225 58.2757C94.7675 59.4252 95.6411 60.3873 96.7328 61.0404C97.8246 61.6934 99.0855 62.008 100.356 61.9444C101.627 61.8809 102.85 61.442 103.871 60.6832C104.892 59.9245 105.665 58.88 106.093 57.6818C106.52 56.4837 106.583 55.1856 106.273 53.9519C105.855 52.2983 104.799 50.878 103.335 50.0025C101.871 49.1271 100.12 48.868 98.4656 49.2821Z" fill="#263238"/>
<path d="M115.398 71.1216C115.398 71.1216 113.498 92.0521 113.09 97.3779C112.611 103.609 101.764 102.917 102.367 97.52C102.882 92.7622 106.024 69.7014 106.024 69.7014L115.398 71.1216Z" fill="#73B3D9"/>
<path d="M75.6135 72.2231H64.5708V55.7389H75.6135V72.2231Z" fill="#E0AB89"/>
<path d="M61.5752 55.2958C60.3876 55.2249 59.1823 55.154 58.0479 54.7995C56.8958 54.4273 55.8146 53.7537 55.1942 52.7434C54.5738 51.7153 54.5029 50.3151 55.2119 49.3579C55.9209 48.4008 57.3389 48.259 58.367 48.8439C58.8633 49.1452 62.3196 55.3312 61.5752 55.2958Z" fill="#F0C7AD"/>
<path d="M63.5605 31.3139C63.7377 31.243 65.5102 30.7822 65.7052 30.729C71.4658 29.4883 77.12 29.0097 78.6798 38.1735C78.6798 38.1735 80.5232 48.6667 80.5587 50.7937C80.5764 51.8572 80.1687 52.9916 79.7965 53.9842C79.247 55.5085 78.5381 56.9797 77.6518 58.3091C76.5529 59.9575 75.1348 61.5173 73.1851 62.0313C71.3949 62.5099 69.8883 62.3504 68.2753 61.7477C66.68 61.1451 65.1912 60.2411 63.8263 59.213C62.7983 58.4154 61.7348 57.5469 60.9549 56.4834C60.8662 56.3593 60.7599 56.2352 60.689 56.0934C59.6609 54.25 56.0274 44.2177 56.0274 44.2177C52.8014 35.5148 57.9239 33.1042 63.5605 31.3139Z" fill="#F0C7AD"/>
<path d="M63.5605 31.3139C63.7377 31.243 65.5102 30.7822 65.7052 30.729C71.4658 29.4883 77.12 29.0097 78.6798 38.1735C78.6798 38.1735 80.5232 48.6667 80.5587 50.7937C80.5764 51.8572 80.1687 52.9916 79.7965 53.9842C79.247 55.5085 78.5381 56.9797 77.6518 58.3091C76.5529 59.9575 75.1348 61.5173 73.1851 62.0313C71.3949 62.5099 69.8883 62.3504 68.2753 61.7477C66.68 61.1451 65.1912 60.2411 63.8263 59.213C62.7983 58.4154 61.7348 57.5469 60.9549 56.4834C60.8662 56.3593 60.7599 56.2352 60.689 56.0934C59.6609 54.25 56.0274 44.2177 56.0274 44.2177C52.8014 35.5148 57.9239 33.1042 63.5605 31.3139Z" fill="#F0C7AD"/>
<path d="M70.4023 45.5293C70.4023 45.5293 72.8484 48.578 72.813 49.2693C72.7421 50.4569 70.8809 50.5632 70.8809 50.5632C70.8809 50.5632 72.2812 49.7479 72.0685 48.968C71.8558 48.1881 70.4023 45.5293 70.4023 45.5293Z" fill="black"/>
<path d="M75.8439 50.1733C75.8439 50.1733 73.3624 51.6977 71.7849 52.0167C70.1896 52.3358 67.3536 52.318 67.3536 52.318C67.07 52.3889 69.6047 56.4302 72.5647 55.7212C75.5248 55.0122 76.0388 50.1201 75.8439 50.1733Z" fill="white"/>
<path d="M76.5351 41.7185C76.5115 41.7066 76.4879 41.6948 76.4642 41.683C75.1703 41.0272 73.8941 41.0095 72.7775 41.683C72.6711 41.7362 72.5825 41.8071 72.5293 41.9843C72.4229 42.3034 72.5293 42.8174 72.6711 43.2783C73.8941 42.2325 75.3299 41.9134 76.8542 42.3566C76.8542 42.197 76.7833 42.0021 76.7124 41.8957C76.6415 41.8071 76.5883 41.7539 76.5351 41.7185Z" fill="black"/>
<path d="M62.7096 45.423C62.7214 45.3993 62.7333 45.3757 62.7451 45.3521C63.5427 44.129 64.6416 43.4909 65.9356 43.5087C66.0596 43.5087 66.166 43.5264 66.3078 43.6505C66.556 43.8809 66.7155 44.3772 66.8218 44.838C65.2443 44.5367 63.844 44.9798 62.7451 46.132C62.6564 45.9902 62.621 45.7952 62.6387 45.6534C62.6387 45.547 62.6742 45.4761 62.7096 45.423Z" fill="black"/>
<path d="M73.8942 45.1394C73.7346 44.5013 74.0537 43.8455 74.6209 43.7037C75.1881 43.5442 75.7908 43.9519 75.9503 44.59C75.968 44.6431 76.0212 44.8381 76.0389 44.8913L76.287 45.7952C76.4466 46.4333 76.0034 46.7878 75.4894 46.9296C74.9577 47.0714 74.3905 46.9828 74.231 46.3447L73.9828 45.4407C73.9651 45.3876 73.9119 45.1926 73.8942 45.1394Z" fill="black"/>
<path d="M74.2488 44.9798C74.2665 45.033 74.3197 45.0685 74.3729 45.0507C74.4261 45.033 74.4615 44.9798 74.4438 44.9444C74.426 44.8912 74.3729 44.8558 74.3197 44.8735C74.2665 44.8735 74.2488 44.9267 74.2488 44.9798Z" fill="white"/>
<path d="M64.4821 47.6564C64.3049 47.0183 64.6239 46.3802 65.1911 46.2207C65.7583 46.0789 66.3609 46.4688 66.5382 47.1069C66.5559 47.1601 66.6091 47.3551 66.6091 47.4082L66.8572 48.3299C67.0345 48.9503 66.5914 49.3225 66.0596 49.4466C65.5456 49.5884 64.9784 49.5175 64.8012 48.8794L64.553 47.9577C64.5353 47.9045 64.4821 47.7096 64.4821 47.6564Z" fill="black"/>
<path d="M64.8366 47.4968C64.8544 47.5499 64.9075 47.5854 64.9607 47.5677C64.9962 47.5677 65.0316 47.5145 65.0139 47.4613C65.0139 47.4081 64.9607 47.3727 64.9075 47.3904C64.8544 47.4081 64.8189 47.4613 64.8366 47.4968Z" fill="white"/>
<path d="M57.7644 50.8291C57.9653 51.3845 58.1721 51.9399 58.3848 52.4952C59.3597 51.1481 59.5546 49.3579 59.3597 47.6918C59.147 45.937 58.5266 44.2354 58.1367 42.5161C57.9949 41.9134 57.9062 41.2399 57.9948 40.6372C59.3774 41.4171 60.9904 41.7716 62.5679 41.6121C61.1499 40.7613 59.9269 39.5915 59.0229 38.1912C64.0745 41.6121 70.9873 42.0198 76.4111 39.2547C74.745 38.5102 73.4156 37.0568 72.7598 35.3552C74.5322 35.9401 75.8262 37.5354 76.6238 39.237C77.4214 40.9386 77.8291 42.782 78.5026 44.519C78.7508 45.1394 79.0344 45.7775 79.5484 46.1852C79.7434 46.327 79.9561 46.451 80.2042 46.5042C80.4169 42.9947 80.6296 39.4319 79.8143 36.011C78.9989 32.6256 76.9783 29.3642 73.841 27.9107C71.324 26.7231 68.3817 26.8118 65.7052 27.5208C63.0287 28.2298 60.5472 29.4882 58.0303 30.6404C56.7895 31.2076 55.1057 31.6684 54.2372 30.6226C54.0776 32.4129 54.379 34.2385 55.0702 35.8869C54.5562 36.6314 54.2194 37.5354 54.1308 38.4393C53.9358 40.46 54.6448 42.4629 55.3538 44.3772C56.1574 46.5278 56.9609 48.6785 57.7644 50.8291Z" fill="black"/>
<path d="M61.2208 32.3243C60.051 32.3243 58.8812 32.2888 57.7113 32.2888C58.8634 32.856 60.051 33.2637 61.274 33.5118C61.2504 33.1101 61.2326 32.7142 61.2208 32.3243Z" fill="#4D4D4D"/>
<path d="M73.841 27.9108C73.522 27.7571 73.197 27.6272 72.8661 27.5208C71.8558 29.6833 69.0021 30.924 66.8219 31.5975C65.847 31.9343 64.8544 32.1116 63.8441 32.2179C63.8677 32.7497 63.8973 33.2814 63.9327 33.8132C66.3079 33.8841 68.7362 33.4941 71.0405 32.7851C73.0611 32.1825 75.1704 31.4557 77.067 30.4277C76.163 29.3642 75.0995 28.4957 73.841 27.9108Z" fill="#4D4D4D"/>
<path d="M89.3149 130.928C88.8718 142.254 89.6163 146.101 89.1554 157.409C88.8541 161.628 89.6517 169.462 89.1554 171.66C88.4287 174.727 77.6874 176.464 76.8011 169.409C75.4895 156.044 74.9931 147.838 72.2103 134.863L68.2754 134.562V118.361C68.2754 118.361 86.9575 115.915 87.6133 117.599C88.2514 119.283 89.3149 130.928 89.3149 130.928Z" fill="#263238"/>
<path d="M53.9536 131.602C53.085 142.893 51.0467 168.629 51.7911 172.227C52.4292 175.311 63.6137 181.249 64.0213 169.338C64.624 155.92 67.6727 146.615 70.3314 134.633L73.5574 132.258L74.9045 117.9C74.9045 117.9 56.116 116.447 55.5665 118.166C54.9993 119.868 53.9536 131.602 53.9536 131.602Z" fill="#263238"/>
<path d="M72.2281 129.067C78.8041 128.819 85.3978 126.976 88.7655 125.451C88.411 122.172 87.9502 118.485 87.6134 117.599C87.1703 116.482 78.7686 117.174 73.1853 117.776C68.5413 117.475 56.0098 116.766 55.5667 118.166C55.1767 119.318 54.5918 125.061 54.2373 128.659C59.0762 129.173 61.8413 129.475 72.2281 129.067Z" fill="#211F34"/>
<path d="M75.9502 65.8244C75.9502 65.8244 86.0889 69.1567 88.3932 71.3014C90.7151 73.4461 88.3932 89.6644 88.3932 92.2168C88.3932 94.7515 89.4212 117.617 89.4212 120.541C89.4212 123.484 83.3593 125.965 70.3314 125.965C57.3036 125.965 53.3155 121.126 53.3155 119.566C53.3155 118.007 55.1943 101.593 55.1943 99.4486C55.1943 97.2862 50.0541 75.9276 50.0541 73.5702C50.0541 71.2305 64.234 65.8244 64.234 65.8244L73.5219 70.8583L75.9502 65.8244Z" fill="#73B3D9"/>
<path d="M57.3212 118.202C57.3212 113.398 57.1262 108.701 57.4275 103.898C57.5162 102.728 57.9061 101.452 57.5162 100.264C56.1513 96.2227 54.5561 92.3764 53.0317 88.4238C54.1661 93.6703 55.1942 98.4738 55.1942 99.4487C55.1942 101.593 53.3154 118.007 53.3154 119.567C53.3154 120.843 55.9741 124.299 64.0567 125.522C61.5929 123.147 59.3241 120.86 57.3212 118.202Z" fill="white"/>
<path d="M89.3147 80.873C88.3221 82.1669 87.7018 84.8965 87.7018 84.8965C87.7018 84.8965 87.4891 100.867 87.4891 101.842C87.5954 108.79 87.7018 115.649 87.4005 122.598C87.3887 122.822 87.3768 123.041 87.365 123.253C88.7475 122.456 89.4211 121.534 89.4211 120.541C89.4211 117.617 88.393 94.7516 88.393 92.2169C88.393 90.8698 89.0311 85.7473 89.3147 80.873Z" fill="white"/>
<path d="M57.3036 70.6987C57.3036 70.6987 50.1959 68.3413 47.4485 76.7075C43.9212 87.4311 39.6141 105.688 39.0646 108.471C38.1252 113.15 48.1043 115.153 49.3628 111.892C51.0467 107.549 61.2208 76.3885 57.3036 70.6987Z" fill="#73B3D9"/>
<path d="M75.7909 65.5054C75.7909 65.5054 77.7583 66.0372 78.4142 66.6753C79.0523 67.3311 78.68 76.6544 78.68 76.6544L73.5221 70.8584L75.7909 65.5054Z" fill="#E9EEF6"/>
<path d="M64.4468 65.3813C64.4468 65.3813 62.692 66.303 61.9653 67.2247C61.4158 67.9514 70.6682 77.5583 70.6682 77.5583L73.522 70.8583L64.4468 65.3813Z" fill="white"/>
<path d="M73.9473 103.525C76.2338 102.072 77.1023 101.753 78.8571 101.416C79.7965 101.221 80.1865 101.523 81.0373 102.462C82.083 103.65 82.5262 105.706 81.9944 105.883C79.9206 106.592 79.0521 104.217 78.609 104.695C76.0211 107.62 71.643 104.961 73.9473 103.525Z" fill="#F0C7AD"/>
<path d="M76.9605 103.029C78.3253 103.135 78.3962 104.536 81.2322 109.499C81.3386 109.694 75.1526 111.874 72.5115 110.367C69.5869 108.701 71.2176 102.551 76.9605 103.029Z" fill="#F0C7AD"/>
<path d="M77.5986 108.045L81.2322 109.18C81.8348 109.357 82.4729 109.02 82.6679 108.418C82.8629 107.815 82.5261 107.177 81.9234 106.982L78.2721 105.847C77.6695 105.67 77.0314 106.007 76.8364 106.61C76.6591 107.212 76.9959 107.85 77.5986 108.045Z" fill="#F0C7AD"/>
<path d="M78.2544 105.918L81.888 107.053C82.4906 107.23 83.1465 106.893 83.3414 106.291C83.5187 105.688 83.1819 105.05 82.5793 104.855L77.3504 103.118C76.7477 102.923 77.6872 103.88 77.5099 104.483C77.315 105.085 77.6517 105.723 78.2544 105.918Z" fill="#F0C7AD"/>
<path d="M76.4287 109.747L80.0623 110.881C80.665 111.059 81.3208 110.722 81.4981 110.119C81.6931 109.516 81.3563 108.878 80.7536 108.683L77.12 107.549C76.5174 107.372 75.8615 107.709 75.6843 108.311C75.4893 108.914 75.8261 109.552 76.4287 109.747Z" fill="#F0C7AD"/>
<path d="M75.4716 111.413L78.4494 112.335C78.9457 112.494 79.4597 112.211 79.6192 111.714C79.7787 111.218 79.4951 110.704 78.9988 110.545L76.0388 109.623C75.5425 109.463 72.866 109.8 72.7242 110.296C72.7242 110.296 72.5647 110.633 75.4716 111.413Z" fill="#F0C7AD"/>
<path d="M82.136 104.678L79.5836 103.986C79.5836 103.986 81.622 104.5 81.9587 104.093C81.9587 104.093 82.1537 104.412 82.136 104.678Z" fill="#E3A781"/>
<path d="M76.5883 103.88L67.3713 104.163L66.4319 110.314L75.4362 109.215L76.5883 103.88Z" fill="#F0C7AD"/>
<path d="M70.491 102.32C70.491 102.32 48.2107 103.915 42.7691 103.898C37.3276 103.88 38.1075 115.259 42.9996 115.1C47.8916 114.94 71.4127 113.292 71.4127 113.292L70.491 102.32Z" fill="#73B3D9"/>
<path d="M110.883 59.8897C110.883 59.8897 111.561 61.246 110.883 61.9241C109.458 62.2285 109.213 64.8056 108.17 64.9757C107.322 65.1091 106.988 66.6166 107.831 66.6711C108.534 66.7077 110.401 64.5963 111.1 64.6133C111.502 64.6298 111.51 64.8039 111.211 65.0734C111.018 65.255 108.289 66.9852 108.085 67.5425C107.925 67.9649 108.507 68.1969 109.033 67.8203C109.557 67.4339 111.985 65.8909 112.087 66.032C112.181 66.175 111.754 66.5068 110.915 66.9591C110.087 67.4193 109.034 67.9651 108.779 68.3795C108.535 68.8016 108.949 68.9394 109.499 68.692C109.944 68.5011 112.907 66.7244 113.136 66.897C113.478 67.156 112.674 69.4243 112.602 70.0014C112.54 70.4416 112.822 70.4871 113.159 69.6796C113.576 68.6766 113.936 67.7185 114.439 66.8605C114.903 66.0846 117.304 65.3311 116.986 64.0194C116.637 62.5805 111.9 59.5506 110.883 59.8897Z" fill="#F0C7AD"/>
</g>
</g>
<defs>
<filter id="filter0_d_48_32550" x="33" y="18" width="86" height="130" filterUnits="userSpaceOnUse" color-interpolation-filters="sRGB">
<feFlood flood-opacity="0" result="BackgroundImageFix"/>
<feColorMatrix in="SourceAlpha" type="matrix" values="0 0 0 0 0 0 0 0 0 0 0 0 0 0 0 0 0 0 127 0" result="hardAlpha"/>
<feOffset dy="-3"/>
<feGaussianBlur stdDeviation="3"/>
<feColorMatrix type="matrix" values="0 0 0 0 0.788235 0 0 0 0 0.803922 0 0 0 0 0.85098 0 0 0 0.349 0"/>
<feBlend mode="normal" in2="BackgroundImageFix" result="effect1_dropShadow_48_32550"/>
<feBlend mode="normal" in="SourceGraphic" in2="effect1_dropShadow_48_32550" result="shape"/>
</filter>
<clipPath id="clip0_48_32550">
<rect width="74" height="118" fill="white" transform="translate(39 27)"/>
</clipPath>
</defs>
</svg>
