<svg width="71" height="71" viewBox="0 0 71 71" fill="none" xmlns="http://www.w3.org/2000/svg">
<path opacity="0.1" d="M35.09 0C44.7795 0 53.552 3.92775 59.9022 10.2778C66.2523 16.628 70.18 25.4005 70.18 35.09C70.18 44.7795 66.2523 53.552 59.9022 59.9022C53.552 66.2523 44.7795 70.18 35.09 70.18C25.4005 70.18 16.628 66.2523 10.2778 59.9022C3.92775 53.552 0 44.7795 0 35.09C0 25.4005 3.92775 16.628 10.2778 10.2778C16.628 3.92775 25.4005 0 35.09 0Z" fill="#1581BF"/>
<path d="M28.3228 43.7704C28.1868 43.5926 28.6783 42.3715 28.7947 42.1741C27.4621 40.978 26.4091 39.7712 26.1847 37.2879L26.0418 37.2909C25.7117 37.2865 25.3936 37.2099 25.0956 37.0386C24.6184 36.765 24.2827 36.2949 24.0562 35.7649C23.5764 34.6529 21.9959 30.962 24.4039 31.2537C23.0575 28.7173 26.1048 24.3843 20.849 22.7817C25.1612 17.2726 34.2598 8.77834 40.9275 17.299C48.2258 18.0125 50.5022 26.7613 45.5879 31.5529C45.8758 31.5634 46.1471 31.6303 46.3873 31.76C47.3008 32.2536 47.3308 33.3249 47.0907 34.2237C46.8532 34.9743 46.5515 35.4824 46.2669 36.2143C45.9209 37.2024 45.415 37.3865 44.4377 37.28C44.3881 39.7231 43.2688 40.9222 41.7624 42.3575L42.1745 43.766C40.1545 48.0882 31.7631 48.262 28.3228 43.7704Z" fill="#1581BF"/>
<path d="M35.09 70.7904C44.7795 70.7904 53.552 66.8285 59.9022 60.4233L59.5691 54.2674C58.0626 47.1863 52.084 49.1857 44.4972 44.2935C41.8717 51.4053 29.0688 50.9234 25.9187 44.2935C17.0527 49.8891 12.4498 47.3814 10.7946 54.5065L10.2778 60.4233C16.628 66.8285 25.4005 70.7904 35.09 70.7904Z" fill="#1581BF"/>
</svg>
