<svg width="34" height="35" viewBox="0 0 34 35" fill="none" xmlns="http://www.w3.org/2000/svg">
<rect x="0.5" y="0.74707" width="33" height="33" rx="3.5" stroke="#AEAEBC" stroke-dasharray="2.46 2.46"/>
<path fill-rule="evenodd" clip-rule="evenodd" d="M16.9997 11.2471C17.4731 11.2471 17.8569 11.6308 17.8569 12.1042V22.3899C17.8569 22.8633 17.4731 23.2471 16.9997 23.2471C16.5263 23.2471 16.1426 22.8633 16.1426 22.3899V12.1042C16.1426 11.6308 16.5263 11.2471 16.9997 11.2471Z" fill="#AEAEBC"/>
<path fill-rule="evenodd" clip-rule="evenodd" d="M23 17.2468C23 17.7202 22.6162 18.1039 22.1429 18.1039L11.8571 18.1039C11.3838 18.1039 11 17.7202 11 17.2468C11 16.7734 11.3838 16.3896 11.8571 16.3896L22.1429 16.3896C22.6162 16.3896 23 16.7734 23 17.2468Z" fill="#AEAEBC"/>
</svg>
