<svg width="121" height="120" viewBox="0 0 121 120" fill="none" xmlns="http://www.w3.org/2000/svg">
<path d="M60.4994 0.150085C27.5 0.150085 0.649414 27.0007 0.649414 60.0001C0.649414 75.2499 6.38871 89.7701 16.7951 100.885C28.0645 112.939 43.9884 119.85 60.4994 119.85C77.0105 119.85 92.9343 112.939 104.204 100.885C114.61 89.7714 120.349 75.2499 120.349 60.0001C120.349 27.0007 93.4988 0.150085 60.4994 0.150085ZM60.4994 19.7683C73.6488 19.7683 84.3084 30.4279 84.3084 43.5772C84.3084 56.7266 73.6488 67.3875 60.4994 67.3875C47.3501 67.3875 36.6905 56.7279 36.6905 43.5772C36.6905 30.4291 47.3501 19.7683 60.4994 19.7683ZM26.6268 86.8066C32.2779 81.1668 40.0736 77.6716 48.6894 77.6716H72.3107C84.641 77.6716 95.312 84.8271 100.377 95.2234C100.046 95.6089 99.7031 95.9857 99.3603 96.3498C89.3408 107.066 75.1746 113.215 60.4994 113.215C45.8242 113.215 31.658 107.066 21.6385 96.3498C21.2958 95.9844 20.9531 95.6089 20.6217 95.2221C22.1405 92.1016 24.1702 89.258 26.6268 86.8066Z" fill="#D8E6FF"/>
</svg>
