<svg width="44" height="44" viewBox="0 0 44 44" fill="none" xmlns="http://www.w3.org/2000/svg">
<rect width="44" height="44" rx="12" fill="white" fill-opacity="0.1"/>
<path d="M20.5999 22.7098C20.5061 22.6169 20.4317 22.5063 20.381 22.3844C20.3302 22.2625 20.3041 22.1318 20.3041 21.9998C20.3041 21.8678 20.3302 21.7371 20.381 21.6152C20.4317 21.4934 20.5061 21.3828 20.5999 21.2898L25.1899 16.7098C25.2836 16.6169 25.358 16.5063 25.4088 16.3844C25.4595 16.2625 25.4857 16.1318 25.4857 15.9998C25.4857 15.8678 25.4595 15.7371 25.4088 15.6152C25.358 15.4934 25.2836 15.3828 25.1899 15.2898C25.0025 15.1036 24.749 14.999 24.4849 14.999C24.2207 14.999 23.9672 15.1036 23.7799 15.2898L19.1899 19.8798C18.6281 20.4423 18.3125 21.2048 18.3125 21.9998C18.3125 22.7948 18.6281 23.5573 19.1899 24.1198L23.7799 28.7098C23.9661 28.8946 24.2175 28.9987 24.4799 28.9998C24.6115 29.0006 24.7419 28.9754 24.8638 28.9256C24.9856 28.8758 25.0964 28.8025 25.1899 28.7098C25.2836 28.6169 25.358 28.5063 25.4088 28.3844C25.4595 28.2625 25.4857 28.1318 25.4857 27.9998C25.4857 27.8678 25.4595 27.7371 25.4088 27.6152C25.358 27.4934 25.2836 27.3828 25.1899 27.2898L20.5999 22.7098Z" fill="white"/>
</svg>
