<svg width="10" height="18" viewBox="0 0 10 18" fill="none" xmlns="http://www.w3.org/2000/svg">
<path d="M3.38044 9.90735C3.26361 9.78861 3.17088 9.64735 3.10759 9.4917C3.04431 9.33606 3.01173 9.16912 3.01173 9.00051C3.01173 8.8319 3.04431 8.66496 3.10759 8.50931C3.17088 8.35367 3.26361 8.21241 3.38044 8.09367L9.10177 2.24393C9.2186 2.12519 9.31133 1.98393 9.37461 1.82828C9.43789 1.67264 9.47047 1.5057 9.47047 1.33709C9.47047 1.16848 9.43789 1.00153 9.37461 0.845891C9.31133 0.690248 9.2186 0.548985 9.10177 0.430249C8.86822 0.192362 8.5523 0.0588379 8.223 0.0588379C7.8937 0.0588379 7.57778 0.192362 7.34423 0.430249L1.62291 6.29277C0.922632 7.01121 0.529297 7.9851 0.529297 9.00051C0.529297 10.0159 0.922632 10.9898 1.62291 11.7083L7.34423 17.5708C7.5764 17.8067 7.88977 17.9398 8.21677 17.9412C8.38081 17.9421 8.54343 17.9099 8.6953 17.8464C8.84717 17.7828 8.9853 17.6891 9.10177 17.5708C9.2186 17.452 9.31133 17.3108 9.37461 17.1551C9.43789 16.9995 9.47047 16.8325 9.47047 16.6639C9.47047 16.4953 9.43789 16.3284 9.37461 16.1727C9.31133 16.0171 9.2186 15.8758 9.10177 15.7571L3.38044 9.90735Z" fill="#1581BF"/>
</svg>
