<svg width="16" height="16" viewBox="0 0 16 16" fill="none" xmlns="http://www.w3.org/2000/svg">
<g clip-path="url(#clip0_1509_7519)">
<path d="M14.1255 1.25H13.3755V0.625C13.3755 0.279822 13.0957 0 12.7505 0C12.4053 0 12.1255 0.279822 12.1255 0.625V1.25H3.87549V0.625C3.87549 0.279822 3.59567 0 3.25049 0C2.90531 0 2.62549 0.279822 2.62549 0.625V1.25H1.87549C0.841613 1.25 0.000488281 2.09113 0.000488281 3.125V14.125C0.000488281 15.1589 0.841613 16 1.87549 16H14.1255C15.1594 16 16.0005 15.1589 16.0005 14.125V3.125C16.0005 2.09113 15.1594 1.25 14.1255 1.25ZM14.7505 14.125C14.7505 14.4696 14.4701 14.75 14.1255 14.75H1.87549C1.53086 14.75 1.25049 14.4696 1.25049 14.125V5.875H14.7505V14.125ZM14.7505 4.625H1.25049V3.125C1.25049 2.78038 1.53086 2.5 1.87549 2.5H2.62549V3.125C2.62549 3.47018 2.90531 3.75 3.25049 3.75C3.59567 3.75 3.87549 3.47018 3.87549 3.125V2.5H12.1255V3.125C12.1255 3.47018 12.4053 3.75 12.7505 3.75C13.0957 3.75 13.3755 3.47018 13.3755 3.125V2.5H14.1255C14.4701 2.5 14.7505 2.78038 14.7505 3.125V4.625Z" fill="#9898A5"/>
<path d="M2.37549 7.8125C2.37549 7.46732 2.65531 7.1875 3.00049 7.1875C3.34567 7.1875 3.62549 7.46732 3.62549 7.8125C3.62549 8.15768 3.34567 8.4375 3.00049 8.4375C2.65531 8.4375 2.37549 8.15768 2.37549 7.8125ZM4.87549 7.8125C4.87549 7.46732 5.15531 7.1875 5.50049 7.1875C5.84567 7.1875 6.12549 7.46732 6.12549 7.8125C6.12549 8.15768 5.84567 8.4375 5.50049 8.4375C5.15531 8.4375 4.87549 8.15768 4.87549 7.8125ZM7.37549 7.8125C7.37549 7.46732 7.65531 7.1875 8.00049 7.1875C8.34567 7.1875 8.62549 7.46732 8.62549 7.8125C8.62549 8.15768 8.34567 8.4375 8.00049 8.4375C7.65531 8.4375 7.37549 8.15768 7.37549 7.8125ZM9.87549 7.8125C9.87549 7.46732 10.1553 7.1875 10.5005 7.1875C10.8457 7.1875 11.1255 7.46732 11.1255 7.8125C11.1255 8.15768 10.8457 8.4375 10.5005 8.4375C10.1553 8.4375 9.87549 8.15768 9.87549 7.8125ZM12.3755 7.8125C12.3755 7.46732 12.6553 7.1875 13.0005 7.1875C13.3457 7.1875 13.6255 7.46732 13.6255 7.8125C13.6255 8.15768 13.3457 8.4375 13.0005 8.4375C12.6553 8.4375 12.3755 8.15768 12.3755 7.8125ZM2.37549 10.3125C2.37549 9.96732 2.65531 9.6875 3.00049 9.6875C3.34567 9.6875 3.62549 9.96732 3.62549 10.3125C3.62549 10.6577 3.34567 10.9375 3.00049 10.9375C2.65531 10.9375 2.37549 10.6577 2.37549 10.3125ZM4.87549 10.3125C4.87549 9.96732 5.15531 9.6875 5.50049 9.6875C5.84567 9.6875 6.12549 9.96732 6.12549 10.3125C6.12549 10.6577 5.84567 10.9375 5.50049 10.9375C5.15531 10.9375 4.87549 10.6577 4.87549 10.3125ZM7.37549 10.3125C7.37549 9.96732 7.65531 9.6875 8.00049 9.6875C8.34567 9.6875 8.62549 9.96732 8.62549 10.3125C8.62549 10.6577 8.34567 10.9375 8.00049 10.9375C7.65531 10.9375 7.37549 10.6577 7.37549 10.3125ZM9.87549 10.3125C9.87549 9.96732 10.1553 9.6875 10.5005 9.6875C10.8457 9.6875 11.1255 9.96732 11.1255 10.3125C11.1255 10.6577 10.8457 10.9375 10.5005 10.9375C10.1553 10.9375 9.87549 10.6577 9.87549 10.3125ZM2.37549 12.8125C2.37549 12.4673 2.65531 12.1875 3.00049 12.1875C3.34567 12.1875 3.62549 12.4673 3.62549 12.8125C3.62549 13.1577 3.34567 13.4375 3.00049 13.4375C2.65531 13.4375 2.37549 13.1577 2.37549 12.8125ZM4.87549 12.8125C4.87549 12.4673 5.15531 12.1875 5.50049 12.1875C5.84567 12.1875 6.12549 12.4673 6.12549 12.8125C6.12549 13.1577 5.84567 13.4375 5.50049 13.4375C5.15531 13.4375 4.87549 13.1577 4.87549 12.8125ZM7.37549 12.8125C7.37549 12.4673 7.65531 12.1875 8.00049 12.1875C8.34567 12.1875 8.62549 12.4673 8.62549 12.8125C8.62549 13.1577 8.34567 13.4375 8.00049 13.4375C7.65531 13.4375 7.37549 13.1577 7.37549 12.8125ZM9.87549 12.8125C9.87549 12.4673 10.1553 12.1875 10.5005 12.1875C10.8457 12.1875 11.1255 12.4673 11.1255 12.8125C11.1255 13.1577 10.8457 13.4375 10.5005 13.4375C10.1553 13.4375 9.87549 13.1577 9.87549 12.8125ZM12.3755 10.3125C12.3755 9.96732 12.6553 9.6875 13.0005 9.6875C13.3457 9.6875 13.6255 9.96732 13.6255 10.3125C13.6255 10.6577 13.3457 10.9375 13.0005 10.9375C12.6553 10.9375 12.3755 10.6577 12.3755 10.3125Z" fill="#9898A5"/>
</g>
<defs>
<clipPath id="clip0_1509_7519">
<rect width="16" height="16" fill="white"/>
</clipPath>
</defs>
</svg>
