<svg width="46" height="60" viewBox="0 0 46 60" fill="none" xmlns="http://www.w3.org/2000/svg">
<path d="M45.4173 14.0669L31.3624 0H2.83899C1.58703 0 0.571289 1.01575 0.571289 2.26772V42.5079H45.4173V14.0669Z" fill="#EFF3F5"/>
<path d="M31.3623 11.7992C31.3623 13.0512 32.378 14.0669 33.63 14.0669H45.4291L31.3623 -1.52588e-05V11.7992Z" fill="#DBDFE0"/>
<path d="M0.583008 42.496V57.7323C0.583008 58.9842 1.59875 60 2.8507 60H43.1614C44.4133 60 45.4291 58.9842 45.4291 57.7323V42.496H0.583008ZM11.4963 39.9212C10.7758 39.9212 10.079 39.6496 9.4412 39.1181C8.3664 38.2205 8.28373 37.2283 8.39003 36.5551C8.90971 33.5197 14.5553 30.7441 17.8388 29.374C19.6222 24.9094 21.1694 19.6535 22.1261 15.7087C20.2128 11.6102 19.5395 8.71654 20.1301 7.07481C20.4254 6.25985 21.0277 5.72835 21.8781 5.53938L21.9962 5.51575L22.1143 5.52757C22.2088 5.53938 23.0474 5.6693 23.7324 6.59056C24.6182 7.79528 24.819 9.7441 24.323 12.3898C24.1812 13.1457 23.945 14.2323 23.6379 15.5315C25.3859 19.1693 27.8426 23.185 29.8505 25.9724C31.5276 25.7362 33.1221 25.6535 34.4685 25.7953C36.9843 26.0551 37.5157 27.1535 37.6102 27.7913C37.752 28.7244 37.0669 29.6929 35.8977 30.189C34.2796 30.874 31.6339 30.6968 29.4843 27.9094C29.3898 27.7913 29.2954 27.6614 29.2009 27.5315C26.4371 27.9921 23.2245 28.8661 19.9647 30.0827C19.6222 30.2126 19.2915 30.3425 18.9608 30.4724C16.7522 35.8819 14.5908 38.9882 12.5238 39.7323C12.1931 39.8622 11.8388 39.9212 11.4963 39.9212ZM17.0474 31.2874C12.3585 33.4016 10.0317 35.4921 9.81915 36.8031C9.7719 37.0866 9.7719 37.5236 10.3743 38.0197C10.9294 38.4803 11.4609 38.5984 12.0514 38.3858C13.6931 37.7953 15.4411 34.9606 17.0474 31.2874ZM30.8662 27.3071C32.4607 29.185 34.2559 29.3386 35.3425 28.8661C35.9095 28.6299 36.2284 28.2283 36.1929 28.0039C36.1575 27.7677 35.626 27.3661 34.3268 27.2362C33.3583 27.1417 32.189 27.1653 30.8662 27.3071ZM23.1182 17.6929C22.3978 20.4685 21.4175 23.811 20.2718 27.0472C20.071 27.6024 19.882 28.1339 19.6813 28.6535C22.2442 27.7087 25.3387 26.7874 28.2796 26.2323C26.6969 23.9764 24.7481 20.8465 23.1182 17.6929ZM22.0553 7.00394C21.7836 7.09843 21.6064 7.2756 21.5001 7.58268C21.0868 8.71654 21.6301 10.8543 22.6812 13.3819C22.7757 12.9331 22.8584 12.5197 22.9293 12.1417C23.4726 9.20079 22.9529 7.93701 22.5867 7.45276C22.386 7.18111 22.1734 7.05119 22.0553 7.00394Z" fill="#F1786B"/>
<path d="M33.6777 50.3385H30.973V47.5865H33.6777C34.1856 47.5865 34.599 47.1732 34.599 46.6653C34.599 46.1574 34.1856 45.744 33.6777 45.744H30.0636C29.5557 45.744 29.1423 46.1574 29.1423 46.6653V55.8306C29.1423 56.3385 29.5557 56.7519 30.0636 56.7519C30.5715 56.7519 30.9848 56.3385 30.9848 55.8306V52.1692H33.6895C34.1974 52.1692 34.6108 51.7558 34.6108 51.248C34.599 50.7401 34.1856 50.3385 33.6777 50.3385ZM14.1897 45.7558H12.3236C11.8157 45.7558 11.4023 46.1692 11.4023 46.6771V55.8424C11.4023 56.3503 11.8157 56.7637 12.3236 56.7637C12.8315 56.7637 13.2448 56.3503 13.2448 55.8424V52.181H14.1897C15.9614 52.181 17.4023 50.7401 17.4023 48.9684C17.4023 47.1968 15.9614 45.7558 14.1897 45.7558ZM14.1897 50.3385H13.2448V47.5865H14.1897C14.9456 47.5865 15.5598 48.2007 15.5598 48.9566C15.5598 49.7125 14.9456 50.3385 14.1897 50.3385ZM22.103 45.7558H19.6936C19.1857 45.7558 18.7724 46.1692 18.7724 46.6771V55.8424C18.7724 56.3503 19.1857 56.7637 19.6936 56.7637H22.103C25.1384 56.7637 27.6069 54.2952 27.6069 51.2598C27.6069 48.2125 25.1384 45.7558 22.103 45.7558ZM22.103 54.9094H20.6149V47.5747H22.103C24.1227 47.5747 25.7644 49.2165 25.7644 51.2361C25.7762 53.2676 24.1227 54.9094 22.103 54.9094Z" fill="#EFF3F5"/>
</svg>
