<svg width="35" height="35" viewBox="0 0 35 35" fill="none" xmlns="http://www.w3.org/2000/svg">
<circle cx="17.5" cy="17.5" r="15.5978" fill="#F5F5F5" stroke="white" stroke-width="3.80435"/>
<g clip-path="url(#clip0_1509_7529)">
<path d="M13.25 20.5435L20.9667 12.8268L19.8908 11.7509L12.1741 19.4677V20.5435H13.25ZM13.8807 22.0653H10.6523V18.8369L19.3529 10.1363C19.4956 9.99371 19.6891 9.91357 19.8908 9.91357C20.0926 9.91357 20.2861 9.99371 20.4288 10.1363L22.5813 12.2888C22.7239 12.4315 22.804 12.625 22.804 12.8268C22.804 13.0285 22.7239 13.222 22.5813 13.3647L13.8807 22.0653V22.0653ZM10.6523 23.587H24.348V25.1087H10.6523V23.587Z" fill="black"/>
</g>
<defs>
<clipPath id="clip0_1509_7529">
<rect width="18.2609" height="18.2609" fill="white" transform="translate(8.36963 8.36957)"/>
</clipPath>
</defs>
</svg>
