<svg width="16" height="16" viewBox="0 0 16 16" fill="none" xmlns="http://www.w3.org/2000/svg">
<g clip-path="url(#clip0_1509_7513)">
<path d="M2.71965 7.81185L4.32176 6.20973C3.84624 5.53862 3.63155 4.7159 3.72004 3.89616C3.81164 3.04763 4.22128 2.2653 4.86651 1.70667C5.51174 1.14803 6.34465 0.854567 7.19755 0.885353C8.05046 0.916139 8.86004 1.26889 9.46331 1.87259C10.0666 2.47629 10.4188 3.28612 10.4489 4.13905C10.4791 4.99197 10.1851 5.82467 9.62599 6.4695C9.06689 7.11434 8.28427 7.52343 7.43568 7.61443C6.6159 7.70234 5.79335 7.48708 5.12258 7.0111L3.52092 8.61276L4.10957 9.20182C4.16338 9.25397 4.20632 9.31627 4.2359 9.38513C4.2656 9.45427 4.28123 9.52863 4.28189 9.60387C4.28254 9.67912 4.2682 9.75374 4.23971 9.82338C4.21121 9.89303 4.16913 9.9563 4.11593 10.0095C4.06272 10.0627 3.99945 10.1048 3.9298 10.1333L3.89193 10.0407L3.9298 10.1333C3.86016 10.1618 3.78553 10.1761 3.71029 10.1755C3.63504 10.1748 3.56068 10.1592 3.49154 10.1295C3.42269 10.0999 3.36039 10.057 3.30824 10.0032L2.71962 9.41453L1.86796 10.2662C1.86776 10.2664 1.86755 10.2666 1.86734 10.2668C1.81519 10.3206 1.75288 10.3636 1.68402 10.3932C1.61488 10.4229 1.54052 10.4385 1.46527 10.4392C1.39003 10.4398 1.3154 10.4255 1.24576 10.397C1.17611 10.3685 1.11284 10.3264 1.05963 10.2732C1.00642 10.22 0.964346 10.1567 0.935852 10.0871C0.907358 10.0174 0.89302 9.9428 0.893674 9.86755C0.894328 9.79231 0.90996 9.71795 0.93966 9.64881C0.969242 9.57994 1.01219 9.51763 1.06601 9.46549C1.06623 9.46528 1.06644 9.46507 1.06666 9.46486L1.9183 8.61363L1.32912 8.02403L2.71965 7.81185ZM2.71965 7.81185L2.13045 7.22224L2.1304 7.22219C2.02407 7.11594 1.87988 7.05627 1.72956 7.05633C1.57924 7.05638 1.4351 7.11614 1.32884 7.22248C1.22259 7.32881 1.16292 7.47299 1.16297 7.62331C1.16303 7.77361 1.22278 7.91773 1.32907 8.02398L2.71965 7.81185ZM7.06641 2.03295C7.50815 2.03295 7.93996 2.16394 8.30726 2.40936C8.67455 2.65477 8.96082 3.00359 9.12986 3.41171C9.29891 3.81982 9.34314 4.2689 9.25696 4.70215C9.17078 5.1354 8.95807 5.53336 8.64571 5.84572C8.33335 6.15808 7.93539 6.37079 7.50214 6.45697C7.06888 6.54315 6.61981 6.49892 6.2117 6.32987C5.80358 6.16083 5.45476 5.87456 5.20935 5.50727C4.96393 5.13998 4.83294 4.70816 4.83294 4.26642C4.83294 3.67407 5.06825 3.10597 5.48711 2.68712C5.90596 2.26826 6.47405 2.03295 7.06641 2.03295Z" fill="#9898A5" stroke="#9898A5" stroke-width="0.2"/>
<path d="M14.5333 5.5665H12.1998C12.0495 5.5665 11.9054 5.62621 11.7991 5.73248C11.6929 5.83876 11.6331 5.9829 11.6331 6.1332C11.6331 6.28349 11.6929 6.42763 11.7991 6.53391C11.9054 6.64019 12.0495 6.69989 12.1998 6.69989H13.1653L10.8763 8.98886C10.2054 8.51315 9.38273 8.29822 8.56299 8.38645C7.71445 8.47778 6.932 8.88716 6.37316 9.5322C5.81432 10.1772 5.52059 11.01 5.55108 11.8629C5.58158 12.7158 5.93404 13.5255 6.53752 14.129C7.141 14.7325 7.95068 15.0849 8.80358 15.1154C9.65648 15.1459 10.4893 14.8522 11.1343 14.2933C11.7793 13.7345 12.1887 12.9521 12.2801 12.1035C12.3683 11.2838 12.1534 10.4611 11.6776 9.79019L13.9666 7.50122V8.46667C13.9666 8.61696 14.0263 8.7611 14.1326 8.86738C14.2389 8.97366 14.383 9.03336 14.5333 9.03336C14.6836 9.03336 14.8277 8.97366 14.934 8.86738C15.0403 8.7611 15.1 8.61696 15.1 8.46667V6.1332C15.1 5.9829 15.0403 5.83876 14.934 5.73248C14.8277 5.62621 14.6836 5.5665 14.5333 5.5665ZM8.93298 13.967C8.49125 13.967 8.05943 13.836 7.69214 13.5906C7.32484 13.3452 7.03857 12.9963 6.86953 12.5882C6.70048 12.1801 6.65625 11.731 6.74243 11.2978C6.82861 10.8645 7.04133 10.4666 7.35368 10.1542C7.66604 9.84187 8.06401 9.62915 8.49726 9.54297C8.93051 9.45679 9.37958 9.50102 9.7877 9.67007C10.1958 9.83911 10.5446 10.1254 10.79 10.4927C11.0355 10.86 11.1665 11.2918 11.1665 11.7335C11.1665 12.0268 11.1087 12.3173 10.9964 12.5882C10.8842 12.8592 10.7197 13.1054 10.5123 13.3128C10.3049 13.5202 10.0587 13.6847 9.7877 13.797C9.51672 13.9092 9.22629 13.967 8.93298 13.967Z" fill="#9898A5" stroke="#9898A5" stroke-width="0.2"/>
</g>
<defs>
<clipPath id="clip0_1509_7513">
<rect width="16" height="16" fill="white"/>
</clipPath>
</defs>
</svg>
