<svg width="47" height="61" viewBox="0 0 47 61" fill="none" xmlns="http://www.w3.org/2000/svg">
<path d="M32.838 0.724243H1.82415C0.960696 0.724243 0.260742 1.4242 0.260742 2.78243V59.499C0.260742 59.8677 0.960696 60.5676 1.82415 60.5676H44.6485C45.512 60.5676 46.2119 59.8677 46.2119 59.499V14.5929C46.2119 13.8492 46.1125 13.6098 45.9373 13.4335L33.5027 0.998882C33.326 0.823278 33.0871 0.72457 32.838 0.724243Z" fill="#EFF3F5"/>
<path d="M44.6485 60.5676H1.82415C1.40951 60.5676 1.01185 60.4029 0.718654 60.1097C0.425458 59.8165 0.260742 59.4189 0.260742 59.0042V42.4009H46.2119V59.0042C46.2119 59.8677 45.512 60.5676 44.6485 60.5676Z" fill="#1E88E5"/>
<path d="M33.3887 0.88562V13.5478H46.0509L33.3887 0.88562Z" fill="#DBDFE0"/>
<path d="M11.8923 57.3617H10.1387V46.5942H13.2356C13.6929 46.5942 14.146 46.6669 14.5938 46.8133C15.0416 46.9597 15.4434 47.1787 15.7992 47.4705C16.1551 47.7622 16.4425 48.1159 16.6616 48.5295C16.8807 48.9431 16.9907 49.4079 16.9907 49.9251C16.9907 50.4712 16.8978 50.9649 16.7129 51.4084C16.5406 51.8338 16.276 52.2155 15.9381 52.5262C15.6069 52.8275 15.2072 53.0616 14.7402 53.2272C14.2732 53.3928 13.756 53.4751 13.1918 53.4751H11.8912L11.8923 57.3617ZM11.8923 47.9236V52.1896H13.4995C13.7132 52.1896 13.9248 52.1532 14.1354 52.0795C14.3448 52.0068 14.5372 51.8871 14.7124 51.7215C14.8877 51.5559 15.0287 51.325 15.1356 51.028C15.2425 50.7309 15.2959 50.3633 15.2959 49.9251C15.2959 49.7499 15.2713 49.5468 15.2232 49.3192C15.1703 49.0817 15.0684 48.8579 14.924 48.662C14.7564 48.4391 14.5386 48.259 14.2882 48.1362C14.0157 47.9952 13.6545 47.9246 13.2067 47.9246L11.8923 47.9236ZM26.7794 46.5942V57.3617H24.9969L20.7748 49.9401V57.3617H18.9923V46.5942H20.7748L24.9969 54.0158V46.5942H26.7794ZM37.299 51.8102V55.9736C37.0746 56.2568 36.8245 56.4865 36.5467 56.6671C36.2689 56.8477 35.9771 56.9963 35.6704 57.1127C35.3637 57.2292 35.0463 57.3126 34.7204 57.3617C34.3989 57.4102 34.0742 57.4345 33.749 57.4344C33.1057 57.4344 32.5148 57.3179 31.974 57.0839C31.4333 56.8499 30.961 56.5047 30.557 56.0462C30.1531 55.5878 29.8357 55.0139 29.607 54.3225C29.3783 53.6311 29.264 52.8318 29.264 51.9267C29.264 51.0215 29.3783 50.2243 29.607 49.5383C29.8357 48.8511 30.152 48.2794 30.557 47.8221C30.9489 47.3728 31.4354 47.0159 31.9815 46.7769C32.5392 46.5354 33.1413 46.4134 33.749 46.4189C34.3336 46.4189 34.8786 46.5162 35.3851 46.7107C35.8916 46.9062 36.3437 47.198 36.7433 47.587L35.5304 48.6684C35.3169 48.4011 35.041 48.1905 34.7268 48.055C34.431 47.9298 34.113 47.8652 33.7918 47.8648C33.4316 47.8648 33.0875 47.9321 32.7616 48.0689C32.4148 48.2211 32.1131 48.4599 31.8853 48.7625C31.6267 49.0895 31.4248 49.5094 31.2794 50.0266C31.1341 50.5439 31.055 51.1754 31.0454 51.9256C31.055 52.6565 31.1309 53.2892 31.2719 53.8246C31.413 54.3599 31.6075 54.7981 31.8565 55.139C32.1055 55.4799 32.3876 55.7331 32.7039 55.8988C33.0202 56.0644 33.3536 56.1467 33.7052 56.1467C33.8121 56.1467 33.9553 56.1392 34.1359 56.1243C34.3173 56.1094 34.4977 56.0852 34.6766 56.0516C34.8526 56.0186 35.0259 55.9721 35.1949 55.9127C35.339 55.869 35.4665 55.7825 35.5604 55.6647V53.006H33.7341V51.8081H37.299V51.8102Z" fill="white"/>
<path d="M13.5447 21.0282C16.2413 21.0282 18.4273 18.8422 18.4273 16.1456C18.4273 13.4491 16.2413 11.2631 13.5447 11.2631C10.8481 11.2631 8.66211 13.4491 8.66211 16.1456C8.66211 18.8422 10.8481 21.0282 13.5447 21.0282Z" fill="#7AB9F0"/>
<path d="M0.260742 42.4009H46.2119V30.646L35.5256 20.494L24.305 32.7832L18.4457 26.9239L0.260742 42.4009Z" fill="#7AB9F0"/>
</svg>
