<svg width="46" height="60" viewBox="0 0 46 60" fill="none" xmlns="http://www.w3.org/2000/svg">
<path d="M45.4173 14.0669L31.3624 0H2.83899C1.58703 0 0.571289 1.01575 0.571289 2.26772V42.5079H45.4173V14.0669Z" fill="#EFF3F5"/>
<path d="M15.9834 22.8125L21.999 30.0312L29.2178 27.625L37.6396 34.8438H6.3584L15.9834 22.8125Z" fill="#8690FA"/>
<path d="M26.8115 22.8125C28.1405 22.8125 29.2178 21.7352 29.2178 20.4062C29.2178 19.0773 28.1405 18 26.8115 18C25.4826 18 24.4053 19.0773 24.4053 20.4062C24.4053 21.7352 25.4826 22.8125 26.8115 22.8125Z" fill="#5153FF"/>
<path d="M31.3623 11.7992C31.3623 13.0512 32.378 14.0669 33.63 14.0669H45.4291L31.3623 0V11.7992Z" fill="#DBDFE0"/>
<path d="M0.583008 42.496V57.7322C0.583008 58.9842 1.59875 60 2.8507 60H43.1614C44.4133 60 45.4291 58.9842 45.4291 57.7322V42.496H0.583008Z" fill="#5153FF"/>
<path d="M21.4583 46H19.375C19.0987 46 18.8338 46.1054 18.6384 46.2929C18.4431 46.4804 18.3333 46.7348 18.3333 47V55C18.3333 55.2652 18.4431 55.5196 18.6384 55.7071C18.8338 55.8946 19.0987 56 19.375 56C19.6513 56 19.9162 55.8946 20.1116 55.7071C20.3069 55.5196 20.4167 55.2652 20.4167 55V52H21.4583C22.2871 52 23.082 51.6839 23.668 51.1213C24.2541 50.5587 24.5833 49.7956 24.5833 49C24.5833 48.2044 24.2541 47.4413 23.668 46.8787C23.082 46.3161 22.2871 46 21.4583 46ZM21.4583 50H20.4167V48H21.4583C21.7346 48 21.9996 48.1054 22.1949 48.2929C22.3903 48.4804 22.5 48.7348 22.5 49C22.5 49.2652 22.3903 49.5196 22.1949 49.7071C21.9996 49.8946 21.7346 50 21.4583 50ZM15.2083 46C14.9321 46 14.6671 46.1054 14.4718 46.2929C14.2764 46.4804 14.1667 46.7348 14.1667 47V53C14.1667 53.2652 14.0569 53.5196 13.8616 53.7071C13.6662 53.8946 13.4013 54 13.125 54C12.8487 54 12.5838 53.8946 12.3884 53.7071C12.1931 53.5196 12.0833 53.2652 12.0833 53C12.0833 52.7348 11.9736 52.4804 11.7782 52.2929C11.5829 52.1054 11.3179 52 11.0417 52C10.7654 52 10.5004 52.1054 10.3051 52.2929C10.1097 52.4804 10 52.7348 10 53C10 53.7956 10.3292 54.5587 10.9153 55.1213C11.5013 55.6839 12.2962 56 13.125 56C13.9538 56 14.7487 55.6839 15.3347 55.1213C15.9208 54.5587 16.25 53.7956 16.25 53V47C16.25 46.7348 16.1403 46.4804 15.9449 46.2929C15.7496 46.1054 15.4846 46 15.2083 46ZM33.9583 50H31.875C31.5987 50 31.3338 50.1054 31.1384 50.2929C30.9431 50.4804 30.8333 50.7348 30.8333 51C30.8333 51.2652 30.9431 51.5196 31.1384 51.7071C31.3338 51.8946 31.5987 52 31.875 52H32.7928C32.4996 53.1521 31.7204 54 30.8333 54C29.704 54 28.75 52.6261 28.75 51C28.75 49.3739 29.704 48 30.8333 48C31.0403 48.0009 31.2444 48.0461 31.4309 48.1321C31.6808 48.2452 31.9672 48.2584 32.2272 48.1687C32.356 48.1243 32.4743 48.056 32.5756 47.9676C32.6768 47.8793 32.7589 47.7727 32.8173 47.6539C32.8756 47.5351 32.909 47.4065 32.9155 47.2753C32.922 47.1441 32.9016 47.013 32.8553 46.8894C32.8091 46.7658 32.7379 46.6522 32.6459 46.555C32.5539 46.4578 32.4429 46.379 32.3191 46.323C31.855 46.1108 31.3474 46.0005 30.8333 46C28.5358 46 26.6667 48.243 26.6667 51C26.6667 53.757 28.5358 56 30.8333 56C33.1309 56 35 53.757 35 51C35 50.7348 34.8903 50.4804 34.6949 50.2929C34.4996 50.1054 34.2346 50 33.9583 50Z" fill="white"/>
</svg>
