<svg width="149" height="137" viewBox="0 0 149 137" fill="none" xmlns="http://www.w3.org/2000/svg">
<path d="M147.935 135.697C151.507 128.628 141.298 93.2832 70.5123 93.2832C19.4193 93.2832 -4.03094 122.214 1.15345 136.875" fill="url(#paint0_radial_193_17860)"/>
<mask id="mask0_193_17860" style="mask-type:luminance" maskUnits="userSpaceOnUse" x="0" y="93" width="149" height="44">
<path d="M147.935 135.697C151.507 128.628 141.298 93.2832 70.5123 93.2832C19.4193 93.2832 -4.03094 122.214 1.15345 136.875" fill="white"/>
</mask>
<g mask="url(#mask0_193_17860)">
<ellipse opacity="0.671968" cx="59.5945" cy="113.104" rx="3.89288" ry="2.1623" fill="url(#paint1_linear_193_17860)"/>
<ellipse opacity="0.729957" cx="99.3286" cy="109.803" rx="6.14209" ry="3.37319" fill="url(#paint2_linear_193_17860)"/>
<ellipse opacity="0.729957" cx="29.4294" cy="100.808" rx="6.14209" ry="3.37319" fill="url(#paint3_linear_193_17860)"/>
</g>
<g opacity="0.320685">
<ellipse cx="115.321" cy="34.3289" rx="4.1524" ry="4.15162" fill="url(#paint4_linear_193_17860)"/>
<path d="M119.1 36.8626C117.917 36.808 116.37 36.4658 114.785 35.8889C113.199 35.3121 111.794 34.5797 110.853 33.8614C110.455 33.5581 110.165 33.2747 110.002 33.0443C110.05 33.0318 110.104 33.0201 110.165 33.0095C110.621 32.9292 111.287 32.9404 112.081 33.0524L112.371 30.9965C110.071 30.6722 108.402 30.9656 107.921 32.2869C107.222 34.2088 110.071 36.3828 114.075 37.84C118.079 39.2971 121.659 39.4626 122.359 37.5408C122.849 36.1931 121.775 35.1283 119.493 33.716L118.4 35.4814C119.176 35.9618 119.756 36.3862 120.109 36.7357C120.133 36.76 120.156 36.7837 120.178 36.8064C119.91 36.8614 119.542 36.8831 119.1 36.8626Z" fill="url(#paint5_linear_193_17860)"/>
<path d="M119.482 34.3289C119.482 32.036 117.622 30.1772 115.329 30.1772C113.036 30.1772 111.599 31.6432 111.303 33.2962C111.303 33.2962 113.69 34.7905 114.792 35.1116C115.144 35.2141 115.492 35.347 115.847 35.4648C116.244 35.5965 116.648 35.7128 117.057 35.8136C117.337 35.8826 117.721 35.9893 118.079 36.0558C118.551 36.1437 118.974 36.1829 119.008 36.1829C119.066 36.1829 119.13 35.9219 119.262 35.6177C119.395 35.3135 119.482 34.3289 119.482 34.3289Z" fill="url(#paint6_linear_193_17860)"/>
</g>
<circle opacity="0.418364" cx="24.0889" cy="58.8206" r="4.84181" fill="url(#paint7_linear_193_17860)"/>
<ellipse opacity="0.425921" cx="76.4932" cy="100.118" rx="14.5254" ry="3.98737" fill="url(#paint8_linear_193_17860)"/>
<path d="M66.467 77.3335C66.467 77.3335 66.0692 78.4853 66.0692 79.295C65.6714 86.3452 66.6574 97.84 66.6574 97.84H68.1887L70.4489 80.5441L73.5126 97.84H75.0191C75.0191 97.84 75.218 86.737 74.6213 79.295C74.6213 78.4937 74.2743 77.7253 74.2743 77.7253L66.467 77.3335Z" fill="url(#paint9_linear_193_17860)"/>
<path d="M65.1194 68.4096L62.0839 69.1279L61.048 68.8526L54.4672 67.897L52.8781 67.897L52.8719 65.7934L53.2639 66.6011L53.9693 66.8227C53.9693 66.8227 54.3495 66.0547 54.4672 66.1857C54.5849 66.3167 54.6359 66.8563 54.6359 66.8563L55.2239 67.1606L62.2299 67.1606L63.8853 66.1881L65.1194 68.4096Z" fill="#FDE7E6"/>
<path d="M74.9938 68.4096L78.1202 69.1279L79.1561 68.8526L85.7369 67.897L87.5375 66.9791L88.1492 65.7572L87.9202 65.7248L86.9402 66.6011L86.2349 66.8227C86.2349 66.8227 85.8546 66.0547 85.7369 66.1857C85.6192 66.3167 85.5682 66.8563 85.5682 66.8563L84.9802 67.1606L77.9743 67.1606L76.228 66.1881L74.9938 68.4096Z" fill="#FDE7E6"/>
<path d="M76.7783 66.3168L75.815 68.6624H73.4596L74.4998 78.405C74.4998 78.405 71.5295 78.9041 69.959 79.0252C68.3884 79.1462 66.1537 78.405 66.1537 78.405C66.1537 78.405 66.1537 75.0078 66.1537 68.9106L64.0623 68.6624L63.677 66.3168C63.677 66.3168 65.6302 64.9456 66.1537 64.7176C66.6771 64.4897 68.4462 64.2319 68.4462 64.2319L71.2448 64.2319C71.2448 64.2319 73.468 64.3179 73.8883 64.7176C74.3087 65.1174 76.7783 66.3168 76.7783 66.3168Z" fill="url(#paint10_linear_193_17860)"/>
<path fill-rule="evenodd" clip-rule="evenodd" d="M71.0542 62.5234H69.3015V64.8494H71.0542V62.5234ZM70.0026 66.1806C70.0026 65.8503 69.3015 64.8494 69.3015 64.8494H71.0542C71.0542 64.8494 70.0026 66.5108 70.0026 66.1806Z" fill="#FECECD"/>
<ellipse cx="70.0948" cy="61.8148" rx="1.84476" ry="2.61461" fill="#FFE9E9"/>
<path fill-rule="evenodd" clip-rule="evenodd" d="M68.0701 61.9845C68.2177 61.4915 68.2177 60.4043 68.5128 60.3689C68.808 60.3334 69.3983 60.5393 69.9886 60.1399C70.2838 59.9206 70.4314 59.8932 70.4314 59.783C71.9072 60.0454 71.0245 60.8371 71.7596 61.7093C71.8362 61.8003 72.0548 61.7093 72.0548 61.7093C72.0548 61.7093 72.0548 59.5618 71.9072 59.3703C71.7596 59.1787 71.1693 58.4071 70.8741 58.9575C70.8741 58.6823 70.2838 58.3984 69.6935 58.6091C69.1031 58.8199 68.2177 59.2327 68.0701 59.783C67.9225 60.3334 67.7749 61.4341 68.0701 61.9845Z" fill="#513450"/>
<path d="M66.7749 97.8398L66.3652 98.5372C66.0965 98.9945 65.9548 99.5153 65.9548 100.046C65.9548 100.086 65.9874 100.118 66.0275 100.118H67.9319C68.0984 100.118 68.2333 99.9834 68.2333 99.8169C68.2333 99.2631 68.1316 98.714 67.9332 98.1969L67.7962 97.8398H66.7749Z" fill="#677285"/>
<path d="M74.8193 97.8398L75.2291 98.5372C75.4977 98.9945 75.6394 99.5153 75.6394 100.046C75.6394 100.086 75.6069 100.118 75.5668 100.118H73.6624C73.4959 100.118 73.3609 99.9834 73.3609 99.8169C73.3609 99.2631 73.4626 98.714 73.6611 98.1969L73.7981 97.8398H74.8193Z" fill="#677285"/>
<path d="M52.8782 12.2751H54.587V99.1428C54.587 99.6147 54.2045 99.9973 53.7326 99.9973C53.2607 99.9973 52.8782 99.6147 52.8782 99.1428V12.2751Z" fill="#D8D8D8"/>
<path d="M52.8542 12.3259L63.3395 14.8199C67.2019 15.7386 71.2712 15.0803 74.647 12.9908C79.41 10.0427 85.2356 9.36042 90.5509 11.1282L94.152 12.3259L91.3039 33.6371L90.5021 33.31C85.3446 31.2056 79.4552 32.0226 75.0653 35.4514C71.5521 38.1954 66.8275 38.8194 62.7223 37.0817L52.8542 32.9044V12.3259Z" fill="#1581BF"/>
<path d="M78.1401 17.3239C78.7084 16.6793 79.6869 16.628 80.3195 17.2096C80.9452 17.7849 80.9965 18.7634 80.4343 19.401L71.0488 30.0457C70.7729 30.3586 70.3897 30.5414 69.9832 30.5627C69.5767 30.584 69.1765 30.4423 68.8694 30.16L63.3737 25.107C62.748 24.5316 62.6967 23.5532 63.2589 22.9156C63.8272 22.271 64.8057 22.2197 65.4383 22.8013L69.7859 26.7988L78.1401 17.3239Z" fill="white"/>
<mask id="mask1_193_17860" style="mask-type:luminance" maskUnits="userSpaceOnUse" x="62" y="16" width="19" height="15">
<path d="M78.1401 17.3239C78.7084 16.6793 79.6869 16.628 80.3195 17.2096C80.9452 17.7849 80.9965 18.7634 80.4343 19.401L71.0488 30.0457C70.7729 30.3586 70.3897 30.5414 69.9832 30.5627C69.5767 30.584 69.1765 30.4423 68.8694 30.16L63.3737 25.107C62.748 24.5316 62.6967 23.5532 63.2589 22.9156C63.8272 22.271 64.8057 22.2197 65.4383 22.8013L69.7859 26.7988L78.1401 17.3239Z" fill="white"/>
</mask>
<g mask="url(#mask1_193_17860)">
<path opacity="0.8" d="M69.8559 26.7083L66.21 30.6071L62.2212 27.9641L67.9108 22.247L69.8559 26.7083Z" fill="url(#paint11_linear_193_17860)"/>
</g>
<path d="M52.5122 66.2613C52.5122 66.2613 53.3666 65.8341 53.3666 65.9765C53.3666 66.1189 53.3666 67.6854 53.3666 67.6854L52.797 67.9702L52.5122 66.2613Z" fill="#FFE9E9"/>
<defs>
<radialGradient id="paint0_radial_193_17860" cx="0" cy="0" r="1" gradientUnits="userSpaceOnUse" gradientTransform="translate(64.6812 108.401) rotate(-90) scale(25.3454 264.707)">
<stop stop-color="#EBEDF0" stop-opacity="0.24"/>
<stop offset="0.536775" stop-color="#EBEDF0" stop-opacity="0.845525"/>
<stop offset="1" stop-color="#E0E4E7" stop-opacity="0.01"/>
</radialGradient>
<linearGradient id="paint1_linear_193_17860" x1="56.4611" y1="112.531" x2="57.6471" y2="115.067" gradientUnits="userSpaceOnUse">
<stop stop-color="#E1E7EA"/>
<stop offset="1" stop-color="#D0D6DC"/>
</linearGradient>
<linearGradient id="paint2_linear_193_17860" x1="94.1713" y1="109.488" x2="96.3414" y2="114.015" gradientUnits="userSpaceOnUse">
<stop stop-color="#E1E7EA"/>
<stop offset="1" stop-color="#D0D6DC"/>
</linearGradient>
<linearGradient id="paint3_linear_193_17860" x1="25.5131" y1="100.862" x2="26.7411" y2="105.754" gradientUnits="userSpaceOnUse">
<stop stop-color="#FBFBFB"/>
<stop offset="1" stop-color="#D9DFE3"/>
</linearGradient>
<linearGradient id="paint4_linear_193_17860" x1="109.649" y1="31.4701" x2="111.725" y2="38.6482" gradientUnits="userSpaceOnUse">
<stop stop-color="#ECECEC"/>
<stop offset="0.717538" stop-color="#E1E7EA"/>
<stop offset="1" stop-color="#BCC3CA"/>
</linearGradient>
<linearGradient id="paint5_linear_193_17860" x1="111.409" y1="35.952" x2="121.588" y2="39.6571" gradientUnits="userSpaceOnUse">
<stop stop-color="#BAC6D2"/>
<stop offset="1" stop-color="#7F8F9F"/>
</linearGradient>
<linearGradient id="paint6_linear_193_17860" x1="113.793" y1="33.9716" x2="115.151" y2="36.7146" gradientUnits="userSpaceOnUse">
<stop stop-color="#E1E7EA"/>
<stop offset="1" stop-color="#D0D6DC"/>
</linearGradient>
<linearGradient id="paint7_linear_193_17860" x1="30.4542" y1="60.2577" x2="25.6195" y2="52.0927" gradientUnits="userSpaceOnUse">
<stop stop-color="#DAE2E6"/>
<stop offset="0.58" stop-color="#E3EBEF"/>
<stop offset="1" stop-color="#EDF6F9"/>
</linearGradient>
<linearGradient id="paint8_linear_193_17860" x1="65.5903" y1="100.591" x2="73.7489" y2="113.283" gradientUnits="userSpaceOnUse">
<stop stop-color="#C4CDD1"/>
<stop offset="1" stop-color="#C6CFD3" stop-opacity="0.01"/>
</linearGradient>
<linearGradient id="paint9_linear_193_17860" x1="75.0347" y1="97.84" x2="75.0347" y2="77.4872" gradientUnits="userSpaceOnUse">
<stop stop-color="#A1A7B8"/>
<stop offset="1" stop-color="#7B8195"/>
</linearGradient>
<linearGradient id="paint10_linear_193_17860" x1="83.4061" y1="70.9942" x2="70.7977" y2="85.4152" gradientUnits="userSpaceOnUse">
<stop stop-color="#E5E9F0"/>
<stop offset="1" stop-color="#D2DAE8"/>
</linearGradient>
<linearGradient id="paint11_linear_193_17860" x1="64.047" y1="26.5186" x2="67.7346" y2="29.12" gradientUnits="userSpaceOnUse">
<stop stop-color="#67D666" stop-opacity="0.01"/>
<stop offset="1" stop-color="#67D666" stop-opacity="0.2"/>
</linearGradient>
</defs>
</svg>
