<svg width="137" height="137" viewBox="0 0 137 137" fill="none" xmlns="http://www.w3.org/2000/svg">
<path d="M136.306 122.986C139.604 116.459 130.178 83.8232 64.8181 83.8232C17.6415 83.8232 -4.01129 110.536 0.775706 124.074" fill="url(#paint0_radial_193_18030)"/>
<mask id="mask0_193_18030" style="mask-type:luminance" maskUnits="userSpaceOnUse" x="0" y="83" width="137" height="42">
<path d="M136.306 122.986C139.604 116.459 130.178 83.8232 64.8181 83.8232C17.6415 83.8232 -4.01129 110.536 0.775706 124.074" fill="white"/>
</mask>
<g mask="url(#mask0_193_18030)">
<ellipse opacity="0.671968" cx="54.7371" cy="102.125" rx="3.59448" ry="1.99656" fill="url(#paint1_linear_193_18030)"/>
<ellipse opacity="0.729957" cx="91.4252" cy="99.077" rx="5.67129" ry="3.11463" fill="url(#paint2_linear_193_18030)"/>
<ellipse opacity="0.729957" cx="26.8837" cy="90.7711" rx="5.67129" ry="3.11463" fill="url(#paint3_linear_193_18030)"/>
</g>
<g opacity="0.320685">
<ellipse cx="106.193" cy="29.3876" rx="3.83411" ry="3.83339" fill="url(#paint4_linear_193_18030)"/>
<path d="M103.787 26.3479C102.142 26.1159 100.939 26.2977 100.713 26.918C100.351 27.9128 102.638 29.6583 105.822 30.8169C109.006 31.9755 111.88 32.1083 112.242 31.1135C112.47 30.4877 111.426 29.6119 109.992 28.7248" stroke="url(#paint5_linear_193_18030)" stroke-width="1.91706"/>
<path d="M110.035 29.3876C110.035 27.2705 108.318 25.5542 106.2 25.5542C104.083 25.5542 102.757 26.9078 102.483 28.434C102.483 28.434 104.687 29.8138 105.705 30.1104C106.029 30.205 106.351 30.3277 106.679 30.4364C107.045 30.5581 107.418 30.6654 107.796 30.7585C108.054 30.8222 108.409 30.9207 108.739 30.9822C109.176 31.0633 109.566 31.0995 109.597 31.0995C109.651 31.0995 109.71 30.8585 109.832 30.5776C109.954 30.2967 110.035 29.3876 110.035 29.3876Z" fill="url(#paint6_linear_193_18030)"/>
</g>
<circle opacity="0.418364" cx="21.9521" cy="52.0024" r="4.47067" fill="url(#paint7_linear_193_18030)"/>
<ellipse opacity="0.5" cx="70.3407" cy="90.1349" rx="13.412" ry="3.68173" fill="url(#paint8_linear_193_18030)"/>
<path d="M65.1997 14.3201L66.6824 14.8597L39.2493 90.2317C39.1003 90.6411 38.6475 90.8522 38.2381 90.7032C37.8287 90.5542 37.6175 90.1014 37.7666 89.692L65.1997 14.3201Z" fill="#D8D8D8"/>
<path d="M65.1626 14.3564L76.8058 22.0277C77.7629 22.6583 78.832 23.0997 79.9553 23.3279C86.0341 24.5631 89.9971 30.4474 88.8567 36.5446L86.1063 51.2492C86.0936 51.3173 85.9968 51.3192 85.9802 51.252C84.7041 46.1053 79.8485 42.6407 74.5694 43.1389C72.1643 43.3659 69.7769 42.5543 68.0086 40.9085L58.6638 32.2116L65.1626 14.3564Z" fill="#E57A77"/>
<circle cx="65.8143" cy="14.1031" r="1.05192" transform="rotate(20 65.8143 14.1031)" fill="#D8D8D8"/>
<path d="M48.1982 59.3989C48.1982 59.3989 48.9872 59.0044 48.9872 59.1359C48.9872 59.2674 48.9872 60.7138 48.9872 60.7138L48.4612 60.9768L48.1982 59.3989Z" fill="#FFE9E9"/>
<path d="M63.1401 85.7363C63.1401 85.7363 62.8748 84.7694 62.1768 84.7067C61.4788 84.6439 59.5127 86.7239 59.1017 87.5827C58.6907 88.4414 59.8133 89.6452 61.095 88.4883C62.3767 87.3315 63.1401 85.7363 63.1401 85.7363Z" fill="#677285"/>
<path d="M63.9621 88.5582L63.1604 86.3216C62.8376 85.421 61.6105 85.3063 61.1265 86.1316C61.0298 86.2964 60.9763 86.4813 60.9792 86.6722C60.9927 87.5768 61.1403 90.3129 62.4225 90.6819C63.9621 91.125 63.9621 88.5582 63.9621 88.5582Z" fill="url(#paint9_linear_193_18030)"/>
<path d="M73.854 85.7363C73.854 85.7363 74.1193 84.7694 74.8173 84.7067C75.5153 84.6439 77.4815 86.7239 77.8925 87.5827C78.3034 88.4414 77.1808 89.6452 75.8991 88.4883C74.6174 87.3315 73.854 85.7363 73.854 85.7363Z" fill="#677285"/>
<path d="M73.0335 88.5584L73.8352 86.3219C74.158 85.4212 75.3852 85.3066 75.8692 86.1319C75.9658 86.2966 76.0193 86.4815 76.0164 86.6725C76.0029 87.5771 75.8553 90.3132 74.5731 90.6822C73.0335 91.1252 73.0335 88.5584 73.0335 88.5584Z" fill="url(#paint10_linear_193_18030)"/>
<path d="M64.1876 81.8416C64.1876 81.8416 63.7477 82.7054 63.7477 83.3127C63.3078 84.2977 62.5833 85.6234 61.3284 88.3883C60.5061 90.2 61.989 90.6805 63.1092 90.7965C63.8087 90.8689 64.4789 90.5788 65.0228 90.133L68.3787 87.3823L72.3729 90.6802C73.0974 91.2785 74.1457 91.2743 74.8655 90.6704C75.6057 90.0493 75.7991 88.9678 75.3724 88.1008C74.8931 87.1266 74.1813 85.6001 73.2052 83.3127C73.2052 82.7117 72.8214 82.1354 72.8214 82.1354L64.1876 81.8416Z" fill="url(#paint11_linear_193_18030)"/>
<path d="M73.7599 75.0046C74.4773 76.0525 74.2858 78.6727 74.2858 78.6727H72.182L73.0224 84.3224C73.0632 84.5971 72.91 84.8628 72.6492 84.9582C71.7086 85.3022 69.4812 86.0668 68.0479 86.1516C66.6108 86.2367 64.1705 85.4918 63.1419 85.1512C62.8639 85.0591 62.7063 84.7772 62.7838 84.4947C63.0082 83.6774 63.6008 81.812 65.0184 78.6727C65.4574 79.1861 62.9777 78.6727 62.9777 78.6727C62.9777 78.6727 63.1324 76.3394 63.7666 75.0046C64.4008 73.6697 65.8705 72.7781 65.8705 72.7781L69.5867 72.2136C69.5867 72.2136 71.1301 72.5151 71.919 72.9354C72.708 73.3556 73.0424 73.9566 73.7599 75.0046Z" fill="url(#paint12_linear_193_18030)"/>
<path d="M74.0863 78.6626L74.0027 81.1549L73.7203 82.402L71.7782 90.4135L72.088 91.0819L72.2882 91.9497L72.088 92.502L71.562 92.3057L70.5101 91.4501L70.3208 90.8823C70.2739 90.7414 70.2886 90.5873 70.3614 90.458L70.8772 89.5416L72.2882 82.0621L72.1462 78.7569L74.0863 78.6626Z" fill="#FDE7E6"/>
<path d="M63.0305 78.7566L63.2577 81.1547L63.5401 82.4018L65.4822 90.4133L65.1724 91.0817L64.9722 91.9495L65.1724 92.5018L65.6984 92.3055L66.7503 91.4499L66.9396 90.8821C66.9865 90.7412 66.9718 90.5871 66.8989 90.4578L66.3832 89.5413L64.9722 82.0619L65.0818 78.7566L63.0305 78.7566Z" fill="#FDE7E6"/>
<path fill-rule="evenodd" clip-rule="evenodd" d="M69.3615 70.1738H67.2901V72.9501H69.3615V70.1738ZM68.1186 74.5392C68.1186 74.145 67.29 72.9503 67.29 72.9503H69.3615C69.3615 72.9503 68.1186 74.9333 68.1186 74.5392Z" fill="#FECECD"/>
<ellipse cx="68.2062" cy="69.7145" rx="1.83659" ry="2.735" fill="#FFE9E9"/>
<path fill-rule="evenodd" clip-rule="evenodd" d="M66.1902 70.1703C66.3371 69.6491 66.3371 68.4994 66.6309 68.4619C66.9248 68.4244 67.5125 68.6421 68.1002 68.2198C68.3941 67.9879 68.541 67.9589 68.541 67.8424C70.0103 68.1199 69.1316 68.9571 69.8634 69.8794C69.9397 69.9755 70.1572 69.8794 70.1572 69.8794C70.1572 69.8794 70.1572 67.6085 70.0103 67.406C69.8634 67.2034 69.2756 66.3875 68.9818 66.9695C68.9818 66.6785 68.3941 66.3783 67.8064 66.6011C67.2187 66.824 66.3371 67.2605 66.1902 67.8424C66.0432 68.4244 65.8963 69.5884 66.1902 70.1703Z" fill="#513450"/>
<defs>
<radialGradient id="paint0_radial_193_18030" cx="0" cy="0" r="1" gradientUnits="userSpaceOnUse" gradientTransform="translate(59.4339 97.7821) rotate(-90) scale(23.4026 244.417)">
<stop stop-color="#EBEDF0" stop-opacity="0.24"/>
<stop offset="0.536775" stop-color="#EBEDF0" stop-opacity="0.845525"/>
<stop offset="1" stop-color="#E0E4E7" stop-opacity="0.01"/>
</radialGradient>
<linearGradient id="paint1_linear_193_18030" x1="51.8438" y1="101.596" x2="52.9389" y2="103.937" gradientUnits="userSpaceOnUse">
<stop stop-color="#E1E7EA"/>
<stop offset="1" stop-color="#D0D6DC"/>
</linearGradient>
<linearGradient id="paint2_linear_193_18030" x1="86.6632" y1="98.7858" x2="88.667" y2="102.965" gradientUnits="userSpaceOnUse">
<stop stop-color="#E1E7EA"/>
<stop offset="1" stop-color="#D0D6DC"/>
</linearGradient>
<linearGradient id="paint3_linear_193_18030" x1="23.2676" y1="90.8215" x2="24.4014" y2="95.3386" gradientUnits="userSpaceOnUse">
<stop stop-color="#FBFBFB"/>
<stop offset="1" stop-color="#D9DFE3"/>
</linearGradient>
<linearGradient id="paint4_linear_193_18030" x1="100.955" y1="26.7479" x2="102.872" y2="33.3758" gradientUnits="userSpaceOnUse">
<stop stop-color="#ECECEC"/>
<stop offset="0.717538" stop-color="#E1E7EA"/>
<stop offset="1" stop-color="#BCC3CA"/>
</linearGradient>
<linearGradient id="paint5_linear_193_18030" x1="103.634" y1="29.4708" x2="111.763" y2="32.4296" gradientUnits="userSpaceOnUse">
<stop stop-color="#BAC6D2"/>
<stop offset="1" stop-color="#7F8F9F"/>
</linearGradient>
<linearGradient id="paint6_linear_193_18030" x1="104.782" y1="29.0577" x2="106.036" y2="31.5904" gradientUnits="userSpaceOnUse">
<stop stop-color="#E1E7EA"/>
<stop offset="1" stop-color="#D0D6DC"/>
</linearGradient>
<linearGradient id="paint7_linear_193_18030" x1="27.8296" y1="53.3294" x2="23.3654" y2="45.7902" gradientUnits="userSpaceOnUse">
<stop stop-color="#DAE2E6"/>
<stop offset="0.58" stop-color="#E3EBEF"/>
<stop offset="1" stop-color="#EDF6F9"/>
</linearGradient>
<linearGradient id="paint8_linear_193_18030" x1="60.2735" y1="90.5713" x2="67.8068" y2="102.29" gradientUnits="userSpaceOnUse">
<stop stop-color="#C4CDD1"/>
<stop offset="1" stop-color="#C6CFD3" stop-opacity="0.01"/>
</linearGradient>
<linearGradient id="paint9_linear_193_18030" x1="63.9621" y1="90.7471" x2="63.9621" y2="84.9084" gradientUnits="userSpaceOnUse">
<stop stop-color="#7A87AF"/>
<stop offset="1" stop-color="#444F77"/>
</linearGradient>
<linearGradient id="paint10_linear_193_18030" x1="73.0335" y1="90.7474" x2="73.0335" y2="84.9087" gradientUnits="userSpaceOnUse">
<stop stop-color="#7A87AF"/>
<stop offset="1" stop-color="#444F77"/>
</linearGradient>
<linearGradient id="paint11_linear_193_18030" x1="75.6198" y1="91.1123" x2="75.6198" y2="81.8416" gradientUnits="userSpaceOnUse">
<stop stop-color="#7A87AF"/>
<stop offset="1" stop-color="#444F77"/>
</linearGradient>
<linearGradient id="paint12_linear_193_18030" x1="80.1751" y1="78.5816" x2="68.2234" y2="91.3922" gradientUnits="userSpaceOnUse">
<stop stop-color="#E5E9F0"/>
<stop offset="1" stop-color="#D2DAE8"/>
</linearGradient>
</defs>
</svg>
