<svg width="24" height="24" viewBox="0 0 24 24" fill="none" xmlns="http://www.w3.org/2000/svg">
<path d="M11.9932 5.00688C11.8078 5.00898 11.6308 5.08474 11.501 5.21756C11.3711 5.35038 11.299 5.52943 11.3004 5.71551V11.3396C11.3004 11.5262 11.3742 11.7051 11.5056 11.837C11.637 11.9689 11.8153 12.043 12.0011 12.043C12.1869 12.043 12.3652 11.9689 12.4966 11.837C12.628 11.7051 12.7018 11.5262 12.7018 11.3396V5.71551C12.7025 5.62203 12.6846 5.52934 12.6492 5.44287C12.6138 5.3564 12.5616 5.27788 12.4957 5.2119C12.4297 5.14593 12.3513 5.09381 12.265 5.05861C12.1787 5.02341 12.0863 5.00582 11.9932 5.00688ZM16.0757 6.41357C16.0528 6.41244 16.0299 6.41244 16.007 6.41357C15.8682 6.42515 15.736 6.47798 15.6273 6.56529C15.5186 6.65261 15.4382 6.77047 15.3965 6.90382C15.3548 7.03717 15.3536 7.17997 15.3931 7.314C15.4326 7.44802 15.511 7.5672 15.6183 7.65632C16.832 8.69018 17.5988 10.2291 17.5988 11.9557C17.5988 15.0758 15.1027 17.5904 12.0037 17.5904C11.2665 17.589 10.5368 17.4422 9.85632 17.1584C9.17588 16.8746 8.55812 16.4593 8.0384 15.9364C7.51868 15.4135 7.10721 14.7932 6.82757 14.111C6.54793 13.4289 6.4056 12.6982 6.40873 11.961C6.40873 10.2423 7.16495 8.71398 8.3654 7.67747C8.44007 7.61905 8.50218 7.54604 8.54797 7.46285C8.59376 7.37967 8.62228 7.28803 8.6318 7.19347C8.64133 7.09892 8.63166 7.0034 8.60339 6.9127C8.57512 6.822 8.52883 6.73799 8.46731 6.66574C8.40579 6.59349 8.33033 6.53451 8.24547 6.49235C8.16062 6.4502 8.06813 6.42574 7.97359 6.42046C7.87906 6.41518 7.78444 6.42918 7.69544 6.46163C7.60645 6.49407 7.52493 6.54429 7.45581 6.60923C6.68701 7.27173 6.07026 8.09237 5.6477 9.01508C5.22513 9.93779 5.0067 10.9408 5.00733 11.9557C5.00521 13.8165 5.74058 15.6023 7.05241 16.9221C8.36423 18.2418 10.1456 18.988 12.0064 18.9971C13.8669 18.9887 15.6481 18.2426 16.9593 16.9225C18.2704 15.6025 19.0044 13.8162 19.0002 11.9557C19.0002 9.80865 18.0403 7.87843 16.5252 6.58808C16.4007 6.47839 16.2414 6.41656 16.0757 6.41357Z" fill="#F92727"/>
</svg>
