<svg width="20" height="20" viewBox="0 0 20 20" fill="none" xmlns="http://www.w3.org/2000/svg">
<g clip-path="url(#clip0_885_15741)">
<path d="M8.82812 10.5488H5.94063C6.22539 12.534 7.93711 14.0645 10 14.0645C12.0629 14.0645 13.7746 12.534 14.0594 10.5488H11.1719V9.37695H14.1016V7.61914H11.1719V6.44727H14.1016V4.68945H11.1719V3.51758H14.0594C13.7746 1.53242 12.0629 0.00195312 10 0.00195312C7.93711 0.00195312 6.22539 1.53242 5.94063 3.51758H8.82812V4.68945H5.89844V6.44727H8.82812V7.61914H5.89844V9.37695H8.82812V10.5488Z" fill="#A3A6B2"/>
<path d="M10.5859 16.382C13.8664 16.0848 16.4453 13.3191 16.4453 9.96289H15.2734C15.2734 12.8736 12.9051 15.2363 10 15.2363C7.09219 15.2363 4.72656 12.8707 4.72656 9.96289H3.55469C3.55469 13.3191 6.13359 16.0848 9.41406 16.382V18.8301H5.3125V20.002H14.6875V18.8301H10.5859V16.382Z" fill="#A3A6B2"/>
</g>
<defs>
<clipPath id="clip0_885_15741">
<rect width="20" height="20" fill="white"/>
</clipPath>
</defs>
</svg>
