<svg width="24" height="24" viewBox="0 0 24 24" fill="none" xmlns="http://www.w3.org/2000/svg">
<path d="M16.3599 14.1819C15.9024 14.183 15.4516 14.2923 15.0444 14.5008C14.6371 14.7094 14.285 15.0113 14.0167 15.3819L10.3695 12.9507C10.5994 12.3379 10.5994 11.6625 10.3695 11.0497L14.0167 8.61844C14.4261 9.17343 15.0199 9.56426 15.6916 9.72069C16.3633 9.87713 17.0687 9.78892 17.6811 9.47192C18.2936 9.15492 18.773 8.6299 19.0331 7.9912C19.2932 7.3525 19.317 6.64197 19.1003 5.98728C18.8835 5.33259 18.4404 4.77664 17.8505 4.41933C17.2607 4.06202 16.5628 3.92676 15.8821 4.03786C15.2015 4.14895 14.5828 4.49912 14.1372 5.02545C13.6915 5.55177 13.4482 6.21976 13.4509 6.90939C13.4556 7.01536 13.4663 7.12098 13.4829 7.22575L9.56226 9.83951C9.14444 9.46285 8.62638 9.21542 8.07081 9.12718C7.51524 9.03893 6.94601 9.11366 6.43205 9.34231C5.91808 9.57096 5.48143 9.94372 5.17499 10.4155C4.86854 10.8872 4.70544 11.4377 4.70544 12.0002C4.70544 12.5627 4.86854 13.1132 5.17499 13.5849C5.48143 14.0566 5.91808 14.4294 6.43205 14.6581C6.94601 14.8867 7.51524 14.9614 8.07081 14.8732C8.62638 14.7849 9.14444 14.5375 9.56226 14.1609L13.4829 16.7746C13.4663 16.8794 13.4556 16.985 13.4509 17.091C13.4509 17.6663 13.6215 18.2288 13.9412 18.7071C14.2608 19.1855 14.7151 19.5584 15.2467 19.7786C15.7782 19.9987 16.3631 20.0563 16.9274 19.9441C17.4917 19.8319 18.0101 19.5548 18.4169 19.148C18.8237 18.7411 19.1008 18.2228 19.213 17.6585C19.3253 17.0942 19.2677 16.5093 19.0475 15.9777C18.8273 15.4462 18.4545 14.9919 17.9761 14.6722C17.4977 14.3526 16.9353 14.1819 16.3599 14.1819ZM16.3599 5.45488C16.6476 5.45488 16.9288 5.54018 17.168 5.70001C17.4072 5.85983 17.5936 6.087 17.7037 6.35277C17.8138 6.61855 17.8426 6.911 17.7865 7.19315C17.7304 7.4753 17.5918 7.73447 17.3884 7.93789C17.185 8.1413 16.9258 8.27983 16.6437 8.33595C16.3615 8.39208 16.0691 8.36327 15.8033 8.25318C15.5375 8.1431 15.3104 7.95667 15.1505 7.71747C14.9907 7.47828 14.9054 7.19707 14.9054 6.90939C14.9054 6.52363 15.0587 6.15367 15.3314 5.8809C15.6042 5.60812 15.9742 5.45488 16.3599 5.45488ZM7.63285 13.4547C7.34517 13.4547 7.06396 13.3694 6.82477 13.2096C6.58557 13.0497 6.39914 12.8226 6.28906 12.5568C6.17897 12.291 6.15016 11.9986 6.20629 11.7164C6.26241 11.4343 6.40094 11.1751 6.60435 10.9717C6.80777 10.7683 7.06694 10.6297 7.34909 10.5736C7.63124 10.5175 7.92369 10.5463 8.18947 10.6564C8.45524 10.7665 8.68241 10.9529 8.84223 11.1921C9.00206 11.4313 9.08736 11.7125 9.08736 12.0002C9.08736 12.3859 8.93412 12.7559 8.66135 13.0287C8.38857 13.3015 8.01861 13.4547 7.63285 13.4547ZM16.3599 18.5455C16.0722 18.5455 15.791 18.4602 15.5518 18.3004C15.3126 18.1405 15.1262 17.9134 15.0161 17.6476C14.906 17.3818 14.8772 17.0894 14.9334 16.8072C14.9895 16.5251 15.128 16.2659 15.3314 16.0625C15.5348 15.8591 15.794 15.7205 16.0762 15.6644C16.3583 15.6083 16.6508 15.6371 16.9165 15.7472C17.1823 15.8573 17.4095 16.0437 17.5693 16.2829C17.7291 16.5221 17.8144 16.8033 17.8144 17.091C17.8144 17.4767 17.6612 17.8467 17.3884 18.1195C17.1156 18.3922 16.7457 18.5455 16.3599 18.5455Z" fill="black"/>
</svg>
