<svg width="43" height="12" viewBox="0 0 43 12" fill="none" xmlns="http://www.w3.org/2000/svg">
<rect width="42.8" height="12" rx="6" fill="#1E88E5"/>
<path d="M10.7996 6.16875C10.7996 6.42047 10.7391 6.65391 10.6182 6.86766C10.4973 7.08141 10.3355 7.24875 10.1316 7.36547C10.1373 7.40344 10.1401 7.4625 10.1401 7.54266C10.1401 7.92375 10.0121 8.24719 9.75898 8.51438C9.50445 8.78297 9.19789 8.91656 8.8393 8.91656C8.67898 8.91656 8.5257 8.88703 8.38086 8.82797C8.26836 9.0586 8.10664 9.24422 7.8943 9.38625C7.68336 9.52969 7.45133 9.6 7.19961 9.6C6.94227 9.6 6.70883 9.5311 6.5007 9.39047C6.29117 9.25125 6.13086 9.06422 6.01836 8.82797C5.87352 8.88703 5.72164 8.91656 5.55992 8.91656C5.20133 8.91656 4.89336 8.78297 4.63602 8.51438C4.37867 8.24719 4.2507 7.92235 4.2507 7.54266C4.2507 7.50047 4.25633 7.44141 4.26617 7.36547C4.06227 7.24735 3.90055 7.08141 3.77961 6.86766C3.66008 6.65391 3.59961 6.42047 3.59961 6.16875C3.59961 5.90156 3.66711 5.65547 3.8007 5.43328C3.9343 5.2111 4.1143 5.04656 4.3393 4.93969C4.28023 4.77938 4.2507 4.61766 4.2507 4.45735C4.2507 4.07766 4.37867 3.75281 4.63602 3.48563C4.89336 3.21844 5.20133 3.08344 5.55992 3.08344C5.72023 3.08344 5.87352 3.11297 6.01836 3.17203C6.13086 2.94141 6.29258 2.75578 6.50492 2.61375C6.71586 2.47172 6.94789 2.4 7.19961 2.4C7.45133 2.4 7.68336 2.47172 7.8943 2.61235C8.10523 2.75438 8.26836 2.94 8.38086 3.17063C8.5257 3.11156 8.67758 3.08203 8.8393 3.08203C9.19789 3.08203 9.50445 3.21563 9.75898 3.48422C10.0135 3.75281 10.1401 4.07625 10.1401 4.45594C10.1401 4.63313 10.1134 4.79344 10.0599 4.93828C10.2849 5.04516 10.4649 5.20969 10.5985 5.43188C10.7321 5.65547 10.7996 5.90156 10.7996 6.16875ZM7.04633 7.25297L8.53273 5.02688C8.5707 4.96781 8.58195 4.90313 8.5693 4.83422C8.55523 4.76531 8.52008 4.71047 8.46102 4.67391C8.40195 4.63594 8.33727 4.62328 8.26836 4.63313C8.19805 4.64438 8.1418 4.67813 8.09961 4.73719L6.79039 6.70594L6.18711 6.10406C6.13367 6.05063 6.0718 6.02531 6.00289 6.02813C5.93258 6.03094 5.87211 6.05625 5.81867 6.10406C5.77086 6.15188 5.74695 6.21235 5.74695 6.28547C5.74695 6.35719 5.77086 6.41766 5.81867 6.46688L6.64695 7.29516L6.68773 7.3275C6.73555 7.35985 6.78477 7.37531 6.83258 7.37531C6.9268 7.37391 6.99852 7.33453 7.04633 7.25297Z" fill="white"/>
<path d="M14.6342 8.5L13.2302 4.18H13.8812L15.0782 7.867L16.2902 4.18H16.9412L15.5372 8.5H14.6342ZM17.3936 8.5V4.18H20.1536V4.771H18.0206V5.983H19.7936V6.574H18.0206V7.909H20.1536V8.5H17.3936ZM20.8741 8.5V4.18H22.6201C22.6621 4.18 22.7141 4.182 22.7761 4.186C22.8381 4.188 22.8971 4.194 22.9531 4.204C23.1931 4.242 23.3931 4.324 23.5531 4.45C23.7151 4.576 23.8361 4.735 23.9161 4.927C23.9961 5.119 24.0361 5.331 24.0361 5.563C24.0361 5.907 23.9481 6.204 23.7721 6.454C23.5961 6.702 23.3321 6.857 22.9801 6.919L22.7251 6.949H21.5011V8.5H20.8741ZM23.4001 8.5L22.5481 6.742L23.1811 6.58L24.1171 8.5H23.4001ZM21.5011 6.355H22.5961C22.6361 6.355 22.6801 6.353 22.7281 6.349C22.7781 6.345 22.8251 6.338 22.8691 6.328C22.9971 6.298 23.1001 6.243 23.1781 6.163C23.2561 6.081 23.3121 5.987 23.3461 5.881C23.3801 5.775 23.3971 5.669 23.3971 5.563C23.3971 5.457 23.3801 5.352 23.3461 5.248C23.3121 5.142 23.2561 5.049 23.1781 4.969C23.1001 4.887 22.9971 4.831 22.8691 4.801C22.8251 4.789 22.7781 4.781 22.7281 4.777C22.6801 4.773 22.6361 4.771 22.5961 4.771H21.5011V6.355ZM24.8364 8.5V4.18H25.4634V8.5H24.8364ZM26.3643 8.5V4.18H28.9233V4.807H26.9913V6.025H28.5633V6.655H26.9913V8.5H26.3643ZM29.5239 8.5V4.18H30.1509V8.5H29.5239ZM31.0518 8.5V4.18H33.8118V4.771H31.6788V5.983H33.4518V6.574H31.6788V7.909H33.8118V8.5H31.0518ZM34.5323 8.5V4.18H35.8853C35.9253 4.18 35.9993 4.181 36.1073 4.183C36.2173 4.185 36.3223 4.193 36.4223 4.207C36.7603 4.249 37.0443 4.37 37.2743 4.57C37.5063 4.77 37.6813 5.024 37.7993 5.332C37.9173 5.638 37.9763 5.974 37.9763 6.34C37.9763 6.708 37.9173 7.046 37.7993 7.354C37.6813 7.66 37.5063 7.913 37.2743 8.113C37.0443 8.311 36.7603 8.431 36.4223 8.473C36.3223 8.487 36.2173 8.495 36.1073 8.497C35.9993 8.499 35.9253 8.5 35.8853 8.5H34.5323ZM35.1743 7.903H35.8853C35.9533 7.903 36.0343 7.901 36.1283 7.897C36.2223 7.893 36.3053 7.885 36.3773 7.873C36.5973 7.831 36.7753 7.736 36.9113 7.588C37.0493 7.438 37.1503 7.254 37.2143 7.036C37.2783 6.818 37.3103 6.586 37.3103 6.34C37.3103 6.086 37.2773 5.851 37.2113 5.635C37.1453 5.417 37.0433 5.235 36.9053 5.089C36.7693 4.941 36.5933 4.847 36.3773 4.807C36.3053 4.793 36.2213 4.785 36.1253 4.783C36.0313 4.779 35.9513 4.777 35.8853 4.777H35.1743V7.903Z" fill="white"/>
</svg>
