<svg width="360" height="434" viewBox="0 0 360 434" fill="none" xmlns="http://www.w3.org/2000/svg">
<path d="M176 434C295.846 434 393 336.846 393 217C393 97.1542 295.846 0 176 0C56.1542 0 -41 97.1542 -41 217C-41 336.846 56.1542 434 176 434Z" fill="url(#paint0_radial_149_5312)" fill-opacity="0.06"/>
<path d="M349 321.973H13V322.141H349V321.973Z" fill="#EBEBEB"/>
<path d="M62.5062 328.37H48.2531V328.538H62.5062V328.37Z" fill="#EBEBEB"/>
<path d="M185.106 326.549H128.006V326.717H185.106V326.549Z" fill="#EBEBEB"/>
<path d="M84.0842 334.613H58.4742V334.781H84.0842V334.613Z" fill="#EBEBEB"/>
<path d="M315.333 333.484H286.309V333.652H315.333V333.484Z" fill="#EBEBEB"/>
<path d="M284.112 333.484H276.068V333.652H284.112V333.484Z" fill="#EBEBEB"/>
<path d="M262.238 330.648H246.782V330.816H262.238V330.648Z" fill="#EBEBEB"/>
<path d="M239.014 330.648H206.462V330.816H239.014V330.648Z" fill="#EBEBEB"/>
<path d="M172.264 292.002H42.5075C41.491 292 40.5168 291.595 39.7986 290.875C39.0805 290.156 38.6771 289.181 38.6771 288.164V105.764C38.686 104.753 39.0932 103.786 39.8104 103.074C40.5276 102.362 41.4968 101.962 42.5075 101.96H172.264C173.282 101.96 174.258 102.364 174.977 103.084C175.697 103.803 176.101 104.779 176.101 105.797V288.164C176.101 289.182 175.697 290.158 174.977 290.878C174.258 291.597 173.282 292.002 172.264 292.002ZM42.5075 102.094C41.5356 102.096 40.604 102.484 39.9174 103.171C39.2308 103.859 38.8451 104.792 38.8451 105.764V288.164C38.8451 289.136 39.2308 290.069 39.9174 290.757C40.604 291.444 41.5356 291.832 42.5075 291.834H172.264C173.237 291.832 174.169 291.445 174.857 290.757C175.544 290.069 175.931 289.137 175.933 288.164V105.764C175.931 104.791 175.544 103.859 174.857 103.171C174.169 102.483 173.237 102.096 172.264 102.094H42.5075Z" fill="#EBEBEB"/>
<path d="M317.624 292.002H187.861C186.844 292 185.869 291.595 185.15 290.876C184.431 290.157 184.026 289.182 184.024 288.164V105.764C184.035 104.752 184.443 103.786 185.162 103.074C185.88 102.362 186.85 101.962 187.861 101.96H317.624C318.634 101.963 319.601 102.365 320.317 103.077C321.033 103.789 321.439 104.754 321.448 105.764V288.164C321.448 289.18 321.046 290.154 320.329 290.873C319.612 291.592 318.64 291.998 317.624 292.002ZM187.861 102.094C186.888 102.096 185.956 102.483 185.269 103.171C184.581 103.859 184.194 104.791 184.192 105.764V288.164C184.194 289.137 184.581 290.069 185.269 290.757C185.956 291.445 186.888 291.832 187.861 291.834H317.624C318.597 291.832 319.529 291.445 320.217 290.757C320.904 290.069 321.292 289.137 321.293 288.164V105.764C321.292 104.791 320.904 103.859 320.217 103.171C319.529 102.483 318.597 102.096 317.624 102.094H187.861Z" fill="#EBEBEB"/>
<path d="M292.767 318.532H308.895V219.043H292.767V318.532Z" fill="white"/>
<path d="M204.446 321.959H307.242V318.525H204.446V321.959Z" fill="white"/>
<path d="M292.767 219.036H203.035V318.525H292.767V219.036Z" fill="#EAF8FF"/>
<path d="M289.864 270.847H205.938V288.615H289.864V270.847Z" fill="white"/>
<path d="M289.864 294.098H205.938V311.866H289.864V294.098Z" fill="white"/>
<path d="M213.794 272.191H282.008C282.446 272.191 282.801 271.836 282.801 271.398V270.545C282.801 270.107 282.446 269.752 282.008 269.752H213.794C213.356 269.752 213.001 270.107 213.001 270.545V271.398C213.001 271.836 213.356 272.191 213.794 272.191Z" fill="#F5F5F5"/>
<path d="M213.794 295.442H282.008C282.446 295.442 282.801 295.087 282.801 294.649V293.796C282.801 293.358 282.446 293.003 282.008 293.003H213.794C213.356 293.003 213.001 293.358 213.001 293.796V294.649C213.001 295.087 213.356 295.442 213.794 295.442Z" fill="#F5F5F5"/>
<path d="M289.864 224.526H205.938V242.294H289.864V224.526Z" fill="white"/>
<path d="M289.864 247.589H205.938V265.357H289.864V247.589Z" fill="white"/>
<path d="M213.794 225.87H282.008C282.446 225.87 282.801 225.515 282.801 225.077V224.224C282.801 223.786 282.446 223.431 282.008 223.431H213.794C213.356 223.431 213.001 223.786 213.001 224.224V225.077C213.001 225.515 213.356 225.87 213.794 225.87Z" fill="#F5F5F5"/>
<path d="M213.794 248.94H282.008C282.446 248.94 282.801 248.585 282.801 248.147V247.293C282.801 246.855 282.446 246.5 282.008 246.5H213.794C213.356 246.5 213.001 246.855 213.001 247.293V248.147C213.001 248.585 213.356 248.94 213.794 248.94Z" fill="#F5F5F5"/>
<path d="M259.154 200.072C259.252 201.34 258.972 202.608 258.35 203.717C257.728 204.825 256.791 205.725 255.658 206.301C254.524 206.878 253.246 207.105 251.983 206.955C250.721 206.805 249.531 206.285 248.564 205.459C247.598 204.633 246.898 203.539 246.552 202.315C246.207 201.092 246.232 199.793 246.625 198.584C247.017 197.375 247.76 196.309 248.758 195.521C249.756 194.733 250.965 194.259 252.232 194.158C253.075 194.091 253.923 194.191 254.727 194.452C255.531 194.713 256.276 195.13 256.919 195.68C257.562 196.229 258.09 196.9 258.474 197.653C258.857 198.407 259.088 199.229 259.154 200.072Z" fill="#E0E0E0"/>
<path d="M248.2 204.306C248.278 205.254 248.073 206.204 247.611 207.036C247.148 207.868 246.45 208.544 245.603 208.979C244.757 209.414 243.8 209.588 242.855 209.479C241.909 209.371 241.018 208.984 240.292 208.368C239.566 207.753 239.039 206.936 238.778 206.02C238.517 205.105 238.533 204.133 238.824 203.227C239.115 202.321 239.668 201.522 240.414 200.93C241.159 200.339 242.064 199.982 243.012 199.904C244.284 199.8 245.545 200.205 246.518 201.031C247.49 201.856 248.096 203.034 248.2 204.306Z" fill="#E0E0E0"/>
<path d="M238.333 208.289C240.566 205.656 240.241 201.712 237.609 199.48C234.977 197.248 231.033 197.572 228.8 200.204C226.568 202.837 226.892 206.78 229.525 209.013C232.157 211.245 236.101 210.921 238.333 208.289Z" fill="#E0E0E0"/>
<path d="M265 204.306C265.078 205.254 264.873 206.204 264.411 207.036C263.948 207.868 263.25 208.544 262.403 208.979C261.557 209.414 260.6 209.588 259.655 209.479C258.709 209.371 257.817 208.984 257.092 208.368C256.366 207.753 255.839 206.936 255.578 206.02C255.317 205.105 255.333 204.133 255.624 203.227C255.915 202.321 256.468 201.522 257.214 200.93C257.959 200.339 258.864 199.982 259.812 199.904C260.442 199.852 261.076 199.924 261.678 200.117C262.28 200.31 262.837 200.62 263.319 201.028C263.801 201.437 264.198 201.937 264.486 202.5C264.774 203.062 264.949 203.676 265 204.306Z" fill="#E0E0E0"/>
<path d="M232.858 204.306C232.936 205.254 232.731 206.204 232.269 207.036C231.807 207.868 231.108 208.544 230.262 208.979C229.415 209.414 228.459 209.588 227.513 209.479C226.568 209.371 225.676 208.984 224.95 208.368C224.224 207.753 223.698 206.936 223.436 206.02C223.175 205.105 223.191 204.133 223.482 203.227C223.773 202.321 224.327 201.522 225.072 200.93C225.818 200.339 226.722 199.982 227.67 199.904C228.942 199.8 230.203 200.205 231.176 201.031C232.149 201.856 232.754 203.034 232.858 204.306Z" fill="#E0E0E0"/>
<path d="M268.676 202.948C268.731 203.62 268.585 204.292 268.258 204.881C267.93 205.47 267.436 205.949 266.836 206.256C266.237 206.564 265.56 206.687 264.891 206.61C264.221 206.533 263.59 206.26 263.076 205.824C262.562 205.388 262.189 204.81 262.004 204.162C261.819 203.514 261.83 202.826 262.036 202.184C262.242 201.543 262.633 200.977 263.161 200.558C263.689 200.139 264.329 199.885 265 199.83C265.446 199.792 265.896 199.843 266.322 199.98C266.749 200.116 267.144 200.336 267.486 200.625C267.827 200.915 268.108 201.269 268.313 201.668C268.517 202.067 268.64 202.502 268.676 202.948Z" fill="#E0E0E0"/>
<path d="M278.299 203.217C278.377 204.165 278.172 205.115 277.71 205.947C277.248 206.778 276.549 207.455 275.703 207.889C274.857 208.324 273.901 208.499 272.956 208.391C272.011 208.282 271.119 207.896 270.393 207.281C269.667 206.666 269.14 205.85 268.878 204.935C268.616 204.021 268.631 203.049 268.921 202.143C269.211 201.237 269.764 200.437 270.508 199.845C271.253 199.252 272.156 198.894 273.104 198.815C274.377 198.711 275.638 199.116 276.612 199.942C277.586 200.767 278.193 201.945 278.299 203.217Z" fill="#E0E0E0"/>
<path d="M283.816 204.346C283.816 204.346 282.989 219.036 251.345 219.036C219.7 219.036 218.874 204.346 218.874 204.346H283.816Z" fill="#F0F0F0"/>
<path d="M76.168 188.85H160.672L155.404 321.993H70.8995L76.168 188.85Z" fill="#F0F0F0"/>
<path d="M74.9449 188.85H159.449L154.18 321.993H69.6697L74.9449 188.85Z" fill="white"/>
<path d="M94.984 213.257C105.38 198.17 131.554 205.663 135.143 220.857C138.731 236.051 127.751 271.694 105.857 267.111C83.9632 262.528 75.5968 241.366 94.984 213.257Z" fill="#EAF8FF"/>
<path d="M132.139 297.7C126.803 302.7 117.234 297.546 117.133 291.316C117.032 285.087 124.344 272.117 132.495 275.78C140.646 279.442 142.091 288.393 132.139 297.7Z" fill="#FAFAFA"/>
<path d="M71.0675 165.666L295.65 165.666V112.148L71.0675 112.148V165.666Z" fill="white" fill-opacity="0.36"/>
<path d="M68.5811 165.666L294.487 165.666V112.148L68.5811 112.148V165.666Z" fill="white"/>
<path d="M71.0675 166.889L295.65 166.889V165.666L71.0675 165.666V166.889Z" fill="white" fill-opacity="0.36"/>
<path d="M64.4214 166.889L290.328 166.889V165.666L64.4214 165.666V166.889Z" fill="white" fill-opacity="0.36"/>
<path d="M290.993 162.171V115.635L72.0688 115.635V162.171H290.993Z" fill="#EAF8FF"/>
<path d="M153.004 162.171L143.287 115.635H128.12L137.837 162.171H153.004Z" fill="white"/>
<path d="M257.944 162.171L248.234 115.635H233.067L242.784 162.171H257.944Z" fill="white"/>
<path d="M289.38 158.697C289.446 158.697 289.509 158.671 289.556 158.624C289.603 158.577 289.629 158.514 289.629 158.448V117.907C289.627 117.841 289.6 117.779 289.554 117.733C289.508 117.686 289.445 117.66 289.38 117.658C289.314 117.658 289.251 117.684 289.204 117.731C289.158 117.777 289.131 117.841 289.131 117.907V158.448C289.131 158.481 289.136 158.514 289.148 158.545C289.161 158.575 289.179 158.603 289.202 158.626C289.225 158.649 289.253 158.668 289.284 158.68C289.314 158.692 289.347 158.698 289.38 158.697Z" fill="#F0F0F0"/>
<path d="M134.585 162.171L124.868 115.635H118.954L128.671 162.171H134.585Z" fill="white"/>
<path d="M72.5123 162.171V115.635H72.0688V162.171H72.5123Z" fill="#E6E6E6"/>
<path opacity="0.6" d="M67.7546 120.897H292.337L292.653 116.993H68.0771L67.7546 120.897Z" fill="white" fill-opacity="0.37"/>
<path opacity="0.6" d="M67.7546 123.101H292.337L292.653 119.197H68.0771L67.7546 123.101Z" fill="white"/>
<path opacity="0.6" d="M67.7546 125.305H292.337L292.653 121.401H68.0771L67.7546 125.305Z" fill="white"/>
<path opacity="0.6" d="M67.7546 127.509H292.337L292.653 123.605H68.0771L67.7546 127.509Z" fill="white"/>
<path opacity="0.6" d="M67.7546 129.714H292.337L292.653 125.809H68.0771L67.7546 129.714Z" fill="white"/>
<path opacity="0.6" d="M67.7546 131.918H292.337L292.653 128.013H68.0771L67.7546 131.918Z" fill="white" fill-opacity="0.37"/>
<path d="M181 352.32C252.959 352.32 311.294 348.915 311.294 344.713C311.294 340.512 252.959 337.106 181 337.106C109.041 337.106 50.7059 340.512 50.7059 344.713C50.7059 348.915 109.041 352.32 181 352.32Z" fill="#F5F5F5"/>
<path d="M257.702 344.713H170.839C169.566 344.72 168.305 344.468 167.133 343.971C165.961 343.474 164.902 342.744 164.022 341.825C163.142 340.905 162.458 339.816 162.012 338.623C161.567 337.431 161.369 336.16 161.431 334.889L169.327 149.712C169.467 147.08 170.603 144.6 172.506 142.775C174.408 140.951 176.933 139.918 179.569 139.888H266.431C267.705 139.88 268.966 140.132 270.139 140.628C271.311 141.124 272.37 141.855 273.251 142.774C274.132 143.694 274.815 144.783 275.26 145.976C275.705 147.169 275.902 148.441 275.839 149.712L267.943 334.889C267.802 337.52 266.665 340 264.763 341.824C262.862 343.648 260.337 344.681 257.702 344.713Z" fill="#1581BF"/>
<path d="M272.137 213.626H271.539C271.253 213.627 270.97 213.571 270.708 213.459C270.445 213.348 270.207 213.184 270.01 212.977C269.813 212.771 269.659 212.527 269.559 212.26C269.459 211.992 269.415 211.707 269.428 211.422L270.914 176.612C270.946 176.022 271.201 175.466 271.628 175.057C272.055 174.648 272.621 174.416 273.212 174.408H273.81C274.095 174.407 274.378 174.464 274.64 174.576C274.902 174.687 275.139 174.851 275.336 175.057C275.533 175.264 275.686 175.508 275.785 175.775C275.884 176.043 275.928 176.328 275.913 176.612L274.435 211.422C274.403 212.012 274.147 212.568 273.721 212.978C273.294 213.387 272.728 213.619 272.137 213.626Z" fill="#1581BF"/>
<path d="M167.197 187.835H165.685C165.459 187.837 165.236 187.793 165.027 187.705C164.819 187.618 164.632 187.488 164.475 187.325C164.319 187.162 164.198 186.969 164.12 186.757C164.041 186.545 164.007 186.32 164.019 186.094L164.442 176.156C164.466 175.688 164.667 175.248 165.004 174.923C165.341 174.599 165.789 174.415 166.256 174.408H167.768C167.995 174.407 168.219 174.452 168.427 174.54C168.636 174.629 168.824 174.759 168.981 174.922C169.137 175.086 169.259 175.279 169.338 175.491C169.417 175.703 169.453 175.929 169.442 176.156L169.018 186.094C168.993 186.562 168.79 187.002 168.452 187.325C168.114 187.648 167.665 187.83 167.197 187.835Z" fill="#1581BF"/>
<path d="M166.444 205.589H164.926C164.7 205.59 164.477 205.546 164.269 205.458C164.062 205.37 163.874 205.24 163.718 205.077C163.562 204.914 163.441 204.721 163.362 204.51C163.283 204.299 163.248 204.074 163.259 203.849L163.683 193.903C163.708 193.437 163.91 192.998 164.246 192.675C164.583 192.352 165.03 192.169 165.497 192.163H167.016C167.241 192.161 167.465 192.206 167.672 192.294C167.88 192.382 168.067 192.512 168.223 192.674C168.379 192.837 168.5 193.03 168.579 193.241C168.658 193.453 168.693 193.678 168.682 193.903L168.259 203.849C168.233 204.315 168.032 204.754 167.695 205.077C167.358 205.4 166.911 205.583 166.444 205.589Z" fill="#1581BF"/>
<path d="M255.364 344.713H168.501C167.227 344.722 165.965 344.471 164.792 343.975C163.619 343.479 162.56 342.749 161.679 341.829C160.798 340.909 160.114 339.819 159.67 338.626C159.225 337.432 159.029 336.161 159.093 334.889L166.982 149.712C167.122 147.08 168.258 144.6 170.16 142.775C172.062 140.951 174.588 139.918 177.223 139.888H264.093C265.366 139.88 266.628 140.132 267.8 140.628C268.973 141.124 270.032 141.855 270.912 142.774C271.793 143.694 272.477 144.783 272.922 145.976C273.367 147.169 273.564 148.441 273.501 149.712L265.605 334.889C265.465 337.521 264.329 340.001 262.427 341.826C260.524 343.65 257.999 344.683 255.364 344.713Z" fill="#1581BF"/>
<path opacity="0.6" d="M255.364 344.713H168.501C167.227 344.722 165.965 344.471 164.792 343.975C163.619 343.479 162.56 342.749 161.679 341.829C160.798 340.909 160.114 339.819 159.67 338.626C159.225 337.432 159.029 336.161 159.093 334.889L166.982 149.712C167.122 147.08 168.258 144.6 170.16 142.775C172.062 140.951 174.588 139.918 177.223 139.888H264.093C265.366 139.88 266.628 140.132 267.8 140.628C268.973 141.124 270.032 141.855 270.912 142.774C271.793 143.694 272.477 144.783 272.922 145.976C273.367 147.169 273.564 148.441 273.501 149.712L265.605 334.889C265.465 337.521 264.329 340.001 262.427 341.826C260.524 343.65 257.999 344.683 255.364 344.713Z" fill="#1581BF"/>
<path opacity="0.5" d="M219.076 332.221C218.985 333.994 218.221 335.665 216.94 336.894C215.658 338.123 213.956 338.817 212.181 338.833C211.324 338.841 210.474 338.673 209.684 338.34C208.894 338.006 208.181 337.515 207.589 336.895C206.996 336.275 206.537 335.541 206.239 334.737C205.941 333.933 205.811 333.077 205.857 332.221C205.946 330.449 206.709 328.778 207.99 327.55C209.27 326.322 210.971 325.63 212.745 325.615C213.602 325.607 214.452 325.775 215.241 326.108C216.031 326.441 216.744 326.932 217.337 327.551C217.93 328.169 218.39 328.903 218.689 329.706C218.988 330.509 219.12 331.365 219.076 332.221Z" fill="white"/>
<path opacity="0.8" d="M261.593 320.669H164.314C164.019 320.671 163.727 320.613 163.455 320.498C163.183 320.383 162.937 320.214 162.733 320C162.53 319.787 162.371 319.534 162.269 319.257C162.166 318.981 162.121 318.686 162.137 318.391L168.904 159.752C168.933 159.141 169.195 158.564 169.637 158.141C170.078 157.717 170.664 157.478 171.276 157.474H268.548C268.844 157.471 269.137 157.528 269.41 157.643C269.682 157.757 269.929 157.927 270.133 158.14C270.338 158.354 270.497 158.607 270.6 158.884C270.703 159.161 270.748 159.457 270.732 159.752L263.972 318.391C263.941 319.003 263.677 319.579 263.235 320.003C262.793 320.426 262.205 320.665 261.593 320.669Z" fill="white"/>
<path opacity="0.5" d="M201.382 148.597C201.416 147.878 201.724 147.199 202.242 146.699C202.761 146.199 203.451 145.917 204.171 145.909C204.519 145.905 204.864 145.974 205.184 146.109C205.505 146.245 205.794 146.445 206.034 146.697C206.274 146.949 206.46 147.248 206.58 147.574C206.7 147.901 206.751 148.249 206.731 148.597C206.698 149.317 206.391 149.996 205.872 150.497C205.353 150.997 204.663 151.279 203.942 151.285C203.594 151.288 203.249 151.22 202.928 151.084C202.608 150.949 202.318 150.749 202.078 150.497C201.838 150.245 201.652 149.946 201.533 149.619C201.413 149.292 201.361 148.944 201.382 148.597Z" fill="#1581BF"/>
<path opacity="0.5" d="M213.417 145.916H235.66C236.008 145.914 236.352 145.984 236.672 146.12C236.992 146.256 237.28 146.456 237.52 146.708C237.759 146.96 237.945 147.257 238.066 147.583C238.186 147.909 238.239 148.256 238.221 148.604C238.186 149.323 237.879 150.002 237.36 150.501C236.842 151.001 236.152 151.284 235.432 151.292H213.189C212.841 151.294 212.496 151.225 212.176 151.089C211.856 150.953 211.567 150.753 211.327 150.501C211.087 150.249 210.902 149.951 210.781 149.625C210.661 149.298 210.609 148.951 210.628 148.604C210.664 147.885 210.973 147.207 211.491 146.707C212.009 146.208 212.698 145.925 213.417 145.916Z" fill="#1581BF"/>
<path d="M119.337 166.674C118.094 170.108 116.837 173.609 115.641 177.069C115.03 178.803 114.452 180.537 113.894 182.264C113.336 183.991 112.819 185.711 112.396 187.378C112.181 188.204 111.999 189.024 111.885 189.743C111.824 190.106 111.804 190.415 111.777 190.657C111.75 190.899 111.777 191.329 111.777 191.679C111.928 193.348 112.207 195.004 112.611 196.631C113.424 200.085 114.472 203.654 115.507 207.168L111.918 208.855C109.833 205.585 108.054 202.13 106.603 198.533C105.815 196.618 105.214 194.63 104.809 192.599C104.7 192.015 104.626 191.425 104.587 190.832C104.555 190.205 104.569 189.576 104.627 188.95C104.728 187.808 104.889 186.787 105.071 185.792C105.86 181.988 106.858 178.23 108.061 174.536C109.217 170.907 110.46 167.366 111.865 163.784L119.337 166.674Z" fill="#B55B52"/>
<path d="M114.405 205.448L117.395 209.305L111.885 211.913C111.885 211.913 110.312 209.372 111.26 206.994L114.405 205.448Z" fill="#B55B52"/>
<path d="M119.223 212.632L115.205 215.138L111.885 211.906L117.395 209.299L119.223 212.632Z" fill="#B55B52"/>
<path d="M138.442 141.373C138.395 141.796 138.577 142.159 138.859 142.193C139.141 142.226 139.396 141.904 139.444 141.48C139.491 141.057 139.302 140.694 139.027 140.66C138.751 140.627 138.489 140.936 138.442 141.373Z" fill="#263238"/>
<path d="M138.543 142.159C138.904 143.506 139.449 144.798 140.163 145.996C139.851 146.172 139.505 146.277 139.149 146.305C138.793 146.333 138.434 146.283 138.1 146.157L138.543 142.159Z" fill="#A02724"/>
<path d="M137.152 138.853C137.092 138.834 137.041 138.794 137.011 138.739C136.994 138.71 136.983 138.678 136.979 138.646C136.975 138.613 136.977 138.579 136.986 138.547C136.995 138.516 137.01 138.486 137.03 138.46C137.051 138.434 137.076 138.412 137.105 138.396C137.446 138.193 137.831 138.075 138.227 138.05C138.623 138.026 139.019 138.096 139.383 138.255C139.441 138.287 139.485 138.341 139.505 138.405C139.525 138.468 139.52 138.537 139.491 138.597C139.459 138.655 139.407 138.699 139.344 138.719C139.282 138.739 139.214 138.734 139.155 138.705C138.865 138.58 138.55 138.527 138.235 138.549C137.921 138.572 137.616 138.669 137.347 138.833C137.318 138.849 137.285 138.859 137.252 138.863C137.218 138.866 137.184 138.863 137.152 138.853Z" fill="#263238"/>
<path d="M124.868 144.504C125.627 148.362 126.38 155.438 123.678 158.012C123.678 158.012 124.74 161.929 131.91 161.929C139.8 161.929 135.68 158.012 135.68 158.012C131.373 156.983 131.487 153.791 132.233 150.788L124.868 144.504Z" fill="#B55B52"/>
<path d="M121.4 160.001C120.688 159.53 121.615 157.064 122.328 156.641C124.216 155.498 132.589 155.115 136.077 157.313C136.397 157.715 136.624 158.184 136.74 158.685C136.857 159.186 136.86 159.707 136.749 160.209L121.4 160.001Z" fill="#263238"/>
<path d="M101.912 338.921C102.128 338.987 102.355 339.008 102.579 338.984C102.803 338.959 103.02 338.89 103.216 338.78C103.291 338.704 103.341 338.608 103.358 338.502C103.375 338.397 103.358 338.29 103.31 338.195C103.284 338.115 103.24 338.042 103.182 337.982C103.124 337.921 103.053 337.875 102.974 337.845C102.242 337.543 100.642 338.289 100.575 338.323C100.553 338.332 100.534 338.348 100.521 338.368C100.507 338.389 100.501 338.413 100.501 338.437C100.502 338.461 100.51 338.484 100.523 338.504C100.536 338.524 100.554 338.54 100.575 338.551C101.007 338.72 101.455 338.844 101.912 338.921ZM102.725 338.034L102.873 338.074C102.919 338.093 102.961 338.121 102.996 338.157C103.03 338.193 103.057 338.236 103.075 338.282C103.156 338.504 103.075 338.578 103.075 338.598C102.806 338.853 101.731 338.685 100.985 338.423C101.53 338.17 102.124 338.037 102.725 338.034Z" fill="#1581BF"/>
<path d="M100.609 338.558H100.669C101.254 338.356 102.484 337.388 102.47 336.79C102.468 336.695 102.432 336.604 102.37 336.533C102.307 336.462 102.221 336.415 102.127 336.401C102.036 336.373 101.939 336.365 101.844 336.378C101.749 336.391 101.658 336.424 101.576 336.475C100.904 336.864 100.521 338.349 100.508 338.41C100.501 338.431 100.501 338.454 100.507 338.475C100.513 338.497 100.525 338.516 100.541 338.531C100.561 338.546 100.584 338.555 100.609 338.558ZM102.006 336.622H102.06C102.215 336.663 102.221 336.743 102.221 336.77C102.221 337.126 101.422 337.879 100.817 338.195C100.952 337.609 101.262 337.077 101.704 336.669C101.795 336.616 101.903 336.599 102.006 336.622Z" fill="#1581BF"/>
<path d="M137.716 339.593C138.388 339.593 139.06 339.499 139.269 339.196C139.324 339.116 139.354 339.021 139.354 338.924C139.354 338.827 139.324 338.732 139.269 338.652C139.226 338.578 139.169 338.514 139.101 338.463C139.033 338.412 138.955 338.376 138.872 338.356C137.999 338.121 136.184 339.169 136.077 339.216C136.054 339.228 136.035 339.247 136.024 339.27C136.013 339.293 136.011 339.319 136.016 339.344C136.019 339.369 136.029 339.392 136.046 339.41C136.063 339.428 136.086 339.441 136.11 339.445C136.64 339.541 137.178 339.59 137.716 339.593ZM138.556 338.571C138.637 338.561 138.718 338.561 138.798 338.571C138.849 338.582 138.896 338.603 138.938 338.633C138.979 338.663 139.014 338.702 139.04 338.746C139.128 338.9 139.094 338.981 139.04 339.021C138.792 339.364 137.461 339.371 136.48 339.236C137.122 338.88 137.827 338.654 138.556 338.571Z" fill="#1581BF"/>
<path d="M136.124 339.452H136.178C136.809 339.163 138.073 338.027 137.979 337.436C137.979 337.294 137.858 337.12 137.508 337.086C137.388 337.076 137.266 337.089 137.151 337.126C137.035 337.163 136.928 337.223 136.836 337.301C136.164 337.852 136.023 339.27 136.016 339.317C136.016 339.339 136.02 339.361 136.03 339.381C136.039 339.4 136.053 339.418 136.07 339.431C136.087 339.442 136.105 339.449 136.124 339.452ZM137.414 337.308H137.488C137.71 337.308 137.723 337.415 137.73 337.449C137.79 337.805 136.93 338.699 136.278 339.095C136.329 338.495 136.564 337.925 136.95 337.462C137.08 337.355 137.246 337.299 137.414 337.308Z" fill="#1581BF"/>
<path d="M130.318 339.324H135.6L136.124 327.1H130.849L130.318 339.324Z" fill="#B55B52"/>
<path d="M94.7152 337.449L99.9837 338.309L103.727 326.684L98.4515 325.823L94.7152 337.449Z" fill="#B55B52"/>
<path d="M100.36 337.765L94.5069 336.804C94.4032 336.786 94.2965 336.804 94.2046 336.855C94.1128 336.907 94.0416 336.988 94.0029 337.086L92.2154 341.541C92.1727 341.65 92.155 341.767 92.1635 341.883C92.1721 342 92.2066 342.113 92.2647 342.214C92.3227 342.315 92.4028 342.402 92.4989 342.468C92.5951 342.535 92.7049 342.578 92.8202 342.596C94.8362 342.892 95.8845 342.939 98.4515 343.363C100.037 343.625 104.069 344.565 106.28 344.707C108.491 344.848 108.921 342.691 108.028 342.422C104.029 341.273 102.242 339.593 101.146 338.228C100.951 337.982 100.671 337.817 100.36 337.765Z" fill="#263238"/>
<path d="M135.566 338.712H129.8C129.695 338.712 129.593 338.747 129.511 338.813C129.428 338.88 129.372 338.972 129.35 339.075L128.309 343.779C128.283 343.892 128.284 344.01 128.31 344.122C128.337 344.235 128.388 344.341 128.462 344.431C128.535 344.52 128.627 344.593 128.732 344.642C128.837 344.691 128.952 344.715 129.068 344.713C131.144 344.68 134.148 344.559 136.762 344.559C139.82 344.559 141.11 344.727 144.692 344.727C146.856 344.727 147.461 342.536 146.553 342.334C142.421 341.434 140.405 341.34 136.836 339.136C136.459 338.881 136.02 338.735 135.566 338.712Z" fill="#263238"/>
<path d="M114.23 159.208C109.412 160.794 106.522 173.743 106.522 173.743L117.106 180.362C119.414 177.395 120.912 173.881 121.454 170.161C122.536 163.414 119.176 157.581 114.23 159.208Z" fill="#1581BF"/>
<g opacity="0.4">
<path d="M114.23 159.208C109.412 160.794 106.522 173.743 106.522 173.743L117.106 180.362C119.414 177.395 120.912 173.881 121.454 170.161C122.536 163.414 119.176 157.581 114.23 159.208Z" fill="white"/>
</g>
<path opacity="0.2" d="M117.12 172.782C115.916 174.638 115.124 176.73 114.795 178.917L117.106 180.362C119.098 177.81 120.477 174.835 121.138 171.667L117.12 172.782Z" fill="black"/>
<path d="M143.798 159.476C143.798 159.476 149.416 165.82 144.107 205.092H115.883C115.688 200.757 118.41 179.623 114.23 159.208C117.35 158.604 120.506 158.205 123.678 158.012C127.676 157.78 131.683 157.78 135.68 158.012C138.42 158.289 141.134 158.779 143.798 159.476Z" fill="#1581BF"/>
<g opacity="0.4">
<path d="M143.798 159.476C143.798 159.476 149.416 165.82 144.107 205.092H115.883C115.688 200.757 118.41 179.623 114.23 159.208C117.35 158.604 120.506 158.205 123.678 158.012C127.676 157.78 131.683 157.78 135.68 158.012C138.42 158.289 141.134 158.779 143.798 159.476Z" fill="white"/>
</g>
<path opacity="0.2" d="M146.264 171.478L146.157 171.384L139.739 172.923C139.376 177.264 143.838 182.445 146.137 184.818C146.421 180.377 146.464 175.924 146.264 171.478Z" fill="black"/>
<path opacity="0.2" d="M136.124 327.107L135.855 333.404H130.573L130.842 327.107H136.124Z" fill="black"/>
<path opacity="0.2" d="M98.4515 325.823L103.727 326.69L101.791 332.678L96.5229 331.818L98.4515 325.823Z" fill="black"/>
<path d="M124.424 138.92C124.176 144.148 123.752 147.199 126.091 150.156C129.592 154.604 136.272 152.931 138.079 147.878C139.712 143.335 139.853 135.54 134.995 132.912C133.926 132.327 132.726 132.025 131.507 132.034C130.289 132.044 129.093 132.365 128.033 132.967C126.974 133.569 126.086 134.432 125.455 135.474C124.823 136.516 124.468 137.702 124.424 138.92Z" fill="#B55B52"/>
<path d="M134.141 143.51C132.018 146.762 133.207 147.844 132.018 149.336C130.829 150.828 122.865 152.958 122.791 149.188C122.829 147.842 122.555 146.505 121.992 145.281C121.429 144.058 120.592 142.98 119.546 142.132C119.088 141.681 118.743 141.129 118.537 140.52C118.332 139.912 118.272 139.263 118.363 138.627C118.454 137.991 118.693 137.385 119.061 136.859C119.428 136.332 119.914 135.898 120.48 135.594C123.316 134.028 119.277 133.262 121.011 130.742C123.591 127.005 127.119 125.776 130.069 128.356C133.019 130.937 137.804 132.388 141.238 129.102C144.672 125.816 144.074 138.631 135.526 138.046C139.202 141.722 133.06 139.928 134.141 143.51Z" fill="#263238"/>
<path d="M122.274 134.297C120.883 135.271 118.847 132.032 119.331 130.265C117.57 132.281 117.987 135.587 121.589 135.641C125.19 135.694 122.274 134.297 122.274 134.297Z" fill="#263238"/>
<path d="M132.441 141.044C132.301 142.337 132.591 143.641 133.268 144.753C134.175 146.211 135.499 145.647 135.956 144.168C136.386 142.824 136.433 140.466 135.176 139.525C133.92 138.584 132.616 139.491 132.441 141.044Z" fill="#B55B52"/>
<path d="M134.094 205.092C134.094 205.092 128.107 245.412 124.821 260.525C121.192 277.07 104.54 331.784 104.54 331.784L95.1318 329.768C95.1318 329.768 105.998 285.161 109.022 262.03C111.34 244.263 115.917 205.092 115.917 205.092H134.094Z" fill="#263238"/>
<path d="M106.805 328.659C106.845 328.659 105.044 332.073 105.044 332.073L94.4128 329.768L95.3133 326.569L106.805 328.659Z" fill="#1581BF"/>
<path opacity="0.3" d="M130.311 219.459C123.389 220.803 124.122 246.642 124.935 259.92C126.951 250.512 129.854 232.469 131.85 219.647C131.373 219.414 130.831 219.348 130.311 219.459Z" fill="black"/>
<path d="M144.107 205.092C144.107 205.092 146.305 244.545 145.727 260.639C145.129 277.352 137.817 332.187 137.817 332.187H128.88C128.88 332.187 130.015 278.353 129.619 261.916C129.182 243.994 123.813 205.092 123.813 205.092H144.107Z" fill="#263238"/>
<path d="M139.538 328.626C139.578 328.626 139.034 332.335 139.034 332.335H128.161L127.865 329.022L139.538 328.626Z" fill="#1581BF"/>
<path d="M146.668 164.826C148.18 168.333 149.826 171.949 151.533 175.423C153.17 178.865 155.02 182.202 157.07 185.416C157.574 186.182 158.092 186.914 158.622 187.6L159.026 188.097C159.16 188.252 159.2 188.319 159.335 188.46C159.563 188.715 159.879 188.997 160.188 189.286C161.478 190.456 163.051 191.605 164.61 192.754C167.755 195.032 171.054 197.29 174.287 199.581L172.466 203.103C168.632 201.682 164.897 200.01 161.284 198.096C159.389 197.113 157.562 196.006 155.813 194.783C155.32 194.429 154.844 194.05 154.389 193.648C154.16 193.446 153.865 193.15 153.656 192.942L153.072 192.304C152.319 191.457 151.627 190.604 150.968 189.737C148.512 186.341 146.319 182.762 144.41 179.032C143.469 177.204 142.548 175.376 141.722 173.508C140.895 171.64 140.008 169.832 139.255 167.816L146.668 164.826Z" fill="#B55B52"/>
<path d="M136.097 164.752C132.025 170.8 141.56 181.773 141.56 181.773L152.225 174.381C151.482 170.631 150.265 166.991 148.603 163.549C145.129 156.244 139.202 160.162 136.097 164.752Z" fill="#1581BF"/>
<g opacity="0.4">
<path d="M136.097 164.752C132.025 170.8 141.56 181.773 141.56 181.773L152.225 174.381C151.482 170.631 150.265 166.991 148.603 163.549C145.129 156.244 139.202 160.162 136.097 164.752Z" fill="white"/>
</g>
<path d="M171.081 198.876L177.64 199.803L175.926 205.314C175.926 205.314 171.269 205.314 169.878 201.725L171.081 198.876Z" fill="#B55B52"/>
<path d="M179.676 201.564L178.258 206.08L175.906 205.314L177.62 199.803L179.676 201.564Z" fill="#B55B52"/>
<path d="M258.706 165.545L175.233 164.333C173.525 164.308 172.121 165.672 172.096 167.38L171.872 182.837C171.847 184.545 173.211 185.949 174.919 185.974L258.391 187.186C260.099 187.211 261.503 185.847 261.528 184.139L261.752 168.681C261.777 166.974 260.413 165.57 258.706 165.545Z" fill="white"/>
<path d="M214.733 169.854L198.657 169.621C197.633 169.606 196.79 170.424 196.775 171.449C196.76 172.473 197.579 173.316 198.603 173.33L214.679 173.564C215.704 173.579 216.546 172.76 216.561 171.736C216.576 170.711 215.758 169.869 214.733 169.854Z" fill="#B4DAFF"/>
<path d="M225.746 178.054L198.54 177.659C197.516 177.644 196.673 178.462 196.658 179.487C196.643 180.511 197.462 181.354 198.486 181.369L225.692 181.764C226.717 181.779 227.559 180.96 227.574 179.936C227.589 178.911 226.771 178.069 225.746 178.054Z" fill="#DEE9FC"/>
<path d="M188.809 166.385L177.061 166.215C175.354 166.19 173.949 167.554 173.924 169.261L173.754 181.009C173.729 182.717 175.093 184.121 176.801 184.146L188.549 184.317C190.256 184.341 191.66 182.977 191.685 181.27L191.856 169.522C191.88 167.814 190.516 166.41 188.809 166.385Z" fill="#F5970C"/>
<g filter="url(#filter0_d_149_5312)">
<path d="M201.434 191.307L284.907 192.519C285.727 192.531 286.509 192.868 287.08 193.456C287.652 194.044 287.966 194.835 287.954 195.655L287.73 211.113C287.718 211.933 287.381 212.715 286.792 213.286C286.204 213.857 285.413 214.172 284.593 214.16L201.12 212.948C200.3 212.936 199.519 212.599 198.947 212.01C198.376 211.422 198.062 210.631 198.074 209.811L198.298 194.353C198.31 193.533 198.647 192.752 199.235 192.18C199.823 191.609 200.615 191.295 201.434 191.307V191.307Z" fill="white"/>
</g>
<path d="M240.935 196.828L224.859 196.594C223.834 196.579 222.992 197.398 222.977 198.422C222.962 199.447 223.78 200.289 224.805 200.304L240.881 200.538C241.905 200.553 242.748 199.734 242.763 198.71C242.778 197.685 241.959 196.843 240.935 196.828Z" fill="#B4DAFF"/>
<path d="M251.948 205.028L224.742 204.632C223.718 204.618 222.875 205.436 222.86 206.46C222.845 207.485 223.664 208.327 224.688 208.342L251.894 208.737C252.919 208.752 253.761 207.934 253.776 206.909C253.791 205.885 252.972 205.042 251.948 205.028Z" fill="#DEE9FC"/>
<path d="M215.01 193.359L203.262 193.188C201.555 193.164 200.151 194.528 200.126 196.235L199.955 207.983C199.93 209.691 201.295 211.095 203.002 211.12L214.75 211.29C216.457 211.315 217.862 209.951 217.886 208.244L218.057 196.496C218.082 194.788 216.718 193.384 215.01 193.359Z" fill="#F5970C"/>
<path d="M174.461 217.508L257.934 218.72C258.754 218.732 259.535 219.069 260.107 219.658C260.678 220.246 260.992 221.037 260.98 221.857L260.756 237.315C260.744 238.135 260.407 238.916 259.819 239.488C259.231 240.059 258.439 240.373 257.619 240.361L174.147 239.149C173.327 239.137 172.545 238.8 171.974 238.212C171.402 237.624 171.088 236.833 171.1 236.013L171.324 220.555C171.336 219.735 171.673 218.953 172.262 218.382C172.85 217.811 173.641 217.496 174.461 217.508V217.508Z" fill="white"/>
<path d="M213.961 223.029L197.885 222.796C196.861 222.781 196.018 223.599 196.003 224.624C195.988 225.648 196.807 226.491 197.831 226.506L213.907 226.739C214.932 226.754 215.775 225.936 215.789 224.911C215.804 223.887 214.986 223.044 213.961 223.029Z" fill="#B4DAFF"/>
<path d="M224.974 231.229L197.768 230.834C196.744 230.819 195.901 231.638 195.886 232.662C195.872 233.686 196.69 234.529 197.714 234.544L224.92 234.939C225.945 234.954 226.787 234.135 226.802 233.111C226.817 232.086 225.999 231.244 224.974 231.229Z" fill="#DEE9FC"/>
<path d="M188.037 219.561L176.289 219.39C174.581 219.365 173.177 220.729 173.152 222.437L172.982 234.185C172.957 235.892 174.321 237.296 176.028 237.321L187.777 237.492C189.484 237.517 190.888 236.153 190.913 234.445L191.084 222.697C191.108 220.99 189.744 219.585 188.037 219.561Z" fill="#F5970C"/>
<path d="M172.31 250.517L255.783 251.729C256.603 251.741 257.384 252.078 257.956 252.666C258.527 253.255 258.841 254.046 258.829 254.866L258.605 270.324C258.593 271.143 258.256 271.925 257.668 272.496C257.08 273.068 256.288 273.382 255.468 273.37L171.996 272.158C171.176 272.146 170.394 271.809 169.823 271.221C169.251 270.633 168.937 269.841 168.949 269.022L169.173 253.564C169.185 252.744 169.522 251.962 170.111 251.391C170.699 250.819 171.49 250.505 172.31 250.517V250.517Z" fill="white"/>
<path d="M211.81 256.038L195.734 255.805C194.71 255.79 193.867 256.608 193.852 257.633C193.837 258.657 194.656 259.5 195.68 259.515L211.756 259.748C212.781 259.763 213.624 258.944 213.638 257.92C213.653 256.896 212.835 256.053 211.81 256.038Z" fill="#B4DAFF"/>
<path d="M222.823 264.238L195.617 263.843C194.593 263.828 193.75 264.646 193.735 265.671C193.721 266.695 194.539 267.538 195.563 267.553L222.769 267.948C223.794 267.963 224.636 267.144 224.651 266.12C224.666 265.095 223.848 264.253 222.823 264.238Z" fill="#DEE9FC"/>
<path d="M185.886 252.569L174.138 252.399C172.43 252.374 171.026 253.738 171.001 255.445L170.831 267.194C170.806 268.901 172.17 270.305 173.877 270.33L185.626 270.501C187.333 270.525 188.737 269.161 188.762 267.454L188.933 255.706C188.957 253.998 187.593 252.594 185.886 252.569Z" fill="#F5970C"/>
<path d="M170.966 284.117L254.439 285.329C255.259 285.341 256.04 285.678 256.612 286.266C257.183 286.854 257.497 287.646 257.485 288.466L257.261 303.923C257.249 304.743 256.912 305.525 256.324 306.096C255.736 306.668 254.944 306.982 254.124 306.97L170.652 305.758C169.832 305.746 169.05 305.409 168.479 304.821C167.907 304.233 167.593 303.441 167.605 302.622L167.829 287.164C167.841 286.344 168.178 285.562 168.767 284.991C169.355 284.419 170.146 284.105 170.966 284.117V284.117Z" fill="white"/>
<path d="M210.466 289.638L194.39 289.405C193.366 289.39 192.523 290.208 192.508 291.233C192.493 292.257 193.312 293.1 194.336 293.114L210.412 293.348C211.437 293.363 212.28 292.544 212.294 291.52C212.309 290.495 211.491 289.653 210.466 289.638Z" fill="#B4DAFF"/>
<path d="M221.479 297.838L194.273 297.443C193.249 297.428 192.406 298.246 192.391 299.271C192.377 300.295 193.195 301.138 194.219 301.153L221.425 301.548C222.45 301.563 223.292 300.744 223.307 299.72C223.322 298.695 222.504 297.853 221.479 297.838Z" fill="#DEE9FC"/>
<path d="M184.542 286.169L172.794 285.999C171.086 285.974 169.682 287.338 169.657 289.045L169.487 300.793C169.462 302.501 170.826 303.905 172.533 303.93L184.282 304.101C185.989 304.125 187.393 302.761 187.418 301.054L187.589 289.306C187.613 287.598 186.249 286.194 184.542 286.169Z" fill="#F5970C"/>
<g clip-path="url(#clip0_149_5312)">
<path fill-rule="evenodd" clip-rule="evenodd" d="M178.984 175.208C178.984 174.139 179.409 173.113 180.165 172.357C180.921 171.601 181.947 171.176 183.016 171.176C184.085 171.176 185.111 171.601 185.867 172.357C186.623 173.113 187.048 174.139 187.048 175.208C187.048 176.277 186.623 177.303 185.867 178.059C185.111 178.815 184.085 179.24 183.016 179.24C181.947 179.24 180.921 178.815 180.165 178.059C179.409 177.303 178.984 176.277 178.984 175.208ZM182.786 176.934L185.107 174.032L184.688 173.696L182.709 176.17L181.306 175.002L180.962 175.414L182.786 176.934Z" fill="white"/>
</g>
<g clip-path="url(#clip1_149_5312)">
<path fill-rule="evenodd" clip-rule="evenodd" d="M205.192 202.088C205.192 201.019 205.617 199.993 206.373 199.237C207.129 198.481 208.155 198.056 209.224 198.056C210.293 198.056 211.319 198.481 212.075 199.237C212.831 199.993 213.256 201.019 213.256 202.088C213.256 203.157 212.831 204.183 212.075 204.939C211.319 205.695 210.293 206.12 209.224 206.12C208.155 206.12 207.129 205.695 206.373 204.939C205.617 204.183 205.192 203.157 205.192 202.088ZM208.994 203.814L211.315 200.912L210.896 200.576L208.917 203.05L207.514 201.882L207.17 202.294L208.994 203.814Z" fill="white"/>
</g>
<g clip-path="url(#clip2_149_5312)">
<path fill-rule="evenodd" clip-rule="evenodd" d="M178.312 228.296C178.312 227.227 178.737 226.201 179.493 225.445C180.249 224.689 181.275 224.264 182.344 224.264C183.413 224.264 184.439 224.689 185.195 225.445C185.951 226.201 186.376 227.227 186.376 228.296C186.376 229.365 185.951 230.391 185.195 231.147C184.439 231.903 183.413 232.328 182.344 232.328C181.275 232.328 180.249 231.903 179.493 231.147C178.737 230.391 178.312 229.365 178.312 228.296ZM182.114 230.022L184.435 227.12L184.016 226.784L182.037 229.258L180.634 228.09L180.29 228.502L182.114 230.022Z" fill="white"/>
</g>
<g clip-path="url(#clip3_149_5312)">
<path fill-rule="evenodd" clip-rule="evenodd" d="M175.624 261.224C175.624 260.155 176.049 259.129 176.805 258.373C177.561 257.617 178.587 257.192 179.656 257.192C180.725 257.192 181.751 257.617 182.507 258.373C183.263 259.129 183.688 260.155 183.688 261.224C183.688 262.293 183.263 263.319 182.507 264.075C181.751 264.831 180.725 265.256 179.656 265.256C178.587 265.256 177.561 264.831 176.805 264.075C176.049 263.319 175.624 262.293 175.624 261.224ZM179.426 262.95L181.747 260.048L181.328 259.712L179.349 262.186L177.946 261.018L177.602 261.43L179.426 262.95Z" fill="white"/>
</g>
<g clip-path="url(#clip4_149_5312)">
<path fill-rule="evenodd" clip-rule="evenodd" d="M174.28 294.824C174.28 293.755 174.705 292.729 175.461 291.973C176.217 291.217 177.243 290.792 178.312 290.792C179.381 290.792 180.407 291.217 181.163 291.973C181.919 292.729 182.344 293.755 182.344 294.824C182.344 295.893 181.919 296.919 181.163 297.675C180.407 298.431 179.381 298.856 178.312 298.856C177.243 298.856 176.217 298.431 175.461 297.675C174.705 296.919 174.28 295.893 174.28 294.824ZM178.082 296.55L180.403 293.648L179.984 293.312L178.005 295.786L176.602 294.618L176.258 295.03L178.082 296.55Z" fill="white"/>
</g>
<defs>
<filter id="filter0_d_149_5312" x="192.073" y="188.306" width="101.881" height="34.8539" filterUnits="userSpaceOnUse" color-interpolation-filters="sRGB">
<feFlood flood-opacity="0" result="BackgroundImageFix"/>
<feColorMatrix in="SourceAlpha" type="matrix" values="0 0 0 0 0 0 0 0 0 0 0 0 0 0 0 0 0 0 127 0" result="hardAlpha"/>
<feOffset dy="3"/>
<feGaussianBlur stdDeviation="3"/>
<feColorMatrix type="matrix" values="0 0 0 0 0 0 0 0 0 0 0 0 0 0 0 0 0 0 0.161 0"/>
<feBlend mode="normal" in2="BackgroundImageFix" result="effect1_dropShadow_149_5312"/>
<feBlend mode="normal" in="SourceGraphic" in2="effect1_dropShadow_149_5312" result="shape"/>
</filter>
<radialGradient id="paint0_radial_149_5312" cx="0" cy="0" r="1" gradientUnits="userSpaceOnUse" gradientTransform="translate(176 217) rotate(90) scale(217)">
<stop stop-color="#1581BF"/>
<stop offset="1" stop-color="#1581BF" stop-opacity="0.62"/>
</radialGradient>
<clipPath id="clip0_149_5312">
<rect width="8.064" height="8.064" fill="white" transform="translate(178.984 171.176)"/>
</clipPath>
<clipPath id="clip1_149_5312">
<rect width="8.064" height="8.064" fill="white" transform="translate(205.192 198.056)"/>
</clipPath>
<clipPath id="clip2_149_5312">
<rect width="8.064" height="8.064" fill="white" transform="translate(178.312 224.264)"/>
</clipPath>
<clipPath id="clip3_149_5312">
<rect width="8.064" height="8.064" fill="white" transform="translate(175.624 257.192)"/>
</clipPath>
<clipPath id="clip4_149_5312">
<rect width="8.064" height="8.064" fill="white" transform="translate(174.28 290.792)"/>
</clipPath>
</defs>
</svg>
