<svg width="360" height="434" viewBox="0 0 360 434" fill="none" xmlns="http://www.w3.org/2000/svg">
<path d="M176 434C295.846 434 393 336.846 393 217C393 97.1542 295.846 0 176 0C56.1542 0 -41 97.1542 -41 217C-41 336.846 56.1542 434 176 434Z" fill="url(#paint0_radial_149_5311)" fill-opacity="0.06"/>
<path d="M350.008 321.039H10.9615V321.208H350.008V321.039Z" fill="white"/>
<path d="M316.036 331.953H305.931V332.123H316.036V331.953Z" fill="white"/>
<path d="M235.559 333.794H229.665V333.963H235.559V333.794Z" fill="white"/>
<path d="M303.068 325.657H279.883V325.826H303.068V325.657Z" fill="white"/>
<path d="M85.3006 329.155H56.0121V329.325H85.3006V329.155Z" fill="white"/>
<path d="M101.901 329.155H91.3386V329.325H101.901V329.155Z" fill="white"/>
<path d="M183.708 326.88H120.188V327.05H183.708V326.88Z" fill="white"/>
<path d="M171.679 290.797H40.7385C39.7122 290.796 38.7283 290.387 38.0026 289.662C37.277 288.936 36.8688 287.952 36.8677 286.926V102.869C36.8692 101.843 37.2775 100.86 38.0031 100.134C38.7288 99.4091 39.7125 99.0011 40.7385 99H171.679C172.704 99.0014 173.688 99.4096 174.413 100.135C175.138 100.86 175.547 101.844 175.548 102.869V286.923C175.548 287.95 175.14 288.934 174.415 289.66C173.689 290.386 172.705 290.795 171.679 290.797ZM40.7398 99.1697C39.761 99.1725 38.823 99.5627 38.1308 100.255C37.4386 100.947 37.0485 101.885 37.0456 102.864V286.923C37.0485 287.902 37.4386 288.84 38.1308 289.532C38.823 290.224 39.761 290.615 40.7398 290.617H171.68C172.659 290.615 173.597 290.224 174.289 289.532C174.981 288.84 175.371 287.902 175.374 286.923V102.869C175.371 101.89 174.981 100.953 174.289 100.26C173.597 99.5682 172.659 99.178 171.68 99.1751L40.7398 99.1697Z" fill="white"/>
<path d="M318.348 290.797H187.408C186.382 290.795 185.398 290.387 184.673 289.661C183.948 288.936 183.54 287.952 183.539 286.926V102.869C183.54 101.843 183.948 100.86 184.673 100.135C185.398 99.4091 186.382 99.0011 187.408 99H318.348C319.374 99.0011 320.358 99.4091 321.083 100.134C321.809 100.86 322.217 101.843 322.219 102.869V286.923C322.218 287.95 321.811 288.935 321.085 289.661C320.359 290.387 319.375 290.796 318.348 290.797ZM187.408 99.1697C186.429 99.1725 185.491 99.5627 184.799 100.255C184.107 100.947 183.717 101.885 183.714 102.864V286.923C183.717 287.902 184.107 288.84 184.799 289.532C185.491 290.224 186.429 290.615 187.408 290.617H318.348C319.328 290.616 320.268 290.227 320.962 289.535C321.655 288.842 322.046 287.903 322.049 286.923V102.869C322.046 101.889 321.655 100.95 320.962 100.258C320.268 99.5656 319.328 99.1762 318.348 99.1751L187.408 99.1697Z" fill="white"/>
<path d="M156.395 321.037H169.023V234.33H156.395V321.037Z" fill="white"/>
<path d="M160.841 321.037H156.395V304.564H165.501L160.841 321.037Z" fill="white"/>
<path d="M289.927 321.037H302.555V234.33H289.927V321.037Z" fill="white"/>
<path d="M156.395 316.54H293.806V234.33H156.395V316.54Z" fill="white"/>
<path d="M289.366 321.037H293.812V304.564H284.701L289.366 321.037Z" fill="white"/>
<path d="M248.504 241.136V309.143H289.238V241.136H248.504Z" fill="#ECF9FF"/>
<path d="M264.842 243.528H272.901C276.311 243.563 279.612 242.323 282.156 240.05H255.588C258.132 242.322 261.432 243.563 264.842 243.528Z" fill="white"/>
<path d="M204.734 241.136V309.143H245.468V241.136H204.734Z" fill="#ECF9FF"/>
<path d="M220.66 243.528H228.719C232.129 243.563 235.429 242.322 237.972 240.05H211.405C213.949 242.323 217.25 243.563 220.66 243.528Z" fill="white"/>
<path d="M160.964 241.136V309.143H201.698V241.136H160.964Z" fill="#ECF9FF"/>
<path d="M176.89 243.528H184.949C188.36 243.563 191.66 242.323 194.204 240.05H167.635C170.179 242.323 173.48 243.563 176.89 243.528Z" fill="white"/>
<path d="M58.4147 321.037H144.573L144.573 127.361H58.4147L58.4147 321.037Z" fill="white" fill-opacity="0.33"/>
<path d="M137.615 316.643V131.756H63.5538L63.5538 316.643H137.615Z" fill="white"/>
<path d="M130.337 166.141C130.337 163.489 129.815 160.864 128.8 158.414C127.786 155.964 126.299 153.738 124.424 151.864C122.549 149.989 120.323 148.501 117.873 147.487C115.423 146.472 112.798 145.95 110.146 145.95H91.0239C85.6689 145.95 80.5332 148.077 76.7467 151.864C72.9601 155.65 70.8328 160.786 70.8328 166.141H130.337Z" fill="#E0F3FC"/>
<path d="M130.338 305.151V260.981H70.8329V305.151H130.338Z" fill="#E0F3FC"/>
<path d="M130.337 178.594H104.091V255.283H130.337V178.594Z" fill="#E0F3FC"/>
<path d="M97.0797 178.594H70.8328V255.283H97.0797V178.594Z" fill="#E0F3FC"/>
<path d="M80.3517 216.593H69.6014C69.1594 216.592 68.7358 216.416 68.4232 216.103C68.1107 215.791 67.9346 215.367 67.9335 214.925C67.935 214.483 68.1112 214.06 68.4236 213.747C68.7361 213.435 69.1595 213.259 69.6014 213.257H80.3517C80.7936 213.259 81.2169 213.435 81.5294 213.747C81.8419 214.06 82.0181 214.483 82.0195 214.925C82.0185 215.367 81.8424 215.791 81.5298 216.103C81.2173 216.416 80.7937 216.592 80.3517 216.593Z" fill="white"/>
<path d="M64.8878 316.643L64.8878 131.756H63.5552L63.5552 316.643H64.8878Z" fill="white"/>
<path d="M199.069 213.073H290.439V127.361L199.069 127.361V213.073Z" fill="white"/>
<path d="M196.767 213.073H288.136V127.361L196.767 127.361V213.073Z" fill="white"/>
<path d="M191.432 218.034H290.439V213.073H191.432V218.034Z" fill="white"/>
<path d="M188.839 218.034H282.747V213.073H188.839V218.034Z" fill="white"/>
<path d="M284.001 208.615V131.82H200.9V208.615H284.001Z" fill="#ECF9FF"/>
<path d="M244.753 208.615V131.82H240.147V208.615H244.753Z" fill="white"/>
<path d="M202.642 208.615V131.82H200.9V208.615H202.642Z" fill="white"/>
<path d="M246.495 208.615V131.82H244.754V208.615H246.495Z" fill="white"/>
<path d="M211.352 215.345C209.672 197.934 208.502 169.682 209.411 160.233C209.426 160.07 209.477 159.913 209.558 159.772C209.639 159.63 209.749 159.507 209.881 159.412C210.057 159.283 210.265 159.207 210.482 159.191C210.699 159.175 210.917 159.22 211.109 159.322C211.302 159.423 211.462 159.577 211.571 159.765C211.681 159.953 211.735 160.168 211.728 160.386C211.568 165.068 211.384 176.771 212.381 196.959C212.878 207.009 213.593 213.891 213.102 215.343L211.352 215.345Z" fill="white"/>
<path d="M205.088 175.216C200.3 169.903 190.532 166.126 180.574 166.145C176.665 166.153 192.468 172.325 199.045 179.143C204.301 184.805 208.628 191.263 211.864 198.278C210.594 187.872 209.873 180.526 205.088 175.216Z" fill="white"/>
<path d="M214.573 176.833C218.541 171.3 227.718 167.045 237.642 166.563C241.537 166.375 226.715 173.318 221.183 180.436C216.77 186.385 213.416 193.05 211.267 200.139C210.977 189.722 210.6 182.368 214.573 176.833Z" fill="white"/>
<path d="M204.875 155.812C200.824 151.313 192.548 148.114 184.116 148.131C180.806 148.131 194.188 153.365 199.752 159.133C204.203 163.927 207.867 169.395 210.608 175.335C209.538 166.532 208.923 160.311 204.875 155.812Z" fill="white"/>
<path d="M212.905 162.466C216.27 157.779 224.037 154.177 232.439 153.769C235.738 153.609 223.187 159.488 218.502 165.515C214.765 170.555 211.924 176.202 210.106 182.208C209.862 173.38 209.541 167.149 212.905 162.466Z" fill="white"/>
<path d="M212.028 234.329C209.503 234.329 207.074 233.364 205.238 231.63C203.402 229.897 202.298 227.527 202.153 225.006L201.281 209.869H222.776L221.903 225.006C221.758 227.527 220.654 229.897 218.818 231.63C216.982 233.364 214.553 234.329 212.028 234.329Z" fill="white"/>
<path d="M224.167 213.311H199.893L199.198 207.017H224.868L224.167 213.311Z" fill="white"/>
<path d="M180.485 351.664C253.096 351.664 311.96 348.226 311.96 343.985C311.96 339.745 253.096 336.307 180.485 336.307C107.873 336.307 49.0094 339.745 49.0094 343.985C49.0094 348.226 107.873 351.664 180.485 351.664Z" fill="white" fill-opacity="0.54"/>
<path d="M183.138 336.648L177.476 337.285L175.388 324.446L181.05 323.808L183.138 336.648Z" fill="#FFC3BD"/>
<path d="M208.486 337.884H202.832L201.424 324.792H207.078L208.486 337.884Z" fill="#FFC3BD"/>
<path d="M202.367 337.226H209.259C209.371 337.226 209.48 337.265 209.567 337.335C209.655 337.405 209.716 337.503 209.74 337.612L210.857 342.638C210.883 342.76 210.881 342.887 210.851 343.009C210.822 343.13 210.765 343.244 210.685 343.34C210.606 343.437 210.506 343.514 210.392 343.567C210.278 343.619 210.154 343.646 210.029 343.643C207.811 343.605 206.198 343.475 203.401 343.475C201.683 343.475 196.5 343.653 194.127 343.653C191.801 343.653 191.444 341.306 192.416 341.094C196.772 340.137 200.054 338.827 201.446 337.574C201.699 337.348 202.027 337.224 202.367 337.226Z" fill="#263238"/>
<path d="M177.383 336.315L183.518 335.62C183.629 335.607 183.742 335.633 183.837 335.692C183.932 335.752 184.004 335.842 184.041 335.948L185.717 340.815C185.759 340.933 185.774 341.059 185.76 341.183C185.746 341.308 185.704 341.427 185.637 341.533C185.57 341.638 185.48 341.727 185.373 341.793C185.266 341.858 185.146 341.898 185.022 341.91C182.805 342.123 179.592 342.356 176.812 342.672C173.56 343.041 173.018 343.912 169.182 343.823C166.856 343.768 166.273 341.408 167.248 341.223C171.692 340.36 172.552 339.688 176.083 336.916C176.452 336.599 176.902 336.391 177.383 336.315Z" fill="#263238"/>
<path d="M182.377 171.759C180.478 173.327 178.609 174.689 176.676 176.085C174.742 177.481 172.768 178.776 170.736 180.034C168.704 181.291 166.619 182.497 164.433 183.591C162.197 184.749 159.87 185.72 157.475 186.495C156.842 186.697 156.224 186.864 155.513 187.042C154.817 187.193 154.114 187.306 153.406 187.38C152.132 187.517 150.934 187.578 149.739 187.633C147.358 187.742 145.023 187.74 142.69 187.723C138.024 187.667 133.398 187.443 128.752 187.032L128.682 182.791C133.245 182.204 137.829 181.696 142.364 181.186C144.631 180.94 146.893 180.663 149.103 180.374C150.197 180.225 151.292 180.05 152.302 179.863C152.736 179.786 153.165 179.685 153.588 179.56C153.986 179.424 154.475 179.268 154.926 179.086C156.865 178.298 158.747 177.378 160.559 176.33C162.435 175.253 164.312 174.097 166.156 172.868C168.001 171.64 169.837 170.367 171.657 169.069C173.477 167.77 175.295 166.395 177.003 165.101L182.377 171.759Z" fill="#FFC3BD"/>
<path d="M187.903 166.926C187.09 172.27 175.838 180.446 175.838 180.446L167.765 170.426C171.302 166.652 175.051 163.084 178.996 159.739C182.629 156.77 188.787 161.111 187.903 166.926Z" fill="#1581BF"/>
<path d="M130.239 183.238L127.029 180.953L126.677 188.172C127.163 188.173 127.641 188.056 128.07 187.83C128.499 187.604 128.867 187.276 129.14 186.875L130.239 183.238Z" fill="#FFC3BD"/>
<path d="M124.13 178.852L123.473 185.927L126.68 188.172L127.032 180.953L124.13 178.852Z" fill="#FFC3BD"/>
<path opacity="0.2" d="M175.391 324.45L176.466 331.068L182.129 330.43L181.054 323.812L175.391 324.45Z" fill="black"/>
<path opacity="0.2" d="M207.08 324.793H201.424L202.152 331.541H207.808L207.08 324.793Z" fill="black"/>
<path d="M207.161 159.91C207.582 160.004 207.98 160.182 208.332 160.432C208.683 160.683 208.981 161.001 209.207 161.368C209.434 161.736 209.585 162.145 209.651 162.571C209.717 162.998 209.697 163.433 209.593 163.852C208.366 168.943 207.441 174.103 206.823 179.304C206.288 183.683 205.968 187.865 205.768 191.657C205.299 200.544 205.495 207.318 205.229 209.614C200.808 209.307 184.149 208.148 175.065 207.513C171.999 183.509 175.592 168.19 177.61 161.966C177.919 160.996 178.497 160.134 179.277 159.48C180.057 158.826 181.007 158.407 182.016 158.272C183.173 158.12 184.558 157.974 186.019 157.887C186.531 157.855 187.049 157.837 187.578 157.826C191.866 157.877 196.148 158.175 200.402 158.718C201.209 158.814 202.025 158.933 202.818 159.06C204.404 159.325 205.912 159.631 207.161 159.91Z" fill="#F4980C"/>
<path d="M200.141 144.197C199.046 148.266 197.708 155.77 200.403 158.725C193.412 163.428 188.948 170.048 187.661 168.61C186.986 167.858 186.694 159.149 187.58 157.83C192.258 157.053 192.377 153.631 191.8 150.369L200.141 144.197Z" fill="#FFC3BD"/>
<path d="M199.862 157.038C199.862 157.038 188.468 162.08 186.958 173.354C190.096 169.72 197.029 165.766 197.029 165.766L193.971 164.887C195.916 164.149 197.93 163.608 199.982 163.27C199.643 161.713 201.452 158.607 201.452 158.607L199.862 157.038Z" fill="#1581BF"/>
<path d="M189.582 156.856C189.582 156.856 191.101 163.295 186.959 173.354C186.143 169.843 185.023 166.41 183.612 163.092L186.402 163.852C186.402 163.852 186.265 162.553 184.006 160.826C184.948 159.459 186.122 158.268 187.475 157.306L189.582 156.856Z" fill="#1581BF"/>
<path opacity="0.2" d="M196.741 146.716L191.804 150.366C191.95 151.126 192.029 151.897 192.041 152.67C193.819 152.534 196.364 150.778 196.68 148.952C196.835 148.216 196.856 147.459 196.741 146.716Z" fill="black"/>
<path d="M185.663 132.414C182.906 132.533 181.385 137.286 184.183 141.201C186.981 145.115 189.378 132.254 185.663 132.414Z" fill="#263238"/>
<path d="M199.26 136.596C199.587 142.198 200.063 145.458 197.597 148.651C193.889 153.452 186.72 151.73 184.726 146.34C182.932 141.488 182.698 133.143 187.873 130.277C189.011 129.638 190.294 129.302 191.599 129.299C192.904 129.296 194.188 129.627 195.329 130.261C196.47 130.894 197.43 131.809 198.118 132.917C198.806 134.026 199.199 135.293 199.26 136.596Z" fill="#FFC3BD"/>
<path d="M200.082 140.901C198.584 140.023 197.276 138.856 196.234 137.467C195.192 136.079 194.436 134.497 194.011 132.813C192.369 133.202 184.186 136.967 181.67 132.813C179.153 128.659 182.319 126.222 187.028 128.78C184.945 125.105 186.839 123.307 193.382 123.148C199.925 122.989 199.045 126.782 199.045 126.782C199.045 126.782 203.998 124.626 205.749 128.424C207.778 132.789 204.035 140.241 200.082 140.901Z" fill="#263238"/>
<path d="M197.926 125.779C197.986 125.779 200.404 126.361 203.189 123.557C202.69 125.949 198.364 127.541 198.364 127.541L197.926 125.779Z" fill="#263238"/>
<path d="M201.176 133.974C198.567 133.072 195.408 136.937 196.575 141.604C197.742 146.271 204.691 135.189 201.176 133.974Z" fill="#263238"/>
<path d="M202.653 141.255C202.414 142.646 201.634 143.886 200.483 144.703C198.949 145.773 197.567 144.55 197.473 142.779C197.393 141.187 198.094 138.71 199.882 138.345C200.275 138.272 200.679 138.298 201.059 138.42C201.439 138.543 201.782 138.759 202.058 139.048C202.333 139.337 202.531 139.691 202.635 140.076C202.739 140.462 202.745 140.867 202.653 141.255Z" fill="#FFC3BD"/>
<path d="M183.567 271.21C184.926 254.674 194.892 208.897 194.892 208.897L175.061 207.513C175.061 207.513 167.414 252.954 166.828 270.199C166.218 288.13 173.43 327.981 173.43 327.981L182.941 326.899C182.941 326.899 182.203 287.815 183.567 271.21Z" fill="#1581BF"/>
<path opacity="0.5" d="M183.567 271.21C184.926 254.674 194.892 208.897 194.892 208.897L175.061 207.513C175.061 207.513 167.414 252.954 166.828 270.199C166.218 288.13 173.43 327.981 173.43 327.981L182.941 326.899C182.941 326.899 182.203 287.815 183.567 271.21Z" fill="white"/>
<path opacity="0.2" d="M187.421 224.399C183.424 229.511 183.352 247.463 184.898 260.727C186.372 251.159 188.694 239.008 190.729 228.879L187.421 224.399Z" fill="black"/>
<path d="M185.762 208.259C185.762 208.259 187.902 256.661 190.289 273.052C192.903 291.002 199.54 330.233 199.54 330.233H209.895C209.895 330.233 208.191 293.283 206.825 275.648C205.269 255.56 205.226 209.616 205.226 209.616L185.762 208.259Z" fill="#1581BF"/>
<path opacity="0.5" d="M185.762 208.259C185.762 208.259 187.902 256.661 190.289 273.052C192.903 291.002 199.54 330.233 199.54 330.233H209.895C209.895 330.233 208.191 293.283 206.825 275.648C205.269 255.56 205.226 209.616 205.226 209.616L185.762 208.259Z" fill="white"/>
<path d="M198.295 330.454H210.487V326.811L196.858 326.575L198.295 330.454Z" fill="#1581BF"/>
<path d="M173.015 329.053L184.35 327.768L183.939 324.105L171.246 325.349L173.015 329.053Z" fill="#1581BF"/>
<path d="M191.012 139.165C191.066 139.617 190.875 140.013 190.574 140.048C190.273 140.084 189.994 139.746 189.94 139.293C189.887 138.84 190.077 138.445 190.378 138.409C190.679 138.374 190.958 138.712 191.012 139.165Z" fill="#263238"/>
<path d="M185.896 139.779C185.951 140.232 185.759 140.627 185.458 140.663C185.157 140.698 184.878 140.36 184.823 139.908C184.769 139.455 184.96 139.059 185.261 139.024C185.562 138.988 185.841 139.331 185.896 139.779Z" fill="#263238"/>
<path d="M187.549 139.809C187.175 141.258 186.604 142.648 185.852 143.941C186.188 144.125 186.56 144.233 186.942 144.259C187.323 144.284 187.706 144.226 188.063 144.087L187.549 139.809Z" fill="#ED847E"/>
<path d="M192.403 137.319C192.356 137.333 192.305 137.334 192.257 137.322C192.209 137.31 192.165 137.284 192.13 137.249C191.903 137 191.621 136.808 191.307 136.69C190.992 136.571 190.654 136.528 190.32 136.565C190.25 136.577 190.178 136.561 190.12 136.521C190.062 136.481 190.021 136.421 190.006 136.351C189.999 136.317 189.999 136.281 190.006 136.246C190.013 136.212 190.027 136.179 190.047 136.15C190.067 136.12 190.092 136.095 190.122 136.076C190.152 136.057 190.185 136.044 190.22 136.038C190.642 135.983 191.071 136.031 191.47 136.177C191.87 136.322 192.229 136.562 192.517 136.875C192.566 136.926 192.593 136.994 192.593 137.065C192.593 137.136 192.566 137.204 192.517 137.254C192.485 137.285 192.446 137.307 192.403 137.319Z" fill="#263238"/>
<path d="M190.437 145.894C191.083 145.758 191.686 145.468 192.197 145.05C192.707 144.632 193.109 144.097 193.369 143.491C193.382 143.455 193.38 143.415 193.363 143.38C193.346 143.345 193.317 143.319 193.28 143.306C193.244 143.294 193.204 143.296 193.17 143.312C193.135 143.329 193.108 143.359 193.096 143.395C192.847 143.953 192.47 144.444 191.996 144.83C191.522 145.215 190.964 145.484 190.367 145.614C190.349 145.619 190.332 145.626 190.316 145.637C190.301 145.648 190.288 145.662 190.278 145.678C190.268 145.694 190.261 145.712 190.258 145.731C190.254 145.749 190.255 145.768 190.259 145.787C190.263 145.805 190.271 145.823 190.282 145.838C190.293 145.853 190.307 145.867 190.323 145.877C190.339 145.887 190.357 145.893 190.376 145.897C190.394 145.9 190.413 145.899 190.432 145.895L190.437 145.894Z" fill="#263238"/>
<path d="M183.489 138.282C183.436 138.3 183.377 138.3 183.324 138.282C183.258 138.258 183.203 138.208 183.172 138.145C183.142 138.081 183.137 138.009 183.158 137.941C183.286 137.535 183.511 137.167 183.812 136.866C184.113 136.565 184.483 136.342 184.889 136.215C184.958 136.199 185.03 136.211 185.09 136.247C185.15 136.283 185.195 136.341 185.213 136.409C185.229 136.477 185.218 136.549 185.182 136.61C185.146 136.67 185.088 136.714 185.02 136.733C184.701 136.84 184.412 137.02 184.176 137.261C183.94 137.501 183.765 137.794 183.664 138.115C183.65 138.154 183.627 138.19 183.596 138.219C183.566 138.248 183.529 138.269 183.489 138.282Z" fill="#263238"/>
<path d="M200.505 338.214C200.118 338.245 199.732 338.143 199.41 337.925C199.31 337.839 199.232 337.729 199.185 337.606C199.137 337.483 199.12 337.349 199.136 337.218C199.136 337.14 199.157 337.063 199.198 336.996C199.239 336.929 199.297 336.875 199.366 336.839C199.994 336.516 201.815 337.638 202.021 337.767C202.043 337.781 202.061 337.802 202.072 337.826C202.083 337.85 202.086 337.877 202.082 337.904C202.078 337.93 202.066 337.954 202.048 337.973C202.03 337.993 202.007 338.007 201.981 338.013C201.498 338.135 201.003 338.202 200.505 338.214ZM199.664 337.044C199.605 337.042 199.545 337.053 199.491 337.077C199.463 337.093 199.44 337.116 199.425 337.143C199.41 337.171 199.404 337.203 199.406 337.235C199.394 337.324 199.404 337.416 199.436 337.5C199.467 337.585 199.52 337.661 199.588 337.72C200.22 338.009 200.938 338.045 201.595 337.822C201.006 337.439 200.348 337.175 199.658 337.044H199.664Z" fill="#1581BF"/>
<path d="M201.945 338.016C201.923 338.016 201.901 338.01 201.881 337.999C201.297 337.682 200.165 336.442 200.284 335.81C200.304 335.712 200.357 335.623 200.434 335.559C200.512 335.495 200.609 335.459 200.71 335.459C200.812 335.446 200.915 335.455 201.013 335.485C201.111 335.515 201.202 335.564 201.28 335.631C201.937 336.169 202.073 337.8 202.077 337.868C202.078 337.892 202.074 337.916 202.063 337.938C202.053 337.959 202.037 337.978 202.017 337.991C201.996 338.006 201.971 338.014 201.945 338.016ZM200.804 335.724H200.743C200.569 335.746 200.554 335.825 200.547 335.861C200.476 336.233 201.197 337.169 201.778 337.611C201.74 336.964 201.507 336.344 201.111 335.832C201.025 335.761 200.916 335.723 200.804 335.724Z" fill="#1581BF"/>
<path d="M176.923 337.151L176.901 337.161C176.016 337.444 174.431 337.845 173.754 337.371C173.654 337.302 173.572 337.21 173.516 337.102C173.46 336.994 173.431 336.874 173.431 336.753C173.426 336.68 173.44 336.606 173.471 336.54C173.502 336.473 173.55 336.416 173.61 336.374C174.247 335.926 176.637 336.806 176.908 336.909C176.931 336.919 176.951 336.935 176.966 336.956C176.98 336.976 176.989 337.001 176.99 337.026C176.992 337.051 176.986 337.076 176.974 337.099C176.963 337.121 176.945 337.14 176.923 337.152V337.151ZM173.799 336.571L173.768 336.59C173.743 336.606 173.724 336.629 173.712 336.656C173.7 336.683 173.695 336.713 173.699 336.742C173.698 336.822 173.716 336.902 173.752 336.973C173.788 337.045 173.842 337.106 173.907 337.152C174.739 337.412 175.637 337.363 176.436 337.016C175.608 336.648 174.701 336.495 173.798 336.571H173.799Z" fill="#1581BF"/>
<path d="M176.923 337.151C176.891 337.167 176.853 337.17 176.819 337.159C176.108 336.932 174.63 335.869 174.657 335.223C174.664 335.071 174.75 334.873 175.112 334.795C175.242 334.766 175.377 334.764 175.508 334.789C175.64 334.814 175.764 334.865 175.875 334.94C176.455 335.494 176.846 336.217 176.991 337.006C176.996 337.029 176.995 337.053 176.988 337.075C176.98 337.097 176.968 337.117 176.95 337.133C176.942 337.14 176.933 337.146 176.923 337.151ZM175.02 335.112C174.928 335.162 174.925 335.219 174.924 335.241C174.905 335.63 175.926 336.481 176.666 336.817C176.529 336.187 176.202 335.614 175.729 335.175C175.648 335.119 175.556 335.081 175.46 335.062C175.363 335.044 175.264 335.045 175.168 335.067C175.117 335.075 175.067 335.091 175.02 335.112Z" fill="#1581BF"/>
<path d="M211.931 168.064C211.787 170.273 211.527 172.329 211.258 174.453C210.988 176.576 210.625 178.657 210.227 180.758C209.44 185.047 208.276 189.259 206.751 193.345L206.079 194.928L205.909 195.324L205.867 195.422L205.797 195.573L205.6 195.963C205.339 196.437 205.027 196.88 204.668 197.285C204.078 197.948 203.389 198.516 202.624 198.967C202.005 199.336 201.355 199.651 200.683 199.91C198.442 200.719 196.098 201.208 193.721 201.363C189.405 201.686 185.066 201.524 180.786 200.88L180.94 196.639L183.931 196.301C184.934 196.182 185.932 196.027 186.924 195.89C188.903 195.599 190.863 195.273 192.73 194.84C194.458 194.488 196.137 193.931 197.733 193.181C198.163 193 198.54 192.713 198.827 192.345C198.845 192.248 198.629 192.674 198.883 191.994L199.331 190.686C200.427 186.936 201.265 183.115 201.84 179.251C202.162 177.284 202.437 175.298 202.702 173.308C202.967 171.317 203.186 169.285 203.396 167.376L211.931 168.064Z" fill="#FFC3BD"/>
<path d="M212.423 163.965C215.191 168.608 212.834 183.199 212.834 183.199L198.33 180.518C198.33 180.518 197.545 172.172 200.306 165.749C203.304 158.759 209.07 158.34 212.423 163.965Z" fill="#1581BF"/>
<path d="M176.879 209.761L169.183 173.963C168.814 172.434 167.957 171.067 166.743 170.067C165.529 169.068 164.022 168.49 162.451 168.422H132.962C134.533 168.49 136.04 169.068 137.254 170.067C138.469 171.067 139.325 172.434 139.695 173.963L147.391 209.761C147.76 211.29 148.617 212.657 149.831 213.657C151.045 214.656 152.552 215.234 154.123 215.303H183.611C182.04 215.234 180.534 214.656 179.319 213.657C178.105 212.657 177.249 211.29 176.879 209.761Z" fill="#263238"/>
<path opacity="0.7" d="M176.879 209.761L169.183 173.963C168.814 172.434 167.957 171.067 166.743 170.067C165.529 169.068 164.022 168.49 162.451 168.422H132.962C134.533 168.49 136.04 169.068 137.254 170.067C138.469 171.067 139.325 172.434 139.695 173.963L147.391 209.761C147.76 211.29 148.617 212.657 149.831 213.657C151.045 214.656 152.552 215.234 154.123 215.303H183.611C182.04 215.234 180.534 214.656 179.319 213.657C178.105 212.657 177.249 211.29 176.879 209.761Z" fill="#1581BF"/>
<path d="M132.962 168.422H162.45C160.94 168.45 159.493 169.029 158.379 170.049C157.266 171.069 156.564 172.461 156.405 173.963L148.755 257.152C148.596 258.653 147.894 260.045 146.781 261.065C145.667 262.086 144.22 262.664 142.71 262.693H124.305C123.596 262.706 122.892 262.568 122.241 262.287C121.59 262.006 121.006 261.589 120.529 261.065C120.052 260.54 119.693 259.919 119.475 259.245C119.258 258.57 119.187 257.856 119.267 257.152L126.918 173.963C127.077 172.461 127.779 171.07 128.892 170.049C130.005 169.029 131.452 168.45 132.962 168.422Z" fill="#1581BF"/>
<path d="M137.672 257.15C137.592 257.855 137.663 258.568 137.881 259.243C138.099 259.918 138.458 260.539 138.935 261.063C139.412 261.588 139.996 262.005 140.647 262.285C141.298 262.566 142.001 262.705 142.71 262.692H113.222C112.513 262.705 111.809 262.567 111.158 262.286C110.507 262.005 109.923 261.588 109.446 261.064C108.969 260.539 108.61 259.918 108.392 259.243C108.174 258.568 108.104 257.855 108.184 257.15H137.672Z" fill="#263238"/>
<path opacity="0.7" d="M137.672 257.15C137.592 257.855 137.663 258.568 137.881 259.243C138.099 259.918 138.458 260.539 138.935 261.063C139.412 261.588 139.996 262.005 140.647 262.285C141.298 262.566 142.001 262.705 142.71 262.692H113.222C112.513 262.705 111.809 262.567 111.158 262.286C110.507 262.005 109.923 261.588 109.446 261.064C108.969 260.539 108.61 259.918 108.392 259.243C108.174 258.568 108.104 257.855 108.184 257.15H137.672Z" fill="#1581BF"/>
<g opacity="0.5">
<path opacity="0.5" d="M151.295 177.742H131.34C131.186 177.744 131.033 177.713 130.892 177.652C130.751 177.59 130.624 177.5 130.521 177.385C130.417 177.271 130.339 177.137 130.292 176.99C130.244 176.843 130.229 176.688 130.246 176.535C130.281 176.208 130.434 175.906 130.676 175.684C130.919 175.462 131.233 175.335 131.562 175.328H151.514C151.668 175.326 151.82 175.357 151.962 175.418C152.103 175.48 152.23 175.571 152.333 175.685C152.437 175.799 152.515 175.934 152.562 176.08C152.61 176.227 152.625 176.382 152.608 176.535C152.573 176.861 152.42 177.164 152.178 177.386C151.937 177.608 151.623 177.734 151.295 177.742Z" fill="white"/>
<path opacity="0.5" d="M150.701 184.27H130.747C130.592 184.272 130.44 184.241 130.298 184.18C130.157 184.118 130.03 184.027 129.927 183.913C129.823 183.799 129.745 183.664 129.698 183.518C129.65 183.371 129.635 183.216 129.652 183.063C129.687 182.736 129.841 182.434 130.083 182.212C130.325 181.99 130.64 181.863 130.968 181.856H150.923C151.077 181.854 151.229 181.885 151.371 181.946C151.512 182.008 151.639 182.098 151.742 182.213C151.846 182.327 151.924 182.462 151.971 182.608C152.019 182.755 152.034 182.91 152.017 183.063C151.982 183.39 151.829 183.693 151.587 183.915C151.344 184.137 151.029 184.263 150.701 184.27Z" fill="white"/>
<path opacity="0.5" d="M145.216 190.798H130.153C129.999 190.8 129.846 190.769 129.705 190.708C129.563 190.646 129.437 190.555 129.333 190.441C129.23 190.327 129.152 190.192 129.104 190.046C129.057 189.899 129.041 189.744 129.058 189.591C129.094 189.264 129.247 188.962 129.489 188.739C129.731 188.517 130.046 188.391 130.374 188.384H145.437C145.591 188.382 145.744 188.413 145.885 188.474C146.027 188.535 146.153 188.626 146.257 188.74C146.36 188.855 146.438 188.989 146.486 189.136C146.533 189.283 146.549 189.438 146.532 189.591C146.496 189.917 146.343 190.22 146.101 190.442C145.859 190.664 145.544 190.791 145.216 190.798Z" fill="white"/>
<path opacity="0.5" d="M134.668 197.324H129.56C129.406 197.326 129.254 197.296 129.112 197.234C128.971 197.173 128.844 197.082 128.741 196.968C128.637 196.854 128.559 196.719 128.512 196.572C128.464 196.426 128.449 196.27 128.466 196.117C128.501 195.791 128.654 195.488 128.896 195.266C129.138 195.044 129.452 194.918 129.781 194.911H134.89C135.044 194.908 135.196 194.939 135.338 195.001C135.479 195.062 135.606 195.153 135.709 195.267C135.813 195.381 135.891 195.516 135.938 195.663C135.986 195.809 136.001 195.964 135.984 196.117C135.949 196.444 135.796 196.747 135.553 196.969C135.311 197.191 134.996 197.317 134.668 197.324Z" fill="white"/>
<path opacity="0.5" d="M148.919 203.852H128.96C128.805 203.854 128.653 203.823 128.511 203.762C128.37 203.7 128.244 203.61 128.14 203.496C128.036 203.381 127.958 203.247 127.911 203.1C127.864 202.953 127.848 202.798 127.865 202.645C127.9 202.318 128.054 202.016 128.296 201.794C128.538 201.572 128.853 201.445 129.181 201.438H149.136C149.29 201.436 149.442 201.467 149.584 201.528C149.725 201.59 149.852 201.681 149.955 201.795C150.059 201.909 150.137 202.044 150.184 202.19C150.232 202.337 150.247 202.492 150.23 202.645C150.195 202.971 150.042 203.273 149.801 203.495C149.56 203.717 149.247 203.844 148.919 203.852Z" fill="white"/>
<path opacity="0.5" d="M140.468 210.38H128.373C128.219 210.382 128.066 210.351 127.924 210.29C127.783 210.228 127.657 210.138 127.553 210.023C127.449 209.909 127.371 209.774 127.324 209.628C127.277 209.481 127.261 209.326 127.278 209.173C127.313 208.846 127.466 208.544 127.708 208.322C127.95 208.1 128.265 207.973 128.593 207.966H140.688C140.842 207.964 140.995 207.995 141.136 208.056C141.278 208.118 141.404 208.209 141.508 208.323C141.611 208.437 141.689 208.572 141.737 208.718C141.784 208.865 141.8 209.02 141.783 209.173C141.747 209.499 141.594 209.802 141.352 210.024C141.11 210.246 140.796 210.372 140.468 210.38Z" fill="white"/>
<path opacity="0.5" d="M147.733 216.906H127.779C127.625 216.908 127.472 216.878 127.331 216.816C127.189 216.755 127.063 216.664 126.959 216.55C126.856 216.436 126.778 216.301 126.73 216.154C126.683 216.008 126.667 215.853 126.684 215.7C126.72 215.373 126.873 215.07 127.115 214.848C127.357 214.626 127.672 214.5 128.001 214.493H147.956C148.11 214.491 148.263 214.521 148.404 214.583C148.546 214.644 148.672 214.735 148.776 214.849C148.879 214.963 148.957 215.098 149.005 215.245C149.052 215.391 149.068 215.546 149.051 215.7C149.015 216.026 148.862 216.329 148.62 216.551C148.377 216.773 148.062 216.9 147.733 216.906Z" fill="white"/>
<path opacity="0.5" d="M142.248 223.434H127.185C127.031 223.436 126.878 223.406 126.737 223.344C126.595 223.283 126.469 223.192 126.365 223.078C126.262 222.964 126.184 222.829 126.136 222.682C126.089 222.536 126.073 222.381 126.09 222.227C126.126 221.901 126.279 221.598 126.521 221.376C126.763 221.154 127.078 221.028 127.407 221.021H142.469C142.624 221.018 142.776 221.049 142.918 221.111C143.059 221.172 143.186 221.263 143.289 221.377C143.393 221.491 143.471 221.626 143.518 221.773C143.565 221.919 143.581 222.074 143.564 222.227C143.529 222.554 143.375 222.857 143.133 223.079C142.891 223.301 142.576 223.427 142.248 223.434Z" fill="white"/>
<path opacity="0.5" d="M131.7 229.961H126.588C126.434 229.963 126.282 229.932 126.14 229.871C125.999 229.809 125.872 229.718 125.769 229.604C125.665 229.49 125.587 229.355 125.54 229.209C125.492 229.062 125.477 228.907 125.494 228.754C125.529 228.427 125.682 228.125 125.925 227.902C126.167 227.68 126.482 227.554 126.81 227.547H131.925C132.079 227.545 132.231 227.576 132.373 227.637C132.514 227.698 132.641 227.789 132.744 227.903C132.848 228.018 132.926 228.152 132.973 228.299C133.021 228.446 133.036 228.601 133.019 228.754C132.984 229.081 132.83 229.384 132.587 229.606C132.345 229.828 132.029 229.954 131.7 229.961Z" fill="white"/>
<path opacity="0.5" d="M145.952 236.49H125.997C125.843 236.492 125.691 236.461 125.549 236.4C125.408 236.338 125.281 236.248 125.178 236.133C125.074 236.019 124.996 235.884 124.949 235.738C124.901 235.591 124.886 235.436 124.903 235.283C124.938 234.956 125.091 234.654 125.334 234.432C125.576 234.21 125.89 234.083 126.219 234.076H146.173C146.327 234.074 146.48 234.105 146.622 234.166C146.763 234.228 146.889 234.319 146.993 234.433C147.096 234.547 147.175 234.682 147.222 234.828C147.269 234.975 147.285 235.13 147.268 235.283C147.232 235.61 147.079 235.912 146.837 236.134C146.595 236.356 146.28 236.483 145.952 236.49Z" fill="white"/>
<path opacity="0.5" d="M137.5 243.016H125.405C125.251 243.019 125.098 242.988 124.957 242.926C124.815 242.865 124.689 242.774 124.585 242.66C124.482 242.546 124.404 242.411 124.356 242.264C124.309 242.118 124.293 241.963 124.31 241.81C124.345 241.483 124.498 241.18 124.741 240.958C124.983 240.736 125.298 240.61 125.626 240.603H137.72C137.874 240.601 138.027 240.631 138.168 240.693C138.31 240.754 138.436 240.845 138.54 240.959C138.643 241.073 138.721 241.208 138.769 241.355C138.816 241.501 138.832 241.657 138.815 241.81C138.779 242.136 138.627 242.439 138.385 242.661C138.143 242.883 137.828 243.009 137.5 243.016Z" fill="white"/>
<path opacity="0.5" d="M144.764 249.544H124.81C124.656 249.546 124.503 249.516 124.362 249.454C124.22 249.393 124.094 249.302 123.99 249.188C123.887 249.074 123.808 248.939 123.761 248.792C123.714 248.646 123.698 248.491 123.715 248.337C123.751 248.011 123.904 247.708 124.146 247.486C124.388 247.264 124.703 247.138 125.031 247.131H144.983C145.137 247.129 145.29 247.159 145.431 247.221C145.572 247.282 145.699 247.373 145.803 247.487C145.906 247.601 145.984 247.736 146.032 247.883C146.079 248.029 146.095 248.184 146.078 248.337C146.042 248.664 145.889 248.966 145.648 249.188C145.406 249.41 145.092 249.537 144.764 249.544Z" fill="white"/>
</g>
<path d="M182.679 197.101L178.347 193.337L176.317 200.266C176.317 200.266 180.717 202.652 182.241 200.462L182.679 197.101Z" fill="#FFC3BD"/>
<path d="M173.628 193.066L172.219 198.873L176.313 200.269L178.343 193.339L173.628 193.066Z" fill="#FFC3BD"/>
<defs>
<radialGradient id="paint0_radial_149_5311" cx="0" cy="0" r="1" gradientUnits="userSpaceOnUse" gradientTransform="translate(176 217) rotate(90) scale(217)">
<stop stop-color="#1581BF"/>
<stop offset="1" stop-color="#1581BF" stop-opacity="0.62"/>
</radialGradient>
</defs>
</svg>
