<svg width="46" height="46" viewBox="0 0 46 46" fill="none" xmlns="http://www.w3.org/2000/svg">
<circle cx="23" cy="23" r="23" fill="#6EAF4F" fill-opacity="0.09"/>
<path d="M25.1562 17.75C24.6905 17.75 24.3125 17.302 24.3125 16.75V15.25H20.9375V16.75C20.9375 17.302 20.5595 17.75 20.0938 17.75C19.628 17.75 19.25 17.302 19.25 16.75V15.25C19.25 14.147 20.0068 13.25 20.9375 13.25H24.3125C25.2432 13.25 26 14.147 26 15.25V16.75C26 17.302 25.622 17.75 25.1562 17.75Z" fill="#4FAF54"/>
<path d="M23.3128 26.0535C23.1384 26.1243 22.8866 26.1749 22.625 26.1749C22.3634 26.1749 22.1116 26.1243 21.8791 26.0332L11 22.25V29.9682C11 31.5058 12.1916 32.75 13.6641 32.75H31.5859C33.0584 32.75 34.25 31.5058 34.25 29.9682V22.25L23.3128 26.0535Z" fill="#4FAF54"/>
<path d="M34.25 19V21.29L22.8575 25.21C22.78 25.24 22.7025 25.25 22.625 25.25C22.5475 25.25 22.47 25.24 22.3925 25.21L11 21.29V19C11 17.48 12.1916 16.25 13.6641 16.25H31.5859C33.0584 16.25 34.25 17.48 34.25 19Z" fill="#4FAF54"/>
</svg>
