<svg width="65" height="65" viewBox="0 0 65 65" fill="none" xmlns="http://www.w3.org/2000/svg">
<path d="M28.5111 9.12451L5.28744 49.3461C4.86794 50.0724 4.64705 50.8964 4.64697 51.7352C4.6469 52.574 4.86764 53.398 5.287 54.1244C5.70637 54.8508 6.30958 55.4541 7.036 55.8734C7.76241 56.2928 8.58643 56.5136 9.42522 56.5135H55.8687C56.7075 56.5136 57.5315 56.2928 58.2579 55.8734C58.9844 55.4541 59.5876 54.8508 60.0069 54.1244C60.4263 53.398 60.647 52.574 60.647 51.7352C60.6469 50.8964 60.426 50.0724 60.0065 49.3461L36.7854 9.12451C36.3661 8.3983 35.763 7.79526 35.0368 7.37599C34.3106 6.95671 33.4868 6.73598 32.6482 6.73598C31.8097 6.73598 30.9859 6.95671 30.2596 7.37599C29.5334 7.79526 28.9304 8.3983 28.5111 9.12451Z" fill="#EE404C"/>
<path d="M32.9519 21.5297H32.3461C30.8546 21.5297 29.6455 22.7388 29.6455 24.2303V37.1384C29.6455 38.6299 30.8546 39.839 32.3461 39.839H32.9519C34.4433 39.839 35.6524 38.6299 35.6524 37.1384V24.2303C35.6524 22.7388 34.4433 21.5297 32.9519 21.5297Z" fill="#FFF7ED"/>
<path d="M32.6485 50.0765C34.3072 50.0765 35.6519 48.7319 35.6519 47.0731C35.6519 45.4143 34.3072 44.0696 32.6485 44.0696C30.9897 44.0696 29.645 45.4143 29.645 47.0731C29.645 48.7319 30.9897 50.0765 32.6485 50.0765Z" fill="#FFF7ED"/>
</svg>
