<svg width="39" height="38" viewBox="0 0 39 38" fill="none" xmlns="http://www.w3.org/2000/svg">
<rect x="0.5" width="38" height="38" rx="9" fill="white" fill-opacity="0.2"/>
<path d="M17.8804 19.9073C17.7636 19.7886 17.6709 19.6473 17.6076 19.4917C17.5443 19.3361 17.5117 19.1691 17.5117 19.0005C17.5117 18.8319 17.5443 18.665 17.6076 18.5093C17.6709 18.3537 17.7636 18.2124 17.8804 18.0937L23.6018 12.2439C23.7186 12.1252 23.8113 11.9839 23.8746 11.8283C23.9379 11.6726 23.9705 11.5057 23.9705 11.3371C23.9705 11.1685 23.9379 11.0015 23.8746 10.8459C23.8113 10.6902 23.7186 10.549 23.6018 10.4302C23.3682 10.1924 23.0523 10.0588 22.723 10.0588C22.3937 10.0588 22.0778 10.1924 21.8442 10.4302L16.1229 16.2928C15.4226 17.0112 15.0293 17.9851 15.0293 19.0005C15.0293 20.0159 15.4226 20.9898 16.1229 21.7083L21.8442 27.5708C22.0764 27.8067 22.3898 27.9398 22.7168 27.9412C22.8808 27.9421 23.0434 27.9099 23.1953 27.8464C23.3472 27.7828 23.4853 27.6891 23.6018 27.5708C23.7186 27.452 23.8113 27.3108 23.8746 27.1551C23.9379 26.9995 23.9705 26.8325 23.9705 26.6639C23.9705 26.4953 23.9379 26.3284 23.8746 26.1727C23.8113 26.0171 23.7186 25.8758 23.6018 25.7571L17.8804 19.9073Z" fill="white"/>
</svg>
