<svg width="19" height="18" viewBox="0 0 19 18" fill="none" xmlns="http://www.w3.org/2000/svg">
<path fill-rule="evenodd" clip-rule="evenodd" d="M3.99184 1.17054C5.23975 1.17054 6.2534 2.18553 6.2534 3.4321C6.2534 4.67893 5.23975 5.69365 3.99184 5.69365C2.74528 5.69365 1.73137 4.67893 1.73137 3.4321C1.73137 2.18553 2.74528 1.17054 3.99184 1.17054ZM3.99184 6.76827C5.8316 6.76827 7.32802 5.27186 7.32802 3.4321C7.32802 1.5926 5.8316 0.0959167 3.99184 0.0959167C2.15342 0.0959167 0.656738 1.5926 0.656738 3.4321C0.656738 5.27186 2.15235 6.76827 3.99184 6.76827Z" fill="#6C6C6C"/>
<path fill-rule="evenodd" clip-rule="evenodd" d="M2.78184 3.43205L2.78104 3.36086C2.77996 3.3305 2.77996 3.3305 2.78614 3.29477C2.81355 3.14889 2.7179 3.00811 2.5731 2.98098C2.42722 2.95358 2.28671 3.04814 2.25823 3.19402C2.24453 3.25474 2.2405 3.3168 2.24373 3.37859L2.24453 3.43205C2.24883 3.57686 2.36731 3.69238 2.51319 3.69238C2.65826 3.69238 2.77674 3.57794 2.78184 3.43205Z" fill="#6C6C6C"/>
<path fill-rule="evenodd" clip-rule="evenodd" d="M2.76205 2.87811C2.85231 2.87811 2.9364 2.83405 2.98557 2.75856C3.21016 2.42274 3.5879 2.22124 3.99196 2.22124C4.14106 2.22124 4.26061 2.10142 4.26061 1.95259C4.26061 1.80456 4.14106 1.68393 3.99196 1.68393C3.4087 1.68393 2.86387 1.97462 2.5396 2.45927C2.48506 2.54229 2.47969 2.64814 2.5259 2.73545C2.57211 2.82357 2.66345 2.87811 2.76205 2.87811Z" fill="#6C6C6C"/>
<path fill-rule="evenodd" clip-rule="evenodd" d="M11.5144 1.17054C12.7623 1.17054 13.776 2.18553 13.776 3.4321C13.776 4.67893 12.7623 5.69365 11.5144 5.69365C10.2676 5.69365 9.25285 4.67893 9.25285 3.4321C9.25366 2.18553 10.2676 1.17054 11.5144 1.17054ZM11.5144 6.76827C13.3542 6.76827 14.8506 5.27186 14.8506 3.4321C14.8506 1.5926 13.3542 0.0959167 11.5144 0.0959167C9.67464 0.0959167 8.17822 1.5926 8.17822 3.4321C8.17903 5.27186 9.67572 6.76827 11.5144 6.76827Z" fill="#6C6C6C"/>
<path fill-rule="evenodd" clip-rule="evenodd" d="M10.2846 2.87811C10.3748 2.87811 10.4587 2.83405 10.5081 2.75856C10.7327 2.42274 11.1104 2.22124 11.5145 2.22124C11.6636 2.22124 11.7831 2.10142 11.7831 1.95259C11.7831 1.80456 11.6636 1.68393 11.5145 1.68393C10.931 1.68393 10.3864 1.97462 10.0621 2.45927C10.0065 2.54229 10.0011 2.64814 10.0484 2.73545C10.0946 2.82357 10.186 2.87811 10.2846 2.87811Z" fill="#6C6C6C"/>
<path fill-rule="evenodd" clip-rule="evenodd" d="M17.2255 16.2615C17.151 16.2448 17.0713 16.2196 17.0156 16.2019C13.4014 14.2992 13.2754 14.296 13.1158 14.296C12.9678 14.296 12.8262 14.3505 12.7244 14.4585C12.6226 14.5657 12.5702 14.6968 12.5796 14.8449L12.6583 16.1441C12.651 16.5608 12.3077 16.8294 11.8711 16.8294H1.8943C1.43785 16.8294 1.07463 16.6363 1.07463 16.2196V9.19664C1.07463 8.74234 1.47439 8.2335 1.8943 8.2335V8.23243H11.8711C12.2932 8.23243 12.65 8.65422 12.6583 9.09186L12.5796 10.2514C12.5691 10.4005 12.6215 10.5472 12.7222 10.6565C12.8241 10.7656 12.9667 10.8277 13.1158 10.8277C13.291 10.8277 13.3383 10.8277 17.0481 8.84201C17.1215 8.80735 17.1771 8.7864 17.2182 8.77484C17.2244 8.8232 17.2287 8.89359 17.2265 8.99944L17.2255 16.2615ZM17.961 7.9584C17.7848 7.77893 17.5656 7.68249 17.298 7.68249C17.0807 7.68249 16.8467 7.74025 16.5621 7.87753C15.6167 8.38234 14.6689 8.88096 13.7192 9.3761L13.7319 9.17461C13.7329 9.16225 13.734 9.12222 13.734 9.10852C13.734 8.06344 12.8987 7.15887 11.8711 7.15887H1.8943C0.884687 7.15887 0 8.15156 0 9.19664V16.2196C0 17.2249 0.85003 17.9041 1.8943 17.9041H11.8711C12.9071 17.9041 13.7192 17.1663 13.7329 16.1524C13.7319 16.1546 13.7319 16.1554 13.7319 16.1535L13.7047 15.7065C14.4183 16.0643 15.5276 16.6395 16.5549 17.1808C16.5842 17.1964 16.6116 17.2104 16.643 17.2198C16.9232 17.3058 17.1457 17.3657 17.3609 17.3668C17.744 17.3635 17.9758 17.1768 18.0881 17.0205C18.2224 16.8356 18.2687 16.5962 18.2687 16.2731V9.01637C18.2687 8.80225 18.2958 8.29852 17.961 7.9584Z" fill="#6C6C6C"/>
<path fill-rule="evenodd" clip-rule="evenodd" d="M13.7319 16.1534L13.733 16.1367C13.733 16.1429 13.7319 16.148 13.7319 16.1534Z" fill="#6C6C6C"/>
<path fill-rule="evenodd" clip-rule="evenodd" d="M17.3683 17.3678L17.3611 17.3668L17.3525 17.3678H17.3683Z" fill="#6C6C6C"/>
<path fill-rule="evenodd" clip-rule="evenodd" d="M4.86737 8.76978H2.58594C2.04648 8.76978 1.61206 9.43497 1.61206 9.93252V11.2978C1.61206 11.4459 1.73161 11.5651 1.88072 11.5651C2.02875 11.5651 2.14937 11.4459 2.14937 11.2965V9.93118C2.14937 9.6816 2.38982 9.30816 2.58594 9.30816H4.86737C5.01648 9.30816 5.13603 9.18727 5.13603 9.03843C5.13603 8.8904 5.01648 8.76978 4.86737 8.76978Z" fill="#6C6C6C"/>
<path fill-rule="evenodd" clip-rule="evenodd" d="M6.21065 8.77081H5.942C5.79397 8.77081 5.67334 8.89037 5.67334 9.03947C5.67334 9.18723 5.79397 9.30813 5.942 9.30813H6.21065C6.35976 9.30813 6.47931 9.18723 6.47931 9.03947C6.47931 8.89037 6.35976 8.77081 6.21065 8.77081Z" fill="#6C6C6C"/>
</svg>
