<svg width="18" height="18" viewBox="0 0 18 18" fill="none" xmlns="http://www.w3.org/2000/svg">
<path d="M10.25 5.25H7.75C7.41848 5.25 7.10054 5.3817 6.86612 5.61612C6.6317 5.85054 6.5 6.16848 6.5 6.5V15.875C6.5 16.2065 6.6317 16.5245 6.86612 16.7589C7.10054 16.9933 7.41848 17.125 7.75 17.125H10.25C10.5815 17.125 10.8995 16.9933 11.1339 16.7589C11.3683 16.5245 11.5 16.2065 11.5 15.875V6.5C11.5 6.16848 11.3683 5.85054 11.1339 5.61612C10.8995 5.3817 10.5815 5.25 10.25 5.25ZM7.75 15.875V6.5H10.25V15.875H7.75ZM16.5 0.875H14C13.6685 0.875 13.3505 1.0067 13.1161 1.24112C12.8817 1.47554 12.75 1.79348 12.75 2.125V15.875C12.75 16.2065 12.8817 16.5245 13.1161 16.7589C13.3505 16.9933 13.6685 17.125 14 17.125H16.5C16.8315 17.125 17.1495 16.9933 17.3839 16.7589C17.6183 16.5245 17.75 16.2065 17.75 15.875V2.125C17.75 1.79348 17.6183 1.47554 17.3839 1.24112C17.1495 1.0067 16.8315 0.875 16.5 0.875ZM14 15.875V2.125H16.5V15.875H14ZM4 9.625H1.5C1.16848 9.625 0.850537 9.7567 0.616116 9.99112C0.381696 10.2255 0.25 10.5435 0.25 10.875V15.875C0.25 16.2065 0.381696 16.5245 0.616116 16.7589C0.850537 16.9933 1.16848 17.125 1.5 17.125H4C4.33152 17.125 4.64946 16.9933 4.88388 16.7589C5.1183 16.5245 5.25 16.2065 5.25 15.875V10.875C5.25 10.5435 5.1183 10.2255 4.88388 9.99112C4.64946 9.7567 4.33152 9.625 4 9.625ZM1.5 15.875V10.875H4V15.875H1.5Z" fill="#282828"/>
</svg>
