<svg width="14" height="14" viewBox="0 0 14 14" fill="none" xmlns="http://www.w3.org/2000/svg">
<path d="M13 1L8.66671 13C8.63746 13.0638 8.5905 13.1179 8.53141 13.1558C8.47232 13.1938 8.40359 13.2139 8.33338 13.2139C8.26317 13.2139 8.19444 13.1938 8.13535 13.1558C8.07626 13.1179 8.0293 13.0638 8.00005 13L5.66671 8.33333L1.00005 6C0.936219 5.97075 0.882131 5.92379 0.844211 5.8647C0.806291 5.80561 0.786133 5.73688 0.786133 5.66667C0.786133 5.59646 0.806291 5.52772 0.844211 5.46863C0.882131 5.40954 0.936219 5.36258 1.00005 5.33333L13 1Z" fill="white" stroke="white" stroke-width="1.5" stroke-linecap="round" stroke-linejoin="round"/>
</svg>
