<svg width="61" height="60" viewBox="0 0 61 60" fill="none" xmlns="http://www.w3.org/2000/svg">
<path opacity="0.2" fill-rule="evenodd" clip-rule="evenodd" d="M19.1412 0.126045C18.0583 0.265747 17.0026 0.799942 16.1663 1.63135C15.2953 2.49734 14.8042 3.48721 14.6466 4.69436C14.5816 5.19187 14.531 9.70345 14.529 15.1915L14.5254 24.8163L16.8536 24.8824C19.4402 24.9559 20.4687 25.1251 22.561 25.8212C24.0978 26.3325 25.8058 27.1741 27.2027 28.1087C28.3607 28.8832 30.0044 30.3016 30.858 31.2629L31.4044 31.8782L41.2663 31.879C50.7283 31.8797 51.1416 31.8887 51.465 32.1006C52.0154 32.4615 52.2463 32.9151 52.2463 33.6361C52.2463 34.3572 52.0154 34.8108 51.465 35.1717C51.1426 35.383 50.7522 35.3926 42.4341 35.3933C37.6526 35.3938 33.7403 35.4223 33.7403 35.4566C33.7403 35.4911 33.8788 35.7909 34.0481 36.123C34.6968 37.3957 35.3261 39.6474 35.6871 41.9866L35.755 42.4261L43.4414 42.4269C50.7727 42.4276 51.1435 42.4378 51.465 42.6485C52.0154 43.0094 52.2463 43.4631 52.2463 44.1841C52.2463 44.9051 52.0154 45.3588 51.465 45.7196C51.1435 45.9304 50.7727 45.9406 43.4414 45.9413L35.755 45.9421L35.6883 46.3816C35.5137 47.5328 35.1109 49.3505 34.8406 50.2077C34.409 51.5757 33.38 53.6689 32.5036 54.9616C31.3362 56.6832 29.9586 58.1533 28.1371 59.6211L27.6693 59.9981L41.2848 59.9985C49.3622 59.9986 55.2572 59.9527 55.7779 59.8855C56.992 59.7288 57.9877 59.2406 58.8587 58.3746C59.7297 57.5086 60.2208 56.5187 60.3785 55.3116C60.4477 54.7815 60.4937 46.7454 60.496 34.8374L60.4996 15.2359L53.3972 15.235C46.6382 15.2343 46.2785 15.2237 45.9578 15.0134C45.7724 14.892 45.5208 14.6418 45.3986 14.4575C45.1872 14.1386 45.1764 13.7811 45.1757 7.0612L45.1749 -6.10352e-05L32.532 0.0148233C25.5783 0.0230272 19.5525 0.0730713 19.1412 0.126045ZM48.7114 6.4459V11.7199H54.0451H59.3788L54.075 6.4459C51.158 3.54522 48.7578 1.17193 48.7413 1.17193C48.7248 1.17193 48.7114 3.54522 48.7114 6.4459ZM51.465 21.5527C52.0154 21.9135 52.2463 22.3672 52.2463 23.0882C52.2463 23.8092 52.0154 24.2629 51.465 24.6238C51.1398 24.8369 50.6525 24.8447 37.5125 24.8447C24.3725 24.8447 23.8853 24.8369 23.56 24.6238C23.0096 24.2629 22.7787 23.8092 22.7787 23.0882C22.7787 22.3672 23.0096 21.9135 23.56 21.5527C23.8853 21.3395 24.3725 21.3317 37.5125 21.3317C50.6525 21.3317 51.1398 21.3395 51.465 21.5527Z" fill="#1E88E5"/>
<path fill-rule="evenodd" clip-rule="evenodd" d="M16.3325 59.9988C25.0765 59.9988 32.165 52.9101 32.165 44.1658C32.165 35.4215 25.0765 28.3329 16.3325 28.3329C7.58844 28.3329 0.5 35.4215 0.5 44.1658C0.5 52.9101 7.58844 59.9988 16.3325 59.9988Z" fill="#1E88E5"/>
<g clip-path="url(#clip0_1370_45455)">
<path d="M22.1672 39.1666C22.1672 40.3633 21.1973 41.3334 20.0006 41.3334C18.804 41.3334 17.834 40.3633 17.834 39.1666C17.834 37.9701 18.804 37 20.0006 37C21.1973 37 22.1672 37.9701 22.1672 39.1666Z" fill="white"/>
<path d="M20.0006 41.8334C18.5299 41.8334 17.334 40.6373 17.334 39.1666C17.334 37.696 18.5299 36.5 20.0006 36.5C21.4713 36.5 22.6672 37.696 22.6672 39.1666C22.6672 40.6373 21.4713 41.8334 20.0006 41.8334ZM20.0006 37.5C19.0813 37.5 18.334 38.2481 18.334 39.1666C18.334 40.0853 19.0813 40.8334 20.0006 40.8334C20.9199 40.8334 21.6672 40.0853 21.6672 39.1666C21.6672 38.2481 20.9199 37.5 20.0006 37.5ZM22.1672 49.8334C22.1672 51.0299 21.1973 52 20.0006 52C18.804 52 17.834 51.0299 17.834 49.8334C17.834 48.6367 18.804 47.6666 20.0006 47.6666C21.1973 47.6666 22.1672 48.6367 22.1672 49.8334Z" fill="white"/>
<path d="M20 52.5C18.5293 52.5 17.3334 51.304 17.3334 49.8334C17.3334 48.3627 18.5293 47.1666 20 47.1666C21.4707 47.1666 22.6666 48.3627 22.6666 49.8334C22.6666 51.304 21.4707 52.5 20 52.5ZM20 48.1666C19.0807 48.1666 18.3334 48.9147 18.3334 49.8334C18.3334 50.752 19.0807 51.5 20 51.5C20.9193 51.5 21.6666 50.7519 21.6666 49.8334C21.6666 48.9147 20.9193 48.1666 20 48.1666ZM12.8334 44.5C12.8334 45.6967 11.8633 46.6666 10.6666 46.6666C9.47009 46.6666 8.5 45.6967 8.5 44.5C8.5 43.3033 9.47009 42.3334 10.6666 42.3334C11.8633 42.3334 12.8334 43.3033 12.8334 44.5Z" fill="white"/>
<path d="M10.6666 47.1666C9.19603 47.1666 8 45.9707 8 44.5C8 43.0293 9.19603 41.8334 10.6666 41.8334C12.1373 41.8334 13.3334 43.0293 13.3334 44.5C13.3334 45.9707 12.1373 47.1666 10.6666 47.1666ZM10.6666 42.8334C9.74731 42.8334 9 43.5813 9 44.5C9 45.4187 9.74731 46.1666 10.6666 46.1666C11.5861 46.1666 12.3334 45.4187 12.3334 44.5C12.3334 43.5813 11.5861 42.8334 10.6666 42.8334Z" fill="white"/>
<path d="M12.2406 44.1801C12.0085 44.1801 11.7832 44.0593 11.6605 43.8434C11.4785 43.5241 11.5905 43.1167 11.9099 42.934L18.0958 39.4074C18.4151 39.224 18.8225 39.3361 19.0052 39.6566C19.1872 39.9759 19.0752 40.3833 18.7558 40.566L12.5698 44.0927C12.4696 44.15 12.3561 44.1801 12.2406 44.1801ZM18.4259 49.6801C18.3138 49.6801 18.2005 49.652 18.0965 49.5927L11.9105 46.066C11.5912 45.884 11.4793 45.4767 11.6613 45.1566C11.8425 44.8367 12.2505 44.724 12.5706 44.9074L18.7566 48.434C19.0759 48.616 19.1879 49.0234 19.0059 49.3434C18.8826 49.5593 18.6572 49.6801 18.4259 49.6801H18.4259Z" fill="white"/>
</g>
<defs>
<clipPath id="clip0_1370_45455">
<rect width="16" height="16" fill="white" transform="translate(8 36.5)"/>
</clipPath>
</defs>
</svg>
