<svg width="150" height="178" viewBox="0 0 150 178" fill="none" xmlns="http://www.w3.org/2000/svg">
<path d="M75 167C116.421 167 150 133.421 150 91.9999C150 50.5785 116.421 16.9999 75 16.9999C33.5786 16.9999 0 50.5785 0 91.9999C0 133.421 33.5786 167 75 167Z" fill="#E1EBF0"/>
<g filter="url(#filter0_d_1236_16377)">
<path d="M118 59.9999H32C29.2386 59.9999 27 62.2385 27 64.9999V170C27 172.761 29.2386 175 32 175H118C120.761 175 123 172.761 123 170V64.9999C123 62.2385 120.761 59.9999 118 59.9999Z" fill="white"/>
</g>
<path d="M72 76H46C44.3431 76 43 77.3431 43 79C43 80.6569 44.3431 82 46 82H72C73.6569 82 75 80.6569 75 79C75 77.3431 73.6569 76 72 76Z" fill="#B4DAFF"/>
<path d="M90 89H46C44.3431 89 43 90.3431 43 92C43 93.6569 44.3431 95 46 95H90C91.6569 95 93 93.6569 93 92C93 90.3431 91.6569 89 90 89Z" fill="#DFEAFB"/>
<path d="M72 103H46C44.3431 103 43 104.343 43 106C43 107.657 44.3431 109 46 109H72C73.6569 109 75 107.657 75 106C75 104.343 73.6569 103 72 103Z" fill="#B4DAFF"/>
<path d="M90 116H46C44.3431 116 43 117.343 43 119C43 120.657 44.3431 122 46 122H90C91.6569 122 93 120.657 93 119C93 117.343 91.6569 116 90 116Z" fill="#DFEAFB"/>
<path d="M72 130H46C44.3431 130 43 131.343 43 133C43 134.657 44.3431 136 46 136H72C73.6569 136 75 134.657 75 133C75 131.343 73.6569 130 72 130Z" fill="#B4DAFF"/>
<path d="M90 143H46C44.3431 143 43 144.343 43 146C43 147.657 44.3431 149 46 149H90C91.6569 149 93 147.657 93 146C93 144.343 91.6569 143 90 143Z" fill="#DFEAFB"/>
<g filter="url(#filter1_d_1236_16377)">
<path d="M118 8.99988H32C29.2386 8.99988 27 11.2385 27 13.9999V43.9999C27 46.7613 29.2386 48.9999 32 48.9999H118C120.761 48.9999 123 46.7613 123 43.9999V13.9999C123 11.2385 120.761 8.99988 118 8.99988Z" fill="#1581BF"/>
<path d="M40.1406 38H51.8594C52.8287 38 53.6172 37.2115 53.6172 36.2422V23.8594H49.5156C48.5463 23.8594 47.7578 23.0709 47.7578 22.1016V18H40.1406C39.1713 18 38.3828 18.7885 38.3828 19.7578V36.2422C38.3828 37.2115 39.1713 38 40.1406 38ZM42.4844 26.2422H49.5156C49.8395 26.2422 50.1016 26.5043 50.1016 26.8281C50.1016 27.152 49.8395 27.4141 49.5156 27.4141H42.4844C42.1605 27.4141 41.8984 27.152 41.8984 26.8281C41.8984 26.5043 42.1605 26.2422 42.4844 26.2422ZM42.4844 28.5859H49.5156C49.8395 28.5859 50.1016 28.848 50.1016 29.1719C50.1016 29.4957 49.8395 29.7578 49.5156 29.7578H42.4844C42.1605 29.7578 41.8984 29.4957 41.8984 29.1719C41.8984 28.848 42.1605 28.5859 42.4844 28.5859ZM42.4844 30.9297H49.5156C49.8395 30.9297 50.1016 31.1918 50.1016 31.5156C50.1016 31.8395 49.8395 32.1016 49.5156 32.1016H42.4844C42.1605 32.1016 41.8984 31.8395 41.8984 31.5156C41.8984 31.1918 42.1605 30.9297 42.4844 30.9297ZM42.4844 33.2734H47.1719C47.4957 33.2734 47.7578 33.5355 47.7578 33.8594C47.7578 34.1832 47.4957 34.4453 47.1719 34.4453H42.4844C42.1605 34.4453 41.8984 34.1832 41.8984 33.8594C41.8984 33.5355 42.1605 33.2734 42.4844 33.2734Z" fill="white"/>
<path d="M49.5156 22.6874H53.2739L48.9297 18.3433V22.1015C48.9297 22.4248 49.1923 22.6874 49.5156 22.6874Z" fill="white"/>
</g>
<path d="M90 19H64C62.3431 19 61 20.3431 61 22C61 23.6569 62.3431 25 64 25H90C91.6569 25 93 23.6569 93 22C93 20.3431 91.6569 19 90 19Z" fill="#B4DAFF"/>
<path d="M108 32H64C62.3431 32 61 33.3431 61 35C61 36.6569 62.3431 38 64 38H108C109.657 38 111 36.6569 111 35C111 33.3431 109.657 32 108 32Z" fill="white"/>
<defs>
<filter id="filter0_d_1236_16377" x="21" y="50.9999" width="108" height="127" filterUnits="userSpaceOnUse" color-interpolation-filters="sRGB">
<feFlood flood-opacity="0" result="BackgroundImageFix"/>
<feColorMatrix in="SourceAlpha" type="matrix" values="0 0 0 0 0 0 0 0 0 0 0 0 0 0 0 0 0 0 127 0" result="hardAlpha"/>
<feOffset dy="-3"/>
<feGaussianBlur stdDeviation="3"/>
<feColorMatrix type="matrix" values="0 0 0 0 0.788235 0 0 0 0 0.803922 0 0 0 0 0.85098 0 0 0 0.349 0"/>
<feBlend mode="normal" in2="BackgroundImageFix" result="effect1_dropShadow_1236_16377"/>
<feBlend mode="normal" in="SourceGraphic" in2="effect1_dropShadow_1236_16377" result="shape"/>
</filter>
<filter id="filter1_d_1236_16377" x="21" y="-0.00012207" width="108" height="52" filterUnits="userSpaceOnUse" color-interpolation-filters="sRGB">
<feFlood flood-opacity="0" result="BackgroundImageFix"/>
<feColorMatrix in="SourceAlpha" type="matrix" values="0 0 0 0 0 0 0 0 0 0 0 0 0 0 0 0 0 0 127 0" result="hardAlpha"/>
<feOffset dy="-3"/>
<feGaussianBlur stdDeviation="3"/>
<feColorMatrix type="matrix" values="0 0 0 0 0.788235 0 0 0 0 0.803922 0 0 0 0 0.85098 0 0 0 0.349 0"/>
<feBlend mode="normal" in2="BackgroundImageFix" result="effect1_dropShadow_1236_16377"/>
<feBlend mode="normal" in="SourceGraphic" in2="effect1_dropShadow_1236_16377" result="shape"/>
</filter>
</defs>
</svg>
