<svg width="61" height="60" viewBox="0 0 61 60" fill="none" xmlns="http://www.w3.org/2000/svg">
<path opacity="0.2" fill-rule="evenodd" clip-rule="evenodd" d="M19.1412 0.12603C18.0583 0.265732 17.0026 0.799926 16.1663 1.63134C15.2953 2.49732 14.8042 3.48719 14.6466 4.69434C14.5816 5.19185 14.531 9.70344 14.529 15.1915L14.5254 24.8163L16.8536 24.8824C19.4402 24.9559 20.4687 25.1251 22.561 25.8212C24.0978 26.3325 25.8058 27.1741 27.2027 28.1087C28.3607 28.8832 30.0044 30.3016 30.858 31.2628L31.4044 31.8781L41.2663 31.879C50.7283 31.8797 51.1416 31.8887 51.465 32.1006C52.0154 32.4614 52.2463 32.9151 52.2463 33.6361C52.2463 34.3571 52.0154 34.8108 51.465 35.1717C51.1426 35.383 50.7522 35.3926 42.4341 35.3933C37.6526 35.3938 33.7403 35.4222 33.7403 35.4566C33.7403 35.491 33.8788 35.7908 34.0481 36.123C34.6968 37.3956 35.3261 39.6474 35.6871 41.9866L35.755 42.4261L43.4414 42.4269C50.7727 42.4276 51.1435 42.4378 51.465 42.6485C52.0154 43.0094 52.2463 43.4631 52.2463 44.1841C52.2463 44.9051 52.0154 45.3588 51.465 45.7196C51.1435 45.9303 50.7727 45.9405 43.4414 45.9412L35.755 45.9421L35.6883 46.3816C35.5137 47.5328 35.1109 49.3505 34.8406 50.2076C34.409 51.5757 33.38 53.6689 32.5036 54.9616C31.3362 56.6831 29.9586 58.1533 28.1371 59.6211L27.6693 59.9981L41.2848 59.9985C49.3622 59.9986 55.2572 59.9526 55.7779 59.8855C56.992 59.7288 57.9877 59.2405 58.8587 58.3746C59.7297 57.5086 60.2208 56.5187 60.3785 55.3116C60.4477 54.7815 60.4937 46.7453 60.496 34.8374L60.4996 15.2358L53.3972 15.235C46.6382 15.2343 46.2785 15.2236 45.9578 15.0134C45.7724 14.892 45.5208 14.6418 45.3986 14.4575C45.1872 14.1386 45.1764 13.781 45.1757 7.06118L45.1749 -7.62939e-05L32.532 0.014808C25.5783 0.023012 19.5525 0.0730561 19.1412 0.12603ZM48.7114 6.44589V11.7199H54.0451H59.3788L54.075 6.44589C51.158 3.5452 48.7578 1.17192 48.7413 1.17192C48.7248 1.17192 48.7114 3.5452 48.7114 6.44589ZM51.465 21.5526C52.0154 21.9135 52.2463 22.3672 52.2463 23.0882C52.2463 23.8092 52.0154 24.2629 51.465 24.6237C51.1398 24.8369 50.6525 24.8447 37.5125 24.8447C24.3725 24.8447 23.8853 24.8369 23.56 24.6237C23.0096 24.2629 22.7787 23.8092 22.7787 23.0882C22.7787 22.3672 23.0096 21.9135 23.56 21.5526C23.8853 21.3395 24.3725 21.3317 37.5125 21.3317C50.6525 21.3317 51.1398 21.3395 51.465 21.5526Z" fill="#1E88E5"/>
<path fill-rule="evenodd" clip-rule="evenodd" d="M16.3325 59.9988C25.0765 59.9988 32.165 52.9101 32.165 44.1658C32.165 35.4215 25.0765 28.3329 16.3325 28.3329C7.58844 28.3329 0.5 35.4215 0.5 44.1658C0.5 52.9101 7.58844 59.9988 16.3325 59.9988ZM9.66617 41.6659C8.28554 41.6659 7.16631 42.7852 7.16631 44.1658C7.16631 45.5465 8.28554 46.6658 9.66617 46.6658H22.9988C24.3794 46.6658 25.4987 45.5465 25.4987 44.1658C25.4987 42.7852 24.3794 41.6659 22.9988 41.6659H9.66617Z" fill="#1E88E5"/>
</svg>
