<svg width="48" height="48" viewBox="0 0 48 48" fill="none" xmlns="http://www.w3.org/2000/svg">
<path d="M0.5 8C0.5 3.85787 3.85786 0.5 8 0.5H40C44.1421 0.5 47.5 3.85786 47.5 8V40C47.5 44.1421 44.1421 47.5 40 47.5H8C3.85787 47.5 0.5 44.1421 0.5 40V8Z" fill="white"/>
<path d="M0.5 8C0.5 3.85787 3.85786 0.5 8 0.5H40C44.1421 0.5 47.5 3.85786 47.5 8V40C47.5 44.1421 44.1421 47.5 40 47.5H8C3.85787 47.5 0.5 44.1421 0.5 40V8Z" stroke="#F5F7FA"/>
<path d="M26.857 29.082C28.7202 28.8614 30.5509 28.4217 32.311 27.772C30.8204 26.1208 29.9967 23.9745 30 21.75V21C30 19.4087 29.3678 17.8826 28.2426 16.7574C27.1174 15.6321 25.5913 15 24 15C22.4087 15 20.8826 15.6321 19.7573 16.7574C18.6321 17.8826 18 19.4087 18 21V21.75C18.003 23.9746 17.179 26.121 15.688 27.772C17.421 28.412 19.248 28.857 21.143 29.082M26.857 29.082C24.959 29.3071 23.041 29.3071 21.143 29.082M26.857 29.082C27.0011 29.5319 27.0369 30.0094 26.9616 30.4757C26.8862 30.942 26.7018 31.384 26.4234 31.7656C26.1449 32.1472 25.7803 32.4576 25.3592 32.6716C24.9381 32.8856 24.4724 32.9972 24 32.9972C23.5276 32.9972 23.0619 32.8856 22.6408 32.6716C22.2197 32.4576 21.8551 32.1472 21.5766 31.7656C21.2982 31.384 21.1138 30.942 21.0384 30.4757C20.9631 30.0094 20.9989 29.5319 21.143 29.082" stroke="#1E88E5" stroke-width="1.5" stroke-linecap="round" stroke-linejoin="round"/>
</svg>
