<svg width="150" height="179" viewBox="0 0 150 179" fill="none" xmlns="http://www.w3.org/2000/svg">
<path d="M75 167.5C116.421 167.5 150 133.921 150 92.5C150 51.0786 116.421 17.5 75 17.5C33.5786 17.5 0 51.0786 0 92.5C0 133.921 33.5786 167.5 75 167.5Z" fill="#E1EBF0"/>
<g filter="url(#filter0_d_2984_35444)">
<path d="M118 60.5H32C29.2386 60.5 27 62.7386 27 65.5V170.5C27 173.261 29.2386 175.5 32 175.5H118C120.761 175.5 123 173.261 123 170.5V65.5C123 62.7386 120.761 60.5 118 60.5Z" fill="white"/>
</g>
<path d="M72 76.5H46C44.3431 76.5 43 77.8431 43 79.5C43 81.1569 44.3431 82.5 46 82.5H72C73.6569 82.5 75 81.1569 75 79.5C75 77.8431 73.6569 76.5 72 76.5Z" fill="#B4DAFF"/>
<path d="M90 89.5H46C44.3431 89.5 43 90.8431 43 92.5C43 94.1569 44.3431 95.5 46 95.5H90C91.6569 95.5 93 94.1569 93 92.5C93 90.8431 91.6569 89.5 90 89.5Z" fill="#DFEAFB"/>
<path d="M72 103.5H46C44.3431 103.5 43 104.843 43 106.5C43 108.157 44.3431 109.5 46 109.5H72C73.6569 109.5 75 108.157 75 106.5C75 104.843 73.6569 103.5 72 103.5Z" fill="#B4DAFF"/>
<path d="M90 116.5H46C44.3431 116.5 43 117.843 43 119.5C43 121.157 44.3431 122.5 46 122.5H90C91.6569 122.5 93 121.157 93 119.5C93 117.843 91.6569 116.5 90 116.5Z" fill="#DFEAFB"/>
<path d="M72 130.5H46C44.3431 130.5 43 131.843 43 133.5C43 135.157 44.3431 136.5 46 136.5H72C73.6569 136.5 75 135.157 75 133.5C75 131.843 73.6569 130.5 72 130.5Z" fill="#B4DAFF"/>
<path d="M90 143.5H46C44.3431 143.5 43 144.843 43 146.5C43 148.157 44.3431 149.5 46 149.5H90C91.6569 149.5 93 148.157 93 146.5C93 144.843 91.6569 143.5 90 143.5Z" fill="#DFEAFB"/>
<g filter="url(#filter1_d_2984_35444)">
<path d="M118 9.5H32C29.2386 9.5 27 11.7386 27 14.5V44.5C27 47.2614 29.2386 49.5 32 49.5H118C120.761 49.5 123 47.2614 123 44.5V14.5C123 11.7386 120.761 9.5 118 9.5Z" fill="#1581BF"/>
<g clip-path="url(#clip0_2984_35444)">
<path d="M40.1406 38.5H51.8594C52.8287 38.5 53.6172 37.7115 53.6172 36.7422V24.3594H49.5156C48.5463 24.3594 47.7578 23.5709 47.7578 22.6016V18.5H40.1406C39.1713 18.5 38.3828 19.2885 38.3828 20.2578V36.7422C38.3828 37.7115 39.1713 38.5 40.1406 38.5ZM42.4844 26.7422H49.5156C49.8395 26.7422 50.1016 27.0043 50.1016 27.3281C50.1016 27.652 49.8395 27.9141 49.5156 27.9141H42.4844C42.1605 27.9141 41.8984 27.652 41.8984 27.3281C41.8984 27.0043 42.1605 26.7422 42.4844 26.7422ZM42.4844 29.0859H49.5156C49.8395 29.0859 50.1016 29.348 50.1016 29.6719C50.1016 29.9957 49.8395 30.2578 49.5156 30.2578H42.4844C42.1605 30.2578 41.8984 29.9957 41.8984 29.6719C41.8984 29.348 42.1605 29.0859 42.4844 29.0859ZM42.4844 31.4297H49.5156C49.8395 31.4297 50.1016 31.6918 50.1016 32.0156C50.1016 32.3395 49.8395 32.6016 49.5156 32.6016H42.4844C42.1605 32.6016 41.8984 32.3395 41.8984 32.0156C41.8984 31.6918 42.1605 31.4297 42.4844 31.4297ZM42.4844 33.7734H47.1719C47.4957 33.7734 47.7578 34.0355 47.7578 34.3594C47.7578 34.6832 47.4957 34.9453 47.1719 34.9453H42.4844C42.1605 34.9453 41.8984 34.6832 41.8984 34.3594C41.8984 34.0355 42.1605 33.7734 42.4844 33.7734Z" fill="white"/>
<path d="M49.5156 23.1874H53.2739L48.9297 18.8433V22.6015C48.9297 22.9248 49.1923 23.1874 49.5156 23.1874Z" fill="white"/>
</g>
</g>
<path d="M90 19.5H64C62.3431 19.5 61 20.8431 61 22.5C61 24.1569 62.3431 25.5 64 25.5H90C91.6569 25.5 93 24.1569 93 22.5C93 20.8431 91.6569 19.5 90 19.5Z" fill="#B4DAFF"/>
<path d="M108 32.5H64C62.3431 32.5 61 33.8431 61 35.5C61 37.1569 62.3431 38.5 64 38.5H108C109.657 38.5 111 37.1569 111 35.5C111 33.8431 109.657 32.5 108 32.5Z" fill="white"/>
<defs>
<filter id="filter0_d_2984_35444" x="21" y="51.5" width="108" height="127" filterUnits="userSpaceOnUse" color-interpolation-filters="sRGB">
<feFlood flood-opacity="0" result="BackgroundImageFix"/>
<feColorMatrix in="SourceAlpha" type="matrix" values="0 0 0 0 0 0 0 0 0 0 0 0 0 0 0 0 0 0 127 0" result="hardAlpha"/>
<feOffset dy="-3"/>
<feGaussianBlur stdDeviation="3"/>
<feColorMatrix type="matrix" values="0 0 0 0 0.788235 0 0 0 0 0.803922 0 0 0 0 0.85098 0 0 0 0.349 0"/>
<feBlend mode="normal" in2="BackgroundImageFix" result="effect1_dropShadow_2984_35444"/>
<feBlend mode="normal" in="SourceGraphic" in2="effect1_dropShadow_2984_35444" result="shape"/>
</filter>
<filter id="filter1_d_2984_35444" x="21" y="0.5" width="108" height="52" filterUnits="userSpaceOnUse" color-interpolation-filters="sRGB">
<feFlood flood-opacity="0" result="BackgroundImageFix"/>
<feColorMatrix in="SourceAlpha" type="matrix" values="0 0 0 0 0 0 0 0 0 0 0 0 0 0 0 0 0 0 127 0" result="hardAlpha"/>
<feOffset dy="-3"/>
<feGaussianBlur stdDeviation="3"/>
<feColorMatrix type="matrix" values="0 0 0 0 0.788235 0 0 0 0 0.803922 0 0 0 0 0.85098 0 0 0 0.349 0"/>
<feBlend mode="normal" in2="BackgroundImageFix" result="effect1_dropShadow_2984_35444"/>
<feBlend mode="normal" in="SourceGraphic" in2="effect1_dropShadow_2984_35444" result="shape"/>
</filter>
<clipPath id="clip0_2984_35444">
<rect width="20" height="20" fill="white" transform="translate(36 18.5)"/>
</clipPath>
</defs>
</svg>
