<svg width="16" height="17" viewBox="0 0 16 17" fill="none" xmlns="http://www.w3.org/2000/svg">
<path d="M5.00408 5.94273C5.00408 7.59269 6.34686 8.93546 7.99682 8.93546C9.64677 8.93546 10.9895 7.59269 10.9895 5.94273C10.9895 4.29278 9.64677 2.95 7.99682 2.95C6.34686 2.95 5.00408 4.29278 5.00408 5.94273ZM5.87175 5.94273C5.87175 4.77278 6.82687 3.81767 7.99682 3.81767C9.16677 3.81767 10.1219 4.77278 10.1219 5.94273C10.1219 7.11268 9.16677 8.06779 7.99682 8.06779C6.82687 8.06779 5.87175 7.11268 5.87175 5.94273ZM11.9592 13.6194C11.9592 13.8569 12.1556 14.0533 12.393 14.0533C12.6304 14.0533 12.8268 13.8569 12.8268 13.6194C12.8268 11.3982 10.651 9.60313 7.99682 9.60313C5.34266 9.60313 3.1668 11.3982 3.1668 13.6194C3.1668 13.8569 3.36319 14.0533 3.60063 14.0533C3.83808 14.0533 4.03447 13.8569 4.03447 13.6194C4.03447 11.8914 5.80234 10.4708 7.99682 10.4708C10.1913 10.4708 11.9592 11.8914 11.9592 13.6194Z" fill="#868FA8" stroke="#868FA8" stroke-width="0.1"/>
</svg>
