<svg width="195" height="198" viewBox="0 0 195 198" fill="none" xmlns="http://www.w3.org/2000/svg">
<path d="M97.5 195C151.348 195 195 151.348 195 97.5C195 43.6522 151.348 0 97.5 0C43.6522 0 0 43.6522 0 97.5C0 151.348 43.6522 195 97.5 195Z" fill="#1581BF" fill-opacity="0.09"/>
<g filter="url(#filter0_d_1236_31446)">
<mask id="mask0_1236_31446" style="mask-type:alpha" maskUnits="userSpaceOnUse" x="0" y="0" width="195" height="195">
<path d="M97.5 195C151.348 195 195 151.348 195 97.5C195 43.6522 151.348 0 97.5 0C43.6522 0 0 43.6522 0 97.5C0 151.348 43.6522 195 97.5 195Z" fill="#E6F4F4"/>
</mask>
<g mask="url(#mask0_1236_31446)">
<path d="M153.4 55.8999H41.6001C38.0102 55.8999 35.1001 58.8101 35.1001 62.3999V198.9C35.1001 202.49 38.0102 205.4 41.6001 205.4H153.4C156.99 205.4 159.9 202.49 159.9 198.9V62.3999C159.9 58.8101 156.99 55.8999 153.4 55.8999Z" fill="white"/>
</g>
</g>
<path d="M85.8001 68.8999H52.0001C49.8462 68.8999 48.1001 70.646 48.1001 72.7999C48.1001 74.9538 49.8462 76.6999 52.0001 76.6999H85.8001C87.954 76.6999 89.7001 74.9538 89.7001 72.7999C89.7001 70.646 87.954 68.8999 85.8001 68.8999Z" fill="#E1EBFA"/>
<path d="M85.8001 123.5H52.0001C49.8462 123.5 48.1001 125.246 48.1001 127.4C48.1001 129.554 49.8462 131.3 52.0001 131.3H85.8001C87.954 131.3 89.7001 129.554 89.7001 127.4C89.7001 125.246 87.954 123.5 85.8001 123.5Z" fill="#E1EBFA"/>
<path d="M141.703 88H54.2973C51.3717 88 49 90.3878 49 93.3333V106.667C49 109.612 51.3717 112 54.2973 112H141.703C144.628 112 147 109.612 147 106.667V93.3333C147 90.3878 144.628 88 141.703 88Z" stroke="#1581BF" stroke-width="2"/>
<path d="M56.45 102.665V100.815H54.6V99.975H56.45V98.135H57.29V99.975H59.135V100.815H57.29V102.665H56.45ZM62.9424 104.15C62.4524 104.15 62.0191 104.043 61.6424 103.83C61.2658 103.613 60.9691 103.317 60.7524 102.94C60.5391 102.563 60.4324 102.13 60.4324 101.64V99.16C60.4324 98.67 60.5391 98.2367 60.7524 97.86C60.9691 97.4833 61.2658 97.1883 61.6424 96.975C62.0191 96.7583 62.4524 96.65 62.9424 96.65C63.4324 96.65 63.8658 96.7583 64.2424 96.975C64.6191 97.1883 64.9141 97.4833 65.1274 97.86C65.3441 98.2367 65.4524 98.67 65.4524 99.16V101.64C65.4524 102.13 65.3441 102.563 65.1274 102.94C64.9141 103.317 64.6191 103.613 64.2424 103.83C63.8658 104.043 63.4324 104.15 62.9424 104.15ZM62.9424 103.15C63.2091 103.15 63.4508 103.087 63.6674 102.96C63.8874 102.83 64.0624 102.657 64.1924 102.44C64.3224 102.22 64.3874 101.975 64.3874 101.705V99.085C64.3874 98.8183 64.3224 98.5767 64.1924 98.36C64.0624 98.14 63.8874 97.9667 63.6674 97.84C63.4508 97.71 63.2091 97.645 62.9424 97.645C62.6758 97.645 62.4324 97.71 62.2124 97.84C61.9958 97.9667 61.8224 98.14 61.6924 98.36C61.5624 98.5767 61.4974 98.8183 61.4974 99.085V101.705C61.4974 101.975 61.5624 102.22 61.6924 102.44C61.8224 102.657 61.9958 102.83 62.2124 102.96C62.4324 103.087 62.6758 103.15 62.9424 103.15ZM69.3584 104.15C68.8684 104.15 68.4351 104.043 68.0584 103.83C67.6818 103.613 67.3851 103.317 67.1684 102.94C66.9551 102.563 66.8484 102.13 66.8484 101.64V99.16C66.8484 98.67 66.9551 98.2367 67.1684 97.86C67.3851 97.4833 67.6818 97.1883 68.0584 96.975C68.4351 96.7583 68.8684 96.65 69.3584 96.65C69.8484 96.65 70.2818 96.7583 70.6584 96.975C71.0351 97.1883 71.3301 97.4833 71.5434 97.86C71.7601 98.2367 71.8684 98.67 71.8684 99.16V101.64C71.8684 102.13 71.7601 102.563 71.5434 102.94C71.3301 103.317 71.0351 103.613 70.6584 103.83C70.2818 104.043 69.8484 104.15 69.3584 104.15ZM69.3584 103.15C69.6251 103.15 69.8668 103.087 70.0834 102.96C70.3034 102.83 70.4784 102.657 70.6084 102.44C70.7384 102.22 70.8034 101.975 70.8034 101.705V99.085C70.8034 98.8183 70.7384 98.5767 70.6084 98.36C70.4784 98.14 70.3034 97.9667 70.0834 97.84C69.8668 97.71 69.6251 97.645 69.3584 97.645C69.0918 97.645 68.8484 97.71 68.6284 97.84C68.4118 97.9667 68.2384 98.14 68.1084 98.36C67.9784 98.5767 67.9134 98.8183 67.9134 99.085V101.705C67.9134 101.975 67.9784 102.22 68.1084 102.44C68.2384 102.657 68.4118 102.83 68.6284 102.96C68.8484 103.087 69.0918 103.15 69.3584 103.15ZM77.7764 104.15C77.2864 104.15 76.8531 104.043 76.4764 103.83C76.0997 103.613 75.8031 103.317 75.5864 102.94C75.3731 102.563 75.2664 102.13 75.2664 101.64V99.16C75.2664 98.67 75.3731 98.2367 75.5864 97.86C75.8031 97.4833 76.0997 97.1883 76.4764 96.975C76.8531 96.7583 77.2864 96.65 77.7764 96.65C78.2664 96.65 78.6997 96.7583 79.0764 96.975C79.4531 97.1883 79.7481 97.4833 79.9614 97.86C80.1781 98.2367 80.2864 98.67 80.2864 99.16V101.64C80.2864 102.13 80.1781 102.563 79.9614 102.94C79.7481 103.317 79.4531 103.613 79.0764 103.83C78.6997 104.043 78.2664 104.15 77.7764 104.15ZM77.7764 103.15C78.0431 103.15 78.2847 103.087 78.5014 102.96C78.7214 102.83 78.8964 102.657 79.0264 102.44C79.1564 102.22 79.2214 101.975 79.2214 101.705V99.085C79.2214 98.8183 79.1564 98.5767 79.0264 98.36C78.8964 98.14 78.7214 97.9667 78.5014 97.84C78.2847 97.71 78.0431 97.645 77.7764 97.645C77.5097 97.645 77.2664 97.71 77.0464 97.84C76.8297 97.9667 76.6564 98.14 76.5264 98.36C76.3964 98.5767 76.3314 98.8183 76.3314 99.085V101.705C76.3314 101.975 76.3964 102.22 76.5264 102.44C76.6564 102.657 76.8297 102.83 77.0464 102.96C77.2664 103.087 77.5097 103.15 77.7764 103.15ZM84.1924 104.15C83.7024 104.15 83.2691 104.043 82.8924 103.83C82.5158 103.613 82.2191 103.317 82.0024 102.94C81.7891 102.563 81.6824 102.13 81.6824 101.64V99.16C81.6824 98.67 81.7891 98.2367 82.0024 97.86C82.2191 97.4833 82.5158 97.1883 82.8924 96.975C83.2691 96.7583 83.7024 96.65 84.1924 96.65C84.6824 96.65 85.1158 96.7583 85.4924 96.975C85.8691 97.1883 86.1641 97.4833 86.3774 97.86C86.5941 98.2367 86.7024 98.67 86.7024 99.16V101.64C86.7024 102.13 86.5941 102.563 86.3774 102.94C86.1641 103.317 85.8691 103.613 85.4924 103.83C85.1158 104.043 84.6824 104.15 84.1924 104.15ZM84.1924 103.15C84.4591 103.15 84.7008 103.087 84.9174 102.96C85.1374 102.83 85.3124 102.657 85.4424 102.44C85.5724 102.22 85.6374 101.975 85.6374 101.705V99.085C85.6374 98.8183 85.5724 98.5767 85.4424 98.36C85.3124 98.14 85.1374 97.9667 84.9174 97.84C84.7008 97.71 84.4591 97.645 84.1924 97.645C83.9258 97.645 83.6824 97.71 83.4624 97.84C83.2458 97.9667 83.0724 98.14 82.9424 98.36C82.8124 98.5767 82.7474 98.8183 82.7474 99.085V101.705C82.7474 101.975 82.8124 102.22 82.9424 102.44C83.0724 102.657 83.2458 102.83 83.4624 102.96C83.6824 103.087 83.9258 103.15 84.1924 103.15ZM90.6084 104.15C90.1184 104.15 89.6851 104.043 89.3084 103.83C88.9318 103.613 88.6351 103.317 88.4184 102.94C88.2051 102.563 88.0984 102.13 88.0984 101.64V99.16C88.0984 98.67 88.2051 98.2367 88.4184 97.86C88.6351 97.4833 88.9318 97.1883 89.3084 96.975C89.6851 96.7583 90.1184 96.65 90.6084 96.65C91.0984 96.65 91.5318 96.7583 91.9084 96.975C92.2851 97.1883 92.5801 97.4833 92.7934 97.86C93.0101 98.2367 93.1184 98.67 93.1184 99.16V101.64C93.1184 102.13 93.0101 102.563 92.7934 102.94C92.5801 103.317 92.2851 103.613 91.9084 103.83C91.5318 104.043 91.0984 104.15 90.6084 104.15ZM90.6084 103.15C90.8751 103.15 91.1168 103.087 91.3334 102.96C91.5534 102.83 91.7284 102.657 91.8584 102.44C91.9884 102.22 92.0534 101.975 92.0534 101.705V99.085C92.0534 98.8183 91.9884 98.5767 91.8584 98.36C91.7284 98.14 91.5534 97.9667 91.3334 97.84C91.1168 97.71 90.8751 97.645 90.6084 97.645C90.3418 97.645 90.0984 97.71 89.8784 97.84C89.6618 97.9667 89.4884 98.14 89.3584 98.36C89.2284 98.5767 89.1634 98.8183 89.1634 99.085V101.705C89.1634 101.975 89.2284 102.22 89.3584 102.44C89.4884 102.657 89.6618 102.83 89.8784 102.96C90.0984 103.087 90.3418 103.15 90.6084 103.15ZM99.0264 104.15C98.5364 104.15 98.1031 104.043 97.7264 103.83C97.3497 103.613 97.0531 103.317 96.8364 102.94C96.6231 102.563 96.5164 102.13 96.5164 101.64V99.16C96.5164 98.67 96.6231 98.2367 96.8364 97.86C97.0531 97.4833 97.3497 97.1883 97.7264 96.975C98.1031 96.7583 98.5364 96.65 99.0264 96.65C99.5164 96.65 99.9497 96.7583 100.326 96.975C100.703 97.1883 100.998 97.4833 101.211 97.86C101.428 98.2367 101.536 98.67 101.536 99.16V101.64C101.536 102.13 101.428 102.563 101.211 102.94C100.998 103.317 100.703 103.613 100.326 103.83C99.9497 104.043 99.5164 104.15 99.0264 104.15ZM99.0264 103.15C99.2931 103.15 99.5347 103.087 99.7514 102.96C99.9714 102.83 100.146 102.657 100.276 102.44C100.406 102.22 100.471 101.975 100.471 101.705V99.085C100.471 98.8183 100.406 98.5767 100.276 98.36C100.146 98.14 99.9714 97.9667 99.7514 97.84C99.5347 97.71 99.2931 97.645 99.0264 97.645C98.7597 97.645 98.5164 97.71 98.2964 97.84C98.0797 97.9667 97.9064 98.14 97.7764 98.36C97.6464 98.5767 97.5814 98.8183 97.5814 99.085V101.705C97.5814 101.975 97.6464 102.22 97.7764 102.44C97.9064 102.657 98.0797 102.83 98.2964 102.96C98.5164 103.087 98.7597 103.15 99.0264 103.15ZM105.442 104.15C104.952 104.15 104.519 104.043 104.142 103.83C103.766 103.613 103.469 103.317 103.252 102.94C103.039 102.563 102.932 102.13 102.932 101.64V99.16C102.932 98.67 103.039 98.2367 103.252 97.86C103.469 97.4833 103.766 97.1883 104.142 96.975C104.519 96.7583 104.952 96.65 105.442 96.65C105.932 96.65 106.366 96.7583 106.742 96.975C107.119 97.1883 107.414 97.4833 107.627 97.86C107.844 98.2367 107.952 98.67 107.952 99.16V101.64C107.952 102.13 107.844 102.563 107.627 102.94C107.414 103.317 107.119 103.613 106.742 103.83C106.366 104.043 105.932 104.15 105.442 104.15ZM105.442 103.15C105.709 103.15 105.951 103.087 106.167 102.96C106.387 102.83 106.562 102.657 106.692 102.44C106.822 102.22 106.887 101.975 106.887 101.705V99.085C106.887 98.8183 106.822 98.5767 106.692 98.36C106.562 98.14 106.387 97.9667 106.167 97.84C105.951 97.71 105.709 97.645 105.442 97.645C105.176 97.645 104.932 97.71 104.712 97.84C104.496 97.9667 104.322 98.14 104.192 98.36C104.062 98.5767 103.997 98.8183 103.997 99.085V101.705C103.997 101.975 104.062 102.22 104.192 102.44C104.322 102.657 104.496 102.83 104.712 102.96C104.932 103.087 105.176 103.15 105.442 103.15ZM111.858 104.15C111.368 104.15 110.935 104.043 110.558 103.83C110.182 103.613 109.885 103.317 109.668 102.94C109.455 102.563 109.348 102.13 109.348 101.64V99.16C109.348 98.67 109.455 98.2367 109.668 97.86C109.885 97.4833 110.182 97.1883 110.558 96.975C110.935 96.7583 111.368 96.65 111.858 96.65C112.348 96.65 112.782 96.7583 113.158 96.975C113.535 97.1883 113.83 97.4833 114.043 97.86C114.26 98.2367 114.368 98.67 114.368 99.16V101.64C114.368 102.13 114.26 102.563 114.043 102.94C113.83 103.317 113.535 103.613 113.158 103.83C112.782 104.043 112.348 104.15 111.858 104.15ZM111.858 103.15C112.125 103.15 112.367 103.087 112.583 102.96C112.803 102.83 112.978 102.657 113.108 102.44C113.238 102.22 113.303 101.975 113.303 101.705V99.085C113.303 98.8183 113.238 98.5767 113.108 98.36C112.978 98.14 112.803 97.9667 112.583 97.84C112.367 97.71 112.125 97.645 111.858 97.645C111.592 97.645 111.348 97.71 111.128 97.84C110.912 97.9667 110.738 98.14 110.608 98.36C110.478 98.5767 110.413 98.8183 110.413 99.085V101.705C110.413 101.975 110.478 102.22 110.608 102.44C110.738 102.657 110.912 102.83 111.128 102.96C111.348 103.087 111.592 103.15 111.858 103.15ZM120.276 104.15C119.786 104.15 119.353 104.043 118.976 103.83C118.6 103.613 118.303 103.317 118.086 102.94C117.873 102.563 117.766 102.13 117.766 101.64V99.16C117.766 98.67 117.873 98.2367 118.086 97.86C118.303 97.4833 118.6 97.1883 118.976 96.975C119.353 96.7583 119.786 96.65 120.276 96.65C120.766 96.65 121.2 96.7583 121.576 96.975C121.953 97.1883 122.248 97.4833 122.461 97.86C122.678 98.2367 122.786 98.67 122.786 99.16V101.64C122.786 102.13 122.678 102.563 122.461 102.94C122.248 103.317 121.953 103.613 121.576 103.83C121.2 104.043 120.766 104.15 120.276 104.15ZM120.276 103.15C120.543 103.15 120.785 103.087 121.001 102.96C121.221 102.83 121.396 102.657 121.526 102.44C121.656 102.22 121.721 101.975 121.721 101.705V99.085C121.721 98.8183 121.656 98.5767 121.526 98.36C121.396 98.14 121.221 97.9667 121.001 97.84C120.785 97.71 120.543 97.645 120.276 97.645C120.01 97.645 119.766 97.71 119.546 97.84C119.33 97.9667 119.156 98.14 119.026 98.36C118.896 98.5767 118.831 98.8183 118.831 99.085V101.705C118.831 101.975 118.896 102.22 119.026 102.44C119.156 102.657 119.33 102.83 119.546 102.96C119.766 103.087 120.01 103.15 120.276 103.15ZM126.692 104.15C126.202 104.15 125.769 104.043 125.392 103.83C125.016 103.613 124.719 103.317 124.502 102.94C124.289 102.563 124.182 102.13 124.182 101.64V99.16C124.182 98.67 124.289 98.2367 124.502 97.86C124.719 97.4833 125.016 97.1883 125.392 96.975C125.769 96.7583 126.202 96.65 126.692 96.65C127.182 96.65 127.616 96.7583 127.992 96.975C128.369 97.1883 128.664 97.4833 128.877 97.86C129.094 98.2367 129.202 98.67 129.202 99.16V101.64C129.202 102.13 129.094 102.563 128.877 102.94C128.664 103.317 128.369 103.613 127.992 103.83C127.616 104.043 127.182 104.15 126.692 104.15ZM126.692 103.15C126.959 103.15 127.201 103.087 127.417 102.96C127.637 102.83 127.812 102.657 127.942 102.44C128.072 102.22 128.137 101.975 128.137 101.705V99.085C128.137 98.8183 128.072 98.5767 127.942 98.36C127.812 98.14 127.637 97.9667 127.417 97.84C127.201 97.71 126.959 97.645 126.692 97.645C126.426 97.645 126.182 97.71 125.962 97.84C125.746 97.9667 125.572 98.14 125.442 98.36C125.312 98.5767 125.247 98.8183 125.247 99.085V101.705C125.247 101.975 125.312 102.22 125.442 102.44C125.572 102.657 125.746 102.83 125.962 102.96C126.182 103.087 126.426 103.15 126.692 103.15ZM133.108 104.15C132.618 104.15 132.185 104.043 131.808 103.83C131.432 103.613 131.135 103.317 130.918 102.94C130.705 102.563 130.598 102.13 130.598 101.64V99.16C130.598 98.67 130.705 98.2367 130.918 97.86C131.135 97.4833 131.432 97.1883 131.808 96.975C132.185 96.7583 132.618 96.65 133.108 96.65C133.598 96.65 134.032 96.7583 134.408 96.975C134.785 97.1883 135.08 97.4833 135.293 97.86C135.51 98.2367 135.618 98.67 135.618 99.16V101.64C135.618 102.13 135.51 102.563 135.293 102.94C135.08 103.317 134.785 103.613 134.408 103.83C134.032 104.043 133.598 104.15 133.108 104.15ZM133.108 103.15C133.375 103.15 133.617 103.087 133.833 102.96C134.053 102.83 134.228 102.657 134.358 102.44C134.488 102.22 134.553 101.975 134.553 101.705V99.085C134.553 98.8183 134.488 98.5767 134.358 98.36C134.228 98.14 134.053 97.9667 133.833 97.84C133.617 97.71 133.375 97.645 133.108 97.645C132.842 97.645 132.598 97.71 132.378 97.84C132.162 97.9667 131.988 98.14 131.858 98.36C131.728 98.5767 131.663 98.8183 131.663 99.085V101.705C131.663 101.975 131.728 102.22 131.858 102.44C131.988 102.657 132.162 102.83 132.378 102.96C132.598 103.087 132.842 103.15 133.108 103.15Z" fill="#282828" fill-opacity="0.26"/>
<path d="M140.487 150H54.5132C50.916 150 48 151.865 48 154.167V160.833C48 163.135 50.916 165 54.5132 165H140.487C144.084 165 147 163.135 147 160.833V154.167C147 151.865 144.084 150 140.487 150Z" fill="#1581BF"/>
<path d="M83.2 41.6002C86.0719 41.6002 88.4 39.2721 88.4 36.4002C88.4 33.5283 86.0719 31.2002 83.2 31.2002C80.3281 31.2002 78 33.5283 78 36.4002C78 39.2721 80.3281 41.6002 83.2 41.6002Z" fill="#1581BF"/>
<path d="M111.6 41.6002C114.472 41.6002 116.8 39.2721 116.8 36.4002C116.8 33.5283 114.472 31.2002 111.6 31.2002C108.728 31.2002 106.4 33.5283 106.4 36.4002C106.4 39.2721 108.728 41.6002 111.6 41.6002Z" fill="white"/>
<path d="M111.8 114.4C115.39 114.4 118.3 111.49 118.3 107.9C118.3 104.31 115.39 101.4 111.8 101.4C108.21 101.4 105.3 104.31 105.3 107.9C105.3 111.49 108.21 114.4 111.8 114.4Z" fill="#DFEAFB"/>
<path d="M116.879 135.681C115.839 135.681 114.868 135.681 113.984 135.625C112.895 135.552 111.848 135.179 110.957 134.548C110.066 133.918 109.366 133.054 108.935 132.051L103.45 121.212C103.048 120.744 102.847 120.135 102.891 119.52C102.936 118.904 103.222 118.33 103.687 117.924C104.068 117.618 104.543 117.453 105.032 117.458C105.392 117.468 105.746 117.557 106.068 117.717C106.391 117.877 106.675 118.105 106.9 118.386L109.391 121.785L109.429 121.83V108.914C109.429 108.273 109.683 107.659 110.136 107.206C110.59 106.753 111.204 106.498 111.845 106.498C112.486 106.498 113.1 106.753 113.553 107.206C114.006 107.659 114.261 108.273 114.261 108.914V117.364C114.233 117.053 114.27 116.74 114.37 116.444C114.469 116.148 114.63 115.876 114.84 115.646C115.051 115.415 115.307 115.231 115.593 115.105C115.879 114.979 116.187 114.914 116.5 114.914C116.812 114.914 117.12 114.979 117.406 115.105C117.692 115.231 117.948 115.415 118.159 115.646C118.369 115.876 118.53 116.148 118.629 116.444C118.729 116.74 118.766 117.053 118.738 117.364V119.126C118.71 118.815 118.747 118.501 118.847 118.205C118.947 117.91 119.107 117.638 119.317 117.407C119.528 117.177 119.784 116.993 120.07 116.867C120.356 116.741 120.665 116.676 120.977 116.676C121.289 116.676 121.598 116.741 121.883 116.867C122.169 116.993 122.425 117.177 122.636 117.407C122.847 117.638 123.007 117.91 123.107 118.205C123.206 118.501 123.243 118.815 123.215 119.126V120.483C123.187 120.172 123.224 119.858 123.324 119.563C123.424 119.267 123.584 118.995 123.795 118.765C124.005 118.534 124.262 118.35 124.547 118.224C124.833 118.098 125.142 118.033 125.454 118.033C125.766 118.033 126.075 118.098 126.361 118.224C126.646 118.35 126.903 118.534 127.113 118.765C127.324 118.995 127.484 119.267 127.584 119.563C127.684 119.858 127.721 120.172 127.693 120.483V128.721C127.648 131.255 126.503 135.526 122.474 135.526C122.182 135.539 119.704 135.682 116.884 135.682L116.879 135.681Z" fill="#1581BF" stroke="white"/>
<defs>
<filter id="filter0_d_1236_31446" x="29.1001" y="46.8999" width="136.8" height="151.1" filterUnits="userSpaceOnUse" color-interpolation-filters="sRGB">
<feFlood flood-opacity="0" result="BackgroundImageFix"/>
<feColorMatrix in="SourceAlpha" type="matrix" values="0 0 0 0 0 0 0 0 0 0 0 0 0 0 0 0 0 0 127 0" result="hardAlpha"/>
<feOffset dy="-3"/>
<feGaussianBlur stdDeviation="3"/>
<feColorMatrix type="matrix" values="0 0 0 0 0.788235 0 0 0 0 0.803922 0 0 0 0 0.85098 0 0 0 0.349 0"/>
<feBlend mode="normal" in2="BackgroundImageFix" result="effect1_dropShadow_1236_31446"/>
<feBlend mode="normal" in="SourceGraphic" in2="effect1_dropShadow_1236_31446" result="shape"/>
</filter>
</defs>
</svg>
