<svg width="60" height="60" viewBox="0 0 60 60" fill="none" xmlns="http://www.w3.org/2000/svg">
<circle cx="30" cy="30" r="30" fill="#494949" fill-opacity="0.09"/>
<path d="M30 16.25L41.875 23.125V36.875L30 43.75L18.125 36.875V23.125L30 16.25ZM30 33.75C30.9946 33.75 31.9484 33.3549 32.6517 32.6517C33.3549 31.9484 33.75 30.9946 33.75 30C33.75 29.0054 33.3549 28.0516 32.6517 27.3483C31.9484 26.6451 30.9946 26.25 30 26.25C29.0054 26.25 28.0516 26.6451 27.3483 27.3483C26.6451 28.0516 26.25 29.0054 26.25 30C26.25 30.9946 26.6451 31.9484 27.3483 32.6517C28.0516 33.3549 29.0054 33.75 30 33.75Z" fill="#879FB5"/>
</svg>
