<svg width="25" height="25" viewBox="0 0 25 25" fill="none" xmlns="http://www.w3.org/2000/svg">
<g clip-path="url(#clip0_120_3139)">
<path d="M11.9937 0.500183C10.4843 0.500183 8.98974 0.797477 7.59526 1.37509C6.20078 1.9527 4.93372 2.79932 3.86643 3.86661C1.71094 6.0221 0.5 8.94557 0.5 11.9939C0.5 15.0422 1.71094 17.9657 3.86643 20.1212C4.93372 21.1885 6.20078 22.0351 7.59526 22.6127C8.98974 23.1903 10.4843 23.4876 11.9937 23.4876C15.042 23.4876 17.9655 22.2767 20.121 20.1212C22.2765 17.9657 23.4874 15.0422 23.4874 11.9939C23.4874 10.4845 23.1901 8.98992 22.6125 7.59544C22.0349 6.20096 21.1883 4.9339 20.121 3.86661C19.0537 2.79932 17.7866 1.9527 16.3922 1.37509C14.9977 0.797477 13.5031 0.500183 11.9937 0.500183ZM11.9937 7.84466C13.8482 9.04953 16.0117 9.69219 18.2233 9.69515C19.1198 9.69515 19.9818 9.59171 20.8094 9.39631C21.0508 10.2124 21.1887 11.0859 21.1887 11.9939C21.1887 17.0626 17.0624 21.1889 11.9937 21.1889C8.5456 21.1889 5.54574 19.2809 3.94811 16.4649L5.95951 14.2926V13.1433C5.95951 12.7622 6.11088 12.3968 6.38032 12.1274C6.64975 11.8579 7.01519 11.7066 7.39623 11.7066C7.77727 11.7066 8.1427 11.8579 8.41214 12.1274C8.68157 12.3968 8.83294 12.7622 8.83294 13.1433V14.2926H11.9937M16.5912 11.7066C16.2102 11.7066 15.8447 11.8579 15.5753 12.1274C15.3058 12.3968 15.1545 12.7622 15.1545 13.1433C15.1545 13.5243 15.3058 13.8897 15.5753 14.1592C15.8447 14.4286 16.2102 14.58 16.5912 14.58C16.9722 14.58 17.3377 14.4286 17.6071 14.1592C17.8765 13.8897 18.0279 13.5243 18.0279 13.1433C18.0279 12.7622 17.8765 12.3968 17.6071 12.1274C17.3377 11.8579 16.9722 11.7066 16.5912 11.7066Z" fill="#1581BF"/>
</g>
<defs>
<clipPath id="clip0_120_3139">
<rect width="24" height="24" fill="white" transform="translate(0.5 0.500183)"/>
</clipPath>
</defs>
</svg>
