<svg width="25" height="25" viewBox="0 0 25 25" fill="none" xmlns="http://www.w3.org/2000/svg">
<g clip-path="url(#clip0_48_34139)">
<path d="M11.994 0.500183C10.4846 0.500183 8.98998 0.797477 7.5955 1.37509C6.20102 1.9527 4.93396 2.79932 3.86667 3.86661C1.71119 6.0221 0.500244 8.94557 0.500244 11.9939C0.500244 15.0422 1.71119 17.9657 3.86667 20.1212C4.93396 21.1885 6.20102 22.0351 7.5955 22.6127C8.98998 23.1903 10.4846 23.4876 11.994 23.4876C15.0423 23.4876 17.9657 22.2767 20.1212 20.1212C22.2767 17.9657 23.4877 15.0422 23.4877 11.9939C23.4877 10.4845 23.1904 8.98992 22.6128 7.59544C22.0351 6.20096 21.1885 4.9339 20.1212 3.86661C19.0539 2.79932 17.7869 1.9527 16.3924 1.37509C14.9979 0.797477 13.5033 0.500183 11.994 0.500183ZM11.994 7.84466C13.8485 9.04953 16.012 9.69219 18.2235 9.69515C19.1201 9.69515 19.9821 9.59171 20.8096 9.39631C21.051 10.2124 21.1889 11.0859 21.1889 11.9939C21.1889 17.0626 17.0627 21.1889 11.994 21.1889C8.54584 21.1889 5.54598 19.2809 3.94836 16.4649L5.95976 14.2926V13.1433C5.95976 12.7622 6.11112 12.3968 6.38056 12.1274C6.65 11.8579 7.01543 11.7066 7.39647 11.7066C7.77751 11.7066 8.14294 11.8579 8.41238 12.1274C8.68182 12.3968 8.83318 12.7622 8.83318 13.1433V14.2926H11.994M16.5914 11.7066C16.2104 11.7066 15.845 11.8579 15.5755 12.1274C15.3061 12.3968 15.1547 12.7622 15.1547 13.1433C15.1547 13.5243 15.3061 13.8897 15.5755 14.1592C15.845 14.4286 16.2104 14.58 16.5914 14.58C16.9725 14.58 17.3379 14.4286 17.6073 14.1592C17.8768 13.8897 18.0282 13.5243 18.0282 13.1433C18.0282 12.7622 17.8768 12.3968 17.6073 12.1274C17.3379 11.8579 16.9725 11.7066 16.5914 11.7066Z" fill="#A3A6B2"/>
</g>
<defs>
<clipPath id="clip0_48_34139">
<rect width="24" height="24" fill="white" transform="translate(0.500244 0.500183)"/>
</clipPath>
</defs>
</svg>
