<svg width="20" height="20" viewBox="0 0 20 20" fill="none" xmlns="http://www.w3.org/2000/svg">
<path d="M17.7364 6.89648L12.7774 6.17578L10.5606 1.68164C10.5001 1.55859 10.4005 1.45898 10.2774 1.39844C9.96882 1.24609 9.59382 1.37305 9.43952 1.68164L7.22272 6.17578L2.26374 6.89648C2.12702 6.91602 2.00202 6.98047 1.90632 7.07812C1.79062 7.19704 1.72686 7.35703 1.72906 7.52293C1.73126 7.68883 1.79923 7.84708 1.91804 7.96289L5.50593 11.4609L4.65827 16.4004C4.63839 16.5153 4.65111 16.6335 4.69497 16.7415C4.73884 16.8496 4.8121 16.9431 4.90645 17.0117C5.0008 17.0802 5.11246 17.1209 5.22878 17.1292C5.34509 17.1375 5.4614 17.113 5.56452 17.0586L10.0001 14.7266L14.4356 17.0586C14.5567 17.123 14.6973 17.1445 14.8321 17.1211C15.1719 17.0625 15.4005 16.7402 15.3419 16.4004L14.4942 11.4609L18.0821 7.96289C18.1798 7.86719 18.2442 7.74219 18.2637 7.60547C18.3165 7.26367 18.0782 6.94727 17.7364 6.89648Z" fill="#1581BF"/>
</svg>
