<svg width="46" height="46" viewBox="0 0 46 46" fill="none" xmlns="http://www.w3.org/2000/svg">
<circle cx="23" cy="23" r="23" fill="#A172F2" fill-opacity="0.1"/>
<path d="M31.9143 32.933V23.4142C31.9143 23.3019 31.8 23.2176 31.6857 23.2457C31.3714 23.358 31.0571 23.4142 30.7429 23.4142C30.2 23.4142 29.7143 23.2738 29.2857 23.0211C29.2286 22.993 29.1714 22.993 29.1143 23.0211C28.6857 23.2738 28.1714 23.4142 27.6571 23.4142C27.1143 23.4142 26.6286 23.2738 26.2 23.0211C26.1429 22.993 26.0857 22.993 26.0286 23.0211C25.6 23.2738 25.0857 23.4142 24.5714 23.4142C24.0286 23.4142 23.5429 23.2738 23.1143 23.0211C23.0571 22.993 23 22.993 22.9429 23.0211C22.5143 23.2738 22 23.4142 21.4857 23.4142C20.9429 23.4142 20.4571 23.2738 20.0286 23.0211C19.9714 22.993 19.9143 22.993 19.8571 23.0211C19.4286 23.2738 18.9143 23.4142 18.4 23.4142C17.8571 23.4142 17.3714 23.2738 16.9429 23.0211C16.8857 22.993 16.8286 22.993 16.7714 23.0211C16.3429 23.2738 15.8286 23.4142 15.3143 23.4142C14.9714 23.4142 14.6571 23.358 14.3714 23.2457C14.2571 23.2176 14.1429 23.3019 14.1429 23.4142V32.933C14.1429 33.0172 14.0571 33.1015 13.9714 33.1015H13.1714C13.0857 33.1015 13 33.1857 13 33.2699V33.8315C13 33.9158 13.0857 34 13.1714 34H32.8286C32.9143 34 33 33.9158 33 33.8315V33.2699C33 33.1857 32.9143 33.1015 32.8286 33.1015H32.0857C32 33.1015 31.9143 33.0453 31.9143 32.933ZM21.5143 33.0172H16.4571C16.3714 33.0172 16.2857 32.933 16.2857 32.8488V25.2674C16.2857 25.1832 16.3714 25.0989 16.4571 25.0989H21.5143C21.6 25.0989 21.6857 25.1832 21.6857 25.2674V32.8768C21.6857 32.9611 21.6286 33.0172 21.5143 33.0172ZM29.5429 29.2265H24.4857C24.4 29.2265 24.3143 29.1423 24.3143 29.0581V25.8009C24.3143 25.7167 24.4 25.6324 24.4857 25.6324H29.5429C29.6286 25.6324 29.7143 25.7167 29.7143 25.8009V29.0581C29.7143 29.1423 29.6286 29.2265 29.5429 29.2265Z" fill="#A172F2"/>
<path d="M32.9815 17.0733L30.3684 13.0586C30.3103 13.0293 30.2523 13 30.1942 13L15.9382 13.0879C15.8801 13.0879 15.8221 13.1172 15.793 13.1758L13.0348 17.0733C12.9476 17.1905 13.0348 17.337 13.1799 17.337H13.3541C13.4703 17.337 13.5864 17.4249 13.5864 17.5714V19.3297C13.5864 20.2381 14.2832 21 15.1543 21C15.8801 21 16.4899 20.4725 16.6641 19.7399C16.6641 19.7106 16.6931 19.7106 16.7221 19.7106C16.7512 19.7106 16.7802 19.7399 16.7802 19.7399C16.9544 20.4432 17.5641 21 18.29 21C19.0159 21 19.6256 20.4725 19.7998 19.7399C19.7998 19.7106 19.8288 19.7106 19.8579 19.7106C19.8869 19.7106 19.916 19.7399 19.916 19.7399C20.0902 20.4432 20.6999 21 21.4258 21C22.1516 21 22.7613 20.4725 22.9355 19.7399C22.9355 19.7106 22.9646 19.7106 22.9936 19.7106C23.0227 19.7106 23.0517 19.7399 23.0517 19.7399C23.2259 20.4432 23.8356 21 24.5615 21C25.2874 21 25.8971 20.4725 26.0713 19.7399C26.0713 19.7106 26.1003 19.7106 26.1294 19.7106C26.1584 19.7106 26.1874 19.7399 26.1874 19.7399C26.3616 20.4432 26.9714 21 27.6972 21C28.4231 21 29.0328 20.4725 29.207 19.7399C29.207 19.7106 29.2361 19.7106 29.2651 19.7106C29.2941 19.7106 29.3232 19.7399 29.3232 19.7399C29.4974 20.4432 30.1071 21 30.833 21C31.704 21 32.4008 20.2674 32.4008 19.3297V17.5714C32.4008 17.4542 32.4879 17.337 32.6331 17.337H32.8363C32.9525 17.337 33.0396 17.1905 32.9815 17.0733Z" fill="#A172F2"/>
</svg>
