<svg width="29" height="29" viewBox="0 0 29 29" fill="none" xmlns="http://www.w3.org/2000/svg">
<g clip-path="url(#clip0_48_34200)">
<path d="M16.2466 5.23661C17.2113 5.23661 17.9934 4.45454 17.9934 3.48981C17.9934 2.52508 17.2113 1.74301 16.2466 1.74301C15.2818 1.74301 14.4998 2.52508 14.4998 3.48981C14.4998 4.45454 15.2818 5.23661 16.2466 5.23661Z" fill="#F4AE20"/>
<path d="M19.7407 2.79531C20.5126 2.79531 21.1383 2.16956 21.1383 1.39766C21.1383 0.625752 20.5126 0 19.7407 0C18.9688 0 18.343 0.625752 18.343 1.39766C18.343 2.16956 18.9688 2.79531 19.7407 2.79531Z" fill="#F4AE20"/>
<path d="M25.6108 23.8455L18.3431 12.2249V8.73507H20.4396V6.28944H8.56005V8.73507H10.6565V12.2249L3.38884 23.8455C3.12238 24.3395 2.96997 24.9043 2.96997 25.5059C2.96997 27.4353 4.53409 29 6.46411 29H22.5361C24.4655 29 26.0302 27.4359 26.0302 25.5059C26.0302 24.9043 25.8778 24.3395 25.6108 23.8455ZM8.95243 19.5618L13.1022 12.9264V8.73453H15.8975V12.9264L20.0472 19.5618H8.95243Z" fill="#F4AE20"/>
</g>
<defs>
<clipPath id="clip0_48_34200">
<rect width="29" height="29" fill="white"/>
</clipPath>
</defs>
</svg>
