<svg width="46" height="46" viewBox="0 0 46 46" fill="none" xmlns="http://www.w3.org/2000/svg">
<circle cx="23" cy="23" r="23" fill="#4F8CAF" fill-opacity="0.09"/>
<g clip-path="url(#clip0_289_1315)">
<path d="M24.1726 27.2981C23.9551 27.2981 23.7375 27.2454 23.5398 27.1465L14.7266 22.7366V29.0845C19.9406 34.3052 28.398 34.3052 33.6187 29.0845V22.7431L24.8121 27.1465C24.6209 27.2454 24.3967 27.2981 24.1726 27.2981Z" fill="#1581BF"/>
<path d="M37.7916 18.7616L24.3641 12.0445C24.2388 11.9852 24.0938 11.9852 23.9752 12.0445L10.5541 18.7616C10.5533 18.7619 10.5532 18.7627 10.5524 18.7631C9.81063 19.0143 9.27167 19.7093 9.27167 20.5347V28.2178H9.09722C8.99438 28.2178 8.90458 28.2872 8.87867 28.3867L8.00738 31.7338C7.9702 31.8769 8.07819 32.0166 8.22592 32.0166H11.3131C11.4608 32.0166 11.5688 31.8769 11.5317 31.7338L10.6605 28.3867C10.6345 28.2872 10.5446 28.2178 10.4418 28.2178H10.2604V20.5347C10.2604 20.1444 10.5168 19.822 10.8672 19.7025L23.9818 26.2631C24.1004 26.3224 24.252 26.3224 24.3706 26.2631L37.7916 19.546C38.1146 19.3878 38.1146 18.9264 37.7916 18.7616ZM24.1663 20.515C23.0128 20.515 22.0634 19.9019 22.0634 19.1505C22.0634 18.399 23.0128 17.7926 24.1663 17.7926C25.333 17.7926 26.2823 18.399 26.2823 19.1505C26.2823 19.9019 25.333 20.515 24.1663 20.515Z" fill="#1581BF"/>
</g>
<defs>
<clipPath id="clip0_289_1315">
<rect width="30" height="30" fill="white" transform="translate(8 8)"/>
</clipPath>
</defs>
</svg>
