<svg width="360" height="661" viewBox="0 0 360 661" fill="none" xmlns="http://www.w3.org/2000/svg">
<path d="M510.808 330.404C510.808 512.881 362.881 660.808 180.404 660.808C-2.0731 660.808 -150 512.881 -150 330.404C-150 147.927 -2.0731 0 180.404 0C362.881 0 510.808 147.927 510.808 330.404Z" fill="#1581BF" fill-opacity="0.04"/>
<circle cx="180.404" cy="330.851" r="155.851" fill="#1581BF" fill-opacity="0.09"/>
<path d="M209.954 322.469C210.803 325.387 211.258 328.475 211.258 331.671C211.258 349.829 196.538 364.55 178.379 364.55C160.221 364.55 145.5 349.829 145.5 331.671C145.5 313.512 160.221 298.791 178.379 298.791C182.319 298.791 186.095 299.484 189.593 300.753C189.536 300.868 189.477 300.988 189.418 301.114C188.856 302.303 188.178 303.988 187.724 305.967C186.818 309.919 186.781 315.201 190.553 319.935C194.435 324.806 199.908 325.109 204.1 324.335C206.207 323.947 208.071 323.277 209.402 322.711C209.597 322.628 209.781 322.547 209.954 322.469Z" fill="#1581BF" stroke="#1581BF" stroke-width="3"/>
<circle cx="201.299" cy="310.099" r="13.4651" stroke="#1581BF" stroke-width="3"/>
<circle cx="201.299" cy="310.099" r="5.91513" stroke="#1581BF" stroke-width="3"/>
<path d="M199 284L198.573 286.966" stroke="#1581BF" stroke-width="3" stroke-linecap="round"/>
<path d="M189.5 286L191.276 288.557" stroke="#1581BF" stroke-width="3" stroke-linecap="round"/>
<path d="M205.5 288.5L203.162 290.368" stroke="#1581BF" stroke-width="3" stroke-linecap="round"/>
<path d="M185.5 293L188.936 293.85" stroke="#1581BF" stroke-width="3" stroke-linecap="round"/>
<mask id="mask0_149_5365" style="mask-type:alpha" maskUnits="userSpaceOnUse" x="144" y="297" width="69" height="70">
<path d="M209.954 322.469C210.803 325.387 211.258 328.475 211.258 331.671C211.258 349.829 196.538 364.55 178.379 364.55C160.221 364.55 145.5 349.829 145.5 331.671C145.5 313.512 160.221 298.791 178.379 298.791C182.319 298.791 186.095 299.484 189.593 300.753C189.536 300.868 189.477 300.988 189.418 301.114C188.856 302.303 188.178 303.988 187.724 305.967C186.818 309.919 186.781 315.201 190.553 319.935C194.435 324.806 199.908 325.109 204.1 324.335C206.207 323.947 208.071 323.277 209.402 322.711C209.597 322.628 209.781 322.547 209.954 322.469Z" fill="#1581BF" stroke="#1581BF" stroke-width="3"/>
</mask>
<g mask="url(#mask0_149_5365)">
<path d="M173.5 296C179.849 306.208 176.449 309.471 168.779 313.095C167.625 313.641 166.991 314.908 167.214 316.164C168.681 324.405 166.23 323.906 164.358 329.648" stroke="#E1EEF7" stroke-width="3"/>
<path d="M196.5 363C172.097 363.944 169.544 338.917 153.5 355.5" stroke="#E1EEF7" stroke-width="3"/>
<path d="M195.5 338.5C185.658 341.871 192.67 352.298 185.929 351.22C178.244 351.22 188.221 341.378 177.166 339.086" stroke="#E1EEF7" stroke-width="3"/>
<rect width="69" height="15" transform="translate(144 325)" fill="#E1EEF7"/>
<path d="M153.244 329.86C153.836 329.86 154.353 329.98 154.796 330.22C155.244 330.455 155.588 330.785 155.828 331.212C156.068 331.639 156.188 332.127 156.188 332.676C156.188 333.22 156.065 333.705 155.82 334.132C155.58 334.559 155.236 334.895 154.788 335.14C154.345 335.38 153.83 335.5 153.244 335.5H151.012V329.86H153.244ZM153.124 334.116C153.582 334.116 153.942 333.991 154.204 333.74C154.465 333.489 154.596 333.135 154.596 332.676C154.596 332.212 154.465 331.855 154.204 331.604C153.942 331.348 153.582 331.22 153.124 331.22H152.58V334.116H153.124ZM160.543 329.86V335.5H158.975V329.86H160.543ZM165.644 335.556C164.988 335.556 164.449 335.401 164.028 335.092C163.606 334.777 163.38 334.329 163.348 333.748H165.02C165.036 333.945 165.094 334.089 165.196 334.18C165.297 334.271 165.428 334.316 165.588 334.316C165.732 334.316 165.849 334.281 165.94 334.212C166.036 334.137 166.084 334.036 166.084 333.908C166.084 333.743 166.006 333.615 165.852 333.524C165.697 333.433 165.446 333.332 165.1 333.22C164.732 333.097 164.433 332.98 164.204 332.868C163.98 332.751 163.782 332.583 163.612 332.364C163.446 332.14 163.364 331.849 163.364 331.492C163.364 331.129 163.454 330.82 163.636 330.564C163.817 330.303 164.068 330.105 164.388 329.972C164.708 329.839 165.07 329.772 165.476 329.772C166.132 329.772 166.654 329.927 167.044 330.236C167.438 330.54 167.649 330.969 167.676 331.524H165.972C165.966 331.353 165.913 331.225 165.812 331.14C165.716 331.055 165.59 331.012 165.436 331.012C165.318 331.012 165.222 331.047 165.148 331.116C165.073 331.185 165.036 331.284 165.036 331.412C165.036 331.519 165.076 331.612 165.156 331.692C165.241 331.767 165.345 331.833 165.468 331.892C165.59 331.945 165.772 332.015 166.012 332.1C166.369 332.223 166.662 332.345 166.892 332.468C167.126 332.585 167.326 332.753 167.492 332.972C167.662 333.185 167.748 333.457 167.748 333.788C167.748 334.124 167.662 334.425 167.492 334.692C167.326 334.959 167.084 335.169 166.764 335.324C166.449 335.479 166.076 335.556 165.644 335.556ZM170.364 332.668C170.364 332.113 170.479 331.62 170.708 331.188C170.943 330.751 171.274 330.412 171.7 330.172C172.127 329.927 172.618 329.804 173.172 329.804C173.876 329.804 174.468 329.993 174.948 330.372C175.428 330.745 175.738 331.255 175.876 331.9H174.188C174.087 331.687 173.946 331.524 173.764 331.412C173.588 331.3 173.383 331.244 173.148 331.244C172.786 331.244 172.495 331.375 172.276 331.636C172.063 331.892 171.956 332.236 171.956 332.668C171.956 333.105 172.063 333.455 172.276 333.716C172.495 333.972 172.786 334.1 173.148 334.1C173.383 334.1 173.588 334.044 173.764 333.932C173.946 333.82 174.087 333.657 174.188 333.444H175.876C175.738 334.089 175.428 334.601 174.948 334.98C174.468 335.353 173.876 335.54 173.172 335.54C172.618 335.54 172.127 335.42 171.7 335.18C171.274 334.935 170.943 334.596 170.708 334.164C170.479 333.727 170.364 333.228 170.364 332.668ZM181.403 335.556C180.875 335.556 180.39 335.433 179.947 335.188C179.504 334.937 179.152 334.593 178.891 334.156C178.635 333.713 178.507 333.215 178.507 332.66C178.507 332.105 178.635 331.609 178.891 331.172C179.152 330.729 179.504 330.385 179.947 330.14C180.39 329.895 180.875 329.772 181.403 329.772C181.936 329.772 182.422 329.895 182.859 330.14C183.302 330.385 183.651 330.729 183.907 331.172C184.163 331.609 184.291 332.105 184.291 332.66C184.291 333.215 184.163 333.713 183.907 334.156C183.651 334.593 183.302 334.937 182.859 335.188C182.416 335.433 181.931 335.556 181.403 335.556ZM181.403 334.1C181.803 334.1 182.118 333.969 182.347 333.708C182.582 333.447 182.699 333.097 182.699 332.66C182.699 332.212 182.582 331.86 182.347 331.604C182.118 331.343 181.803 331.212 181.403 331.212C180.998 331.212 180.68 331.343 180.451 331.604C180.222 331.86 180.107 332.212 180.107 332.66C180.107 333.103 180.222 333.455 180.451 333.716C180.68 333.972 180.998 334.1 181.403 334.1ZM192.564 329.86L190.62 335.5H188.612L186.66 329.86H188.34L189.62 333.932L190.892 329.86H192.564ZM196.7 331.116V332.036H198.5V333.228H196.7V334.244H198.74V335.5H195.132V329.86H198.74V331.116H196.7ZM204.451 335.5L203.331 333.42H203.163V335.5H201.595V329.86H204.067C204.521 329.86 204.905 329.94 205.219 330.1C205.534 330.255 205.771 330.471 205.931 330.748C206.091 331.02 206.171 331.327 206.171 331.668C206.171 332.052 206.065 332.391 205.851 332.684C205.643 332.972 205.337 333.177 204.931 333.3L206.203 335.5H204.451ZM203.163 332.348H203.939C204.153 332.348 204.313 332.297 204.419 332.196C204.526 332.095 204.579 331.948 204.579 331.756C204.579 331.575 204.523 331.433 204.411 331.332C204.305 331.225 204.147 331.172 203.939 331.172H203.163V332.348Z" fill="#1581BF"/>
</g>
</svg>
