<svg width="65" height="65" viewBox="0 0 65 65" fill="none" xmlns="http://www.w3.org/2000/svg">
<path d="M32.6479 60.1302C48.0158 60.1302 60.474 47.672 60.474 32.3041C60.474 16.9362 48.0158 4.47799 32.6479 4.47799C17.2799 4.47799 4.82178 16.9362 4.82178 32.3041C4.82178 47.672 17.2799 60.1302 32.6479 60.1302Z" fill="#1E88E5"/>
<path d="M27.5416 42.3501C27.1475 42.3503 26.7572 42.2727 26.3931 42.1218C26.0291 41.9709 25.6983 41.7497 25.4199 41.4708L19.006 35.0589C18.6762 34.7271 18.4914 34.278 18.4922 33.8101C18.493 33.3422 18.6792 32.8937 19.0101 32.5629C19.341 32.2321 19.7895 32.046 20.2574 32.0454C20.7253 32.0447 21.1743 32.2296 21.5061 32.5595L27.5416 38.5949L43.5096 22.6269C43.8415 22.2972 44.2906 22.1124 44.7585 22.1132C45.2264 22.114 45.6748 22.3002 46.0056 22.6311C46.3364 22.962 46.5225 23.4105 46.5232 23.8784C46.5238 24.3463 46.339 24.7953 46.0091 25.1271L29.6613 41.4708C29.3831 41.7494 29.0527 41.9705 28.6889 42.1214C28.3252 42.2723 27.9354 42.35 27.5416 42.3501Z" fill="white"/>
</svg>
