<svg width="65" height="64" viewBox="0 0 65 64" fill="none" xmlns="http://www.w3.org/2000/svg">
<path d="M32.4999 59.8261C47.8678 59.8261 60.326 47.368 60.326 32C60.326 16.6321 47.8678 4.17395 32.4999 4.17395C17.132 4.17395 4.67383 16.6321 4.67383 32C4.67383 47.368 17.132 59.8261 32.4999 59.8261Z" fill="#1581BF"/>
<path d="M27.3939 42.046C26.9998 42.0462 26.6095 41.9686 26.2454 41.8177C25.8813 41.6668 25.5506 41.4456 25.2722 41.1667L18.8582 34.7548C18.5285 34.423 18.3437 33.9739 18.3445 33.506C18.3453 33.0381 18.5315 32.5896 18.8624 32.2588C19.1933 31.928 19.6418 31.7419 20.1097 31.7413C20.5776 31.7406 21.0266 31.9255 21.3584 32.2554L27.3939 38.2908L43.3619 22.3228C43.6938 21.9931 44.1429 21.8083 44.6108 21.8091C45.0786 21.8099 45.5271 21.9961 45.8579 22.327C46.1887 22.6579 46.3748 23.1064 46.3755 23.5743C46.3761 24.0422 46.1913 24.4912 45.8614 24.823L29.5136 41.1667C29.2354 41.4453 28.9049 41.6664 28.5412 41.8173C28.1775 41.9682 27.7877 42.0459 27.3939 42.046V42.046Z" fill="white"/>
</svg>
