<svg width="17" height="17" viewBox="0 0 17 17" fill="none" xmlns="http://www.w3.org/2000/svg">
<path fill-rule="evenodd" clip-rule="evenodd" d="M8.26929 2.23741C4.58729 2.23741 1.60262 5.22208 1.60262 8.90408C1.60262 12.5861 4.58729 15.5707 8.26929 15.5707C11.9513 15.5707 14.936 12.5861 14.936 8.90408C14.936 5.22208 11.9513 2.23741 8.26929 2.23741ZM8.26929 16.9041C3.84995 16.9041 0.269287 13.3234 0.269287 8.90408C0.269287 4.48474 3.84995 0.904076 8.26929 0.904076C12.6886 0.904076 16.2693 4.48474 16.2693 8.90408C16.2693 13.3234 12.6886 16.9041 8.26929 16.9041Z" fill="#282828"/>
<path fill-rule="evenodd" clip-rule="evenodd" d="M11.6025 12.5707C11.4385 12.5707 11.2772 12.5081 11.1545 12.3961L7.82121 9.39608C7.68321 9.27141 7.60254 9.09141 7.60254 8.90408V5.57074C7.60254 5.20341 7.90187 4.90408 8.26921 4.90408C8.63654 4.90408 8.93587 5.20341 8.93587 5.57074V8.60474L12.0505 11.4041C12.2585 11.5887 12.3292 11.8834 12.2299 12.1434C12.1312 12.4014 11.8812 12.5734 11.6025 12.5707Z" fill="#282828"/>
</svg>
