<svg width="40" height="40" viewBox="0 0 40 40" fill="none" xmlns="http://www.w3.org/2000/svg">
<rect width="40" height="40" rx="20" fill="#F8F3FD"/>
<g clip-path="url(#clip0_1850_53227)">
<path d="M19.9537 26.8337C20.4368 26.354 21.2207 26.3648 21.7021 26.8462L24.3072 29.4513C24.3152 29.4593 24.3209 29.4693 24.3235 29.4803C24.3262 29.4912 24.3259 29.5027 24.3225 29.5135C24.3191 29.5243 24.3128 29.5339 24.3043 29.5414C24.2959 29.5488 24.2855 29.5538 24.2744 29.5558L23.053 29.7741C23.0119 29.7814 22.9741 29.8012 22.9445 29.8307C22.915 29.8603 22.8952 29.8981 22.8879 29.9392L22.6696 31.1605C22.6676 31.1716 22.6626 31.182 22.6552 31.1905C22.6477 31.199 22.6381 31.2052 22.6273 31.2086C22.6166 31.212 22.6051 31.2124 22.5941 31.2097C22.5831 31.207 22.5731 31.2013 22.5651 31.1934L19.9506 28.5788C19.4686 28.0967 19.4696 27.3145 19.9537 26.8337Z" fill="url(#paint0_linear_1850_53227)"/>
<path d="M21.6402 26.8337C21.1571 26.354 20.3731 26.3648 19.8917 26.8462L17.2866 29.4513C17.2787 29.4593 17.273 29.4693 17.2703 29.4803C17.2676 29.4912 17.268 29.5027 17.2714 29.5135C17.2748 29.5243 17.2811 29.5339 17.2895 29.5414C17.298 29.5488 17.3084 29.5538 17.3195 29.5558L18.5408 29.7741C18.5819 29.7814 18.6197 29.8012 18.6493 29.8307C18.6788 29.8603 18.6986 29.8981 18.7059 29.9392L18.9242 31.1605C18.933 31.2097 18.9934 31.2286 19.0287 31.1934L21.6432 28.5788C22.1253 28.0967 22.1243 27.3145 21.6402 26.8337Z" fill="url(#paint1_linear_1850_53227)"/>
<path d="M31.2156 28.3744C32.065 28.3388 32.7488 26.7794 32.7488 24.8597C32.7488 22.94 32.065 21.3807 31.2156 21.3451V21.3433H8.81815C7.95553 21.3433 7.25586 22.9176 7.25586 24.8597C7.25586 26.8019 7.95553 28.3762 8.81815 28.3762H31.2156V28.3744Z" fill="url(#paint2_linear_1850_53227)"/>
<path d="M31.2165 21.3453V21.3435H10.4868C10.4021 21.9783 10.3535 22.5148 10.3535 22.6938C10.3535 22.8127 10.4499 22.9049 10.5989 22.9709L16.0045 28.3764H31.2165V28.3747C32.0659 28.3391 32.7497 26.7797 32.7497 24.86C32.7497 22.9403 32.0659 21.381 31.2165 21.3453Z" fill="url(#paint3_linear_1850_53227)"/>
<path d="M8.81815 28.3762C7.95553 28.3762 7.25586 26.8019 7.25586 24.8597C7.25586 22.9176 7.95553 21.3433 8.81815 21.3433C9.68148 21.3433 10.3812 22.9176 10.3812 24.8597C10.3812 26.8019 9.68143 28.3762 8.81815 28.3762Z" fill="url(#paint4_linear_1850_53227)"/>
<path d="M8.81815 28.3764C7.95553 28.3764 7.25586 26.8021 7.25586 24.8599C7.25586 24.6388 7.26514 24.4226 7.28232 24.2127C7.2916 24.1554 7.30231 24.1 7.31449 24.0456C7.32948 23.9795 7.34595 23.9153 7.3638 23.8536C7.37593 23.8128 7.38883 23.773 7.40239 23.7346C7.40953 23.7152 7.41595 23.6962 7.42309 23.6777C7.52169 23.4163 7.65324 23.219 7.80257 23.117C7.8662 23.0733 7.93406 23.0466 8.0034 23.0398C8.01506 23.0388 8.02674 23.0383 8.03843 23.0383H10.1553C10.2983 23.5699 10.3812 24.1933 10.3812 24.86C10.3812 24.8755 10.3812 24.8915 10.3804 24.9071C10.3697 26.8273 9.67429 28.3764 8.81815 28.3764Z" fill="url(#paint5_linear_1850_53227)"/>
<path d="M10.3821 24.9071H8.84907C8.84907 24.8916 8.84979 24.8761 8.84979 24.86C8.84979 23.8542 8.48744 23.0383 8.04004 23.0383H10.1569C10.2999 23.5699 10.3828 24.1933 10.3828 24.86C10.3828 24.8755 10.3828 24.8915 10.3821 24.9071Z" fill="url(#paint6_linear_1850_53227)"/>
<path d="M21.6487 21.3453V21.3435H19.3679V21.3453C20.2173 21.381 20.9011 22.9403 20.9011 24.86C20.9011 26.7797 20.2173 28.339 19.3679 28.3746V28.3764H21.6487V28.3746C22.4981 28.339 23.1819 26.7797 23.1819 24.86C23.1819 22.9403 22.4981 21.381 21.6487 21.3453Z" fill="url(#paint7_linear_1850_53227)"/>
<path d="M21.6487 21.3453V21.3435H19.3679V21.3453C20.2173 21.381 20.9011 22.9403 20.9011 24.86C20.9011 26.7797 20.2173 28.339 19.3679 28.3746V28.3764H21.6487V28.3746C22.4981 28.339 23.1819 26.7797 23.1819 24.86C23.1819 22.9403 22.4981 21.381 21.6487 21.3453Z" fill="url(#paint8_linear_1850_53227)"/>
<path d="M11.1563 13.416H28.8509C29.2918 13.416 29.6491 13.7734 29.6491 14.2142V18.614C29.6491 19.7899 28.929 20.8458 27.8343 21.2751C22.8004 23.249 17.2068 23.249 12.173 21.2751C11.0783 20.8458 10.3582 19.7899 10.3582 18.614V14.2142C10.3581 13.7734 10.7155 13.416 11.1563 13.416Z" fill="url(#paint9_linear_1850_53227)"/>
<path d="M28.851 13.416H11.3232V20.755C11.5738 20.9768 11.8615 21.1528 12.173 21.275C17.2069 23.2489 22.8005 23.2489 27.8343 21.275C28.929 20.8457 29.6491 19.7899 29.6491 18.614V14.2141C29.6491 13.7734 29.2918 13.416 28.851 13.416Z" fill="url(#paint10_linear_1850_53227)"/>
<path d="M28.851 13.416H11.1563C10.7155 13.416 10.3582 13.7734 10.3582 14.2142V14.6343L18.4199 22.696C21.6249 22.9337 24.8423 22.448 27.8343 21.275C28.9291 20.8457 29.6492 19.7899 29.6492 18.614V14.2141C29.6492 13.7734 29.2918 13.416 28.851 13.416Z" fill="url(#paint11_linear_1850_53227)"/>
<path d="M34.0021 12.5945C34.0049 12.5045 33.9534 12.4129 33.8469 12.384L21.1633 8.94323C20.4032 8.73702 19.6019 8.73702 18.8418 8.94323L6.15825 12.384C6.05174 12.4129 6.00024 12.5046 6.00304 12.5945V13.2849C6.00024 13.3749 6.05168 13.4665 6.15825 13.4954L18.8418 16.9362C19.6019 17.1424 20.4032 17.1424 21.1633 16.9362L33.8468 13.4954C33.9534 13.4665 34.0049 13.3749 34.002 13.2849V12.5945H34.0021Z" fill="url(#paint12_linear_1850_53227)"/>
<path d="M18.8421 8.94319L6.15862 12.384C5.95103 12.4403 5.95103 12.7348 6.15862 12.7912L18.8421 16.2319C19.6022 16.4381 20.4036 16.4381 21.1637 16.2319L33.8472 12.7912C34.0547 12.7348 34.0547 12.4403 33.8472 12.384L21.1637 8.94319C20.4036 8.73704 19.6023 8.73704 18.8421 8.94319Z" fill="url(#paint13_linear_1850_53227)"/>
<path d="M18.9667 9.73153L7.62628 12.808C7.44065 12.8583 7.44065 13.1216 7.62628 13.172L18.9667 16.2485C19.6463 16.4328 20.3628 16.4328 21.0424 16.2485L32.3828 13.172C32.5685 13.1217 32.5685 12.8584 32.3828 12.808L21.0424 9.73153C20.3628 9.54717 19.6463 9.54717 18.9667 9.73153Z" fill="url(#paint14_linear_1850_53227)"/>
<path d="M20.0033 10.8738C19.5236 10.8738 19.1263 11.2227 19.0489 11.6804L12.5002 13.457C11.8061 13.6453 11.2688 14.1667 11.0417 14.8199L18.8426 16.9361C19.6027 17.1423 20.404 17.1423 21.1641 16.9361L25.3299 15.806L20.7537 11.2298C20.576 11.0126 20.3059 10.8738 20.0033 10.8738Z" fill="url(#paint15_linear_1850_53227)"/>
<path d="M11.2998 18.1776C11.2505 18.1776 11.2018 18.1679 11.1563 18.1491C11.1108 18.1302 11.0695 18.1026 11.0346 18.0678C10.9998 18.033 10.9722 17.9916 10.9533 17.9461C10.9345 17.9007 10.9248 17.8519 10.9248 17.8026V15.5181C10.9248 14.5563 11.5731 13.7088 12.5014 13.4569L19.9505 11.4361C20.1503 11.3824 20.3564 11.5 20.4106 11.6998C20.4366 11.7958 20.4234 11.8982 20.374 11.9844C20.3246 12.0707 20.2429 12.1338 20.1469 12.1599L12.6977 14.1808C12.0954 14.3442 11.6747 14.894 11.6747 15.5181V17.8026C11.6747 17.9021 11.6352 17.9975 11.5649 18.0678C11.4946 18.1381 11.3992 18.1776 11.2998 18.1776Z" fill="url(#paint16_linear_1850_53227)"/>
<path d="M20.9724 11.8429C20.9724 12.3781 19.0342 12.3781 19.0342 11.8429C19.0342 11.3077 19.4681 10.8738 20.0033 10.8738C20.5385 10.8738 20.9724 11.3077 20.9724 11.8429Z" fill="url(#paint17_linear_1850_53227)"/>
<path d="M12.2917 22.694C12.2917 23.2292 10.3535 23.2292 10.3535 22.694C10.3535 22.1588 10.7874 18.4272 11.3226 18.4272C11.8578 18.4272 12.2917 22.1588 12.2917 22.694Z" fill="url(#paint18_linear_1850_53227)"/>
<path d="M12.2919 22.6938C12.2919 22.8725 12.0751 22.9918 11.7861 23.0511C11.5011 23.1097 11.1459 23.1097 10.8603 23.0511C10.816 22.9918 10.79 22.9195 10.79 22.8329C10.79 22.2841 11.0252 18.4874 11.3163 18.4281C11.3184 18.4275 11.3211 18.4275 11.3231 18.4275C11.3252 18.4275 11.3279 18.4275 11.3299 18.4281C11.8624 18.4596 12.2919 22.1607 12.2919 22.6938Z" fill="url(#paint19_linear_1850_53227)"/>
<path d="M11.972 22.6938C11.972 22.9488 11.6775 23.0824 11.3679 23.0947C11.3375 23.0954 11.307 23.0954 11.2766 23.0947C10.8082 23.0865 10.3535 22.9529 10.3535 22.6938C10.3535 22.1614 10.783 18.4663 11.3148 18.4281C11.3175 18.4275 11.3202 18.4275 11.323 18.4275C11.3257 18.4275 11.3284 18.4275 11.3312 18.4281C11.6863 18.4854 11.972 22.1627 11.972 22.6938Z" fill="url(#paint20_linear_1850_53227)"/>
<path d="M11.3233 19.1212C11.8444 19.1212 12.2668 18.6989 12.2668 18.1778C12.2668 17.6568 11.8444 17.2344 11.3233 17.2344C10.8023 17.2344 10.3799 17.6568 10.3799 18.1778C10.3799 18.6989 10.8023 19.1212 11.3233 19.1212Z" fill="url(#paint21_linear_1850_53227)"/>
<path d="M11.3232 18.9651C11.7581 18.9651 12.1106 18.6126 12.1106 18.1777C12.1106 17.7429 11.7581 17.3904 11.3232 17.3904C10.8884 17.3904 10.5359 17.7429 10.5359 18.1777C10.5359 18.6126 10.8884 18.9651 11.3232 18.9651Z" fill="url(#paint22_linear_1850_53227)"/>
<path d="M11.7457 17.3337C11.8113 17.4647 11.8454 17.6093 11.8452 17.7558C11.8452 18.2768 11.4228 18.6992 10.9018 18.6992C10.7501 18.6992 10.6067 18.6634 10.4797 18.5997C10.6346 18.9089 10.9544 19.1211 11.3237 19.1211C11.8447 19.1211 12.2671 18.6988 12.2671 18.1777C12.2671 17.8084 12.0549 17.4887 11.7457 17.3337Z" fill="url(#paint23_linear_1850_53227)"/>
</g>
<defs>
<linearGradient id="paint0_linear_1850_53227" x1="23.0623" y1="29.758" x2="21.6165" y2="28.6014" gradientUnits="userSpaceOnUse">
<stop stop-color="#FF7044"/>
<stop offset="1" stop-color="#F92814"/>
</linearGradient>
<linearGradient id="paint1_linear_1850_53227" x1="19.8209" y1="27.2331" x2="19.2124" y2="31.8874" gradientUnits="userSpaceOnUse">
<stop stop-color="#FF7044"/>
<stop offset="1" stop-color="#F92814"/>
</linearGradient>
<linearGradient id="paint2_linear_1850_53227" x1="20.0023" y1="23.0068" x2="20.0023" y2="27.9432" gradientUnits="userSpaceOnUse">
<stop stop-color="#F9F7FC"/>
<stop offset="1" stop-color="#F0DDFC"/>
</linearGradient>
<linearGradient id="paint3_linear_1850_53227" x1="21.9491" y1="25.4131" x2="20.4118" y2="17.6719" gradientUnits="userSpaceOnUse">
<stop stop-color="#F0DDFC" stop-opacity="0"/>
<stop offset="0.289" stop-color="#C8B7E0" stop-opacity="0.289"/>
<stop offset="0.592" stop-color="#A595C8" stop-opacity="0.592"/>
<stop offset="0.84" stop-color="#8F81B8" stop-opacity="0.84"/>
<stop offset="1" stop-color="#8779B3"/>
</linearGradient>
<linearGradient id="paint4_linear_1850_53227" x1="6.00684" y1="24.8597" x2="11.4385" y2="24.8597" gradientUnits="userSpaceOnUse">
<stop stop-color="#F0DDFC" stop-opacity="0"/>
<stop offset="0.289" stop-color="#C8B7E0" stop-opacity="0.289"/>
<stop offset="0.592" stop-color="#A595C8" stop-opacity="0.592"/>
<stop offset="0.84" stop-color="#8F81B8" stop-opacity="0.84"/>
<stop offset="1" stop-color="#8779B3"/>
</linearGradient>
<linearGradient id="paint5_linear_1850_53227" x1="6.53044" y1="27.6854" x2="11.5803" y2="22.6355" gradientUnits="userSpaceOnUse">
<stop stop-color="#F0DDFC" stop-opacity="0"/>
<stop offset="0.289" stop-color="#C8B7E0" stop-opacity="0.289"/>
<stop offset="0.592" stop-color="#A595C8" stop-opacity="0.592"/>
<stop offset="0.84" stop-color="#8F81B8" stop-opacity="0.84"/>
<stop offset="1" stop-color="#8779B3"/>
</linearGradient>
<linearGradient id="paint6_linear_1850_53227" x1="9.16235" y1="23.6979" x2="13.2553" y2="26.9999" gradientUnits="userSpaceOnUse">
<stop stop-color="#F9F7FC"/>
<stop offset="1" stop-color="#F0DDFC"/>
</linearGradient>
<linearGradient id="paint7_linear_1850_53227" x1="21.2749" y1="24.9581" x2="21.2749" y2="28.3335" gradientUnits="userSpaceOnUse">
<stop stop-color="#FF7044"/>
<stop offset="1" stop-color="#F92814"/>
</linearGradient>
<linearGradient id="paint8_linear_1850_53227" x1="21.2749" y1="24.0982" x2="21.2749" y2="21.9494" gradientUnits="userSpaceOnUse">
<stop stop-color="#F92814" stop-opacity="0"/>
<stop offset="1" stop-color="#C1272D"/>
</linearGradient>
<linearGradient id="paint9_linear_1850_53227" x1="15.3062" y1="18.0857" x2="28.3118" y2="18.0857" gradientUnits="userSpaceOnUse">
<stop stop-color="#7E8595"/>
<stop offset="1" stop-color="#555A66"/>
</linearGradient>
<linearGradient id="paint10_linear_1850_53227" x1="14.3652" y1="18.0857" x2="11.336" y2="18.0857" gradientUnits="userSpaceOnUse">
<stop stop-color="#555A66" stop-opacity="0"/>
<stop offset="1" stop-color="#555A66"/>
</linearGradient>
<linearGradient id="paint11_linear_1850_53227" x1="21.5263" y1="22.0287" x2="19.036" y2="9.52616" gradientUnits="userSpaceOnUse">
<stop stop-color="#555A66" stop-opacity="0"/>
<stop offset="1" stop-color="#555A66"/>
</linearGradient>
<linearGradient id="paint12_linear_1850_53227" x1="20.0025" y1="10.7781" x2="20.0025" y2="16.4918" gradientUnits="userSpaceOnUse">
<stop stop-color="#7E8595"/>
<stop offset="1" stop-color="#555A66"/>
</linearGradient>
<linearGradient id="paint13_linear_1850_53227" x1="16.8574" y1="8.30699" x2="23.5191" y2="17.3725" gradientUnits="userSpaceOnUse">
<stop stop-color="#7E8595"/>
<stop offset="1" stop-color="#555A66"/>
</linearGradient>
<linearGradient id="paint14_linear_1850_53227" x1="19.9836" y1="12.7775" x2="18.6056" y2="-1.2045" gradientUnits="userSpaceOnUse">
<stop stop-color="#BEC3D2" stop-opacity="0"/>
<stop offset="0.558" stop-color="#D4D9E4" stop-opacity="0.558"/>
<stop offset="1" stop-color="#E9EDF5"/>
</linearGradient>
<linearGradient id="paint15_linear_1850_53227" x1="18.1122" y1="15.1217" x2="16.7794" y2="11.6565" gradientUnits="userSpaceOnUse">
<stop stop-color="#555A66" stop-opacity="0"/>
<stop offset="1" stop-color="#555A66"/>
</linearGradient>
<linearGradient id="paint16_linear_1850_53227" x1="13.8359" y1="12.2987" x2="15.9976" y2="15.2404" gradientUnits="userSpaceOnUse">
<stop stop-color="#FFDA45"/>
<stop offset="1" stop-color="#FFA425"/>
</linearGradient>
<linearGradient id="paint17_linear_1850_53227" x1="19.4652" y1="11.1504" x2="20.4783" y2="12.1635" gradientUnits="userSpaceOnUse">
<stop stop-color="#7E8595"/>
<stop offset="1" stop-color="#555A66"/>
</linearGradient>
<linearGradient id="paint18_linear_1850_53227" x1="10.8074" y1="20.7735" x2="13.4824" y2="20.712" gradientUnits="userSpaceOnUse">
<stop stop-color="#FFDA45"/>
<stop offset="1" stop-color="#FFA425"/>
</linearGradient>
<linearGradient id="paint19_linear_1850_53227" x1="11.8322" y1="20.63" x2="10.0302" y2="21.4575" gradientUnits="userSpaceOnUse">
<stop stop-color="#FFDA45" stop-opacity="0"/>
<stop offset="1" stop-color="#FCEE21"/>
</linearGradient>
<linearGradient id="paint20_linear_1850_53227" x1="10.7628" y1="21.0144" x2="13.9045" y2="19.7935" gradientUnits="userSpaceOnUse">
<stop stop-color="#FFDA45" stop-opacity="0"/>
<stop offset="1" stop-color="#B53759"/>
</linearGradient>
<linearGradient id="paint21_linear_1850_53227" x1="10.9703" y1="17.8248" x2="12.1922" y2="19.0467" gradientUnits="userSpaceOnUse">
<stop stop-color="#FF7044"/>
<stop offset="1" stop-color="#F92814"/>
</linearGradient>
<linearGradient id="paint22_linear_1850_53227" x1="11.4172" y1="18.2717" x2="10.5634" y2="17.4179" gradientUnits="userSpaceOnUse">
<stop stop-color="#FF7044" stop-opacity="0"/>
<stop offset="1" stop-color="#FFA425"/>
</linearGradient>
<linearGradient id="paint23_linear_1850_53227" x1="11.3565" y1="18.5393" x2="12.6533" y2="16.1274" gradientUnits="userSpaceOnUse">
<stop stop-color="#F92814" stop-opacity="0"/>
<stop offset="1" stop-color="#C1272D"/>
</linearGradient>
<clipPath id="clip0_1850_53227">
<rect width="28" height="28" fill="white" transform="translate(6 6)"/>
</clipPath>
</defs>
</svg>
