<svg width="41" height="40" viewBox="0 0 41 40" fill="none" xmlns="http://www.w3.org/2000/svg">
<rect x="0.666748" width="40" height="40" rx="20" fill="#F9F7E3"/>
<path d="M23.0955 32.5184C27.9398 32.5184 31.867 28.4149 31.867 23.3531C31.867 18.2912 27.9398 14.1877 23.0955 14.1877C18.2511 14.1877 14.324 18.2912 14.324 23.3531C14.324 28.4149 18.2511 32.5184 23.0955 32.5184Z" fill="#E88102"/>
<path d="M23.0958 31.5517C27.8907 31.5517 31.7778 27.6647 31.7778 22.8697C31.7778 18.0748 27.8907 14.1877 23.0958 14.1877C18.3009 14.1877 14.4138 18.0748 14.4138 22.8697C14.4138 27.6647 18.3009 31.5517 23.0958 31.5517Z" fill="#FDD835"/>
<path d="M26.5618 14.9074L15.1338 26.3318C14.7507 25.4546 14.5108 24.5023 14.4392 23.5034L23.7298 14.2092C24.7287 14.2844 25.681 14.5243 26.5618 14.9074ZM30.6611 18.6093L18.8357 30.4347C18.0982 30.0194 17.4323 29.5003 16.8487 28.8952L29.1252 16.6223C29.7267 17.2023 30.2458 17.8718 30.6611 18.6093ZM28.7708 16.2965L16.5265 28.5408C16.3367 28.3188 16.1541 28.0861 15.9859 27.8462L28.0762 15.7559C28.3161 15.9241 28.5488 16.1067 28.7708 16.2965ZM31.506 20.7037L20.9301 31.2796C20.6115 31.1973 20.3 31.097 19.9957 30.9825L31.2089 19.7693C31.3234 20.0736 31.4237 20.3851 31.506 20.7037Z" fill="white" fill-opacity="0.313726"/>
<path d="M31.7778 22.8697C31.7778 22.9306 31.7778 22.9879 31.7742 23.0487C31.6811 18.3372 27.8324 14.5458 23.0958 14.5458C18.3592 14.5458 14.5105 18.3372 14.4174 23.0487C14.4174 22.9879 14.4138 22.9306 14.4138 22.8697C14.4138 18.0758 18.3019 14.1877 23.0958 14.1877C27.8897 14.1877 31.7778 18.0758 31.7778 22.8697Z" fill="white" fill-opacity="0.313726"/>
<path d="M30.1487 23.2457C30.1487 27.0013 27.1019 30.048 23.3463 30.048C21.2376 30.048 19.3508 29.085 18.1013 27.5777C19.3436 28.9203 21.1194 29.7616 23.0957 29.7616C26.8513 29.7616 29.8981 26.7149 29.8981 22.9592C29.8981 21.3123 29.3145 19.8051 28.3407 18.6272C29.4613 19.8409 30.1487 21.4627 30.1487 23.2457Z" fill="white" fill-opacity="0.313726"/>
<path d="M23.0951 29.7617C26.852 29.7617 29.8975 26.7162 29.8975 22.9594C29.8975 19.2025 26.852 16.157 23.0951 16.157C19.3383 16.157 16.2927 19.2025 16.2927 22.9594C16.2927 26.7162 19.3383 29.7617 23.0951 29.7617Z" fill="#F39E09"/>
<path d="M28.2506 18.5199C27.0584 17.4924 25.5082 16.873 23.8111 16.873C20.0555 16.873 17.0088 19.9198 17.0088 23.6754C17.0088 25.3724 17.6281 26.9226 18.6557 28.1149C17.2093 26.8654 16.2927 25.0216 16.2927 22.9594C16.2927 19.2037 19.3395 16.157 23.0951 16.157C25.1537 16.157 27.0011 17.0735 28.2506 18.5199Z" fill="#E88102"/>
<path d="M22.6693 21.2265C22.5475 21.3661 22.4831 21.5595 22.4831 21.8065C22.4831 22.0535 22.5547 22.2576 22.6979 22.4044C22.8411 22.5512 23.0703 22.6908 23.3853 22.8269C23.7004 22.9593 23.9975 23.099 24.2768 23.2422C24.556 23.3854 24.7959 23.5501 25 23.7326C25.2041 23.9152 25.3616 24.1301 25.4762 24.3735C25.5191 24.4666 25.648 24.642 25.648 24.642V25.2542C25.648 25.8342 25.4654 26.3068 25.0967 26.672C24.7279 27.0372 24.2302 27.252 23.5965 27.3128V28.3296H22.7874V27.3021C22.0499 27.2233 21.4842 26.9727 21.0868 26.5431C20.693 26.1135 20.4961 25.5514 20.4961 24.8497V24.3126L22.2074 24.8497C22.2074 25.2363 22.2934 25.5299 22.4652 25.7304C22.6371 25.9309 22.8805 26.0311 23.1956 26.0311C23.4247 26.0311 23.6073 25.9631 23.7398 25.8235C23.8722 25.6839 23.9367 25.4977 23.9367 25.2578C23.9367 24.9893 23.8722 24.7816 23.7398 24.6277C23.6073 24.4738 23.3746 24.3305 23.0452 24.1945C22.7122 24.0584 22.4079 23.9224 22.1251 23.7828C21.8422 23.6431 21.6024 23.482 21.3983 23.2994C21.1942 23.1169 21.0403 22.9056 20.9293 22.6657C20.8219 22.4259 20.7682 22.1359 20.7682 21.7922V21.2229C20.7682 21.2229 21.0868 20.625 21.3482 20.378C21.7348 20.0057 22.2504 19.7908 22.8912 19.73V18.6631H23.7004V19.755C24.3197 19.8481 24.8067 20.1023 25.1611 20.5212C25.4045 20.8076 25.691 21.5774 25.691 21.5774V22.1144H23.9725C23.9725 21.7635 23.9044 21.4914 23.7684 21.3017C23.6323 21.1119 23.439 21.0189 23.1884 21.0189C22.9664 21.0153 22.7946 21.0869 22.6693 21.2265Z" fill="#DB6704"/>
<path d="M23.9371 24.7243C23.9371 24.4558 23.8726 24.2481 23.7402 24.0942C23.6077 23.9402 23.375 23.797 23.0456 23.661C22.7126 23.5249 22.4083 23.3889 22.1255 23.2492C21.8427 23.1096 21.6028 22.9485 21.3987 22.7659C21.1946 22.5833 21.0407 22.3721 20.9297 22.1322C20.8223 21.8923 20.7686 21.5988 20.7686 21.2587C20.7686 20.6858 20.9619 20.2132 21.3486 19.8445C21.7352 19.4757 22.2508 19.2573 22.8917 19.1965V18.126H23.7008V19.2179C24.3202 19.311 24.8071 19.5652 25.1615 19.9841C25.5159 20.403 25.6914 20.9329 25.6914 21.5773H23.9729C23.9729 21.2264 23.9049 20.9543 23.7688 20.7646C23.6328 20.5748 23.4394 20.4817 23.1888 20.4817C22.9668 20.4817 22.7914 20.5534 22.6697 20.693C22.548 20.8326 22.4835 21.0259 22.4835 21.273C22.4835 21.52 22.5551 21.7241 22.6983 21.8709C22.8415 22.0177 23.0707 22.1573 23.3821 22.2933C23.6972 22.4258 23.9944 22.5654 24.2736 22.7086C24.5529 22.8518 24.7927 23.0165 24.9968 23.1991C25.2009 23.3817 25.3584 23.5965 25.473 23.84C25.5875 24.0834 25.6448 24.377 25.6448 24.7171C25.6448 25.2971 25.4622 25.7697 25.0935 26.1349C24.7247 26.5001 24.2271 26.7149 23.5934 26.7757V27.7925H22.7842V26.765C22.0467 26.6862 21.4811 26.4356 21.0837 26.006C20.6898 25.5764 20.4929 25.0143 20.4929 24.3126H22.2043C22.2043 24.6992 22.2902 24.9928 22.462 25.1933C22.6339 25.3938 22.8773 25.494 23.1924 25.494C23.4215 25.494 23.6041 25.426 23.7366 25.2864C23.869 25.1467 23.9371 24.9642 23.9371 24.7243Z" fill="#FDD835"/>
<path d="M21.3485 19.8445C21.5562 19.644 21.8032 19.49 22.086 19.379L20.8723 20.5963C20.9654 20.3099 21.123 20.0629 21.3485 19.8445ZM23.3391 18.126L22.8916 18.5735V18.126H23.3391ZM25.4622 23.8078L22.5371 26.7328C21.9213 26.629 21.438 26.3855 21.0907 26.0096C20.8652 25.7625 20.7041 25.4725 20.6074 25.1396L21.4309 24.3161H22.2113C22.2113 24.7028 22.2973 24.9964 22.4691 25.1969C22.641 25.3974 22.8844 25.4976 23.1995 25.4976C23.4286 25.4976 23.6112 25.4296 23.7437 25.29C23.8761 25.1503 23.9406 24.9642 23.9406 24.7243C23.9406 24.4558 23.8761 24.2481 23.7437 24.0942C23.6112 23.9402 23.3785 23.797 23.0491 23.661C22.8128 23.5643 22.5908 23.4676 22.3796 23.3674L23.4393 22.3077C23.7365 22.4365 24.0158 22.5654 24.2807 22.7015C24.5599 22.8447 24.7998 23.0094 25.0039 23.192C25.1972 23.371 25.3512 23.575 25.4622 23.8078ZM25.6913 21.5737H24.1697L25.4049 20.3385C25.5946 20.6894 25.6913 21.1011 25.6913 21.5737ZM20.5 24.3126H20.7542L20.5107 24.556C20.5036 24.4773 20.5 24.3949 20.5 24.3126ZM22.6982 21.8673C22.7698 21.9425 22.8629 22.0141 22.9811 22.0857L21.9213 23.1454C21.7244 23.0344 21.549 22.9091 21.3986 22.7695C21.3378 22.7158 21.2841 22.6585 21.2339 22.6012L22.4906 21.3446C22.5013 21.5594 22.5729 21.7348 22.6982 21.8673ZM25.1256 19.9411L23.9298 21.1369C23.8976 20.9901 23.8439 20.8648 23.7723 20.7646C23.6649 20.6142 23.5217 20.5247 23.3427 20.4925L24.4132 19.422C24.6888 19.5473 24.9251 19.7192 25.1256 19.9411ZM23.1816 27.7925L23.5969 27.3772V27.7925H23.1816ZM25.5373 25.4367C25.4478 25.7017 25.301 25.9308 25.1006 26.1313C24.9001 26.3318 24.6602 26.4857 24.3809 26.5931L25.5373 25.4367Z" fill="white" fill-opacity="0.313726"/>
<path d="M28.7707 19.2035C24.3671 20.7502 20.8298 24.1478 19.097 28.4619C18.9467 28.3509 18.7999 28.2364 18.6567 28.1111C17.6291 26.9188 17.0098 25.3686 17.0098 23.6752C17.0098 19.9196 20.0565 16.8728 23.8121 16.8728C25.5092 16.8728 27.0594 17.4922 28.248 18.5197C28.4378 18.7381 28.6096 18.9672 28.7707 19.2035Z" fill="white" fill-opacity="0.145098"/>
<path d="M12.2473 15.4639L23.175 11.334C23.4472 11.2311 23.7513 11.3684 23.8542 11.6406L24.8811 14.3578C25.1556 15.084 24.9573 15.9042 24.3814 16.4248C21.7334 18.8187 18.2789 20.1242 14.7095 20.0801C13.9332 20.0705 13.242 19.5865 12.9676 18.8603L11.9407 16.1431C11.8378 15.8709 11.9751 15.5668 12.2473 15.4639Z" fill="url(#paint0_linear_1850_53264)"/>
<path d="M23.1747 11.3341L12.3501 15.425L14.063 19.9574C14.2695 20.0359 14.4882 20.0775 14.7092 20.0802C18.2786 20.1243 21.7331 18.8188 24.3811 16.4249C24.957 15.9043 25.1553 15.0841 24.8808 14.3579L23.8539 11.6407C23.7511 11.3685 23.447 11.2312 23.1747 11.3341Z" fill="url(#paint1_linear_1850_53264)"/>
<path d="M23.175 11.334L12.2473 15.4639C11.9751 15.5667 11.8378 15.8708 11.9407 16.1431L12.0387 16.4026L18.899 19.4996C20.9338 18.8984 22.8074 17.8475 24.3814 16.4247C24.9573 15.9041 25.1556 15.084 24.8812 14.3578L23.8542 11.6406C23.7514 11.3684 23.4473 11.2311 23.175 11.334Z" fill="url(#paint2_linear_1850_53264)"/>
<path d="M26.1646 9.6241C26.1453 9.56788 26.0922 9.52333 26.0197 9.53032L17.3836 10.3657C16.866 10.4158 16.3712 10.6028 15.9499 10.9075L8.91996 15.9928C8.86092 16.0355 8.8505 16.1041 8.87323 16.159L9.03437 16.5854C9.05364 16.6416 9.10678 16.6862 9.17935 16.6792L17.8154 15.8438C18.3329 15.7937 18.8278 15.6067 19.2491 15.3019L26.279 10.2167C26.3381 10.174 26.3485 10.1054 26.3257 10.0505L26.1646 9.62411L26.1646 9.6241Z" fill="url(#paint3_linear_1850_53264)"/>
<path d="M15.9501 10.9077L8.92018 15.9929C8.80512 16.0762 8.87386 16.258 9.0152 16.2444L17.6512 15.409C18.1688 15.3589 18.6637 15.1719 19.085 14.8672L26.1149 9.78196C26.2299 9.69872 26.1612 9.51685 26.0198 9.53051L17.3838 10.3658C16.8663 10.4159 16.3714 10.603 15.9501 10.9077Z" fill="url(#paint4_linear_1850_53264)"/>
<path d="M16.2101 11.3658L9.92466 15.9125C9.82177 15.9869 9.88323 16.1496 10.0096 16.1374L17.7312 15.3905C18.1939 15.3457 18.6364 15.1785 19.0131 14.906L25.2986 10.3593C25.4015 10.2848 25.34 10.1222 25.2136 10.1344L17.492 10.8813C17.0293 10.9261 16.5868 11.0933 16.2101 11.3658Z" fill="url(#paint5_linear_1850_53264)"/>
<path d="M17.1179 11.829C16.8217 11.941 16.6578 12.2492 16.7168 12.5499L13.0871 15.1756C12.7024 15.4538 12.4923 15.9013 12.5045 16.3576L17.816 15.8438C18.3335 15.7938 18.8284 15.6068 19.2497 15.302L21.5586 13.6318L17.6644 11.8738C17.504 11.7811 17.3048 11.7584 17.1179 11.829Z" fill="url(#paint6_linear_1850_53264)"/>
<path d="M13.4462 18.3715C13.4158 18.383 13.3835 18.3884 13.351 18.3873C13.3185 18.3863 13.2865 18.3789 13.2569 18.3655C13.2272 18.3522 13.2005 18.3331 13.1783 18.3094C13.156 18.2857 13.1386 18.2578 13.1272 18.2274L12.594 16.8166C12.3695 16.2226 12.572 15.5478 13.0865 15.1757L17.2152 12.1891C17.3261 12.1092 17.4808 12.1338 17.5609 12.2445C17.5994 12.2977 17.6152 12.364 17.6048 12.4289C17.5944 12.4937 17.5586 12.5517 17.5055 12.5902L13.3767 15.5769C13.0429 15.8184 12.9114 16.2561 13.0571 16.6415L13.5903 18.0524C13.6135 18.1138 13.6113 18.1819 13.5843 18.2418C13.5573 18.3016 13.5077 18.3483 13.4462 18.3715Z" fill="url(#paint7_linear_1850_53264)"/>
<path d="M17.9422 12.2013C18.0671 12.5319 16.8702 12.9842 16.7452 12.6537C16.6203 12.3231 16.787 11.9539 17.1175 11.829C17.4481 11.7041 17.8173 11.8708 17.9422 12.2013Z" fill="url(#paint8_linear_1850_53264)"/>
<path d="M15.1145 20.9285C15.2394 21.2591 14.0424 21.7114 13.9175 21.3809C13.7926 21.0503 13.1896 18.6446 13.5201 18.5197C13.8507 18.3947 14.9895 20.598 15.1145 20.9285Z" fill="url(#paint9_linear_1850_53264)"/>
<path d="M15.1142 20.9285C15.1559 21.0388 15.0498 21.1631 14.8852 21.2672C14.7229 21.3699 14.5035 21.4528 14.3134 21.4833C14.2722 21.457 14.2393 21.4184 14.2191 21.3649C14.091 21.026 13.3502 18.6264 13.5161 18.5219C13.5172 18.521 13.5189 18.5203 13.5201 18.5199C13.5214 18.5194 13.5231 18.5187 13.5245 18.5187C13.8607 18.4138 14.9898 20.5993 15.1142 20.9285Z" fill="url(#paint10_linear_1850_53264)"/>
<path d="M14.9169 21.0031C14.9764 21.1606 14.8257 21.3118 14.6374 21.3917C14.6188 21.3992 14.6 21.4063 14.581 21.413C14.2898 21.5173 13.9778 21.5409 13.9174 21.3809C13.7931 21.052 13.1959 18.6698 13.5154 18.5221C13.517 18.5211 13.5186 18.5205 13.5203 18.5198C13.522 18.5192 13.5237 18.5186 13.5255 18.5183C13.7582 18.4708 14.7929 20.6751 14.9169 21.0031Z" fill="url(#paint11_linear_1850_53264)"/>
<path d="M13.6807 18.9483C14.0025 18.8266 14.1648 18.4672 14.0432 18.1454C13.9216 17.8236 13.5621 17.6614 13.2404 17.783C12.9186 17.9046 12.7563 18.264 12.8779 18.5858C12.9995 18.9076 13.359 19.0699 13.6807 18.9483Z" fill="url(#paint12_linear_1850_53264)"/>
<path d="M13.6453 18.852C13.9138 18.7505 14.0492 18.4505 13.9478 18.1819C13.8463 17.9134 13.5463 17.778 13.2777 17.8795C13.0092 17.981 12.8738 18.2809 12.9753 18.5495C13.0768 18.818 13.3767 18.9534 13.6453 18.852Z" fill="url(#paint13_linear_1850_53264)"/>
<path d="M13.5255 17.746C13.5966 17.8116 13.6514 17.8929 13.6854 17.9834C13.807 18.3052 13.6448 18.6647 13.323 18.7863C13.2293 18.8217 13.1324 18.833 13.0391 18.8233C13.2069 18.9781 13.4539 19.0346 13.682 18.9484C14.0038 18.8268 14.1661 18.4673 14.0445 18.1455C13.9583 17.9174 13.7526 17.7696 13.5255 17.746Z" fill="url(#paint14_linear_1850_53264)"/>
<defs>
<linearGradient id="paint0_linear_1850_53264" x1="15.9001" y1="17.3792" x2="23.932" y2="14.3437" gradientUnits="userSpaceOnUse">
<stop stop-color="#7E8595"/>
<stop offset="1" stop-color="#555A66"/>
</linearGradient>
<linearGradient id="paint1_linear_1850_53264" x1="15.3186" y1="17.5989" x2="13.4479" y2="18.3059" gradientUnits="userSpaceOnUse">
<stop stop-color="#555A66" stop-opacity="0"/>
<stop offset="1" stop-color="#555A66"/>
</linearGradient>
<linearGradient id="paint2_linear_1850_53264" x1="20.6617" y1="18.3625" x2="16.2057" y2="11.2225" gradientUnits="userSpaceOnUse">
<stop stop-color="#555A66" stop-opacity="0"/>
<stop offset="1" stop-color="#555A66"/>
</linearGradient>
<linearGradient id="paint3_linear_1850_53264" x1="17.095" y1="11.7698" x2="18.4285" y2="15.2984" gradientUnits="userSpaceOnUse">
<stop stop-color="#7E8595"/>
<stop offset="1" stop-color="#555A66"/>
</linearGradient>
<linearGradient id="paint4_linear_1850_53264" x1="14.5759" y1="10.978" x2="20.8058" y2="15.0218" gradientUnits="userSpaceOnUse">
<stop stop-color="#7E8595"/>
<stop offset="1" stop-color="#555A66"/>
</linearGradient>
<linearGradient id="paint5_linear_1850_53264" x1="17.5491" y1="13.0095" x2="13.4347" y2="4.69629" gradientUnits="userSpaceOnUse">
<stop stop-color="#BEC3D2" stop-opacity="0"/>
<stop offset="0.558" stop-color="#D4D9E4" stop-opacity="0.558"/>
<stop offset="1" stop-color="#E9EDF5"/>
</linearGradient>
<linearGradient id="paint6_linear_1850_53264" x1="16.9414" y1="14.8938" x2="15.3096" y2="13.0649" gradientUnits="userSpaceOnUse">
<stop stop-color="#555A66" stop-opacity="0"/>
<stop offset="1" stop-color="#555A66"/>
</linearGradient>
<linearGradient id="paint7_linear_1850_53264" x1="13.6404" y1="14.1489" x2="15.662" y2="15.4611" gradientUnits="userSpaceOnUse">
<stop stop-color="#FFDA45"/>
<stop offset="1" stop-color="#FFA425"/>
</linearGradient>
<linearGradient id="paint8_linear_1850_53264" x1="16.8498" y1="12.1254" x2="17.7119" y2="12.5146" gradientUnits="userSpaceOnUse">
<stop stop-color="#7E8595"/>
<stop offset="1" stop-color="#555A66"/>
</linearGradient>
<linearGradient id="paint9_linear_1850_53264" x1="13.7495" y1="20.0889" x2="15.3872" y2="19.4266" gradientUnits="userSpaceOnUse">
<stop stop-color="#FFDA45"/>
<stop offset="1" stop-color="#FFA425"/>
</linearGradient>
<linearGradient id="paint10_linear_1850_53264" x1="14.3486" y1="19.7613" x2="13.4289" y2="20.6929" gradientUnits="userSpaceOnUse">
<stop stop-color="#FFDA45" stop-opacity="0"/>
<stop offset="1" stop-color="#FCEE21"/>
</linearGradient>
<linearGradient id="paint11_linear_1850_53264" x1="13.7782" y1="20.2482" x2="15.4335" y2="18.7609" gradientUnits="userSpaceOnUse">
<stop stop-color="#FFDA45" stop-opacity="0"/>
<stop offset="1" stop-color="#B53759"/>
</linearGradient>
<linearGradient id="paint12_linear_1850_53264" x1="13.1602" y1="18.23" x2="14.1999" y2="18.6994" gradientUnits="userSpaceOnUse">
<stop stop-color="#FF7044"/>
<stop offset="1" stop-color="#F92814"/>
</linearGradient>
<linearGradient id="paint13_linear_1850_53264" x1="13.5415" y1="18.4018" x2="12.815" y2="18.0738" gradientUnits="userSpaceOnUse">
<stop stop-color="#FF7044" stop-opacity="0"/>
<stop offset="1" stop-color="#FFA425"/>
</linearGradient>
<linearGradient id="paint14_linear_1850_53264" x1="13.5665" y1="18.5814" x2="13.8044" y2="16.7892" gradientUnits="userSpaceOnUse">
<stop stop-color="#F92814" stop-opacity="0"/>
<stop offset="1" stop-color="#C1272D"/>
</linearGradient>
</defs>
</svg>
