<svg width="40" height="40" viewBox="0 0 40 40" fill="none" xmlns="http://www.w3.org/2000/svg">
<rect width="40" height="40" rx="20" fill="#13305B" fill-opacity="0.1"/>
<path d="M28.2402 18.2517C28.5637 18.2517 28.8261 17.9893 28.8261 17.6657V12.9502C28.8261 11.3292 27.5089 10 25.8744 10L14.1029 10C12.4878 10 11.1738 11.314 11.1738 12.9291V29.4035C11.1738 29.9282 11.8185 30.1893 12.183 29.8088L12.9326 29.0259L13.7244 29.8178C13.9532 30.0466 14.3242 30.0466 14.553 29.8179L15.3034 29.0678L16.0614 29.8195C16.2898 30.046 16.6581 30.0461 16.8866 29.8196L17.6566 29.0562L18.4269 29.8196C18.6551 30.046 19.023 30.046 19.2515 29.82L20.2383 28.8435C21.1411 29.5667 22.2857 30 23.5297 30C26.4375 30 28.8032 27.6343 28.8032 24.7266C28.8032 22.0106 26.7393 19.7679 24.0976 19.4838V18.2517H28.2402ZM27.6542 12.9502V17.0798H24.0976V12.9502C24.0976 11.9696 24.8953 11.1719 25.8759 11.1719C26.8564 11.1719 27.6542 11.9696 27.6542 12.9502ZM18.8397 28.5789L18.069 27.815C17.8405 27.5886 17.4724 27.5887 17.244 27.815L16.4741 28.5784L15.7144 27.8249C15.4853 27.5977 15.1157 27.5984 14.8875 27.8265L14.1389 28.5749L13.3379 27.7739C13.0984 27.5345 12.7214 27.5521 12.5003 27.783L12.3457 27.9444V12.9291C12.3457 11.9602 13.1339 11.1719 14.1029 11.1719H23.5238C23.1487 11.6667 22.9257 12.2828 22.9257 12.9502V19.4879C18.8133 19.9591 16.8358 24.7957 19.41 28.0145L18.8397 28.5789ZM27.6313 24.7266C27.6313 26.9882 25.7913 28.8281 23.5297 28.8281C21.2681 28.8281 19.4282 26.9882 19.4282 24.7266C19.4282 22.465 21.2681 20.625 23.5297 20.625C25.7913 20.625 27.6313 22.465 27.6313 24.7266Z" fill="#13305B"/>
<path d="M21.875 24.3125L23 25.8125L25.625 23.75" stroke="#13305B" stroke-width="1.25" stroke-linecap="round" stroke-linejoin="round"/>
<path d="M18.6995 15.333C18.1389 14.8961 17.4075 14.8283 17.2441 14.5334C17.1864 14.4293 17.2479 14.2579 17.373 14.1737C17.5511 14.054 17.932 14.1012 18.0658 14.2246C18.3037 14.4441 18.6744 14.429 18.8938 14.1912C19.1132 13.9533 19.0982 13.5826 18.8603 13.3632C18.6783 13.1953 18.4474 13.0755 18.1978 13.0056V12.9573C18.1978 12.6337 17.9354 12.3713 17.6118 12.3713C17.2882 12.3713 17.0259 12.6337 17.0259 12.9573V13.0448C16.1742 13.364 15.8084 14.3599 16.219 15.1012C16.5067 15.6206 17.0114 15.8199 17.417 15.9801C17.7381 16.1069 18.2111 16.2809 18.172 16.6317C18.1533 16.799 18.0268 16.965 17.8572 17.0448C17.6152 17.1586 17.1288 17.0883 16.8366 16.8972C16.5659 16.72 16.2027 16.7959 16.0255 17.0667C15.8484 17.3375 15.9243 17.7007 16.1951 17.8778C16.4228 18.0268 16.7139 18.1469 17.0259 18.2138V18.2883C17.0259 18.6119 17.2882 18.8742 17.6118 18.8742C17.9354 18.8742 18.1978 18.6119 18.1978 18.2883V18.1687C19.3804 17.759 19.8145 16.2019 18.6995 15.333ZM17.0703 20.0025H14.1406C13.817 20.0025 13.5547 20.2649 13.5547 20.5885C13.5547 20.9121 13.817 21.1744 14.1406 21.1744H17.0703C17.3939 21.1744 17.6563 20.9121 17.6563 20.5885C17.6563 20.2649 17.3939 20.0025 17.0703 20.0025ZM17.0703 22.3502H14.1387C13.8151 22.3502 13.5527 22.6125 13.5527 22.9361C13.5527 23.2597 13.8151 23.5221 14.1387 23.5221H17.0703C17.3939 23.5221 17.6563 23.2597 17.6563 22.9361C17.6563 22.6125 17.3939 22.3502 17.0703 22.3502ZM17.0703 24.69H14.1367C13.8131 24.69 13.5508 24.9524 13.5508 25.276C13.5508 25.5996 13.8131 25.8619 14.1367 25.8619H17.0703C17.3939 25.8619 17.6563 25.5996 17.6563 25.276C17.6563 24.9524 17.3939 24.69 17.0703 24.69Z" fill="#13305B"/>
</svg>
