<svg width="17" height="16" viewBox="0 0 17 16" fill="none" xmlns="http://www.w3.org/2000/svg">
<path d="M12.251 8.03084C11.9745 8.03084 11.751 8.25487 11.751 8.5308V12.5308C11.751 12.8062 11.527 13.0307 11.2511 13.0307H4.25099C3.97496 13.0307 3.75101 12.8062 3.75101 12.5308V5.53086C3.75101 5.25538 3.97496 5.0309 4.25099 5.0309H8.25104C8.52754 5.0309 8.75101 4.80688 8.75101 4.53094C8.75101 4.25492 8.52754 4.03088 8.25104 4.03088H4.25099C3.42399 4.03088 2.75098 4.70388 2.75098 5.53086V12.5308C2.75098 13.3578 3.42399 14.0307 4.25099 14.0307H11.2511C12.0781 14.0307 12.7511 13.3578 12.7511 12.5308V8.5308C12.7511 8.25433 12.5275 8.03084 12.251 8.03084Z" fill="white"/>
<path d="M7.43856 7.57526C7.40381 7.61017 7.38 7.65446 7.37007 7.70271L7.01658 9.47075C7.00011 9.55269 7.0261 9.63718 7.08507 9.69668C7.10834 9.71988 7.13595 9.73826 7.16633 9.75079C7.19671 9.76331 7.22926 9.76972 7.26212 9.76967C7.27806 9.76967 7.29463 9.76819 7.3111 9.76472L9.07863 9.41124C9.12761 9.40117 9.1721 9.37773 9.20662 9.34267L13.1627 5.38673L11.3951 3.61934L7.43856 7.57526ZM14.3846 2.39689C13.8972 1.90937 13.1041 1.90937 12.6171 2.39689L11.9251 3.08882L13.6926 4.8563L14.3846 4.16427C14.6206 3.9288 14.7506 3.61477 14.7506 3.28079C14.7506 2.94681 14.6206 2.6328 14.3846 2.39689Z" fill="white"/>
</svg>
