<svg width="40" height="40" viewBox="0 0 40 40" fill="none" xmlns="http://www.w3.org/2000/svg">
<path d="M20 0C8.97263 0 0 8.97263 0 20C0 25.096 1.91789 29.9482 5.39537 33.6623C9.16126 37.6905 14.4825 40 20 40C25.5175 40 30.8387 37.6905 34.6046 33.6623C38.0821 29.9486 40 25.096 40 20C40 8.97263 31.0274 0 20 0ZM20 6.55579C24.3941 6.55579 27.9562 10.1179 27.9562 14.512C27.9562 18.9061 24.3941 22.4686 20 22.4686C15.6059 22.4686 12.0438 18.9065 12.0438 14.512C12.0438 10.1183 15.6059 6.55579 20 6.55579ZM8.68084 28.9579C10.5693 27.0733 13.1743 25.9053 16.0535 25.9053H23.9469C28.0674 25.9053 31.6333 28.2964 33.3259 31.7705C33.2152 31.8994 33.1006 32.0253 32.9861 32.1469C29.6379 35.728 24.904 37.7827 20 37.7827C15.096 37.7827 10.3621 35.728 7.0139 32.1469C6.89937 32.0248 6.78484 31.8994 6.67411 31.7701C7.18165 30.7273 7.8599 29.7771 8.68084 28.9579Z" fill="#D8E6FF"/>
</svg>
