<svg width="195" height="198" viewBox="0 0 195 198" fill="none" xmlns="http://www.w3.org/2000/svg">
<path d="M97.5 195C151.348 195 195 151.348 195 97.5C195 43.6522 151.348 0 97.5 0C43.6522 0 0 43.6522 0 97.5C0 151.348 43.6522 195 97.5 195Z" fill="#1581BF" fill-opacity="0.09"/>
<g filter="url(#filter0_d_1236_31582)">
<mask id="mask0_1236_31582" style="mask-type:alpha" maskUnits="userSpaceOnUse" x="0" y="0" width="195" height="195">
<path d="M97.5 195C151.348 195 195 151.348 195 97.5C195 43.6522 151.348 0 97.5 0C43.6522 0 0 43.6522 0 97.5C0 151.348 43.6522 195 97.5 195Z" fill="#E6F4F4"/>
</mask>
<g mask="url(#mask0_1236_31582)">
<path d="M153.4 55.8999H41.6001C38.0102 55.8999 35.1001 58.8101 35.1001 62.3999V198.9C35.1001 202.49 38.0102 205.4 41.6001 205.4H153.4C156.99 205.4 159.9 202.49 159.9 198.9V62.3999C159.9 58.8101 156.99 55.8999 153.4 55.8999Z" fill="white"/>
</g>
</g>
<path d="M85.8001 68.8999H52.0001C49.8462 68.8999 48.1001 70.646 48.1001 72.7999C48.1001 74.9538 49.8462 76.6999 52.0001 76.6999H85.8001C87.954 76.6999 89.7001 74.9538 89.7001 72.7999C89.7001 70.646 87.954 68.8999 85.8001 68.8999Z" fill="#E1EBFA"/>
<path d="M85.8001 123.5H52.0001C49.8462 123.5 48.1001 125.246 48.1001 127.4C48.1001 129.554 49.8462 131.3 52.0001 131.3H85.8001C87.954 131.3 89.7001 129.554 89.7001 127.4C89.7001 125.246 87.954 123.5 85.8001 123.5Z" fill="#E1EBFA"/>
<path d="M67.8458 88.3999H50.454C49.8718 88.3999 49.3999 90.728 49.3999 93.5999V106.6C49.3999 109.472 49.8718 111.8 50.454 111.8H67.8458C68.428 111.8 68.8999 109.472 68.8999 106.6V93.5999C68.8999 90.728 68.428 88.3999 67.8458 88.3999Z" stroke="#1581BF" stroke-width="2"/>
<path d="M93.8458 88.3999H76.454C75.8718 88.3999 75.3999 90.728 75.3999 93.5999V106.6C75.3999 109.472 75.8718 111.8 76.454 111.8H93.8458C94.428 111.8 94.8999 109.472 94.8999 106.6V93.5999C94.8999 90.728 94.428 88.3999 93.8458 88.3999Z" stroke="#1581BF" stroke-width="2"/>
<path d="M119.846 88.3999H102.454C101.872 88.3999 101.4 90.728 101.4 93.5999V106.6C101.4 109.472 101.872 111.8 102.454 111.8H119.846C120.428 111.8 120.9 109.472 120.9 106.6V93.5999C120.9 90.728 120.428 88.3999 119.846 88.3999Z" stroke="#1581BF" stroke-width="2"/>
<path d="M145.846 88.3999H128.454C127.872 88.3999 127.4 90.728 127.4 93.5999V106.6C127.4 109.472 127.872 111.8 128.454 111.8H145.846C146.428 111.8 146.9 109.472 146.9 106.6V93.5999C146.9 90.728 146.428 88.3999 145.846 88.3999Z" stroke="#1581BF" stroke-width="2"/>
<path d="M140.4 141.7H54.6001C51.0102 141.7 48.1001 144.61 48.1001 148.2V158.6C48.1001 162.19 51.0102 165.1 54.6001 165.1H140.4C143.99 165.1 146.9 162.19 146.9 158.6V148.2C146.9 144.61 143.99 141.7 140.4 141.7Z" fill="#DFEAFB"/>
<path d="M111.8 114.4C115.39 114.4 118.3 111.49 118.3 107.9C118.3 104.31 115.39 101.4 111.8 101.4C108.21 101.4 105.3 104.31 105.3 107.9C105.3 111.49 108.21 114.4 111.8 114.4Z" fill="#DFEAFB"/>
<path d="M116.879 135.681C115.839 135.681 114.868 135.681 113.984 135.625C112.895 135.552 111.848 135.179 110.957 134.548C110.066 133.918 109.366 133.054 108.935 132.051L103.45 121.212C103.048 120.744 102.847 120.135 102.891 119.52C102.936 118.904 103.222 118.33 103.687 117.924C104.068 117.618 104.543 117.453 105.032 117.458C105.392 117.468 105.746 117.557 106.068 117.717C106.391 117.877 106.675 118.105 106.9 118.386L109.391 121.785L109.429 121.83V108.914C109.429 108.273 109.683 107.659 110.136 107.206C110.59 106.753 111.204 106.498 111.845 106.498C112.486 106.498 113.1 106.753 113.553 107.206C114.006 107.659 114.261 108.273 114.261 108.914V117.364C114.233 117.053 114.27 116.74 114.37 116.444C114.469 116.148 114.63 115.876 114.84 115.646C115.051 115.415 115.307 115.231 115.593 115.105C115.879 114.979 116.187 114.914 116.5 114.914C116.812 114.914 117.12 114.979 117.406 115.105C117.692 115.231 117.948 115.415 118.159 115.646C118.369 115.876 118.53 116.148 118.629 116.444C118.729 116.74 118.766 117.053 118.738 117.364V119.126C118.71 118.815 118.747 118.501 118.847 118.205C118.947 117.91 119.107 117.638 119.317 117.407C119.528 117.177 119.784 116.993 120.07 116.867C120.356 116.741 120.665 116.676 120.977 116.676C121.289 116.676 121.598 116.741 121.883 116.867C122.169 116.993 122.425 117.177 122.636 117.407C122.847 117.638 123.007 117.91 123.107 118.205C123.206 118.501 123.243 118.815 123.215 119.126V120.483C123.187 120.172 123.224 119.858 123.324 119.563C123.424 119.267 123.584 118.995 123.795 118.765C124.005 118.534 124.262 118.35 124.547 118.224C124.833 118.098 125.142 118.033 125.454 118.033C125.766 118.033 126.075 118.098 126.361 118.224C126.646 118.35 126.903 118.534 127.113 118.765C127.324 118.995 127.484 119.267 127.584 119.563C127.684 119.858 127.721 120.172 127.693 120.483V128.721C127.648 131.255 126.503 135.526 122.474 135.526C122.182 135.539 119.704 135.682 116.884 135.682L116.879 135.681Z" fill="#1581BF" stroke="white"/>
<path d="M83.2 41.6002C86.0719 41.6002 88.4 39.2721 88.4 36.4002C88.4 33.5283 86.0719 31.2002 83.2 31.2002C80.3281 31.2002 78 33.5283 78 36.4002C78 39.2721 80.3281 41.6002 83.2 41.6002Z" fill="white"/>
<path d="M111.6 41.6002C114.472 41.6002 116.8 39.2721 116.8 36.4002C116.8 33.5283 114.472 31.2002 111.6 31.2002C108.728 31.2002 106.4 33.5283 106.4 36.4002C106.4 39.2721 108.728 41.6002 111.6 41.6002Z" fill="#1581BF"/>
<defs>
<filter id="filter0_d_1236_31582" x="29.1001" y="46.8999" width="136.8" height="151.1" filterUnits="userSpaceOnUse" color-interpolation-filters="sRGB">
<feFlood flood-opacity="0" result="BackgroundImageFix"/>
<feColorMatrix in="SourceAlpha" type="matrix" values="0 0 0 0 0 0 0 0 0 0 0 0 0 0 0 0 0 0 127 0" result="hardAlpha"/>
<feOffset dy="-3"/>
<feGaussianBlur stdDeviation="3"/>
<feColorMatrix type="matrix" values="0 0 0 0 0.788235 0 0 0 0 0.803922 0 0 0 0 0.85098 0 0 0 0.349 0"/>
<feBlend mode="normal" in2="BackgroundImageFix" result="effect1_dropShadow_1236_31582"/>
<feBlend mode="normal" in="SourceGraphic" in2="effect1_dropShadow_1236_31582" result="shape"/>
</filter>
</defs>
</svg>
