<svg width="19" height="11" viewBox="0 0 19 11" fill="none" xmlns="http://www.w3.org/2000/svg">
<path fill-rule="evenodd" clip-rule="evenodd" d="M17.2255 9.16558C17.151 9.14893 17.0713 9.12367 17.0156 9.10594C13.4014 7.20332 13.2754 7.20009 13.1158 7.20009C12.9678 7.20009 12.8262 7.25463 12.7244 7.36263C12.6226 7.46982 12.5702 7.60093 12.5796 7.74896L12.6583 9.04818C12.651 9.46487 12.3077 9.73353 11.8711 9.73353H1.8943C1.43785 9.73353 1.07463 9.54036 1.07463 9.12367V2.10072C1.07463 1.64642 1.47439 1.13758 1.8943 1.13758V1.13651H11.8711C12.2932 1.13651 12.65 1.5583 12.6583 1.99594L12.5796 3.15547C12.5691 3.30457 12.6215 3.45126 12.7222 3.5606C12.8241 3.66967 12.9667 3.73173 13.1158 3.73173C13.291 3.73173 13.3383 3.73173 17.0481 1.74609C17.1215 1.71144 17.1771 1.69048 17.2182 1.67893C17.2244 1.72729 17.2287 1.79767 17.2265 1.90352L17.2255 9.16558ZM17.961 0.86248C17.7848 0.683017 17.5656 0.58657 17.298 0.58657C17.0807 0.58657 16.8467 0.644331 16.5621 0.781614C15.6167 1.28642 14.6689 1.78505 13.7192 2.28018L13.7319 2.07869C13.7329 2.06633 13.734 2.0263 13.734 2.0126C13.734 0.967525 12.8987 0.0629578 11.8711 0.0629578H1.8943C0.884687 0.0629578 0 1.05564 0 2.10072V9.12367C0 10.129 0.85003 10.8082 1.8943 10.8082H11.8711C12.9071 10.8082 13.7192 10.0704 13.7329 9.05651C13.7319 9.05866 13.7319 9.05947 13.7319 9.05758L13.7047 8.61054C14.4183 8.96839 15.5276 9.54358 16.5549 10.0849C16.5842 10.1005 16.6116 10.1145 16.643 10.1239C16.9232 10.2099 17.1457 10.2698 17.3609 10.2708C17.744 10.2676 17.9758 10.0809 18.0881 9.92454C18.2224 9.7397 18.2687 9.50033 18.2687 9.17714V1.92045C18.2687 1.70633 18.2958 1.2026 17.961 0.86248Z" fill="#282828"/>
</svg>
