<svg width="25" height="25" viewBox="0 0 25 25" fill="none" xmlns="http://www.w3.org/2000/svg">
<path d="M20.4998 3.5H5.49976C3.84576 3.5 2.49976 4.846 2.49976 6.5V18.5C2.49976 20.154 3.84576 21.5 5.49976 21.5H20.4998C21.6028 21.5 22.4998 20.603 22.4998 19.5V5.5C22.4998 4.397 21.6028 3.5 20.4998 3.5ZM5.49976 19.5C4.94776 19.5 4.49976 19.051 4.49976 18.5V6.5C4.49976 5.949 4.94776 5.5 5.49976 5.5H20.4998V8.5H14.4998C13.3968 8.5 12.4998 9.397 12.4998 10.5V14.5C12.4998 15.603 13.3968 16.5 14.4998 16.5H20.5008V19.5H5.49976ZM20.4998 10.5V14.5H14.4998V10.5H20.4998Z" fill="#1581BF"/>
</svg>
