<svg width="25" height="24" viewBox="0 0 25 24" fill="none" xmlns="http://www.w3.org/2000/svg">
<path d="M22.1164 13.64V14.64C22.1164 14.91 21.9064 15.13 21.6264 15.14H20.1664C19.6364 15.14 19.1564 14.75 19.1164 14.23C19.0864 13.92 19.2064 13.63 19.4064 13.43C19.5864 13.24 19.8364 13.14 20.1064 13.14H21.6164C21.9064 13.15 22.1164 13.37 22.1164 13.64Z" fill="#1E88E5"/>
<path d="M18.6567 12.69C18.1567 13.18 17.9167 13.91 18.1167 14.67C18.3767 15.6 19.2867 16.19 20.2467 16.19H21.1167C21.6667 16.19 22.1167 16.64 22.1167 17.19V17.38C22.1167 19.45 20.4267 21.14 18.3567 21.14H6.8767C4.8067 21.14 3.1167 19.45 3.1167 17.38V10.65C3.1167 9.42001 3.7067 8.33001 4.6167 7.65001C5.2467 7.17001 6.0267 6.89001 6.8767 6.89001H18.3567C20.4267 6.89001 22.1167 8.58001 22.1167 10.65V11.09C22.1167 11.64 21.6667 12.09 21.1167 12.09H20.0967C19.5367 12.09 19.0267 12.31 18.6567 12.69Z" fill="#1E88E5"/>
<path d="M16.8666 4.82C17.1366 5.09 16.9066 5.51 16.5266 5.51L8.84656 5.5C8.40656 5.5 8.17656 4.96 8.49656 4.65L10.1166 3.02C11.4866 1.66 13.7066 1.66 15.0766 3.02L16.8266 4.79C16.8366 4.8 16.8566 4.81 16.8666 4.82Z" fill="#1E88E5"/>
</svg>
