<svg width="25" height="24" viewBox="0 0 25 24" fill="none" xmlns="http://www.w3.org/2000/svg">
<path d="M22.6665 12V17C22.6665 20 20.6665 22 17.6665 22H7.6665C4.6665 22 2.6665 20 2.6665 17V12C2.6665 9.28 4.3065 7.38 6.8565 7.06C7.1165 7.02 7.3865 7 7.6665 7H17.6665C17.9265 7 18.1765 7.00999 18.4165 7.04999C20.9965 7.34999 22.6665 9.26 22.6665 12Z" stroke="#9DB2CE" stroke-width="1.5" stroke-linecap="round" stroke-linejoin="round"/>
<path d="M18.4179 7.05C18.1779 7.01 17.9279 7.00001 17.6679 7.00001H7.66791C7.38791 7.00001 7.11791 7.02001 6.85791 7.06001C6.99791 6.78001 7.19791 6.52001 7.43791 6.28001L10.6879 3.02C12.0579 1.66 14.2779 1.66 15.6479 3.02L17.3979 4.79002C18.0379 5.42002 18.3779 6.22 18.4179 7.05Z" stroke="#9DB2CE" stroke-width="1.5" stroke-linecap="round" stroke-linejoin="round"/>
<path d="M22.6665 12.5H19.6665C18.5665 12.5 17.6665 13.4 17.6665 14.5C17.6665 15.6 18.5665 16.5 19.6665 16.5H22.6665" stroke="#9DB2CE" stroke-width="1.5" stroke-linecap="round" stroke-linejoin="round"/>
</svg>
