<svg width="20" height="20" viewBox="0 0 20 20" fill="none" xmlns="http://www.w3.org/2000/svg">
<rect width="20" height="20" fill="white"/>
<path fill-rule="evenodd" clip-rule="evenodd" d="M5.75934 1.30677C5.17329 1.30677 4.69919 1.78087 4.69919 2.36692V17.633C4.69919 18.2191 5.17329 18.6932 5.75934 18.6932H14.2405C14.8266 18.6932 15.3007 18.2191 15.3007 17.633V2.36692C15.3007 1.78087 14.8266 1.30677 14.2405 1.30677H5.75934ZM3.427 2.36693C3.427 1.07779 4.47019 0.0346069 5.75933 0.0346069H14.2405C15.5296 0.0346069 16.5728 1.07779 16.5728 2.36693V17.6331C16.5728 18.9222 15.5296 19.9654 14.2405 19.9654H5.75933C4.47019 19.9654 3.427 18.9222 3.427 17.6331V2.36693Z" fill="#6C6C6C"/>
<path fill-rule="evenodd" clip-rule="evenodd" d="M7.66747 16.7849C7.66747 16.4338 7.95244 16.1488 8.30356 16.1488H11.696C12.0472 16.1488 12.3321 16.4338 12.3321 16.7849C12.3321 17.136 12.0472 17.421 11.696 17.421H8.30356C7.95244 17.421 7.66747 17.136 7.66747 16.7849ZM7.63779 1.30679L7.79045 1.61465C7.82692 1.6842 7.89901 1.73084 7.97873 1.73084H12.0209C12.1006 1.73084 12.1727 1.6842 12.2091 1.61465L12.3618 1.30679H7.63779ZM6.06707 0.335689C6.18326 0.150799 6.38511 0.0346069 6.60732 0.0346069H13.3923C13.6111 0.0346069 13.8163 0.150799 13.9325 0.335689C14.0479 0.524819 14.058 0.757204 13.9622 0.955663L13.3456 2.18119C13.0971 2.68498 12.5806 3.00302 12.0209 3.00302H7.97873C7.41897 3.00302 6.90247 2.68498 6.65397 2.18119L6.03739 0.955663C5.93816 0.757204 5.95173 0.521427 6.06707 0.335689Z" fill="#6C6C6C"/>
</svg>
