<svg width="28" height="28" viewBox="0 0 28 28" fill="none" xmlns="http://www.w3.org/2000/svg">
<circle cx="14.0005" cy="14" r="14.0005" fill="#1581BF"/>
<path d="M19.1804 10.7375L17.2624 8.81951C17.0121 8.58438 16.6841 8.44946 16.3407 8.44043C15.9974 8.43139 15.6627 8.54887 15.4004 8.77051L9.1004 15.0705C8.87414 15.2987 8.73326 15.5978 8.7014 15.9175L8.4004 18.8365C8.39097 18.939 8.40428 19.0424 8.43937 19.1392C8.47445 19.236 8.53046 19.3238 8.6034 19.3965C8.66881 19.4614 8.74638 19.5127 8.83167 19.5476C8.91695 19.5824 9.00828 19.6 9.1004 19.5995H9.1634L12.0824 19.3335C12.4022 19.3017 12.7012 19.1608 12.9294 18.9345L19.2294 12.6345C19.4739 12.3762 19.6061 12.0315 19.5969 11.6759C19.5877 11.3203 19.4379 10.9829 19.1804 10.7375ZM11.9564 17.9335L9.8564 18.1295L10.0454 16.0295L14.0004 12.1235L15.8904 14.0135L11.9564 17.9335ZM16.8004 13.0755L14.9244 11.1995L16.2894 9.79951L18.2004 11.7105L16.8004 13.0755Z" fill="white"/>
</svg>
