<svg width="21" height="21" viewBox="0 0 21 21" fill="none" xmlns="http://www.w3.org/2000/svg">
<path d="M19.8331 17.8334V10.6596C19.8331 10.1605 19.7313 9.66663 19.5338 9.20827C19.3363 8.74991 19.0473 8.33669 18.6845 7.99393L11.9259 1.6066C11.5855 1.28478 11.1349 1.10547 10.6664 1.10547C10.198 1.10547 9.74732 1.28478 9.40692 1.6066L2.64834 7.99393C2.28554 8.33669 1.99655 8.74991 1.79905 9.20827C1.60155 9.66663 1.4997 10.1605 1.49976 10.6596V17.8334C1.49976 18.3197 1.69291 18.786 2.03673 19.1298C2.38054 19.4736 2.84686 19.6668 3.33309 19.6668H17.9998C18.486 19.6668 18.9523 19.4736 19.2961 19.1298C19.6399 18.786 19.8331 18.3197 19.8331 17.8334Z" stroke="white" stroke-width="2" stroke-linecap="round" stroke-linejoin="round"/>
<path d="M2.80052 7.94036L9.38022 2.13474C10.1202 1.48184 11.2257 1.46623 11.9838 2.09798L18.9466 7.90031C19.4026 8.28029 19.6663 8.84319 19.6663 9.43675V17C19.6663 18.1046 18.7708 19 17.6663 19H3.76376C2.62184 19 1.71171 18.0455 1.76603 16.9049L2.12603 9.3449C2.15175 8.80479 2.39507 8.29811 2.80052 7.94036Z" fill="white"/>
</svg>
