<svg width="71" height="71" viewBox="0 0 71 71" fill="none" xmlns="http://www.w3.org/2000/svg">
<path opacity="0.1" d="M35.09 0C44.7795 0 53.552 3.92775 59.9022 10.2778C66.2523 16.628 70.18 25.4005 70.18 35.09C70.18 44.7795 66.2523 53.552 59.9022 59.9022C53.552 66.2523 44.7795 70.18 35.09 70.18C25.4005 70.18 16.628 66.2523 10.2778 59.9022C3.92775 53.552 0 44.7795 0 35.09C0 25.4005 3.92775 16.628 10.2778 10.2778C16.628 3.92775 25.4005 0 35.09 0Z" fill="#1581BF"/>
<path d="M29.0573 40.5961V42.7406L26.9435 46.29L34.8562 52.5336L42.778 46.234L40.0093 42.535V40.5397C42.8547 40.3881 45.2982 40.1348 46.6509 39.8044C48.399 39.3783 49.8566 38.7403 50.8624 37.7784C49.2934 37.0244 48.2909 35.7345 47.7131 34.0482C46.3704 30.1292 47.6436 25.7203 47.0437 21.4655C46.2399 15.7676 42.5175 13.8622 38.8227 14.2563C34.1104 10.3831 25.6545 12.6452 23.3661 19.2651C22.2102 22.6091 22.9138 25.4089 22.7899 28.7974C22.6227 33.3557 21.4366 36.4008 18.859 37.3718C19.7513 38.4334 21.0274 39.2491 22.7079 39.7978C23.9624 40.2073 26.2983 40.4654 29.0573 40.5961Z" fill="#1581BF"/>
<path d="M35.09 70.1797C44.7795 70.1797 53.552 66.252 59.9022 59.9019L59.2921 54.1554C56.7637 46.7699 53.8229 47.4794 41.9933 42.9023C43.8032 44.864 45.3582 46.9513 46.5845 49.4129L43.0324 49.3259L34.6632 55.6948L26.6886 49.3259L23.1364 49.4129C24.3633 46.9513 25.9184 44.864 27.7283 42.9023C15.8696 47.4906 13.3751 46.5166 10.874 54.1377L10.2778 59.9019C16.628 66.252 25.4005 70.1797 35.09 70.1797Z" fill="#1581BF"/>
</svg>
