<svg width="17" height="16" viewBox="0 0 17 16" fill="none" xmlns="http://www.w3.org/2000/svg">
<path fill-rule="evenodd" clip-rule="evenodd" d="M6.73359 6.39996C7.17542 6.39996 7.53359 6.75814 7.53359 7.19996V11.2C7.53359 11.6418 7.17542 12 6.73359 12C6.29177 12 5.93359 11.6418 5.93359 11.2V7.19996C5.93359 6.75814 6.29177 6.39996 6.73359 6.39996Z" fill="#F04438"/>
<path fill-rule="evenodd" clip-rule="evenodd" d="M9.93379 6.39996C10.3756 6.39996 10.7338 6.75814 10.7338 7.19996V11.2C10.7338 11.6418 10.3756 12 9.93379 12C9.49196 12 9.13379 11.6418 9.13379 11.2V7.19996C9.13379 6.75814 9.49196 6.39996 9.93379 6.39996Z" fill="#F04438"/>
<path fill-rule="evenodd" clip-rule="evenodd" d="M6.73301 0C5.40752 0 4.33301 1.07452 4.33301 2.4H1.93301H1.13301C0.69118 2.4 0.333008 2.75817 0.333008 3.2C0.333008 3.64183 0.69118 4 1.13301 4H1.93301V13.6C1.93301 14.9255 3.00752 16 4.33301 16H12.333C13.6585 16 14.733 14.9255 14.733 13.6V4H15.533C15.9748 4 16.333 3.64183 16.333 3.2C16.333 2.75817 15.9748 2.4 15.533 2.4H14.733H12.333C12.333 1.07452 11.2585 0 9.93301 0H6.73301ZM10.733 2.4C10.733 1.95817 10.3748 1.6 9.93301 1.6H6.73301C6.29118 1.6 5.93301 1.95817 5.93301 2.4H10.733ZM4.33301 4H3.53301V13.6C3.53301 14.0418 3.89118 14.4 4.33301 14.4H12.333C12.7748 14.4 13.133 14.0418 13.133 13.6V4H12.333H4.33301Z" fill="#F04438"/>
</svg>
