<svg width="16" height="16" viewBox="0 0 16 16" fill="none" xmlns="http://www.w3.org/2000/svg">
<path d="M11.8978 14.0696L11.8978 14.0696L11.2135 11.3211L11.2358 11.2764C11.2357 11.2763 11.2355 11.2762 11.2353 11.2761C11.17 11.2436 11.0987 11.2244 11.0259 11.2197C10.9528 11.215 10.8795 11.2249 10.8103 11.2489C10.7412 11.2728 10.6775 11.3104 10.623 11.3593C10.5685 11.4082 10.5243 11.4675 10.493 11.5337C10.4618 11.5999 10.444 11.6716 10.4409 11.7448C10.4377 11.8179 10.4492 11.891 10.4746 11.9596C10.5 12.0283 10.5389 12.0912 10.589 12.1446C10.6389 12.1979 10.6989 12.2407 10.7656 12.2705C11.0072 12.3847 11.2006 12.5104 11.3299 12.6496C11.4055 12.7317 11.45 12.8017 11.45 12.8751C11.45 12.934 11.4197 12.9916 11.3665 13.0584C11.2741 13.1739 11.1337 13.2801 10.9563 13.3812C10.2946 13.7568 9.21721 13.9916 8 13.9916C6.85883 13.9916 5.84023 13.7843 5.16941 13.4479L5.1694 13.4479C4.94955 13.3378 4.77393 13.2182 4.65745 13.0865L4.62 13.1196L4.65745 13.0865C4.58969 13.0099 4.55 12.9435 4.55 12.8751C4.55 12.8017 4.59452 12.7317 4.67017 12.6496C4.79944 12.5103 4.99286 12.3847 5.23442 12.2705C5.30106 12.2407 5.36109 12.1979 5.41102 12.1446C5.46107 12.0912 5.49996 12.0283 5.52539 11.9596C5.55082 11.891 5.56229 11.8179 5.55913 11.7448C5.55596 11.6716 5.53823 11.5999 5.50696 11.5337C5.47569 11.4675 5.43152 11.4082 5.37703 11.3593C5.32254 11.3104 5.25884 11.2728 5.18966 11.2489C5.12048 11.2249 5.04721 11.215 4.97415 11.2197C4.90127 11.2244 4.83006 11.2436 4.76468 11.2761C3.91298 11.6786 3.45 12.2751 3.45 12.8751C3.45 13.4557 3.8788 14.0314 4.67659 14.4313C5.47333 14.8307 6.66699 15.0916 8 15.0916C9.69057 15.0916 11.1593 14.6632 11.8978 14.0696ZM7.5985 13.2981L7.55835 13.3279L7.55843 13.328C7.60972 13.3968 7.67635 13.4526 7.75301 13.491C7.82967 13.5294 7.91424 13.5495 8 13.5495C8.08576 13.5495 8.17033 13.5294 8.24699 13.491C8.32365 13.4526 8.39028 13.3968 8.44157 13.328L8.44165 13.3279L8.4015 13.2981L8.44167 13.3279L8.44174 13.3278L8.44202 13.3274L8.4431 13.326L8.44736 13.3202L8.46404 13.2976C8.47871 13.2776 8.50035 13.2481 8.5283 13.2097C8.58419 13.1328 8.66531 13.0205 8.76632 12.8782C8.96833 12.5938 9.24988 12.1898 9.56818 11.7117C10.2046 10.7558 10.9887 9.50211 11.5773 8.31382L11.5773 8.31381C12.1142 7.22953 12.484 6.18356 12.484 5.43412C12.484 2.95951 10.4751 0.950122 8 0.950122C5.52488 0.950122 3.516 2.95951 3.516 5.43412C3.516 6.18356 3.88581 7.22953 4.42269 8.31381L4.4227 8.31382C5.01133 9.50211 5.79542 10.7558 6.43182 11.7117C6.75012 12.1898 7.03167 12.5938 7.23368 12.8782C7.33468 13.0205 7.41581 13.1328 7.4717 13.2097C7.49965 13.2481 7.52129 13.2776 7.53596 13.2976L7.55264 13.3202L7.5569 13.326L7.55798 13.3274L7.55826 13.3278L7.55833 13.3279L7.5985 13.2981ZM8.00001 3.73612H7.99999C7.46933 3.73626 6.96045 3.94712 6.58523 4.32235C6.21 4.69758 5.99914 5.20646 5.999 5.73711V5.73712C5.999 6.84123 6.89538 7.73812 8 7.73812C9.10462 7.73812 10.001 6.84123 10.001 5.73712V5.73711C10.0009 5.20646 9.79 4.69758 9.41477 4.32235C9.03955 3.94712 8.53067 3.73626 8.00001 3.73612ZM11.1586 6.51441C11.0171 6.92196 10.8187 7.36688 10.5917 7.82544C9.79651 9.43044 8.62996 11.1614 8 12.0573C7.37004 11.1613 6.20348 9.43043 5.4083 7.82543C5.18127 7.36687 4.9829 6.92195 4.84136 6.51441C4.69961 6.10627 4.616 5.73875 4.616 5.43412C4.616 3.56673 6.13212 2.05012 8 2.05012C9.86788 2.05012 11.384 3.56673 11.384 5.43412C11.384 5.73875 11.3004 6.10627 11.1586 6.51441ZM8.00113 4.83611C8.12123 4.83339 8.24066 4.8547 8.3524 4.89878C8.46414 4.94286 8.56595 5.00884 8.65184 5.09282C8.73772 5.17681 8.80596 5.27711 8.85254 5.38784C8.89911 5.49857 8.92309 5.61749 8.92306 5.73762C8.92303 5.85774 8.89899 5.97665 8.85235 6.08735C8.80572 6.19806 8.73743 6.29833 8.6515 6.38226C8.56557 6.46621 8.46373 6.53212 8.35196 6.57615C8.24019 6.62018 8.12075 6.64142 8.00066 6.63864C7.76521 6.63318 7.54124 6.53579 7.37667 6.36732C7.2121 6.19884 7.12 5.97266 7.12006 5.73714C7.12012 5.50163 7.21235 5.27549 7.377 5.1071C7.54166 4.93871 7.76568 4.84145 8.00113 4.83611Z" fill="#9898A5" stroke="#9898A5" stroke-width="0.1"/>
</svg>
