<svg width="16" height="16" viewBox="0 0 16 16" fill="none" xmlns="http://www.w3.org/2000/svg">
<g clip-path="url(#clip0_1509_7508)">
<path d="M14.3231 12.1501C13.5361 13.0107 12.6403 13.7651 11.6581 14.3942C11.1459 14.3444 8.53089 13.9369 5.27172 10.7353C2.05362 7.4587 1.65423 4.8362 1.60616 4.34155C2.23523 3.35969 2.98946 2.46404 3.84979 1.67716C3.85272 1.68051 3.85574 1.68396 3.85884 1.68752C4.53498 2.61098 5.11938 3.59817 5.60375 4.63503C5.46092 4.77534 5.31096 4.90823 5.15447 5.03316C5.15419 5.03339 5.15391 5.03361 5.15363 5.03384L5.216 5.112L14.3231 12.1501ZM14.3231 12.1501C14.3198 12.1473 14.3165 12.1445 14.3131 12.1416C13.3875 11.4634 12.3973 10.878 11.357 10.3939C11.321 10.432 11.2729 10.486 11.2182 10.5492C11.1375 10.6425 11.0471 10.7503 10.9691 10.8435C10.7541 11.1251 10.5105 11.3839 10.2424 11.6157L10.2354 11.6217L10.2351 11.6214L10.0651 11.7429L10.031 11.7672L9.98974 11.76L9.78424 11.724L9.77897 11.7231L9.77901 11.7229C9.31287 11.6153 8.86186 11.4504 8.43626 11.2319L14.3231 12.1501ZM11.167 9.17396L11.1666 9.17403C10.7397 9.24947 10.4932 9.54331 10.0663 10.0524L10.0459 10.0767L10.0457 10.077C9.93673 10.2077 9.82557 10.3365 9.71228 10.4635C9.45554 10.3768 9.2048 10.2732 8.96173 10.1533L8.96127 10.1531C7.60414 9.49238 6.50762 8.39586 5.84691 7.03873L5.84669 7.03827C5.72677 6.79509 5.62312 6.54425 5.53643 6.2874C5.67569 6.16256 5.84742 6.01792 5.92636 5.95154L5.95041 5.93136C6.45673 5.50674 6.75055 5.26033 6.82598 4.83288L6.82601 4.83272C6.84763 4.70898 6.82459 4.55598 6.77826 4.39224C6.7312 4.22594 6.65672 4.03721 6.56484 3.83708C6.38101 3.43666 6.12327 2.98147 5.86192 2.55322C5.36045 1.7315 4.83829 0.997155 4.7847 0.924389L4.78473 0.924374C4.67856 0.773803 4.54028 0.648683 4.37988 0.558046C4.21948 0.46741 4.04096 0.413517 3.8572 0.400259L3.85721 0.4H3.85C3.7142 0.4 3.56143 0.461394 3.40576 0.553196C3.24745 0.646553 3.07408 0.778694 2.89414 0.936002C2.53401 1.25083 2.13871 1.67428 1.77239 2.11269C1.40585 2.55136 1.06612 3.00766 0.817439 3.38948C0.693201 3.58024 0.590649 3.754 0.518753 3.89865C0.482823 3.97094 0.453781 4.0375 0.433527 4.0963C0.41381 4.15354 0.4 4.2102 0.4 4.2605C0.4 4.31533 0.453868 7.54343 4.42269 11.5806L4.4239 11.5818C8.45659 15.5462 11.6847 15.6 11.7395 15.6C11.7898 15.6 11.8465 15.5862 11.9037 15.5665C11.9625 15.5462 12.0291 15.5172 12.1013 15.4812C12.246 15.4094 12.4198 15.3068 12.6105 15.1826C12.9923 14.9339 13.4486 14.5941 13.8873 14.2276C14.3257 13.8613 14.7492 13.466 15.064 13.1059C15.2213 12.9259 15.3534 12.7525 15.4468 12.5942C15.5386 12.4386 15.6 12.2858 15.6 12.15H15.6003L15.5997 12.1428C15.5865 11.959 15.5325 11.7804 15.4418 11.62C15.3511 11.4595 15.2258 11.3213 15.075 11.2152L15.075 11.2153C14.9978 11.1582 14.2659 10.6379 13.4476 10.1385C13.0195 9.87716 12.5644 9.61946 12.1637 9.43558C11.9635 9.34368 11.7747 9.26915 11.6081 9.22203C11.4442 9.17562 11.291 9.15252 11.167 9.17396Z" fill="#9898A5" stroke="#9898A5" stroke-width="0.2"/>
</g>
<defs>
<clipPath id="clip0_1509_7508">
<rect width="16" height="16" fill="white"/>
</clipPath>
</defs>
</svg>
