<svg width="60" height="60" viewBox="0 0 60 60" fill="none" xmlns="http://www.w3.org/2000/svg">
<circle cx="30" cy="30" r="30" fill="#1581BF" fill-opacity="0.09"/>
<path d="M31.478 36.1346C31.1999 36.1346 30.9217 36.0671 30.6689 35.9407L19.4006 30.3024V38.4185C26.0671 45.0936 36.8803 45.0936 43.5553 38.4185V30.3108L32.2955 35.9407C32.0511 36.0671 31.7645 36.1346 31.478 36.1346Z" fill="#1581BF"/>
<path d="M48.8903 25.2203L31.7224 16.6321C31.5623 16.5562 31.3769 16.5562 31.2252 16.6321L14.0657 25.2203C14.0646 25.2207 14.0644 25.2218 14.0634 25.2222C13.115 25.5434 12.426 26.4319 12.426 27.4872V37.3106H12.2029C12.0714 37.3106 11.9566 37.3994 11.9235 37.5266L10.8095 41.806C10.762 41.989 10.9 42.1676 11.0889 42.1676H15.0361C15.2249 42.1676 15.363 41.989 15.3155 41.806L14.2017 37.5266C14.1683 37.3994 14.0535 37.3106 13.9221 37.3106H13.6902V27.4872C13.6902 26.9883 14.0179 26.5761 14.4659 26.4233L31.2337 34.8113C31.3853 34.8872 31.5791 34.8872 31.7308 34.8113L48.8903 26.2232C49.3033 26.0209 49.3033 25.431 48.8903 25.2203ZM31.4696 27.4621C29.9948 27.4621 28.781 26.6783 28.781 25.7175C28.781 24.7567 29.9948 23.9814 31.4696 23.9814C32.9613 23.9814 34.175 24.7567 34.175 25.7175C34.175 26.6783 32.9613 27.4621 31.4696 27.4621Z" fill="#1581BF"/>
</svg>
