<svg width="13" height="12" viewBox="0 0 13 12" fill="none" xmlns="http://www.w3.org/2000/svg">
<path d="M12.5 6.28125C12.5 6.70078 12.3992 7.08984 12.1977 7.44609C11.9961 7.80234 11.7266 8.08125 11.3867 8.27578C11.3961 8.33906 11.4008 8.4375 11.4008 8.57109C11.4008 9.20625 11.1875 9.74531 10.7656 10.1906C10.3414 10.6383 9.83047 10.8609 9.23281 10.8609C8.96562 10.8609 8.71016 10.8117 8.46875 10.7133C8.28125 11.0977 8.01172 11.407 7.65781 11.6437C7.30625 11.8828 6.91953 12 6.5 12C6.07109 12 5.68203 11.8852 5.33516 11.6508C4.98594 11.4187 4.71875 11.107 4.53125 10.7133C4.28984 10.8117 4.03672 10.8609 3.76719 10.8609C3.16953 10.8609 2.65625 10.6383 2.22734 10.1906C1.79844 9.74531 1.58516 9.20391 1.58516 8.57109C1.58516 8.50078 1.59453 8.40234 1.61094 8.27578C1.27109 8.07891 1.00156 7.80234 0.8 7.44609C0.600781 7.08984 0.5 6.70078 0.5 6.28125C0.5 5.83594 0.6125 5.42578 0.835156 5.05547C1.05781 4.68516 1.35781 4.41094 1.73281 4.23281C1.63437 3.96563 1.58516 3.69609 1.58516 3.42891C1.58516 2.79609 1.79844 2.25469 2.22734 1.80937C2.65625 1.36406 3.16953 1.13906 3.76719 1.13906C4.03437 1.13906 4.28984 1.18828 4.53125 1.28672C4.71875 0.902344 4.98828 0.592969 5.34219 0.35625C5.69375 0.119531 6.08047 0 6.5 0C6.91953 0 7.30625 0.119531 7.65781 0.353906C8.00937 0.590625 8.28125 0.9 8.46875 1.28437C8.71016 1.18594 8.96328 1.13672 9.23281 1.13672C9.83047 1.13672 10.3414 1.35938 10.7656 1.80703C11.1898 2.25469 11.4008 2.79375 11.4008 3.42656C11.4008 3.72187 11.3562 3.98906 11.2672 4.23047C11.6422 4.40859 11.9422 4.68281 12.1648 5.05313C12.3875 5.42578 12.5 5.83594 12.5 6.28125ZM6.24453 8.08828L8.72187 4.37813C8.78516 4.27969 8.80391 4.17188 8.78281 4.05703C8.75937 3.94219 8.70078 3.85078 8.60234 3.78984C8.50391 3.72656 8.39609 3.70547 8.28125 3.72188C8.16406 3.74063 8.07031 3.79688 8 3.89531L5.81797 7.17656L4.8125 6.17344C4.72344 6.08437 4.62031 6.04219 4.50547 6.04688C4.38828 6.05156 4.2875 6.09375 4.19844 6.17344C4.11875 6.25312 4.07891 6.35391 4.07891 6.47578C4.07891 6.59531 4.11875 6.69609 4.19844 6.77813L5.57891 8.15859L5.64688 8.2125C5.72656 8.26641 5.80859 8.29219 5.88828 8.29219C6.04531 8.28984 6.16484 8.22422 6.24453 8.08828Z" fill="#0DC11F"/>
</svg>
