<svg width="360" height="434" viewBox="0 0 360 434" fill="none" xmlns="http://www.w3.org/2000/svg">
<path d="M176 434C295.846 434 393 336.846 393 217C393 97.1542 295.846 0 176 0C56.1542 0 -41 97.1542 -41 217C-41 336.846 56.1542 434 176 434Z" fill="url(#paint0_radial_149_5310)" fill-opacity="0.06"/>
<path d="M335 312.912H20V313.07H335V312.912Z" fill="white"/>
<path d="M303.437 323.049H282.571V323.206H303.437V323.049Z" fill="white"/>
<path d="M228.669 324.762H223.194V324.92H228.669V324.762Z" fill="white"/>
<path d="M281.941 317.202H269.852V317.36H281.941V317.202Z" fill="white"/>
<path d="M80.2595 318.261H53.0498V318.418H80.2595V318.261Z" fill="white"/>
<path d="M89.8607 318.261H85.8728V318.418H89.8607V318.261Z" fill="white"/>
<path d="M161.845 320.919H102.826V321.077H161.845V320.919Z" fill="white"/>
<path d="M169.31 284.814H47.6633C46.7103 284.812 45.797 284.433 45.1237 283.758C44.4504 283.084 44.0723 282.17 44.0723 281.217V110.216C44.0806 109.268 44.4624 108.362 45.1348 107.695C45.8071 107.027 46.7158 106.652 47.6633 106.65H169.31C170.264 106.65 171.179 107.029 171.854 107.704C172.528 108.378 172.907 109.293 172.907 110.247V281.217C172.907 282.171 172.528 283.086 171.854 283.76C171.179 284.435 170.264 284.814 169.31 284.814ZM47.6633 106.776C46.7521 106.778 45.8788 107.141 45.2351 107.786C44.5913 108.431 44.2298 109.305 44.2298 110.216V281.217C44.2298 282.128 44.5913 283.002 45.2351 283.647C45.8788 284.292 46.7521 284.655 47.6633 284.656H169.31C170.222 284.655 171.096 284.292 171.74 283.647C172.385 283.002 172.748 282.128 172.75 281.217V110.216C172.748 109.304 172.385 108.43 171.74 107.785C171.096 107.141 170.222 106.778 169.31 106.776H47.6633Z" fill="white"/>
<path d="M305.585 284.814H183.932C182.979 284.812 182.065 284.433 181.39 283.759C180.716 283.084 180.337 282.17 180.335 281.217V110.216C180.345 109.268 180.728 108.362 181.402 107.694C182.075 107.027 182.984 106.652 183.932 106.65H305.585C306.532 106.653 307.439 107.029 308.11 107.697C308.781 108.364 309.162 109.269 309.17 110.216V281.217C309.17 282.169 308.793 283.082 308.121 283.756C307.449 284.43 306.537 284.811 305.585 284.814ZM183.932 106.776C183.021 106.778 182.147 107.141 181.502 107.785C180.857 108.43 180.494 109.304 180.492 110.216V281.217C180.494 282.128 180.857 283.002 181.502 283.647C182.147 284.292 183.021 284.655 183.932 284.656H305.585C306.497 284.655 307.371 284.292 308.016 283.647C308.66 283.002 309.023 282.128 309.025 281.217V110.216C309.023 109.304 308.66 108.43 308.016 107.785C307.371 107.141 306.497 106.778 305.585 106.776H183.932Z" fill="white"/>
<path d="M67.6658 255.072H112.522C113.558 255.072 114.583 255.276 115.54 255.672C116.497 256.068 117.367 256.649 118.099 257.382C118.832 258.114 119.413 258.984 119.809 259.941C120.205 260.898 120.409 261.923 120.409 262.959V303.279C120.409 305.371 119.578 307.377 118.099 308.857C116.62 310.336 114.614 311.167 112.522 311.167H67.6658V255.097V255.072Z" fill="white"/>
<path d="M68.0375 255.072H67.2941C62.9379 255.072 59.4065 258.603 59.4065 262.959V303.254C59.4065 307.61 62.9379 311.142 67.2941 311.142H68.0375C72.3937 311.142 75.9251 307.61 75.9251 303.254V262.959C75.9251 258.603 72.3937 255.072 68.0375 255.072Z" fill="#E0F3FC"/>
<path d="M73.6697 311.142H132.216V275.755H73.6697V311.142Z" fill="#EDF9FF"/>
<path d="M68.8628 312.912H174.381C174.81 312.91 175.22 312.739 175.522 312.436C175.825 312.132 175.994 311.721 175.994 311.293V311.142H112.547L67.25 311.293C67.25 311.721 67.4197 312.132 67.722 312.436C68.0243 312.739 68.4345 312.91 68.8628 312.912Z" fill="white"/>
<path d="M115.08 231.812H169.549C170.958 231.786 172.357 232.06 173.651 232.617C174.946 233.173 176.107 234 177.056 235.041C178.006 236.082 178.723 237.314 179.159 238.654C179.595 239.994 179.741 241.411 179.585 242.812L175.994 283.762H99.5249L103.11 242.812C103.414 239.832 104.801 237.067 107.006 235.04C109.212 233.013 112.084 231.864 115.08 231.812Z" fill="white"/>
<path d="M106.474 231.812H162.008C163.348 231.79 164.678 232.053 165.909 232.584C167.139 233.115 168.243 233.902 169.146 234.892C170.05 235.883 170.732 237.054 171.148 238.328C171.564 239.602 171.704 240.95 171.559 242.283L167.924 283.756H91.4483L95.0834 242.283C95.3727 239.446 96.6916 236.814 98.7907 234.885C100.89 232.955 103.623 231.862 106.474 231.812Z" fill="#E0F3FC"/>
<path d="M78.3632 272.523H124.737C126.054 272.523 127.317 273.046 128.248 273.977C129.179 274.908 129.702 276.17 129.702 277.487V281.966C129.703 282.619 129.575 283.265 129.326 283.868C129.077 284.471 128.711 285.019 128.25 285.481C127.789 285.942 127.241 286.309 126.639 286.559C126.036 286.808 125.39 286.937 124.737 286.937H78.3632C76.4517 286.937 74.6185 286.178 73.2669 284.826C71.9153 283.475 71.156 281.641 71.156 279.73C71.156 277.818 71.9153 275.985 73.2669 274.634C74.6185 273.282 76.4517 272.523 78.3632 272.523Z" fill="white"/>
<path d="M132.474 255.072H177.33C179.422 255.072 181.428 255.903 182.907 257.382C184.386 258.861 185.218 260.867 185.218 262.959V303.279C185.218 305.371 184.386 307.377 182.907 308.857C181.428 310.336 179.422 311.167 177.33 311.167H132.474V255.097V255.072Z" fill="white"/>
<path d="M132.846 255.072H132.102C127.746 255.072 124.215 258.603 124.215 262.959V303.254C124.215 307.61 127.746 311.142 132.102 311.142H132.846C137.202 311.142 140.733 307.61 140.733 303.254V262.959C140.733 258.603 137.202 255.072 132.846 255.072Z" fill="#F5F5F5"/>
<path d="M256.256 224.252H213.133V312.912H256.256V224.252Z" fill="white"/>
<path d="M219.584 306.007V231.157H218.589V306.007H219.584Z" fill="white"/>
<path d="M249.9 231.157H218.589V232.417H249.9V231.157Z" fill="white"/>
<path d="M300.375 224.252H257.252V312.912H300.375V224.252Z" fill="white" fill-opacity="0.45"/>
<path d="M300.381 312.912H306.089V224.252H300.381V312.912Z" fill="white"/>
<path d="M263.703 306.007V231.157H262.708V306.007H263.703Z" fill="white"/>
<path d="M257.258 312.912V225.26H256.263V312.912H257.258Z" fill="white"/>
<path d="M294.018 231.157H262.707V232.417H294.018V231.157Z" fill="white"/>
<path d="M254.366 243.864H252.224V263.457H254.366V243.864Z" fill="white"/>
<path d="M261.284 243.864H259.142V263.457H261.284V243.864Z" fill="white"/>
<path d="M286.433 131.8H66.5507V210.228H286.433V131.8Z" fill="white" fill-opacity="0.45"/>
<path d="M279.837 203.632V138.396H73.1468V203.632H279.837Z" fill="white"/>
<path d="M106.701 203.632L120.397 138.396H150.63L136.934 203.632H106.701Z" fill="white"/>
<path d="M149.692 203.632L163.388 138.396H178.508L164.806 203.632H149.692Z" fill="white"/>
<path d="M241.999 203.632L255.696 138.396H270.816L257.113 203.632H241.999Z" fill="white"/>
<path d="M177.5 341.363C244.962 341.363 299.651 338.17 299.651 334.231C299.651 330.293 244.962 327.1 177.5 327.1C110.038 327.1 55.3493 330.293 55.3493 334.231C55.3493 338.17 110.038 341.363 177.5 341.363Z" fill="white" fill-opacity="0.54"/>
<path d="M124.58 144.853C126.168 141.218 112.106 137.923 107.853 149.125C103.998 159.287 97.5971 161.882 100.608 168.919C103.866 176.536 122.293 177.449 130.294 169.007C136.783 162.159 129.74 159.274 130.647 152.835C131.554 146.397 129.651 144.299 124.58 144.853Z" fill="#263238"/>
<path d="M98.9642 166.664C98.2334 162.695 99.7076 161.057 101.572 158.984C104.092 156.427 105.819 153.195 106.543 149.679C106.919 147.759 107.879 146.001 109.292 144.648C110.705 143.295 112.502 142.411 114.437 142.119C118.595 141.35 122.999 142.711 124.164 144.437C124.35 144.681 124.456 144.975 124.467 145.281C124.478 145.587 124.394 145.888 124.227 146.145L123.698 145.805C123.8 145.652 123.85 145.471 123.839 145.288C123.829 145.105 123.76 144.93 123.641 144.79C122.608 143.253 118.412 142.025 114.557 142.743C111.804 143.253 108.257 144.891 107.161 149.818C106.414 153.439 104.635 156.767 102.039 159.4C100.224 161.416 98.8886 162.878 99.5879 166.544L98.9642 166.664Z" fill="#263238"/>
<path d="M90.3017 163.646L89.9111 162.386C89.6415 161.53 89.1528 160.759 88.4936 160.15L87.2336 159.003C86.8352 158.635 86.3203 158.417 85.7784 158.388C85.2364 158.36 84.7015 158.521 84.2663 158.846L82.9181 159.854C82.6717 160.038 82.4643 160.269 82.3079 160.534C82.1515 160.799 82.0493 161.092 82.0071 161.397C81.9649 161.701 81.9836 162.012 82.0621 162.309C82.1406 162.606 82.2774 162.885 82.4645 163.13L83.3339 164.264C83.3339 164.264 85.3751 167.716 88.3298 168.913L89.0102 168.333C89.6611 167.765 90.1306 167.017 90.3602 166.184C90.5898 165.35 90.5695 164.468 90.3017 163.646Z" fill="#FFC3BD"/>
<path d="M114.79 185.52L114.387 185.828L114.059 186.068L113.429 186.509C113.007 186.786 112.578 187.044 112.169 187.296C111.312 187.789 110.428 188.235 109.523 188.632C107.661 189.453 105.703 190.037 103.695 190.371C101.576 190.727 99.4123 190.74 97.2884 190.409C96.2015 190.238 95.1339 189.961 94.1006 189.583C93.8423 189.501 93.584 189.394 93.332 189.287L92.954 189.13L92.765 189.048L92.5571 188.96L92.2925 188.834C91.7426 188.552 91.2357 188.193 90.7868 187.769C90.4641 187.469 90.167 187.142 89.8985 186.792C89.1857 185.826 88.6091 184.766 88.1849 183.642C87.8069 182.71 87.5171 181.815 87.2588 180.94C86.7888 179.245 86.4082 177.527 86.1185 175.793C85.543 172.441 85.2208 169.05 85.1546 165.65C85.0766 165.013 85.2443 164.371 85.6234 163.853C86.0026 163.336 86.5646 162.983 87.1951 162.866C87.8256 162.748 88.4771 162.876 89.0168 163.222C89.5566 163.569 89.944 164.108 90.1001 164.73V164.799C91.1963 167.817 92.2484 170.91 93.3572 173.846C93.9305 175.307 94.4849 176.763 95.1149 178.086C95.4173 178.747 95.7449 179.377 96.0536 179.925C96.2638 180.327 96.5335 180.694 96.8537 181.015C96.8537 181.015 96.8537 181.015 96.8096 180.927C96.6645 180.776 96.4939 180.653 96.3056 180.562L96.1859 180.499C96.1481 180.499 96.0725 180.455 96.1166 180.467H96.2174L96.4127 180.518C96.5427 180.558 96.6753 180.589 96.8096 180.612C97.3414 180.718 97.8806 180.783 98.4224 180.807C99.5567 180.842 100.69 180.723 101.793 180.455C103.003 180.149 104.18 179.727 105.308 179.195C105.894 178.93 106.474 178.621 107.041 178.313C107.324 178.155 107.601 177.985 107.866 177.821L108.496 177.418L108.987 177.109C110.094 176.405 111.431 176.158 112.717 176.419C114.002 176.68 115.137 177.428 115.882 178.508C116.627 179.587 116.925 180.914 116.713 182.208C116.501 183.503 115.796 184.665 114.746 185.45L114.79 185.52Z" fill="#FFC3BD"/>
<path d="M125.84 331.484C129.828 330.168 133.186 327.471 132.512 322.74C132.216 320.711 138.724 319.918 138.724 319.918C137.986 326.363 138.793 327.478 139.568 328.933C140.343 330.388 140.298 332.171 138.938 332.329C137.325 332.524 136.966 332.329 134.962 332.612C132.619 332.921 131.101 334.143 126.42 334.143C123.893 334.143 124.58 331.9 125.84 331.484Z" fill="#1581BF"/>
<path d="M137.967 262.644C138.427 230.363 135.447 212.767 135.447 212.767L111.564 213.958C111.564 213.958 115.098 243.492 121.373 265.246C123.049 276.92 126.823 296.664 129.437 309.926C133.317 309.594 137.152 308.868 140.884 307.759C141.798 296.11 141.962 279.27 137.967 262.644Z" fill="#1581BF"/>
<path d="M138.484 323.08C138.484 323.08 139.417 316.982 140.047 307.759C136.877 308.862 133.589 309.59 130.25 309.926C131.611 317.977 132.581 323.105 132.581 323.105C134.49 323.792 136.581 323.783 138.484 323.08Z" fill="#FFC3BD"/>
<path d="M128.133 306.064C128.341 307.173 128.921 309.951 129.494 310.927C129.527 310.984 129.573 311.032 129.627 311.068C129.682 311.104 129.744 311.127 129.809 311.135C134.263 311.696 138.711 310.801 140.519 309.995C140.57 309.975 140.615 309.944 140.653 309.905C140.691 309.866 140.721 309.819 140.739 309.768C141.243 308.433 141.426 305.623 141.483 304.439C141.486 304.374 141.475 304.31 141.449 304.251C141.424 304.192 141.386 304.14 141.337 304.098C141.288 304.056 141.231 304.026 141.169 304.01C141.107 303.993 141.042 303.991 140.979 304.004C136.851 304.769 132.682 305.29 128.492 305.566C128.435 305.573 128.38 305.591 128.33 305.621C128.28 305.65 128.237 305.689 128.203 305.736C128.169 305.783 128.146 305.836 128.134 305.893C128.122 305.949 128.121 306.007 128.133 306.064Z" fill="#263238"/>
<path d="M111.879 176C108.339 176.63 102.939 179.623 102.939 179.623C102.939 179.623 100.098 186.427 103.5 191.328C106.852 192.122 108.54 191.473 108.54 191.473L111.879 176Z" fill="#263238"/>
<path opacity="0.2" d="M103.5 191.328C106.852 192.122 108.54 191.473 108.54 191.473L108.421 182.294C106.146 185.356 104.25 188.393 103.5 191.328Z" fill="black"/>
<path opacity="0.2" d="M137.842 243.599C135.17 237.066 132.298 231.686 131.195 226.772C129.305 240.134 130.792 252.426 137.98 261.233C138.062 254.732 137.993 248.847 137.842 243.599Z" fill="black"/>
<path d="M174.35 294.831L164.818 301.61C157.038 291.473 145.37 275.988 142.548 269.247C135.378 252.142 120.964 214.437 120.964 214.437L139.675 210.09C139.675 210.09 151.481 221.052 159.098 262.418C165.473 271.477 170.841 284.808 174.35 294.831Z" fill="#1581BF"/>
<path d="M173.802 326.961C176.177 322.318 176.209 317.202 173.644 313.17C172.542 311.444 178.143 308.036 178.143 308.036C180.121 314.216 181.734 314.575 183.107 315.533C184.48 316.49 184.619 318.55 183.46 319.25C182.195 319.993 181.117 321.017 180.31 322.242C178.873 324.132 178.067 326.728 176.007 328.347C174.69 329.374 172.756 328.996 173.802 326.961Z" fill="#1581BF"/>
<path d="M179.182 310.871C179.182 310.871 177.538 305.087 174.312 296.425C171.876 298.732 169.181 300.749 166.28 302.435C170.835 309.214 174.167 314.084 174.167 314.084C176.104 313.497 177.84 312.385 179.182 310.871Z" fill="#FFC3BD"/>
<path d="M162.758 299.789C163.388 300.709 165.076 303.008 166.002 303.657C166.057 303.696 166.119 303.721 166.184 303.732C166.25 303.743 166.317 303.739 166.381 303.72C170.665 302.397 174.35 299.745 175.698 298.252C175.736 298.212 175.765 298.164 175.782 298.112C175.799 298.06 175.805 298.004 175.799 297.949C175.711 296.532 174.715 293.892 174.281 292.79C174.257 292.731 174.22 292.679 174.174 292.636C174.127 292.594 174.071 292.563 174.011 292.544C173.951 292.526 173.887 292.522 173.824 292.532C173.762 292.541 173.703 292.565 173.651 292.601C170.213 294.999 166.637 297.193 162.941 299.172C162.885 299.196 162.835 299.233 162.794 299.279C162.754 299.325 162.724 299.379 162.706 299.438C162.689 299.497 162.685 299.559 162.694 299.619C162.702 299.68 162.724 299.738 162.758 299.789Z" fill="#263238"/>
<path d="M106.474 185.4C107.331 190.976 104.011 195.297 109.12 197.868C108.269 202.108 109.529 210.575 111.552 213.933C114.393 215.476 128.291 213.196 139.65 210.083C139.486 205.232 135.498 195.688 136.607 179.799C136.666 178.93 136.543 178.058 136.244 177.24C135.945 176.421 135.477 175.675 134.872 175.049C134.266 174.423 133.535 173.931 132.727 173.606C131.919 173.28 131.051 173.128 130.181 173.159C129.198 173.159 128.152 173.254 127.094 173.348C123.373 173.587 119.673 174.092 116.025 174.86C114.846 175.137 113.631 175.452 112.478 175.78C110.474 176.372 108.756 177.677 107.649 179.45C106.543 181.223 106.125 183.34 106.474 185.4Z" fill="#263238"/>
<path d="M114.5 181.16C114.5 181.16 118.06 179.862 119.924 183.05C123.03 181.305 127.396 173.928 127.087 173.367C121.89 174.797 114.5 181.16 114.5 181.16Z" fill="white"/>
<path d="M114.5 181.16C114.5 181.16 111.797 180.839 111.035 183.233C111.035 178.508 114.223 175.534 115.615 174.98C115.13 176.215 114.5 181.16 114.5 181.16Z" fill="white"/>
<path d="M125.727 160.862C125.33 164.547 125.267 170.469 127.094 173.373C127.094 173.373 120.164 178.117 114.494 181.16C112.711 177.034 115.609 174.98 115.609 174.98C118.311 173.947 118.286 170.488 117.921 167.842L125.727 160.862Z" fill="#FFC3BD"/>
<path opacity="0.2" d="M117.933 167.842L122.343 163.873C122.492 164.614 122.444 165.38 122.205 166.097C121.441 168.162 119.973 169.891 118.059 170.979C118.129 169.932 118.087 168.88 117.933 167.842Z" fill="black"/>
<path d="M127.15 154.013C126.52 159.998 126.426 162.537 123.339 165.498C118.69 169.952 111.615 167.911 110.449 161.876C109.397 156.439 110.55 147.569 116.396 145.408C122.243 143.247 127.73 148.035 127.15 154.013Z" fill="#FFC3BD"/>
<path d="M125.84 158.392C124.916 157.508 124.376 156.296 124.336 155.018C124.296 153.74 124.759 152.497 125.626 151.556C127.201 149.963 129.406 153.264 129.406 153.264L125.84 158.392Z" fill="#263238"/>
<path d="M118.538 155.67C118.538 156.162 118.242 156.546 117.908 156.533C117.574 156.521 117.348 156.111 117.367 155.626C117.385 155.141 117.663 154.75 117.997 154.763C118.33 154.776 118.557 155.16 118.538 155.67Z" fill="#263238"/>
<path d="M112.528 155.525C112.528 156.011 112.238 156.395 111.898 156.382C111.558 156.37 111.337 155.966 111.356 155.475C111.375 154.984 111.646 154.606 111.986 154.618C112.326 154.631 112.547 155.034 112.528 155.525Z" fill="#263238"/>
<path d="M112.125 154.65L110.966 154.265C110.966 154.265 111.533 155.204 112.125 154.65Z" fill="#263238"/>
<path d="M114.009 155.714C113.522 156.813 112.886 157.839 112.119 158.764C112.361 158.95 112.641 159.082 112.939 159.149C113.237 159.217 113.546 159.218 113.845 159.154L114.009 155.714Z" fill="#ED847E"/>
<path d="M116.611 161.069C116.337 161.108 116.061 161.121 115.785 161.107C115.748 161.106 115.713 161.09 115.687 161.063C115.661 161.036 115.647 161 115.647 160.962C115.647 160.943 115.652 160.925 115.66 160.907C115.668 160.89 115.679 160.875 115.693 160.862C115.708 160.849 115.724 160.839 115.742 160.832C115.76 160.826 115.779 160.823 115.798 160.824C116.404 160.86 117.011 160.753 117.569 160.513C118.127 160.272 118.621 159.904 119.011 159.438C119.021 159.422 119.034 159.409 119.05 159.399C119.065 159.388 119.082 159.381 119.1 159.377C119.119 159.374 119.137 159.374 119.156 159.378C119.174 159.382 119.191 159.389 119.206 159.4C119.222 159.411 119.235 159.424 119.246 159.44C119.256 159.456 119.263 159.474 119.267 159.493C119.27 159.512 119.27 159.531 119.266 159.549C119.262 159.568 119.255 159.586 119.244 159.602C118.591 160.415 117.646 160.942 116.611 161.069Z" fill="#263238"/>
<path d="M128.146 159.028C127.912 159.523 127.575 159.962 127.158 160.316C126.741 160.671 126.253 160.932 125.727 161.082C124.385 161.416 123.761 159.942 124.177 158.468C124.548 157.138 125.701 155.368 127.024 155.689C128.347 156.011 128.795 157.737 128.146 159.028Z" fill="#FFC3BD"/>
<path d="M124.051 145.502C119.81 148.148 115.048 149.848 110.09 150.485C110.09 146.183 118.507 141.35 124.051 145.502Z" fill="#263238"/>
<path d="M120.8 146.025C119.823 149.805 129.62 156.735 127.73 163.4C130.93 158.417 128.625 147.203 128.625 147.203C128.625 147.203 120.372 141.98 120.8 146.025Z" fill="#263238"/>
<path d="M119.792 152.457C119.754 152.452 119.717 152.439 119.685 152.418C119.652 152.397 119.624 152.37 119.603 152.338C119.409 152.034 119.145 151.78 118.834 151.598C118.523 151.415 118.174 151.308 117.814 151.286C117.776 151.287 117.739 151.281 117.704 151.268C117.669 151.255 117.637 151.235 117.61 151.209C117.582 151.183 117.561 151.152 117.546 151.117C117.532 151.083 117.524 151.046 117.524 151.008C117.522 150.97 117.528 150.932 117.542 150.896C117.555 150.86 117.576 150.827 117.602 150.8C117.629 150.772 117.661 150.75 117.696 150.735C117.731 150.72 117.769 150.712 117.807 150.712C118.262 150.732 118.706 150.861 119.101 151.088C119.495 151.315 119.83 151.633 120.075 152.016C120.097 152.047 120.112 152.082 120.12 152.119C120.127 152.156 120.128 152.194 120.121 152.231C120.114 152.268 120.099 152.303 120.079 152.334C120.058 152.365 120.031 152.392 120 152.413C119.97 152.434 119.936 152.448 119.9 152.456C119.865 152.464 119.828 152.464 119.792 152.457Z" fill="#263238"/>
<path d="M109.869 152.249C109.796 152.244 109.727 152.213 109.674 152.161C109.648 152.135 109.626 152.103 109.612 152.069C109.597 152.034 109.59 151.997 109.59 151.96C109.59 151.922 109.597 151.885 109.612 151.85C109.626 151.816 109.648 151.784 109.674 151.758C109.988 151.428 110.377 151.178 110.808 151.029C111.239 150.88 111.699 150.836 112.15 150.901C112.224 150.918 112.289 150.963 112.33 151.026C112.371 151.09 112.386 151.167 112.371 151.241C112.363 151.278 112.348 151.314 112.327 151.345C112.306 151.376 112.279 151.403 112.247 151.423C112.215 151.444 112.18 151.458 112.143 151.464C112.105 151.471 112.067 151.47 112.03 151.462C111.673 151.416 111.309 151.456 110.97 151.577C110.631 151.699 110.325 151.899 110.077 152.161C110.022 152.217 109.948 152.249 109.869 152.249Z" fill="#263238"/>
<path d="M118.135 154.795L116.976 154.417C116.976 154.417 117.537 155.355 118.135 154.795Z" fill="#263238"/>
<path opacity="0.2" d="M136.456 182.88C136.342 186.244 136.454 189.611 136.789 192.96C133.639 189.634 129.683 183.353 129.425 180.203L136.456 182.88Z" fill="black"/>
<path d="M157.025 171.049L157.712 167.048L163.93 169.448C163.93 169.448 162.487 173.172 159.835 174.816L159.098 174.35C158.52 173.998 158.032 173.517 157.672 172.944C157.312 172.371 157.091 171.722 157.025 171.049Z" fill="#FFC3BD"/>
<path d="M161.592 164.818L163.64 165.933C164.087 166.176 164.42 166.586 164.567 167.073C164.713 167.56 164.661 168.086 164.421 168.535L163.936 169.448L157.718 167.048L159.198 165.278C159.484 164.938 159.878 164.707 160.314 164.623C160.75 164.539 161.201 164.608 161.592 164.818Z" fill="#FFC3BD"/>
<path d="M135.347 175.616L136.14 176.435L137.004 177.311C137.589 177.884 138.175 178.47 138.78 179.024C139.977 180.152 141.212 181.198 142.453 182.174C143.624 183.092 144.867 183.914 146.17 184.631C147.167 185.192 148.251 185.58 149.377 185.778L147.682 186.093C147.266 186.295 147.291 186.383 147.38 186.314C147.55 186.2 147.706 186.066 147.846 185.917C148.307 185.437 148.728 184.921 149.106 184.373C149.963 183.157 150.832 181.778 151.626 180.347C152.42 178.917 153.264 177.449 154.077 175.937L156.502 171.452V171.414C156.786 170.879 157.252 170.463 157.815 170.24C158.378 170.017 159.001 170.002 159.575 170.196C160.148 170.391 160.634 170.783 160.944 171.303C161.255 171.823 161.371 172.436 161.271 173.033C160.981 174.848 160.584 176.561 160.143 178.306C159.702 180.051 159.23 181.778 158.6 183.51C157.983 185.296 157.25 187.041 156.408 188.733C155.919 189.685 155.365 190.603 154.751 191.48C154.363 192.02 153.929 192.526 153.453 192.992C152.748 193.694 151.917 194.256 151.002 194.648C150.553 194.84 150.072 194.944 149.585 194.957H149.307C146.818 194.972 144.354 194.454 142.081 193.439C141.078 193.01 140.098 192.528 139.146 191.996C138.234 191.459 137.354 190.902 136.506 190.327C134.857 189.172 133.287 187.909 131.806 186.547C131.082 185.879 130.363 185.205 129.677 184.493C129.336 184.14 128.99 183.787 128.656 183.416C128.322 183.044 128.026 182.704 127.617 182.231C126.711 181.229 126.241 179.907 126.309 178.558C126.378 177.209 126.979 175.942 127.982 175.037C128.985 174.131 130.306 173.661 131.655 173.729C133.004 173.798 134.271 174.399 135.177 175.402L135.347 175.616Z" fill="#FFC3BD"/>
<path d="M130.458 173.191C135.076 173.329 139.668 178.861 139.668 178.861C139.668 178.861 137.892 186.2 132.833 189.363C129.985 187.145 127.573 185.369 127.573 185.369C123.547 179.465 124.889 175.547 130.458 173.191Z" fill="#263238"/>
<path d="M110.632 213.523C110.972 215.495 111.381 217.045 111.514 217.517C111.527 217.568 111.549 217.615 111.581 217.656C111.612 217.697 111.651 217.731 111.696 217.757C112.371 218.129 115.445 219.647 121.09 219.313C127.39 218.973 136.632 215.533 141.426 211.873C141.496 211.819 141.546 211.743 141.569 211.658C141.592 211.572 141.586 211.482 141.552 211.4C141.182 210.579 140.75 209.787 140.261 209.031C140.213 208.959 140.143 208.904 140.061 208.874C139.979 208.845 139.89 208.842 139.807 208.868C137.741 209.498 124.731 213.221 111.029 213.057C110.971 213.057 110.913 213.07 110.86 213.094C110.808 213.119 110.761 213.155 110.723 213.199C110.685 213.243 110.658 213.295 110.642 213.351C110.626 213.407 110.623 213.466 110.632 213.523Z" fill="#1581BF"/>
<path opacity="0.3" d="M110.632 213.523C110.972 215.495 111.381 217.045 111.514 217.517C111.527 217.568 111.549 217.615 111.581 217.656C111.612 217.697 111.651 217.731 111.696 217.757C112.371 218.129 115.445 219.647 121.09 219.313C127.39 218.973 136.632 215.533 141.426 211.873C141.496 211.819 141.546 211.743 141.569 211.658C141.592 211.572 141.586 211.482 141.552 211.4C141.182 210.579 140.75 209.787 140.261 209.031C140.213 208.959 140.143 208.904 140.061 208.874C139.979 208.845 139.89 208.842 139.807 208.868C137.741 209.498 124.731 213.221 111.029 213.057C110.971 213.057 110.913 213.07 110.86 213.094C110.808 213.119 110.761 213.155 110.723 213.199C110.685 213.243 110.658 213.295 110.642 213.351C110.626 213.407 110.623 213.466 110.632 213.523Z" fill="white"/>
<path d="M236.89 315.438H153.944C152.41 315.452 150.89 315.149 149.479 314.547C148.067 313.945 146.796 313.058 145.745 311.94C144.693 310.823 143.884 309.5 143.369 308.055C142.853 306.61 142.642 305.074 142.749 303.544L152.829 131.144C153.059 127.944 154.481 124.947 156.814 122.745C159.147 120.542 162.221 119.295 165.429 119.25H248.394C249.928 119.236 251.448 119.539 252.86 120.141C254.271 120.743 255.542 121.631 256.594 122.748C257.645 123.865 258.454 125.188 258.97 126.633C259.485 128.078 259.696 129.614 259.589 131.144L249.477 303.544C249.248 306.742 247.828 309.737 245.497 311.939C243.167 314.141 240.096 315.39 236.89 315.438Z" fill="#1581BF"/>
<path opacity="0.8" d="M236.89 315.438H153.944C152.41 315.452 150.89 315.149 149.479 314.547C148.067 313.945 146.796 313.058 145.745 311.94C144.693 310.823 143.884 309.5 143.369 308.055C142.853 306.61 142.642 305.074 142.749 303.544L152.829 131.144C153.059 127.944 154.481 124.947 156.814 122.745C159.147 120.542 162.221 119.295 165.429 119.25H248.394C249.928 119.236 251.448 119.539 252.86 120.141C254.271 120.743 255.542 121.631 256.594 122.748C257.645 123.865 258.454 125.188 258.97 126.633C259.485 128.078 259.696 129.614 259.589 131.144L249.477 303.544C249.248 306.742 247.828 309.737 245.497 311.939C243.167 314.141 240.096 315.39 236.89 315.438Z" fill="white"/>
<path d="M236.399 311.986H155.759C154.681 311.996 153.612 311.784 152.621 311.361C151.629 310.938 150.736 310.315 149.997 309.531C149.258 308.746 148.689 307.817 148.326 306.802C147.964 305.787 147.815 304.707 147.89 303.632L157.97 131.982C158.132 129.739 159.126 127.638 160.758 126.091C162.39 124.544 164.542 123.664 166.79 123.622H247.43C248.508 123.613 249.577 123.826 250.568 124.249C251.56 124.673 252.453 125.297 253.192 126.082C253.931 126.867 254.5 127.796 254.862 128.812C255.225 129.827 255.373 130.907 255.299 131.982L245.219 303.632C245.057 305.874 244.062 307.975 242.43 309.521C240.798 311.067 238.646 311.946 236.399 311.986Z" fill="#1581BF"/>
<path d="M235.529 311.066H154.889C153.811 311.076 152.743 310.862 151.751 310.439C150.759 310.016 149.866 309.392 149.127 308.607C148.388 307.821 147.819 306.892 147.457 305.877C147.094 304.861 146.946 303.782 147.021 302.706L157.101 131.056C157.262 128.813 158.257 126.712 159.889 125.165C161.521 123.618 163.672 122.737 165.921 122.696H246.561C247.639 122.687 248.707 122.9 249.699 123.323C250.691 123.747 251.584 124.37 252.323 125.156C253.062 125.941 253.631 126.87 253.993 127.886C254.356 128.901 254.504 129.981 254.429 131.056L244.349 302.706C244.188 304.949 243.193 307.05 241.561 308.597C239.929 310.144 237.778 311.025 235.529 311.066Z" fill="white"/>
<path opacity="0.1" d="M233.173 304.684H157.97C157.304 304.69 156.643 304.558 156.03 304.297C155.418 304.035 154.865 303.65 154.409 303.165C153.952 302.679 153.6 302.105 153.376 301.478C153.152 300.85 153.06 300.183 153.106 299.518L157.34 227.919C157.439 226.529 158.056 225.228 159.069 224.271C160.081 223.315 161.416 222.773 162.808 222.753H237.98C238.646 222.747 239.307 222.879 239.92 223.14C240.532 223.402 241.085 223.787 241.541 224.272C241.998 224.757 242.35 225.332 242.574 225.959C242.798 226.587 242.89 227.254 242.844 227.919L238.641 299.518C238.542 300.908 237.925 302.209 236.913 303.166C235.9 304.122 234.566 304.664 233.173 304.684Z" fill="#1581BF"/>
<path opacity="0.1" d="M216.472 135.428H194.554C194.316 135.431 194.08 135.384 193.861 135.29C193.642 135.197 193.444 135.059 193.281 134.886C193.118 134.713 192.992 134.507 192.912 134.283C192.832 134.059 192.799 133.82 192.815 133.582C192.85 133.084 193.071 132.617 193.434 132.274C193.797 131.931 194.275 131.737 194.775 131.73H216.686C216.927 131.724 217.166 131.769 217.389 131.861C217.611 131.953 217.812 132.091 217.978 132.265C218.145 132.44 218.272 132.647 218.354 132.874C218.435 133.101 218.468 133.342 218.45 133.582C218.415 134.083 218.191 134.552 217.824 134.895C217.457 135.237 216.974 135.428 216.472 135.428Z" fill="#1581BF"/>
<path opacity="0.1" d="M225.191 204.532C238.688 191.426 239.609 170.483 227.249 157.755C214.89 145.028 193.929 145.335 180.432 158.441C166.936 171.548 166.015 192.49 178.374 205.218C190.734 217.946 211.695 217.639 225.191 204.532Z" fill="#F4980C"/>
<path d="M179.642 203.399C176.884 200.463 174.763 196.989 173.411 193.195C172.059 189.4 171.506 185.367 171.786 181.349H172.416C172.143 185.281 172.685 189.227 174.007 192.94C175.33 196.653 177.405 200.053 180.102 202.927L179.642 203.399Z" fill="#F4980C"/>
<path d="M233.835 181.62L233.205 181.582C233.377 178.807 233.165 176.021 232.575 173.304L233.205 173.165C233.807 175.941 234.019 178.786 233.835 181.62Z" fill="#F4980C"/>
<path d="M230.748 167.823C229.206 164.402 227 161.322 224.259 158.76C221.517 156.198 218.294 154.205 214.777 152.898L214.998 152.306C218.595 153.64 221.891 155.677 224.694 158.297C227.496 160.918 229.749 164.071 231.321 167.571L230.748 167.823Z" fill="#F4980C"/>
<path d="M222.312 201.567C234.074 190.146 234.878 171.896 224.108 160.806C213.339 149.716 195.073 149.984 183.312 161.406C171.55 172.828 170.746 191.077 181.516 202.168C192.285 213.258 210.551 212.989 222.312 201.567Z" fill="#F4980C"/>
<path d="M199.607 185.4C200.993 185.091 201.642 183.907 201.938 182.559C201.969 182.414 201.994 182.275 202.02 182.137V182.011C202.095 181.449 202.137 180.883 202.146 180.316C200.804 180.183 199.558 179.561 198.645 178.569C197.731 177.577 197.215 176.284 197.194 174.936C197.124 172.262 197.717 169.613 198.92 167.225C198.61 167.265 198.317 167.387 198.069 167.577C198.046 167.596 198.018 167.608 197.989 167.615C197.959 167.621 197.929 167.621 197.899 167.615C197.845 167.606 197.795 167.577 197.761 167.533C197.727 167.486 197.713 167.427 197.721 167.37C197.73 167.313 197.759 167.261 197.805 167.225C198.197 166.928 198.675 166.769 199.166 166.771C199.26 166.62 199.348 166.462 199.443 166.317C199.04 166.317 198.649 166.317 198.271 166.317C198.687 163.407 204.288 160.962 208.105 163.167C209.806 163.508 212.616 165.939 212.616 165.939C212.673 167.488 212.628 169.039 212.484 170.582C212.232 173.216 211.608 176.309 210.09 178.035C210.468 177.152 210.607 176.185 210.493 175.232C210.129 175.592 209.677 175.85 209.183 175.982C209.003 176.368 208.792 176.738 208.553 177.09C207.961 179.793 207.538 183.39 208.439 185.463C209.252 185.513 210.039 185.589 210.789 185.671L210.972 185.702C211.467 185.412 211.942 185.09 212.396 184.739C218.066 180.329 212.049 175.15 213.467 170.406C214.884 165.662 213.687 163.86 209.813 163.709C211.419 161.145 201.213 157.05 196.728 165.007C192.664 172.22 191.354 175.824 192.815 181.463C193.365 183.305 194.61 184.862 196.287 185.803C196.572 185.725 196.863 185.666 197.156 185.627C197.956 185.551 198.788 185.463 199.607 185.4Z" fill="#263238"/>
<path d="M190.793 196.488C190.562 196.079 190.352 195.658 190.163 195.228C189.735 196.488 189.313 197.748 188.903 199.008C188.512 200.142 188.141 201.276 187.75 202.36L187.164 203.891L186.912 204.521C186.824 204.691 186.912 204.59 186.912 204.64C186.644 204.953 186.346 205.24 186.024 205.497C185.955 205.566 185.866 205.629 185.791 205.692C187.534 206.868 189.41 207.834 191.379 208.571C191.423 205.692 191.776 202.7 192.154 201.9C189.886 200.325 190.226 198.63 190.793 196.488Z" fill="#FFC3BD"/>
<path d="M192.999 187.989L192.841 188.21C192.891 188.135 192.948 188.065 193.005 187.996L192.999 187.989Z" fill="#263238"/>
<path d="M191.543 192.21C191.533 190.823 191.954 189.468 192.746 188.329C191.538 190.23 190.545 192.258 189.785 194.378C189.785 194.378 189.898 194.711 190.138 195.234C190.326 195.665 190.537 196.085 190.768 196.494C191.217 195.108 191.478 193.667 191.543 192.21Z" fill="#263238"/>
<path d="M213.505 201.352C212.758 200.254 212.094 199.102 211.52 197.905C211.331 198.006 211.136 198.107 210.934 198.195C209.044 196.198 207.431 194.585 207.431 194.585C205.075 189.671 206.53 186.874 210.997 185.734C211.69 185.877 212.352 186.143 212.95 186.521C212.361 186.107 211.684 185.835 210.972 185.728L210.789 185.696C210.04 185.614 209.252 185.539 208.439 185.488C208.616 185.948 204.571 191.788 202.032 192.714C200.993 190.093 198.076 189.917 198.076 189.917C198.076 189.917 195.354 189.356 194.51 191.07C195.064 187.529 198.473 185.665 199.607 185.4C198.788 185.469 197.956 185.557 197.156 185.658C196.863 185.698 196.572 185.757 196.287 185.835C194.99 186.19 193.841 186.949 193.004 188.002C192.948 188.071 192.891 188.14 192.841 188.216L192.746 188.336C191.954 189.474 191.534 190.83 191.543 192.217C191.485 193.67 191.233 195.108 190.793 196.494C190.226 198.611 189.886 200.331 192.11 201.906C191.732 202.706 191.379 205.686 191.335 208.578C194.466 209.738 197.78 210.327 201.119 210.316C205.394 210.31 209.618 209.384 213.505 207.601C213.396 205.256 213.415 202.907 213.561 200.564C213.542 200.816 213.517 201.093 213.505 201.352Z" fill="#263238"/>
<path d="M198.076 189.917C198.076 189.917 200.993 190.094 202.032 192.714C204.552 191.757 208.616 185.948 208.439 185.488C208.439 185.488 202.7 188.273 198.076 189.917Z" fill="white"/>
<path d="M199.619 185.4C198.485 185.671 195.077 187.536 194.523 191.07C195.367 189.356 198.088 189.917 198.088 189.917C197.206 186.603 199.619 185.4 199.619 185.4Z" fill="white"/>
<path d="M208.553 177.116C208.005 177.91 207.313 178.594 206.511 179.132C206.175 179.374 205.816 179.585 205.44 179.762C204.615 181.086 203.385 182.109 201.931 182.678V182.571C201.635 183.92 200.986 185.091 199.6 185.413C199.6 185.413 197.187 186.622 198.057 189.936C202.687 188.292 208.42 185.526 208.42 185.526C207.538 183.422 207.961 179.818 208.553 177.116Z" fill="#FFC3BD"/>
<path d="M201.95 182.552C201.982 182.408 202.007 182.269 202.032 182.13C202.007 182.25 201.982 182.408 201.95 182.552Z" fill="#263238"/>
<path opacity="0.2" d="M201.95 182.552C201.982 182.408 202.007 182.269 202.032 182.13C202.007 182.25 201.982 182.408 201.95 182.552Z" fill="black"/>
<path d="M202.177 180.31C202.169 180.876 202.127 181.442 202.051 182.004C202.129 181.443 202.172 180.877 202.177 180.31Z" fill="#263238"/>
<path opacity="0.2" d="M202.177 180.31C202.169 180.876 202.127 181.442 202.051 182.004C202.129 181.443 202.172 180.877 202.177 180.31Z" fill="black"/>
<path d="M205.44 179.73C204.426 180.216 203.296 180.412 202.177 180.297C202.172 180.864 202.129 181.43 202.051 181.992V182.118C202.051 182.256 202.001 182.395 201.969 182.54V182.647C203.408 182.071 204.625 181.048 205.44 179.73Z" fill="#FFC3BD"/>
<path opacity="0.2" d="M205.44 179.73C204.426 180.216 203.296 180.412 202.177 180.297C202.172 180.864 202.129 181.43 202.051 181.992V182.118C202.051 182.256 202.001 182.395 201.969 182.54V182.647C203.408 182.071 204.625 181.048 205.44 179.73Z" fill="black"/>
<path d="M205.441 179.73C205.816 179.553 206.175 179.342 206.512 179.1C207.313 178.562 208.005 177.878 208.553 177.084C208.792 176.732 209.003 176.361 209.183 175.975C209.063 175.975 208.943 176.038 208.83 176.051C207.778 176.145 207.482 174.961 207.961 173.902C208.123 173.545 208.335 173.212 208.591 172.913C208.316 172.014 208.383 171.045 208.78 170.192C207.822 168.226 206.808 166.412 206.713 165.095C204.356 165.824 201.909 166.224 199.443 166.286C199.348 166.431 199.26 166.588 199.166 166.739C199.379 166.739 199.592 166.77 199.796 166.834C199.822 166.844 199.847 166.859 199.867 166.878C199.888 166.897 199.905 166.92 199.917 166.946C199.928 166.972 199.935 167 199.936 167.028C199.937 167.056 199.932 167.085 199.922 167.111C199.902 167.165 199.862 167.209 199.81 167.233C199.758 167.258 199.699 167.262 199.645 167.243C199.418 167.175 199.179 167.157 198.945 167.193C197.759 169.584 197.181 172.23 197.263 174.898C197.284 176.246 197.801 177.539 198.714 178.532C199.627 179.524 200.873 180.145 202.215 180.278C203.32 180.392 204.435 180.203 205.441 179.73ZM204.036 167.357C204.379 167.424 204.7 167.574 204.972 167.794C205.245 168.013 205.459 168.296 205.598 168.617C205.622 168.67 205.626 168.73 205.607 168.785C205.588 168.84 205.549 168.886 205.497 168.913C205.445 168.935 205.386 168.935 205.333 168.913C205.305 168.905 205.279 168.891 205.257 168.871C205.235 168.851 205.218 168.827 205.207 168.799C205.093 168.545 204.919 168.322 204.699 168.15C204.48 167.978 204.222 167.861 203.947 167.81C203.891 167.801 203.839 167.77 203.804 167.725C203.769 167.679 203.753 167.622 203.758 167.565C203.761 167.532 203.771 167.501 203.787 167.473C203.803 167.445 203.825 167.421 203.851 167.402C203.878 167.383 203.908 167.371 203.94 167.365C203.972 167.36 204.004 167.361 204.036 167.369V167.357ZM203.815 170.469C203.92 170.548 203.998 170.658 204.038 170.783C204.077 170.909 204.076 171.043 204.036 171.168C203.966 171.534 203.714 171.798 203.475 171.742C203.236 171.685 203.097 171.364 203.166 170.998C203.201 170.813 203.296 170.645 203.437 170.519C203.241 170.415 203.087 170.246 203.002 170.041L203.815 170.469ZM198.649 170.204C198.683 170.022 198.776 169.856 198.914 169.732C198.721 169.623 198.57 169.452 198.485 169.247L199.311 169.669C199.412 169.751 199.487 169.861 199.527 169.985C199.566 170.11 199.567 170.243 199.531 170.368C199.456 170.734 199.21 170.998 198.97 170.948C198.731 170.897 198.58 170.582 198.649 170.217V170.204ZM200.111 173.266C199.877 173.28 199.643 173.243 199.426 173.157C199.208 173.071 199.012 172.938 198.851 172.768C199.525 172.157 200.114 171.458 200.602 170.689L200.111 173.266ZM201.327 174.955C201.299 174.947 201.275 174.929 201.259 174.905C201.244 174.88 201.239 174.851 201.245 174.822C201.251 174.795 201.267 174.771 201.291 174.756C201.315 174.74 201.343 174.735 201.371 174.74C201.825 174.838 202.297 174.828 202.747 174.71C203.197 174.591 203.612 174.369 203.96 174.06C203.97 174.05 203.982 174.041 203.995 174.036C204.008 174.03 204.022 174.027 204.037 174.026C204.051 174.026 204.065 174.029 204.078 174.034C204.092 174.039 204.104 174.047 204.114 174.057C204.125 174.067 204.133 174.079 204.139 174.092C204.144 174.105 204.148 174.119 204.148 174.133C204.148 174.148 204.146 174.162 204.14 174.175C204.135 174.189 204.127 174.201 204.118 174.211C203.532 174.75 202.759 175.04 201.963 175.018C201.75 175.016 201.537 174.999 201.327 174.967V174.955Z" fill="#FFC3BD"/>
<path d="M209.63 172.17C209.365 171.54 209.063 170.866 208.754 170.236C208.358 171.089 208.29 172.058 208.565 172.958C208.845 172.606 209.212 172.334 209.63 172.17Z" fill="#263238"/>
<path d="M203.424 170.538C203.284 170.663 203.188 170.832 203.154 171.017C203.084 171.383 203.223 171.716 203.462 171.761C203.702 171.805 203.954 171.553 204.023 171.187C204.064 171.062 204.064 170.928 204.025 170.802C203.985 170.677 203.908 170.567 203.802 170.488C203.749 170.528 203.686 170.554 203.62 170.563C203.554 170.572 203.486 170.564 203.424 170.538Z" fill="#263238"/>
<path d="M199.55 170.387C199.586 170.262 199.585 170.129 199.545 170.004C199.506 169.88 199.431 169.77 199.329 169.688C199.275 169.728 199.211 169.754 199.144 169.764C199.077 169.774 199.009 169.767 198.945 169.745C198.808 169.869 198.715 170.035 198.681 170.217C198.611 170.582 198.75 170.916 198.989 170.967C199.229 171.017 199.443 170.753 199.55 170.387Z" fill="#263238"/>
<path d="M199.298 169.688L198.473 169.266C198.557 169.471 198.708 169.642 198.901 169.751C198.967 169.775 199.038 169.781 199.108 169.77C199.177 169.759 199.243 169.731 199.298 169.688Z" fill="#263238"/>
<path d="M198.857 172.8C199.018 172.97 199.214 173.102 199.432 173.188C199.65 173.274 199.883 173.312 200.117 173.298L200.615 170.721C200.125 171.49 199.534 172.189 198.857 172.8Z" fill="#ED847E"/>
<path d="M204.105 174.06C204.084 174.04 204.056 174.028 204.026 174.028C203.997 174.028 203.969 174.04 203.947 174.06C203.601 174.367 203.187 174.588 202.74 174.706C202.292 174.825 201.823 174.836 201.371 174.74C201.343 174.735 201.314 174.74 201.291 174.756C201.267 174.771 201.251 174.795 201.245 174.822C201.239 174.851 201.244 174.88 201.259 174.905C201.275 174.929 201.299 174.947 201.327 174.955C201.535 174.99 201.745 175.011 201.957 175.018C202.752 175.04 203.525 174.75 204.111 174.211C204.129 174.19 204.138 174.162 204.137 174.134C204.136 174.106 204.124 174.08 204.105 174.06Z" fill="#263238"/>
<path d="M209.63 172.17C209.212 172.334 208.845 172.606 208.565 172.958C208.309 173.256 208.097 173.589 207.935 173.947C207.456 175.005 207.753 176.189 208.805 176.095C208.918 176.095 209.038 176.045 209.157 176.019C209.652 175.888 210.104 175.629 210.468 175.27C210.336 174.202 210.054 173.159 209.63 172.17Z" fill="#FFC3BD"/>
<path d="M206.833 164.182C206.871 163.274 207.387 163.054 208.093 163.193C204.275 160.962 198.674 163.407 198.258 166.343C198.636 166.343 199.027 166.343 199.43 166.343C201.897 166.281 204.343 165.88 206.7 165.152C206.664 164.822 206.709 164.489 206.833 164.182Z" fill="#263238"/>
<path d="M206.833 164.182C206.713 164.481 206.668 164.806 206.701 165.127C206.795 166.462 207.809 168.277 208.767 170.223C209.076 170.853 209.397 171.483 209.643 172.157C210.067 173.146 210.349 174.189 210.481 175.257C210.594 176.211 210.455 177.177 210.077 178.061C211.596 176.334 212.219 173.241 212.471 170.608C212.616 169.064 212.66 167.513 212.604 165.964C212.604 165.964 209.794 163.533 208.093 163.192C207.387 163.054 206.871 163.274 206.833 164.182Z" fill="#263238"/>
<path d="M203.96 167.804C204.234 167.855 204.492 167.971 204.712 168.144C204.931 168.316 205.106 168.539 205.22 168.793C205.231 168.821 205.248 168.845 205.27 168.865C205.291 168.885 205.318 168.899 205.346 168.907C205.398 168.928 205.457 168.928 205.51 168.907C205.561 168.88 205.601 168.834 205.619 168.779C205.638 168.724 205.635 168.663 205.611 168.611C205.472 168.289 205.257 168.007 204.985 167.787C204.713 167.568 204.391 167.418 204.048 167.351C203.991 167.343 203.933 167.359 203.887 167.395C203.841 167.43 203.81 167.482 203.802 167.539C203.791 167.595 203.8 167.654 203.829 167.703C203.859 167.752 203.905 167.788 203.96 167.804Z" fill="#263238"/>
<path d="M199.607 167.275C199.661 167.293 199.72 167.29 199.772 167.265C199.824 167.24 199.864 167.196 199.884 167.143C199.894 167.116 199.899 167.088 199.898 167.06C199.897 167.031 199.89 167.003 199.879 166.978C199.867 166.952 199.85 166.929 199.83 166.909C199.809 166.89 199.784 166.875 199.758 166.865C199.554 166.802 199.341 166.77 199.128 166.771C198.637 166.769 198.159 166.928 197.767 167.224C197.722 167.261 197.692 167.313 197.684 167.37C197.675 167.427 197.689 167.486 197.723 167.533C197.758 167.577 197.807 167.606 197.862 167.615C197.891 167.621 197.921 167.621 197.951 167.615C197.98 167.608 198.008 167.596 198.032 167.577C198.279 167.387 198.573 167.265 198.882 167.224C199.124 167.185 199.372 167.202 199.607 167.275Z" fill="#263238"/>
<path d="M203.424 170.538C203.486 170.564 203.554 170.572 203.62 170.563C203.686 170.554 203.749 170.528 203.803 170.488L202.977 170.066C203.066 170.271 203.224 170.438 203.424 170.538Z" fill="#263238"/>
<path d="M213.505 201.352C213.505 201.093 213.542 200.816 213.555 200.552C213.202 199.991 212.843 199.424 212.471 198.863L211.747 197.786L211.52 197.906C212.094 199.102 212.758 200.254 213.505 201.352Z" fill="#263238"/>
<path opacity="0.2" d="M213.505 201.352C213.505 201.093 213.542 200.816 213.555 200.552C213.202 199.991 212.843 199.424 212.471 198.863L211.747 197.786L211.52 197.906C212.094 199.102 212.758 200.254 213.505 201.352Z" fill="black"/>
<path d="M215.376 206.568V206.669C217.888 205.311 220.203 203.615 222.255 201.629C221.911 200.613 221.507 199.617 221.046 198.649C220.434 197.331 219.755 196.047 219.011 194.8C218.381 193.716 217.713 192.683 217.026 191.65C216.396 192.966 214.607 196.135 211.766 197.767L212.49 198.844C212.862 199.405 213.221 199.972 213.574 200.533C213.882 201.024 214.204 201.522 214.462 202.013C214.947 202.864 215.401 203.72 215.722 204.533L215.659 204.962C215.583 205.484 215.489 206.02 215.376 206.568Z" fill="#FFC3BD"/>
<path d="M207.431 194.585C207.431 194.585 209.044 196.198 210.934 198.195C211.136 198.107 211.331 198.006 211.52 197.906L211.747 197.786C214.588 196.154 216.365 192.985 217.007 191.669C217.19 191.297 217.284 191.07 217.284 191.07C217.284 191.07 215.457 188.046 212.95 186.521C212.352 186.143 211.69 185.877 210.997 185.734C206.53 186.874 205.075 189.671 207.431 194.585Z" fill="#263238"/>
<path d="M237.64 131.39H246.517C246.759 131.386 246.991 131.291 247.167 131.124C247.343 130.958 247.451 130.731 247.468 130.489C247.476 130.374 247.46 130.258 247.421 130.15C247.382 130.041 247.321 129.941 247.241 129.857C247.162 129.773 247.066 129.707 246.96 129.661C246.854 129.616 246.739 129.593 246.624 129.595H237.741C237.499 129.599 237.268 129.692 237.092 129.858C236.916 130.023 236.808 130.248 236.789 130.489C236.781 130.605 236.796 130.722 236.835 130.832C236.874 130.942 236.936 131.043 237.016 131.128C237.096 131.212 237.192 131.279 237.3 131.325C237.407 131.37 237.523 131.392 237.64 131.39Z" fill="#1581BF"/>
<path d="M237.457 134.483H246.334C246.576 134.479 246.808 134.385 246.984 134.218C247.161 134.051 247.268 133.824 247.285 133.582C247.294 133.467 247.278 133.35 247.24 133.241C247.201 133.131 247.14 133.031 247.061 132.947C246.982 132.862 246.886 132.795 246.779 132.749C246.672 132.703 246.557 132.68 246.441 132.682H237.564C237.321 132.684 237.087 132.778 236.91 132.945C236.732 133.112 236.624 133.34 236.607 133.582C236.6 133.698 236.617 133.814 236.656 133.923C236.696 134.033 236.757 134.132 236.837 134.217C236.917 134.301 237.013 134.368 237.12 134.414C237.226 134.46 237.341 134.484 237.457 134.483Z" fill="#1581BF"/>
<path d="M165.643 134.483H174.52C174.763 134.479 174.996 134.385 175.173 134.218C175.35 134.052 175.459 133.825 175.478 133.583C175.486 133.466 175.469 133.35 175.43 133.241C175.391 133.131 175.329 133.031 175.249 132.946C175.169 132.862 175.073 132.794 174.966 132.749C174.859 132.703 174.744 132.68 174.627 132.682H165.75C165.508 132.684 165.275 132.779 165.098 132.946C164.922 133.113 164.815 133.34 164.799 133.583C164.791 133.698 164.807 133.814 164.846 133.923C164.885 134.032 164.946 134.132 165.025 134.216C165.105 134.301 165.2 134.368 165.307 134.414C165.413 134.46 165.528 134.484 165.643 134.483Z" fill="#1581BF"/>
<path d="M237.274 137.57H246.17C246.414 137.568 246.647 137.474 246.825 137.307C247.002 137.14 247.11 136.912 247.128 136.67C247.134 136.554 247.118 136.438 247.078 136.329C247.038 136.219 246.977 136.12 246.897 136.035C246.817 135.951 246.721 135.884 246.615 135.838C246.508 135.792 246.393 135.768 246.277 135.769H237.381C237.138 135.773 236.905 135.867 236.728 136.034C236.551 136.2 236.443 136.427 236.424 136.67C236.416 136.786 236.432 136.902 236.472 137.011C236.511 137.121 236.572 137.221 236.652 137.306C236.732 137.39 236.829 137.458 236.936 137.503C237.043 137.549 237.158 137.572 237.274 137.57Z" fill="#1581BF"/>
<path d="M225.607 250.599H171.906C170.903 250.608 169.909 250.41 168.986 250.016C168.064 249.623 167.232 249.043 166.545 248.313C165.857 247.583 165.328 246.718 164.991 245.774C164.654 244.829 164.515 243.825 164.585 242.825C164.736 240.733 165.666 238.775 167.19 237.336C168.714 235.897 170.723 235.081 172.819 235.05H226.52C227.523 235.041 228.517 235.239 229.44 235.633C230.362 236.026 231.194 236.606 231.881 237.336C232.569 238.066 233.098 238.931 233.435 239.875C233.772 240.82 233.91 241.824 233.841 242.825C233.69 244.916 232.76 246.874 231.236 248.313C229.712 249.752 227.703 250.568 225.607 250.599Z" fill="white"/>
<path d="M224.385 271.496H170.677C169.674 271.503 168.681 271.304 167.758 270.909C166.836 270.515 166.005 269.934 165.318 269.204C164.631 268.473 164.102 267.609 163.764 266.664C163.427 265.72 163.288 264.716 163.357 263.715C163.512 261.628 164.444 259.674 165.967 258.239C167.491 256.803 169.497 255.99 171.591 255.96H225.298C226.301 255.951 227.295 256.149 228.218 256.542C229.14 256.936 229.971 257.516 230.659 258.246C231.346 258.976 231.876 259.84 232.213 260.785C232.55 261.73 232.688 262.734 232.619 263.734C232.463 265.822 231.532 267.777 230.008 269.213C228.484 270.65 226.478 271.464 224.385 271.496Z" fill="white"/>
<path d="M223.156 292.387H169.455C168.452 292.396 167.458 292.198 166.535 291.804C165.613 291.411 164.782 290.831 164.094 290.101C163.407 289.371 162.877 288.506 162.54 287.562C162.203 286.617 162.065 285.613 162.134 284.612C162.285 282.521 163.215 280.562 164.739 279.121C166.263 277.681 168.272 276.864 170.368 276.832H224.07C225.073 276.823 226.067 277.022 226.99 277.417C227.912 277.811 228.743 278.391 229.431 279.122C230.118 279.853 230.647 280.717 230.984 281.662C231.322 282.607 231.46 283.612 231.39 284.612C231.239 286.703 230.31 288.662 228.785 290.101C227.261 291.54 225.252 292.356 223.156 292.387Z" fill="white"/>
<path d="M176.078 245.611C177.713 244.023 177.825 241.487 176.33 239.947C174.834 238.407 172.297 238.446 170.662 240.034C169.027 241.621 168.914 244.157 170.409 245.697C171.905 247.237 174.443 247.198 176.078 245.611Z" fill="#1581BF"/>
<path d="M172.895 259.929L173.424 261.926C173.454 262.036 173.52 262.132 173.612 262.201C173.703 262.269 173.814 262.306 173.928 262.304H176.026C176.144 262.305 176.259 262.345 176.352 262.417C176.446 262.49 176.513 262.591 176.544 262.705C176.575 262.82 176.567 262.941 176.522 263.05C176.478 263.16 176.399 263.252 176.297 263.312L174.526 264.572C174.426 264.639 174.349 264.736 174.306 264.849C174.263 264.962 174.256 265.085 174.287 265.202L174.816 267.199C174.848 267.314 174.843 267.435 174.803 267.547C174.763 267.659 174.689 267.756 174.592 267.825C174.496 267.894 174.38 267.931 174.261 267.932C174.142 267.933 174.026 267.897 173.928 267.829L172.303 266.569C172.21 266.504 172.1 266.47 171.988 266.47C171.875 266.47 171.765 266.504 171.673 266.569L169.902 267.829C169.809 267.903 169.695 267.944 169.576 267.944C169.457 267.945 169.342 267.906 169.248 267.833C169.155 267.761 169.088 267.659 169.059 267.544C169.03 267.429 169.041 267.307 169.09 267.199L169.852 265.202C169.899 265.094 169.908 264.973 169.878 264.859C169.849 264.745 169.782 264.644 169.688 264.572L168.063 263.312C167.973 263.235 167.91 263.133 167.881 263.018C167.852 262.904 167.859 262.783 167.901 262.673C167.943 262.563 168.018 262.468 168.115 262.402C168.213 262.336 168.329 262.302 168.447 262.304H170.545C170.664 262.304 170.78 262.268 170.878 262.201C170.976 262.133 171.051 262.037 171.093 261.926L171.83 259.929C171.864 259.814 171.934 259.712 172.03 259.64C172.126 259.568 172.242 259.529 172.362 259.529C172.482 259.529 172.599 259.568 172.695 259.64C172.791 259.712 172.861 259.814 172.895 259.929Z" fill="#1581BF"/>
<path d="M174.35 282.496L174.016 288.103C174 288.338 173.896 288.558 173.724 288.719C173.552 288.881 173.326 288.971 173.09 288.972H168.182C168.074 288.966 167.968 288.938 167.87 288.89C167.773 288.841 167.686 288.774 167.615 288.692C167.544 288.61 167.49 288.514 167.456 288.411C167.423 288.307 167.411 288.198 167.42 288.09L167.83 281.11C167.844 280.874 167.947 280.653 168.117 280.491C168.288 280.328 168.514 280.237 168.749 280.234H172.277L174.35 282.496Z" fill="#1581BF"/>
<path d="M172.246 280.246L174.369 282.496H172.989C172.877 282.497 172.766 282.475 172.663 282.431C172.559 282.387 172.466 282.322 172.389 282.24C172.312 282.159 172.253 282.062 172.216 281.956C172.178 281.85 172.162 281.738 172.17 281.626L172.246 280.246ZM171.685 278.703L171.597 280.209L171.515 281.588C171.504 281.789 171.534 281.99 171.602 282.18C171.67 282.369 171.775 282.543 171.912 282.691C172.051 282.837 172.218 282.953 172.403 283.032C172.588 283.112 172.788 283.152 172.989 283.151H175.875L174.841 282.048L172.725 279.799L171.685 278.703Z" fill="white"/>
<path opacity="0.2" d="M223.805 241.999H183.617C183.455 242 183.294 241.968 183.144 241.904C182.994 241.84 182.859 241.747 182.748 241.628C182.636 241.51 182.55 241.37 182.495 241.217C182.439 241.064 182.416 240.901 182.427 240.739C182.453 240.4 182.606 240.083 182.854 239.85C183.102 239.616 183.428 239.484 183.769 239.479H223.95C224.113 239.478 224.274 239.51 224.423 239.574C224.573 239.638 224.708 239.732 224.819 239.85C224.931 239.968 225.017 240.108 225.073 240.261C225.128 240.414 225.151 240.577 225.141 240.739C225.115 241.078 224.964 241.395 224.717 241.628C224.47 241.862 224.145 241.994 223.805 241.999Z" fill="#1581BF"/>
<path opacity="0.2" d="M216.188 246.182H183.378C183.215 246.184 183.054 246.151 182.904 246.087C182.754 246.024 182.619 245.93 182.506 245.812C182.394 245.694 182.307 245.554 182.251 245.401C182.195 245.248 182.171 245.085 182.181 244.922C182.208 244.583 182.36 244.266 182.608 244.033C182.856 243.8 183.182 243.668 183.523 243.662H216.333C216.496 243.66 216.658 243.692 216.809 243.755C216.959 243.819 217.095 243.913 217.207 244.031C217.319 244.149 217.406 244.29 217.462 244.443C217.517 244.596 217.541 244.76 217.53 244.922C217.502 245.261 217.349 245.578 217.102 245.81C216.854 246.043 216.528 246.176 216.188 246.182Z" fill="#1581BF"/>
<path opacity="0.2" d="M222.482 264.541H211.394C211.053 264.544 210.726 264.676 210.478 264.909C210.229 265.143 210.077 265.461 210.052 265.801C210.042 265.963 210.065 266.126 210.12 266.279C210.175 266.432 210.262 266.572 210.373 266.69C210.485 266.808 210.62 266.902 210.769 266.966C210.919 267.029 211.08 267.062 211.243 267.061H222.331C222.672 267.057 222.999 266.925 223.247 266.692C223.496 266.459 223.647 266.141 223.673 265.801C223.683 265.638 223.66 265.476 223.605 265.323C223.549 265.17 223.463 265.03 223.352 264.911C223.24 264.793 223.105 264.699 222.955 264.636C222.806 264.572 222.645 264.539 222.482 264.541Z" fill="#1581BF"/>
<path opacity="0.2" d="M204.911 264.541H182.301C181.96 264.544 181.633 264.676 181.384 264.909C181.136 265.143 180.984 265.461 180.959 265.801C180.947 265.963 180.97 266.126 181.025 266.28C181.08 266.433 181.166 266.573 181.278 266.692C181.39 266.81 181.525 266.904 181.675 266.968C181.825 267.031 181.987 267.063 182.149 267.061H204.766C205.107 267.055 205.433 266.923 205.681 266.69C205.929 266.457 206.082 266.14 206.108 265.801C206.119 265.638 206.095 265.475 206.04 265.321C205.984 265.168 205.897 265.027 205.785 264.909C205.673 264.791 205.537 264.697 205.387 264.634C205.236 264.57 205.074 264.539 204.911 264.541Z" fill="#1581BF"/>
<path opacity="0.2" d="M215.357 260.37H182.54C182.199 260.374 181.872 260.505 181.624 260.739C181.375 260.972 181.223 261.29 181.198 261.63C181.188 261.792 181.211 261.955 181.266 262.108C181.321 262.261 181.408 262.401 181.519 262.519C181.631 262.637 181.766 262.731 181.915 262.795C182.065 262.859 182.226 262.891 182.389 262.89H215.199C215.54 262.885 215.866 262.753 216.114 262.52C216.362 262.287 216.514 261.969 216.541 261.63C216.551 261.468 216.528 261.306 216.474 261.153C216.419 261.001 216.333 260.861 216.222 260.743C216.111 260.625 215.977 260.531 215.828 260.467C215.679 260.403 215.519 260.37 215.357 260.37Z" fill="#1581BF"/>
<path opacity="0.2" d="M221.254 285.431H181.072C180.732 285.438 180.407 285.571 180.159 285.803C179.911 286.036 179.758 286.353 179.73 286.691C179.72 286.854 179.743 287.017 179.799 287.171C179.854 287.324 179.941 287.465 180.054 287.583C180.166 287.701 180.302 287.795 180.452 287.858C180.602 287.922 180.764 287.953 180.927 287.951H221.109C221.448 287.946 221.774 287.814 222.021 287.581C222.268 287.347 222.419 287.03 222.444 286.691C222.455 286.529 222.431 286.366 222.376 286.213C222.321 286.06 222.235 285.92 222.123 285.802C222.011 285.684 221.877 285.59 221.727 285.526C221.577 285.462 221.416 285.43 221.254 285.431Z" fill="#1581BF"/>
<path opacity="0.2" d="M214.128 281.254H181.318C180.977 281.26 180.651 281.392 180.403 281.625C180.155 281.858 180.003 282.175 179.976 282.514C179.966 282.677 179.989 282.84 180.044 282.992C180.099 283.145 180.185 283.285 180.297 283.404C180.409 283.522 180.544 283.616 180.693 283.68C180.843 283.743 181.004 283.776 181.167 283.774H213.983C214.323 283.769 214.648 283.637 214.896 283.404C215.143 283.171 215.294 282.853 215.319 282.514C215.329 282.352 215.306 282.189 215.251 282.037C215.196 281.884 215.109 281.744 214.998 281.625C214.886 281.507 214.751 281.413 214.602 281.349C214.452 281.286 214.291 281.253 214.128 281.254Z" fill="#1581BF"/>
<defs>
<radialGradient id="paint0_radial_149_5310" cx="0" cy="0" r="1" gradientUnits="userSpaceOnUse" gradientTransform="translate(176 217) rotate(90) scale(217)">
<stop stop-color="#1581BF"/>
<stop offset="1" stop-color="#1581BF" stop-opacity="0.62"/>
</radialGradient>
</defs>
</svg>
