<svg width="16" height="16" viewBox="0 0 16 16" fill="none" xmlns="http://www.w3.org/2000/svg">
<path fill-rule="evenodd" clip-rule="evenodd" d="M14.6668 7.99992C14.6668 11.6818 11.6821 14.6666 8.00016 14.6666C4.31826 14.6666 1.3335 11.6818 1.3335 7.99992C1.3335 4.31802 4.31826 1.33325 8.00016 1.33325C11.6821 1.33325 14.6668 4.31802 14.6668 7.99992ZM8.00016 7.33325C8.36835 7.33325 8.66683 7.63173 8.66683 7.99992V11.3338C8.66683 11.702 8.36835 12.0005 8.00016 12.0005C7.63197 12.0005 7.3335 11.702 7.3335 11.3338V7.99992C7.3335 7.63173 7.63197 7.33325 8.00016 7.33325ZM8.00016 5.99992C8.36835 5.99992 8.66683 5.70144 8.66683 5.33325C8.66683 4.96506 8.36835 4.66659 8.00016 4.66659C7.63197 4.66659 7.3335 4.96506 7.3335 5.33325C7.3335 5.70144 7.63197 5.99992 8.00016 5.99992Z" fill="#33383F"/>
</svg>
