<svg width="33" height="32" viewBox="0 0 33 32" fill="none" xmlns="http://www.w3.org/2000/svg">
<path d="M28.3626 7.56874L20.9251 0.124992H5.83135C5.16885 0.124992 4.63135 0.662492 4.63135 1.32499V22.6187H28.3626V7.56874Z" fill="#EFF3F5"/>
<path d="M20.9253 6.36873C20.9253 7.03123 21.4628 7.56873 22.1253 7.56873H28.369L20.9253 0.124985V6.36873Z" fill="#DBDFE0"/>
<path d="M4.6377 22.6125V30.675C4.6377 31.3375 5.1752 31.875 5.8377 31.875H27.1689C27.8314 31.875 28.3689 31.3375 28.3689 30.675V22.6125H4.6377ZM10.4127 21.25C10.0314 21.25 9.6627 21.1062 9.3252 20.825C8.75645 20.35 8.7127 19.825 8.76895 19.4687C9.04395 17.8625 12.0314 16.3937 13.7689 15.6687C14.7127 13.3062 15.5314 10.525 16.0377 8.43748C15.0252 6.26873 14.6689 4.73748 14.9814 3.86873C15.1377 3.43748 15.4564 3.15623 15.9064 3.05623L15.9689 3.04373L16.0314 3.04998C16.0814 3.05623 16.5252 3.12498 16.8877 3.61248C17.3564 4.24998 17.4627 5.28123 17.2002 6.68123C17.1252 7.08123 17.0002 7.65623 16.8377 8.34373C17.7627 10.2687 19.0627 12.3937 20.1252 13.8687C21.0127 13.7437 21.8564 13.7 22.5689 13.775C23.9002 13.9125 24.1814 14.4937 24.2314 14.8312C24.3064 15.325 23.9439 15.8375 23.3252 16.1C22.4689 16.4625 21.0689 16.3687 19.9314 14.8937C19.8814 14.8312 19.8314 14.7625 19.7814 14.6937C18.3189 14.9375 16.6189 15.4 14.8939 16.0437C14.7127 16.1125 14.5377 16.1812 14.3627 16.25C13.1939 19.1125 12.0502 20.7562 10.9564 21.15C10.7814 21.2187 10.5939 21.25 10.4127 21.25ZM13.3502 16.6812C10.8689 17.8 9.6377 18.9062 9.5252 19.6C9.5002 19.75 9.5002 19.9812 9.81895 20.2437C10.1127 20.4875 10.3939 20.55 10.7064 20.4375C11.5752 20.125 12.5002 18.625 13.3502 16.6812ZM20.6627 14.575C21.5064 15.5687 22.4564 15.65 23.0314 15.4C23.3314 15.275 23.5002 15.0625 23.4814 14.9437C23.4627 14.8187 23.1814 14.6062 22.4939 14.5375C21.9814 14.4875 21.3627 14.5 20.6627 14.575ZM16.5627 9.48748C16.1814 10.9562 15.6627 12.725 15.0564 14.4375C14.9502 14.7312 14.8502 15.0125 14.7439 15.2875C16.1002 14.7875 17.7377 14.3 19.2939 14.0062C18.4564 12.8125 17.4252 11.1562 16.5627 9.48748ZM16.0002 3.83123C15.8564 3.88123 15.7627 3.97498 15.7064 4.13748C15.4877 4.73748 15.7752 5.86873 16.3314 7.20623C16.3814 6.96873 16.4252 6.74998 16.4627 6.54998C16.7502 4.99373 16.4752 4.32498 16.2814 4.06873C16.1752 3.92498 16.0627 3.85623 16.0002 3.83123Z" fill="#F1786B"/>
<path d="M22.1503 26.7625H20.719V25.3062H22.1503C22.419 25.3062 22.6378 25.0875 22.6378 24.8187C22.6378 24.55 22.419 24.3312 22.1503 24.3312H20.2378C19.969 24.3312 19.7503 24.55 19.7503 24.8187V29.6687C19.7503 29.9375 19.969 30.1562 20.2378 30.1562C20.5065 30.1562 20.7253 29.9375 20.7253 29.6687V27.7312H22.1565C22.4253 27.7312 22.644 27.5125 22.644 27.2437C22.6378 26.975 22.419 26.7625 22.1503 26.7625ZM11.8378 24.3375H10.8503C10.5815 24.3375 10.3628 24.5562 10.3628 24.825V29.675C10.3628 29.9437 10.5815 30.1625 10.8503 30.1625C11.119 30.1625 11.3378 29.9437 11.3378 29.675V27.7375H11.8378C12.7753 27.7375 13.5378 26.975 13.5378 26.0375C13.5378 25.1 12.7753 24.3375 11.8378 24.3375ZM11.8378 26.7625H11.3378V25.3062H11.8378C12.2378 25.3062 12.5628 25.6312 12.5628 26.0312C12.5628 26.4312 12.2378 26.7625 11.8378 26.7625ZM16.0253 24.3375H14.7503C14.4815 24.3375 14.2628 24.5562 14.2628 24.825V29.675C14.2628 29.9437 14.4815 30.1625 14.7503 30.1625H16.0253C17.6315 30.1625 18.9378 28.8562 18.9378 27.25C18.9378 25.6375 17.6315 24.3375 16.0253 24.3375ZM16.0253 29.1812H15.2378V25.3H16.0253C17.094 25.3 17.9628 26.1687 17.9628 27.2375C17.969 28.3125 17.094 29.1812 16.0253 29.1812Z" fill="#EFF3F5"/>
</svg>
