<svg width="67" height="39" viewBox="0 0 67 39" fill="none" xmlns="http://www.w3.org/2000/svg">
<path fill-rule="evenodd" clip-rule="evenodd" d="M14.5556 28.8069H42.3612C42.5185 28.8069 42.6719 28.7899 42.8195 28.7577C42.9672 28.7899 43.1205 28.8069 43.2778 28.8069H59.1668C60.348 28.8069 61.3056 27.8493 61.3056 26.668C61.3056 25.4867 60.348 24.5291 59.1668 24.5291H57.3334C56.1521 24.5291 55.1945 23.5715 55.1945 22.3902C55.1945 21.2089 56.1521 20.2513 57.3334 20.2513H63.139C64.3203 20.2513 65.2779 19.2937 65.2779 18.1124C65.2779 16.9312 64.3203 15.9735 63.139 15.9735H56.4168C57.598 15.9735 58.5556 15.0159 58.5556 13.8346C58.5556 12.6534 57.598 11.6958 56.4168 11.6958H36.8612C38.0424 11.6958 39.0001 10.7381 39.0001 9.55686C39.0001 8.37558 38.0424 7.41797 36.8612 7.41797H19.4445C18.2632 7.41797 17.3056 8.37558 17.3056 9.55686C17.3056 10.7381 18.2632 11.6958 19.4445 11.6958H7.22223C6.04096 11.6958 5.08334 12.6534 5.08334 13.8346C5.08334 15.0159 6.04096 15.9735 7.22223 15.9735H14.8611C16.0424 15.9735 17 16.9312 17 18.1124C17 19.2937 16.0424 20.2513 14.8611 20.2513H2.63889C1.45761 20.2513 0.5 21.2089 0.5 22.3902C0.5 23.5715 1.45761 24.5291 2.63889 24.5291H14.5556C13.3743 24.5291 12.4167 25.4867 12.4167 26.668C12.4167 27.8493 13.3743 28.8069 14.5556 28.8069ZM64.3611 28.8069C65.5424 28.8069 66.5 27.8493 66.5 26.668C66.5 25.4867 65.5424 24.5291 64.3611 24.5291C63.1798 24.5291 62.2222 25.4867 62.2222 26.668C62.2222 27.8493 63.1798 28.8069 64.3611 28.8069Z" fill="#BFBFBF" fill-opacity="0.4"/>
<path fill-rule="evenodd" clip-rule="evenodd" d="M21.6689 30.3721L20.4252 30.5469C19.7568 30.6409 19.1387 30.1751 19.0448 29.5067L15.6428 5.3001C15.5488 4.63165 16.0145 4.01362 16.683 3.91967L40.587 0.560181C41.2555 0.466237 41.8735 0.931962 41.9674 1.60041C41.9674 1.60041 42.185 3.14817 42.2598 3.68056" fill="white"/>
<path fill-rule="evenodd" clip-rule="evenodd" d="M22.4407 29.0246L21.3114 29.1851C20.7044 29.2714 20.144 28.8494 20.0596 28.2425L17.0056 6.26543C16.9212 5.65856 17.3449 5.09665 17.9519 5.01037L39.6578 1.92525C40.2648 1.83898 40.8252 2.26101 40.9096 2.86789L41.172 4.75646C41.1862 4.85865 42.1238 11.6418 43.9849 25.106C44.0783 25.7821 43.6121 26.4068 42.9436 26.5013C42.9364 26.5023 42.9292 26.5032 42.922 26.5041L22.4407 29.0246Z" fill="#BFBFBF" fill-opacity="0.1"/>
<path d="M21.6689 30.3721L20.4252 30.5469C19.7568 30.6409 19.1387 30.1751 19.0448 29.5067L15.6428 5.3001C15.5488 4.63165 16.0145 4.01361 16.683 3.91967L40.587 0.560181C41.2555 0.466237 41.8735 0.931963 41.9674 1.60041C41.9674 1.60041 42.185 3.14817 42.2598 3.68056" stroke="#C5C5C5" stroke-width="0.76389" stroke-linecap="round"/>
<path d="M42.5141 5.0896L42.6669 6.04306" stroke="#C5C5C5" stroke-width="0.76389" stroke-linecap="round"/>
<path d="M25.8065 6.34505C25.855 5.88352 26.2685 5.5487 26.73 5.59721L50.7367 8.12041C51.1983 8.16892 51.5331 8.58239 51.4846 9.04392L48.9294 33.3545C48.8809 33.816 48.4675 34.1509 48.0059 34.1023L23.9992 31.5791C23.5377 31.5306 23.2029 31.1172 23.2514 30.6556L25.8065 6.34505Z" fill="white" stroke="#C5C5C5" stroke-width="0.76389"/>
<path fill-rule="evenodd" clip-rule="evenodd" d="M27.9061 9.02358C27.9591 8.52009 28.4101 8.15484 28.9136 8.20776L48.0582 10.2199C48.5617 10.2729 48.9269 10.7239 48.874 11.2274L47.1812 27.3332C47.1283 27.8366 46.6772 28.2019 46.1738 28.149L27.0292 26.1368C26.5257 26.0839 26.1604 25.6328 26.2134 25.1293L27.9061 9.02358Z" fill="white"/>
<path fill-rule="evenodd" clip-rule="evenodd" d="M28.8376 21.4362L31.8313 19.4171C32.3304 19.0805 33.0004 19.1575 33.4102 19.5986L35.6021 21.9584C35.7115 22.0762 35.8935 22.0891 36.0184 21.9879L40.7056 18.1899C41.2702 17.7324 42.1069 17.8657 42.5014 18.4759L45.5511 23.1929L45.9891 23.9238L45.7794 26.4063C45.7649 26.5776 45.612 26.7033 45.4411 26.6843L28.0358 24.7505C27.8704 24.7321 27.75 24.5846 27.7653 24.4188L27.996 21.9137L28.8376 21.4362Z" fill="#BFBFBF" fill-opacity="0.1"/>
<path d="M28.286 9.06351C28.3169 8.76981 28.58 8.55674 28.8737 8.58761L48.0183 10.5998C48.312 10.6307 48.525 10.8938 48.4942 11.1875L46.8014 27.2932C46.7705 27.5869 46.5074 27.8 46.2137 27.7691L27.0691 25.757C26.7754 25.7261 26.5623 25.463 26.5932 25.1693L28.286 9.06351Z" stroke="#C5C5C5" stroke-width="0.76389"/>
<circle cx="32.5933" cy="14.1249" r="1.83334" transform="rotate(6 32.5933 14.1249)" fill="#BFBFBF" fill-opacity="0.4" stroke="#C5C5C5" stroke-width="0.76389"/>
<path d="M28.2228 21.909C29.4255 21.0784 31.8311 19.4172 31.8311 19.4172C32.3303 19.0805 33.0003 19.1575 33.41 19.5986L35.602 21.9584C35.7114 22.0762 35.8933 22.0891 36.0182 21.9879L40.7054 18.19C41.2299 17.765 41.9995 17.8456 42.4245 18.3701C42.4519 18.404 42.4776 18.4393 42.5013 18.476C42.5013 18.476 45.2416 22.8243 45.8819 23.8403" stroke="#C5C5C5" stroke-width="0.76389" stroke-linecap="round"/>
</svg>
