<svg width="163" height="130" viewBox="0 0 163 130" fill="none" xmlns="http://www.w3.org/2000/svg">
<path fill-rule="evenodd" clip-rule="evenodd" d="M41.2001 87.1H100.35C100.685 87.1 101.011 87.0638 101.325 86.9953C101.639 87.0638 101.965 87.1 102.3 87.1H136.1C138.613 87.1 140.65 85.0629 140.65 82.55C140.65 80.0371 138.613 78 136.1 78H132.2C129.687 78 127.65 75.9629 127.65 73.45C127.65 70.9371 129.687 68.9 132.2 68.9H144.55C147.063 68.9 149.1 66.8629 149.1 64.35C149.1 61.8371 147.063 59.8 144.55 59.8H130.25C132.763 59.8 134.8 57.7629 134.8 55.25C134.8 52.7371 132.763 50.7 130.25 50.7H88.6501C91.1629 50.7 93.2001 48.6629 93.2001 46.15C93.2001 43.6371 91.1629 41.6 88.6501 41.6H51.6001C49.0872 41.6 47.0501 43.6371 47.0501 46.15C47.0501 48.6629 49.0872 50.7 51.6001 50.7H25.6C23.0872 50.7 21.05 52.7371 21.05 55.25C21.05 57.7629 23.0872 59.8 25.6 59.8H41.85C44.3629 59.8 46.4001 61.8371 46.4001 64.35C46.4001 66.8629 44.3629 68.9 41.85 68.9H15.85C13.3372 68.9 11.3 70.9371 11.3 73.45C11.3 75.9629 13.3372 78 15.85 78H41.2001C38.6872 78 36.6501 80.0371 36.6501 82.55C36.6501 85.0629 38.6872 87.1 41.2001 87.1ZM147.15 87.1C149.663 87.1 151.7 85.0629 151.7 82.55C151.7 80.0371 149.663 78 147.15 78C144.637 78 142.6 80.0371 142.6 82.55C142.6 85.0629 144.637 87.1 147.15 87.1Z" fill="#BFBFBF" fill-opacity="0.4"/>
<path fill-rule="evenodd" clip-rule="evenodd" d="M56.3315 90.4298L53.6859 90.8016C52.2639 91.0014 50.9492 90.0107 50.7493 88.5888L43.5123 37.0948C43.3125 35.6728 44.3032 34.3581 45.7252 34.1583L96.5754 27.0117C97.9974 26.8119 99.3121 27.8026 99.512 29.2246C99.512 29.2246 99.9747 32.5171 100.134 33.6496" fill="white"/>
<path fill-rule="evenodd" clip-rule="evenodd" d="M57.9731 87.563L55.5708 87.9044C54.2796 88.0879 53.0874 87.1901 52.908 85.8991L46.4112 39.148C46.2318 37.857 47.1331 36.6617 48.4243 36.4782L94.5987 29.9153C95.8899 29.7318 97.082 30.6295 97.2614 31.9205L97.8197 35.938C97.85 36.1554 99.8445 50.585 103.803 79.2269C104.002 80.6652 103.011 81.994 101.588 82.1951C101.573 82.1973 101.558 82.1993 101.543 82.2012L57.9731 87.563Z" fill="#BFBFBF" fill-opacity="0.1"/>
<path d="M56.3315 90.4298L53.6859 90.8016C52.2639 91.0014 50.9492 90.0107 50.7493 88.5888L43.5123 37.0948C43.3125 35.6728 44.3032 34.3581 45.7252 34.1583L96.5754 27.0117C97.9974 26.8119 99.3121 27.8026 99.512 29.2246C99.512 29.2246 99.9747 32.5171 100.134 33.6496" stroke="#C5C5C5" stroke-width="1.625" stroke-linecap="round"/>
<path d="M100.675 36.6467L101 38.675" stroke="#C5C5C5" stroke-width="1.625" stroke-linecap="round"/>
<path d="M65.1342 39.3174C65.2374 38.3356 66.1169 37.6234 67.0987 37.7266L118.167 43.0941C119.149 43.1973 119.861 44.0768 119.758 45.0586L114.323 96.7738C114.22 97.7556 113.34 98.4678 112.358 98.3647L61.2896 92.9971C60.3078 92.8939 59.5955 92.0144 59.6987 91.0326L65.1342 39.3174Z" fill="white" stroke="#C5C5C5" stroke-width="1.625"/>
<path fill-rule="evenodd" clip-rule="evenodd" d="M69.6004 45.0154C69.7129 43.9443 70.6725 43.1673 71.7435 43.2799L112.469 47.5603C113.54 47.6729 114.317 48.6324 114.205 49.7035L110.604 83.9647C110.491 85.0358 109.532 85.8128 108.461 85.7002L67.7349 81.4198C66.6638 81.3072 65.8868 80.3477 65.9994 79.2766L69.6004 45.0154Z" fill="white"/>
<path fill-rule="evenodd" clip-rule="evenodd" d="M71.5817 71.4204L77.9501 67.1252C79.0119 66.409 80.4372 66.5728 81.3089 67.5113L85.9717 72.5312C86.2045 72.7817 86.5915 72.8091 86.8572 72.5939L96.8281 64.5146C98.0292 63.5414 99.809 63.8249 100.648 65.123L107.136 75.1573L108.068 76.712L107.621 81.9931C107.591 82.3575 107.265 82.6248 106.902 82.5844L69.8762 78.4707C69.5241 78.4316 69.2682 78.1178 69.3007 77.7651L69.7914 72.436L71.5817 71.4204Z" fill="#BFBFBF" fill-opacity="0.1"/>
<path d="M70.4084 45.1003C70.4741 44.4755 71.0338 44.0223 71.6586 44.0879L112.384 48.3684C113.009 48.434 113.462 48.9938 113.397 49.6185L109.796 83.8798C109.73 84.5046 109.17 84.9579 108.545 84.8922L67.8198 80.6117C67.195 80.5461 66.7417 79.9864 66.8074 79.3616L70.4084 45.1003Z" stroke="#C5C5C5" stroke-width="1.625"/>
<circle cx="79.5711" cy="55.8672" r="3.9" transform="rotate(6 79.5711 55.8672)" fill="#BFBFBF" fill-opacity="0.4" stroke="#C5C5C5" stroke-width="1.625"/>
<path d="M70.2738 72.4262C72.8325 70.6593 77.9498 67.1254 77.9498 67.1254C79.0117 66.4092 80.4369 66.573 81.3086 67.5115L85.9715 72.5314C86.2042 72.7819 86.5912 72.8093 86.8569 72.594L96.8278 64.5148C97.9435 63.6108 99.5807 63.7824 100.485 64.898C100.543 64.9701 100.598 65.0453 100.648 65.1232C100.648 65.1232 106.478 74.3732 107.84 76.5346" stroke="#C5C5C5" stroke-width="1.625" stroke-linecap="round"/>
</svg>
