<svg width="17" height="16" viewBox="0 0 17 16" fill="none" xmlns="http://www.w3.org/2000/svg">
<path d="M8.27106 13.3925C8.27106 13.3925 8.27102 5.23011 8.271 0C8.0414 0.000719162 7.8202 0.128262 7.71052 0.347624L5.49372 4.84176L0.534735 5.56247C0.398016 5.582 0.273016 5.64645 0.177313 5.74411C0.0616135 5.86303 -0.0021424 6.02301 5.49725e-05 6.18892C0.00225234 6.35482 0.0702232 6.51306 0.189032 6.62887L3.77692 10.1269L2.92927 15.0664C2.90939 15.1813 2.9221 15.2994 2.96597 15.4075C3.00984 15.5155 3.0831 15.6091 3.17745 15.6777C3.2718 15.7462 3.38346 15.7869 3.49977 15.7952C3.61609 15.8035 3.7324 15.779 3.83552 15.7246L8.27106 13.3925Z" fill="#1581BF"/>
<path d="M8.27106 13.3925C8.27106 13.3925 8.27102 5.23011 8.271 0C8.0414 0.000719162 7.8202 0.128262 7.71052 0.347624L5.49372 4.84176L0.534735 5.56247C0.398016 5.582 0.273016 5.64645 0.177313 5.74411C0.0616135 5.86303 -0.0021424 6.02301 5.49725e-05 6.18892C0.00225234 6.35482 0.0702232 6.51306 0.189032 6.62887L3.77692 10.1269L2.92927 15.0664C2.90939 15.1813 2.9221 15.2994 2.96597 15.4075C3.00984 15.5155 3.0831 15.6091 3.17745 15.6777C3.2718 15.7462 3.38346 15.7869 3.49977 15.7952C3.61609 15.8035 3.7324 15.779 3.83552 15.7246L8.27106 13.3925Z" fill="#1581BF"/>
<path d="M5.5 8L5.98507 8.12127L5.98305 8.12935L5.98076 8.13736L5.09109 11.2512L8.23524 12.9514L12.6682 15.282L12.6689 15.2824C12.6894 15.2932 12.7125 15.2981 12.7357 15.2965C12.7588 15.2948 12.781 15.2867 12.7997 15.2731C12.8185 15.2595 12.833 15.2409 12.8418 15.2194C12.8505 15.1979 12.853 15.1744 12.849 15.1516L12.8489 15.1509L12.0013 10.2115L11.9568 9.95241L12.145 9.76891L15.7329 6.27087L15.733 6.27083C15.7569 6.24753 15.7705 6.21568 15.771 6.18229C15.7714 6.1492 15.7588 6.11728 15.7359 6.09342C15.7158 6.07314 15.6911 6.06109 15.6655 6.05744L15.6643 6.05727L10.7054 5.33657L10.4452 5.29875L10.3289 5.06295L8.20627 0.759785C7.776 1.80227 7.27719 3.41235 6.85576 4.88736C6.60699 5.75807 6.38918 6.56705 6.23354 7.1585C6.15574 7.45413 6.09353 7.6952 6.05081 7.8622C6.02945 7.94569 6.01297 8.01066 6.00185 8.05465L5.98925 8.1046L5.98609 8.11721L5.98531 8.12032L5.98512 8.12107L5.98508 8.12124L5.5 8Z" stroke="#1581BF"/>
</svg>
